G04 #@! TF.FileFunction,Legend,Top*
%FSLAX46Y46*%
G04 Gerber Fmt 4.6, Leading zero omitted, Abs format (unit mm)*
G04 Created by KiCad (PCBNEW 4.0.6) date 04/19/17 14:22:56*
%MOMM*%
%LPD*%
G01*
G04 APERTURE LIST*
%ADD10C,0.100000*%
%ADD11C,0.250000*%
%ADD12C,0.120000*%
%ADD13C,0.150000*%
%ADD14C,0.180000*%
%ADD15C,0.075000*%
%ADD16C,0.125000*%
%ADD17C,0.087500*%
%ADD18R,0.900000X1.200000*%
%ADD19R,1.560000X1.860000*%
%ADD20O,0.560000X1.010000*%
%ADD21O,1.010000X0.560000*%
%ADD22R,1.160000X1.160000*%
%ADD23R,1.010000X1.060000*%
%ADD24R,1.060000X1.010000*%
%ADD25R,2.860000X2.260000*%
%ADD26O,2.860000X2.260000*%
%ADD27C,1.403000*%
%ADD28C,6.060000*%
%ADD29C,0.760000*%
%ADD30R,2.260000X2.860000*%
%ADD31O,2.260000X2.860000*%
%ADD32R,1.260000X1.860000*%
%ADD33R,1.860000X1.260000*%
%ADD34R,1.510000X1.480000*%
%ADD35R,1.060000X1.060000*%
%ADD36R,0.960000X0.710000*%
%ADD37R,2.760000X2.260000*%
%ADD38R,2.360000X3.860000*%
%ADD39O,2.360000X3.860000*%
%ADD40R,0.760000X1.160000*%
%ADD41R,1.160000X0.760000*%
%ADD42R,1.200000X0.900000*%
%ADD43R,0.860000X1.560000*%
%ADD44R,1.710000X0.710000*%
%ADD45R,1.260000X0.510000*%
%ADD46R,0.510000X1.260000*%
%ADD47R,2.160000X1.560000*%
%ADD48R,3.060000X1.260000*%
%ADD49R,1.460000X0.960000*%
%ADD50R,1.460000X1.260000*%
%ADD51R,1.460000X0.910000*%
%ADD52R,1.060000X1.260000*%
%ADD53R,0.860000X0.710000*%
%ADD54C,0.910000*%
G04 APERTURE END LIST*
D10*
D11*
X176600309Y-97099075D02*
X176600309Y-92699075D01*
X176560809Y-92699075D02*
X173639809Y-92699075D01*
X173600309Y-92699075D02*
X173600309Y-97099075D01*
X173600309Y-97099075D02*
X176600309Y-97099075D01*
D12*
X155221800Y-80034880D02*
X151521800Y-80034880D01*
X151521800Y-80034880D02*
X151521800Y-85334880D01*
D13*
X154259700Y-72200180D02*
X153759700Y-72200180D01*
X151009700Y-68950180D02*
X151509700Y-68950180D01*
X151009700Y-72200180D02*
X151509700Y-72200180D01*
X154259700Y-68950180D02*
X154259700Y-69450180D01*
X151009700Y-68950180D02*
X151009700Y-69450180D01*
X151009700Y-72200180D02*
X151009700Y-71700180D01*
X154259700Y-72200180D02*
X154259700Y-71700180D01*
D12*
X174407336Y-60587330D02*
X174407336Y-61287330D01*
X173207336Y-61287330D02*
X173207336Y-60587330D01*
D13*
X166862000Y-91109240D02*
X166862000Y-91609240D01*
X163612000Y-94359240D02*
X163612000Y-93859240D01*
X166862000Y-94359240D02*
X166862000Y-93859240D01*
X163612000Y-91109240D02*
X164112000Y-91109240D01*
X163612000Y-94359240D02*
X164112000Y-94359240D01*
X166862000Y-94359240D02*
X166362000Y-94359240D01*
X166862000Y-91109240D02*
X166362000Y-91109240D01*
D12*
X160225000Y-93175000D02*
X160925000Y-93175000D01*
X160925000Y-94375000D02*
X160225000Y-94375000D01*
X190580000Y-71960000D02*
X196580000Y-71960000D01*
X196580000Y-71960000D02*
X196580000Y-61600000D01*
X196580000Y-61600000D02*
X190580000Y-61600000D01*
X190580000Y-61600000D02*
X190580000Y-71960000D01*
X196580000Y-70590000D02*
X195580000Y-70590000D01*
X195580000Y-70590000D02*
X195580000Y-62970000D01*
X195580000Y-62970000D02*
X196580000Y-62970000D01*
X195580000Y-70590000D02*
X195150000Y-70340000D01*
X195150000Y-70340000D02*
X195150000Y-63220000D01*
X195150000Y-63220000D02*
X195580000Y-62970000D01*
X196580000Y-70340000D02*
X195580000Y-70340000D01*
X196580000Y-63220000D02*
X195580000Y-63220000D01*
X190580000Y-71390000D02*
X191200000Y-71390000D01*
X191200000Y-71390000D02*
X191200000Y-69790000D01*
X191200000Y-69790000D02*
X190580000Y-69790000D01*
X190580000Y-68850000D02*
X191200000Y-68850000D01*
X191200000Y-68850000D02*
X191200000Y-67250000D01*
X191200000Y-67250000D02*
X190580000Y-67250000D01*
X190580000Y-66310000D02*
X191200000Y-66310000D01*
X191200000Y-66310000D02*
X191200000Y-64710000D01*
X191200000Y-64710000D02*
X190580000Y-64710000D01*
X190580000Y-63770000D02*
X191200000Y-63770000D01*
X191200000Y-63770000D02*
X191200000Y-62170000D01*
X191200000Y-62170000D02*
X190580000Y-62170000D01*
X179860519Y-62890400D02*
G75*
G03X179860519Y-62890400I-803219J0D01*
G01*
X162779019Y-55118000D02*
G75*
G03X162779019Y-55118000I-803219J0D01*
G01*
X192047800Y-60144600D02*
X192047800Y-54144600D01*
X192047800Y-54144600D02*
X179147800Y-54144600D01*
X179147800Y-54144600D02*
X179147800Y-60144600D01*
X179147800Y-60144600D02*
X192047800Y-60144600D01*
X190677800Y-54144600D02*
X190677800Y-55144600D01*
X190677800Y-55144600D02*
X180517800Y-55144600D01*
X180517800Y-55144600D02*
X180517800Y-54144600D01*
X190677800Y-55144600D02*
X190427800Y-55574600D01*
X190427800Y-55574600D02*
X180767800Y-55574600D01*
X180767800Y-55574600D02*
X180517800Y-55144600D01*
X190427800Y-54144600D02*
X190427800Y-55144600D01*
X180767800Y-54144600D02*
X180767800Y-55144600D01*
X191477800Y-60144600D02*
X191477800Y-59524600D01*
X191477800Y-59524600D02*
X189877800Y-59524600D01*
X189877800Y-59524600D02*
X189877800Y-60144600D01*
X188937800Y-60144600D02*
X188937800Y-59524600D01*
X188937800Y-59524600D02*
X187337800Y-59524600D01*
X187337800Y-59524600D02*
X187337800Y-60144600D01*
X186397800Y-60144600D02*
X186397800Y-59524600D01*
X186397800Y-59524600D02*
X184797800Y-59524600D01*
X184797800Y-59524600D02*
X184797800Y-60144600D01*
X183857800Y-60144600D02*
X183857800Y-59524600D01*
X183857800Y-59524600D02*
X182257800Y-59524600D01*
X182257800Y-59524600D02*
X182257800Y-60144600D01*
X181317800Y-60144600D02*
X181317800Y-59524600D01*
X181317800Y-59524600D02*
X179717800Y-59524600D01*
X179717800Y-59524600D02*
X179717800Y-60144600D01*
X160725000Y-94755000D02*
X158725000Y-94755000D01*
X158725000Y-96795000D02*
X160725000Y-96795000D01*
X168400000Y-92750000D02*
X168400000Y-92050000D01*
X169600000Y-92050000D02*
X169600000Y-92750000D01*
X163162286Y-88425000D02*
X163162286Y-86425000D01*
X161122286Y-86425000D02*
X161122286Y-88425000D01*
X160795000Y-88425000D02*
X160795000Y-86425000D01*
X158755000Y-86425000D02*
X158755000Y-88425000D01*
X172800000Y-86525000D02*
X172800000Y-87225000D01*
X171600000Y-87225000D02*
X171600000Y-86525000D01*
X175975000Y-90050000D02*
X175275000Y-90050000D01*
X175275000Y-88850000D02*
X175975000Y-88850000D01*
X175875000Y-84925000D02*
X175175000Y-84925000D01*
X175175000Y-83725000D02*
X175875000Y-83725000D01*
X174660000Y-91220000D02*
X175360000Y-91220000D01*
X175360000Y-92420000D02*
X174660000Y-92420000D01*
X179020989Y-95756835D02*
X179020989Y-93756835D01*
X176980989Y-93756835D02*
X176980989Y-95756835D01*
X148636600Y-73060900D02*
X148636600Y-72360900D01*
X149836600Y-72360900D02*
X149836600Y-73060900D01*
X148636600Y-70162760D02*
X148636600Y-69462760D01*
X149836600Y-69462760D02*
X149836600Y-70162760D01*
X156497900Y-68885640D02*
X156497900Y-68185640D01*
X157697900Y-68185640D02*
X157697900Y-68885640D01*
X155060260Y-68896500D02*
X155060260Y-68196500D01*
X156260260Y-68196500D02*
X156260260Y-68896500D01*
X148710000Y-77510000D02*
X148710000Y-76810000D01*
X149910000Y-76810000D02*
X149910000Y-77510000D01*
X152863160Y-67328120D02*
X152863160Y-66628120D01*
X154063160Y-66628120D02*
X154063160Y-67328120D01*
X151658540Y-66940580D02*
X150958540Y-66940580D01*
X150958540Y-65740580D02*
X151658540Y-65740580D01*
X151666860Y-68314720D02*
X150966860Y-68314720D01*
X150966860Y-67114720D02*
X151666860Y-67114720D01*
X173179396Y-58267270D02*
X173179396Y-57567270D01*
X174379396Y-57567270D02*
X174379396Y-58267270D01*
X169361816Y-63693790D02*
X168661816Y-63693790D01*
X168661816Y-62493790D02*
X169361816Y-62493790D01*
X167795500Y-66707560D02*
X167795500Y-66007560D01*
X168995500Y-66007560D02*
X168995500Y-66707560D01*
X169268700Y-66712640D02*
X169268700Y-66012640D01*
X170468700Y-66012640D02*
X170468700Y-66712640D01*
X163677256Y-58249490D02*
X163677256Y-57549490D01*
X164877256Y-57549490D02*
X164877256Y-58249490D01*
X164882336Y-60551770D02*
X164882336Y-61251770D01*
X163682336Y-61251770D02*
X163682336Y-60551770D01*
X164823700Y-66712640D02*
X164823700Y-66012640D01*
X166023700Y-66012640D02*
X166023700Y-66712640D01*
X166322300Y-66710800D02*
X166322300Y-66010800D01*
X167522300Y-66010800D02*
X167522300Y-66710800D01*
X157268300Y-81108100D02*
X156568300Y-81108100D01*
X156568300Y-79908100D02*
X157268300Y-79908100D01*
X157270840Y-82482240D02*
X156570840Y-82482240D01*
X156570840Y-81282240D02*
X157270840Y-81282240D01*
X177798000Y-82443500D02*
X177798000Y-81743500D01*
X178998000Y-81743500D02*
X178998000Y-82443500D01*
X156546214Y-73208354D02*
X157246214Y-73208354D01*
X157246214Y-74408354D02*
X156546214Y-74408354D01*
X156546914Y-71811354D02*
X157246914Y-71811354D01*
X157246914Y-73011354D02*
X156546914Y-73011354D01*
X172382740Y-75112420D02*
X172382740Y-74412420D01*
X173582740Y-74412420D02*
X173582740Y-75112420D01*
X184156960Y-67207500D02*
X184156960Y-67907500D01*
X182956960Y-67907500D02*
X182956960Y-67207500D01*
X156560000Y-77140519D02*
X157260000Y-77140519D01*
X157260000Y-78340519D02*
X156560000Y-78340519D01*
X184151880Y-70987020D02*
X184151880Y-71687020D01*
X182951880Y-71687020D02*
X182951880Y-70987020D01*
X161788400Y-66776140D02*
X161788400Y-66076140D01*
X162988400Y-66076140D02*
X162988400Y-66776140D01*
X156560000Y-75753679D02*
X157260000Y-75753679D01*
X157260000Y-76953679D02*
X156560000Y-76953679D01*
X162300000Y-92275000D02*
X162300000Y-90275000D01*
X162300000Y-90275000D02*
X158400000Y-90275000D01*
X162300000Y-92275000D02*
X158400000Y-92275000D01*
X177380000Y-100970000D02*
X177380000Y-98970000D01*
X177380000Y-98970000D02*
X173480000Y-98970000D01*
X177380000Y-100970000D02*
X173480000Y-100970000D01*
X185450100Y-61158500D02*
X184450100Y-61158500D01*
X184450100Y-61158500D02*
X184450100Y-63258500D01*
X185450100Y-61158500D02*
X185450100Y-63258500D01*
X182605300Y-61158700D02*
X181605300Y-61158700D01*
X181605300Y-61158700D02*
X181605300Y-63258700D01*
X182605300Y-61158700D02*
X182605300Y-63258700D01*
X184027700Y-61158600D02*
X183027700Y-61158600D01*
X183027700Y-61158600D02*
X183027700Y-63258600D01*
X184027700Y-61158600D02*
X184027700Y-63258600D01*
X186859800Y-61158700D02*
X185859800Y-61158700D01*
X185859800Y-61158700D02*
X185859800Y-63258700D01*
X186859800Y-61158700D02*
X186859800Y-63258700D01*
X180240480Y-70828700D02*
X180240480Y-70168700D01*
X180240480Y-72488700D02*
X180240480Y-71828700D01*
X180240480Y-72488700D02*
X182270480Y-72488700D01*
X181650480Y-70168700D02*
X180240480Y-70168700D01*
X180256480Y-67023780D02*
X180256480Y-66363780D01*
X180256480Y-68683780D02*
X180256480Y-68023780D01*
X180256480Y-68683780D02*
X182286480Y-68683780D01*
X181666480Y-66363780D02*
X180256480Y-66363780D01*
X167605000Y-85475000D02*
X167605000Y-87475000D01*
X164645000Y-87475000D02*
X164645000Y-85475000D01*
X170295449Y-95916855D02*
X170295449Y-93916855D01*
X173255449Y-93916855D02*
X173255449Y-95916855D01*
X144450000Y-89100000D02*
X144450000Y-101260000D01*
X144450000Y-101260000D02*
X156770000Y-101260000D01*
X156770000Y-101260000D02*
X156770000Y-89100000D01*
X156770000Y-89100000D02*
X144450000Y-89100000D01*
X144450000Y-99760000D02*
X144450000Y-97960000D01*
X144450000Y-97960000D02*
X156770000Y-97960000D01*
X156770000Y-97960000D02*
X156770000Y-99760000D01*
X156770000Y-99760000D02*
X144450000Y-99760000D01*
X147070000Y-101260000D02*
X149070000Y-101260000D01*
X149070000Y-101260000D02*
X148820000Y-99760000D01*
X148820000Y-99760000D02*
X147320000Y-99760000D01*
X147320000Y-99760000D02*
X147070000Y-101260000D01*
X152150000Y-101260000D02*
X154150000Y-101260000D01*
X154150000Y-101260000D02*
X153900000Y-99760000D01*
X153900000Y-99760000D02*
X152400000Y-99760000D01*
X152400000Y-99760000D02*
X152150000Y-101260000D01*
X148370000Y-88300000D02*
X148070000Y-88900000D01*
X148070000Y-88900000D02*
X147770000Y-88300000D01*
X147770000Y-88300000D02*
X148370000Y-88300000D01*
X158695000Y-60144600D02*
X158695000Y-54144600D01*
X158695000Y-54144600D02*
X145795000Y-54144600D01*
X145795000Y-54144600D02*
X145795000Y-60144600D01*
X145795000Y-60144600D02*
X158695000Y-60144600D01*
X157325000Y-54144600D02*
X157325000Y-55144600D01*
X157325000Y-55144600D02*
X147165000Y-55144600D01*
X147165000Y-55144600D02*
X147165000Y-54144600D01*
X157325000Y-55144600D02*
X157075000Y-55574600D01*
X157075000Y-55574600D02*
X147415000Y-55574600D01*
X147415000Y-55574600D02*
X147165000Y-55144600D01*
X157075000Y-54144600D02*
X157075000Y-55144600D01*
X147415000Y-54144600D02*
X147415000Y-55144600D01*
X158125000Y-60144600D02*
X158125000Y-59524600D01*
X158125000Y-59524600D02*
X156525000Y-59524600D01*
X156525000Y-59524600D02*
X156525000Y-60144600D01*
X155585000Y-60144600D02*
X155585000Y-59524600D01*
X155585000Y-59524600D02*
X153985000Y-59524600D01*
X153985000Y-59524600D02*
X153985000Y-60144600D01*
X153045000Y-60144600D02*
X153045000Y-59524600D01*
X153045000Y-59524600D02*
X151445000Y-59524600D01*
X151445000Y-59524600D02*
X151445000Y-60144600D01*
X150505000Y-60144600D02*
X150505000Y-59524600D01*
X150505000Y-59524600D02*
X148905000Y-59524600D01*
X148905000Y-59524600D02*
X148905000Y-60144600D01*
X147965000Y-60144600D02*
X147965000Y-59524600D01*
X147965000Y-59524600D02*
X146365000Y-59524600D01*
X146365000Y-59524600D02*
X146365000Y-60144600D01*
X177460219Y-55270400D02*
G75*
G03X177460219Y-55270400I-803219J0D01*
G01*
X161478219Y-63625000D02*
G75*
G03X161478219Y-63625000I-803219J0D01*
G01*
X178983219Y-76690000D02*
G75*
G03X178983219Y-76690000I-803219J0D01*
G01*
X156653219Y-87200000D02*
G75*
G03X156653219Y-87200000I-803219J0D01*
G01*
X196103219Y-92250000D02*
G75*
G03X196103219Y-92250000I-803219J0D01*
G01*
X144873219Y-58720000D02*
G75*
G03X144873219Y-58720000I-803219J0D01*
G01*
X169803219Y-55475000D02*
G75*
G03X169803219Y-55475000I-803219J0D01*
G01*
X152713219Y-87200000D02*
G75*
G03X152713219Y-87200000I-803219J0D01*
G01*
X170033219Y-88990000D02*
G75*
G03X170033219Y-88990000I-803219J0D01*
G01*
X142328219Y-93150000D02*
G75*
G03X142328219Y-93150000I-803219J0D01*
G01*
X147463219Y-76820000D02*
G75*
G03X147463219Y-76820000I-803219J0D01*
G01*
X149403219Y-80600000D02*
G75*
G03X149403219Y-80600000I-803219J0D01*
G01*
X149403219Y-84000000D02*
G75*
G03X149403219Y-84000000I-803219J0D01*
G01*
X137800000Y-87890000D02*
X143800000Y-87890000D01*
X143800000Y-87890000D02*
X143800000Y-77530000D01*
X143800000Y-77530000D02*
X137800000Y-77530000D01*
X137800000Y-77530000D02*
X137800000Y-87890000D01*
X143800000Y-86520000D02*
X142800000Y-86520000D01*
X142800000Y-86520000D02*
X142800000Y-78900000D01*
X142800000Y-78900000D02*
X143800000Y-78900000D01*
X142800000Y-86520000D02*
X142370000Y-86270000D01*
X142370000Y-86270000D02*
X142370000Y-79150000D01*
X142370000Y-79150000D02*
X142800000Y-78900000D01*
X143800000Y-86270000D02*
X142800000Y-86270000D01*
X143800000Y-79150000D02*
X142800000Y-79150000D01*
X137800000Y-87320000D02*
X138420000Y-87320000D01*
X138420000Y-87320000D02*
X138420000Y-85720000D01*
X138420000Y-85720000D02*
X137800000Y-85720000D01*
X137800000Y-84780000D02*
X138420000Y-84780000D01*
X138420000Y-84780000D02*
X138420000Y-83180000D01*
X138420000Y-83180000D02*
X137800000Y-83180000D01*
X137800000Y-82240000D02*
X138420000Y-82240000D01*
X138420000Y-82240000D02*
X138420000Y-80640000D01*
X138420000Y-80640000D02*
X137800000Y-80640000D01*
X137800000Y-79700000D02*
X138420000Y-79700000D01*
X138420000Y-79700000D02*
X138420000Y-78100000D01*
X138420000Y-78100000D02*
X137800000Y-78100000D01*
X164050000Y-95345000D02*
X165050000Y-95345000D01*
X165050000Y-96705000D02*
X164050000Y-96705000D01*
X166750000Y-95345000D02*
X167750000Y-95345000D01*
X167750000Y-96705000D02*
X166750000Y-96705000D01*
X177530389Y-97227895D02*
X178530389Y-97227895D01*
X178530389Y-98587895D02*
X177530389Y-98587895D01*
X174760000Y-97370000D02*
X175760000Y-97370000D01*
X175760000Y-98730000D02*
X174760000Y-98730000D01*
X147684280Y-74109720D02*
X146684280Y-74109720D01*
X146684280Y-72749720D02*
X147684280Y-72749720D01*
X147681740Y-69679960D02*
X146681740Y-69679960D01*
X146681740Y-68319960D02*
X147681740Y-68319960D01*
X147684280Y-72631440D02*
X146684280Y-72631440D01*
X146684280Y-71271440D02*
X147684280Y-71271440D01*
X147676660Y-71155700D02*
X146676660Y-71155700D01*
X146676660Y-69795700D02*
X147676660Y-69795700D01*
X156405000Y-65325000D02*
X156405000Y-66325000D01*
X155045000Y-66325000D02*
X155045000Y-65325000D01*
X156325000Y-70120000D02*
X157325000Y-70120000D01*
X157325000Y-71480000D02*
X156325000Y-71480000D01*
X175291076Y-60988850D02*
X176291076Y-60988850D01*
X176291076Y-62348850D02*
X175291076Y-62348850D01*
X176293616Y-60873110D02*
X175293616Y-60873110D01*
X175293616Y-59513110D02*
X176293616Y-59513110D01*
X175283456Y-56520990D02*
X176283456Y-56520990D01*
X176283456Y-57880990D02*
X175283456Y-57880990D01*
X176283456Y-59351650D02*
X175283456Y-59351650D01*
X175283456Y-57991650D02*
X176283456Y-57991650D01*
X162760496Y-57878450D02*
X161760496Y-57878450D01*
X161760496Y-56518450D02*
X162760496Y-56518450D01*
X161760496Y-57996730D02*
X162760496Y-57996730D01*
X162760496Y-59356730D02*
X161760496Y-59356730D01*
X162796056Y-62333610D02*
X161796056Y-62333610D01*
X161796056Y-60973610D02*
X162796056Y-60973610D01*
X161801136Y-59490250D02*
X162801136Y-59490250D01*
X162801136Y-60850250D02*
X161801136Y-60850250D01*
X175354300Y-69768000D02*
X174354300Y-69768000D01*
X174354300Y-68408000D02*
X175354300Y-68408000D01*
X175354300Y-66770800D02*
X174354300Y-66770800D01*
X174354300Y-65410800D02*
X175354300Y-65410800D01*
X175354300Y-68269400D02*
X174354300Y-68269400D01*
X174354300Y-66909400D02*
X175354300Y-66909400D01*
X175353600Y-71279300D02*
X174353600Y-71279300D01*
X174353600Y-69919300D02*
X175353600Y-69919300D01*
X146205000Y-84850000D02*
X146205000Y-85850000D01*
X144845000Y-85850000D02*
X144845000Y-84850000D01*
X144835000Y-80540000D02*
X144835000Y-79540000D01*
X146195000Y-79540000D02*
X146195000Y-80540000D01*
X177580000Y-79325000D02*
X177580000Y-80325000D01*
X176220000Y-80325000D02*
X176220000Y-79325000D01*
X186879600Y-68244420D02*
X185879600Y-68244420D01*
X185879600Y-66884420D02*
X186879600Y-66884420D01*
X186879600Y-72029020D02*
X185879600Y-72029020D01*
X185879600Y-70669020D02*
X186879600Y-70669020D01*
X159914820Y-66439560D02*
X160914820Y-66439560D01*
X160914820Y-67799560D02*
X159914820Y-67799560D01*
X172015176Y-62472210D02*
X173015176Y-62472210D01*
X173015176Y-63832210D02*
X172015176Y-63832210D01*
X172149096Y-54969050D02*
X173149096Y-54969050D01*
X173149096Y-56329050D02*
X172149096Y-56329050D01*
X165854216Y-56313810D02*
X164854216Y-56313810D01*
X164854216Y-54953810D02*
X165854216Y-54953810D01*
X166025000Y-63930000D02*
X165025000Y-63930000D01*
X165025000Y-62570000D02*
X166025000Y-62570000D01*
D11*
X173209000Y-88417080D02*
X177609000Y-88417080D01*
X177609000Y-88377580D02*
X177609000Y-85456580D01*
X177609000Y-85417080D02*
X173209000Y-85417080D01*
X173209000Y-85417080D02*
X173209000Y-88417080D01*
D12*
X153448960Y-75983300D02*
X152518960Y-75983300D01*
X150288960Y-75983300D02*
X151218960Y-75983300D01*
X150288960Y-75983300D02*
X150288960Y-78143300D01*
X153448960Y-75983300D02*
X153448960Y-77443300D01*
D13*
X171359676Y-62134850D02*
X171359676Y-62009850D01*
X166709676Y-62134850D02*
X166709676Y-61909850D01*
X166709676Y-56884850D02*
X166709676Y-57109850D01*
X171359676Y-56884850D02*
X171359676Y-57109850D01*
X171359676Y-62134850D02*
X166709676Y-62134850D01*
X171359676Y-56884850D02*
X166709676Y-56884850D01*
X171359676Y-62009850D02*
X172709676Y-62009850D01*
X160581200Y-69615680D02*
X160581200Y-70615680D01*
X170931200Y-69615680D02*
X170931200Y-70690680D01*
X170931200Y-79965680D02*
X170931200Y-78890680D01*
X160581200Y-79965680D02*
X160581200Y-78890680D01*
X160581200Y-69615680D02*
X161656200Y-69615680D01*
X160581200Y-79965680D02*
X161656200Y-79965680D01*
X170931200Y-79965680D02*
X169856200Y-79965680D01*
X170931200Y-69615680D02*
X169856200Y-69615680D01*
X160581200Y-70615680D02*
X159556200Y-70615680D01*
D14*
X196325000Y-84400000D02*
X196325000Y-77900000D01*
X196475000Y-84400000D02*
X196325000Y-84400000D01*
X196675000Y-84600000D02*
X196475000Y-84400000D01*
X196675000Y-84600000D02*
X196675000Y-86350000D01*
X196325000Y-77900000D02*
X196675000Y-77400000D01*
X196675000Y-77400000D02*
X196675000Y-75200000D01*
X184125000Y-87400000D02*
X180525000Y-87400000D01*
X190525000Y-87400000D02*
X185725000Y-87400000D01*
X193675000Y-87400000D02*
X191725000Y-87400000D01*
X180525000Y-87400000D02*
X180525000Y-86900000D01*
X180525000Y-73550000D02*
X180525000Y-75450000D01*
X194575000Y-73550000D02*
X180525000Y-73550000D01*
X196475000Y-75000000D02*
X196475000Y-74650000D01*
X196475000Y-86550000D02*
X196675000Y-86350000D01*
X196475000Y-75000000D02*
X196675000Y-75200000D01*
D12*
X179880000Y-89100000D02*
X179880000Y-101260000D01*
X179880000Y-101260000D02*
X192200000Y-101260000D01*
X192200000Y-101260000D02*
X192200000Y-89100000D01*
X192200000Y-89100000D02*
X179880000Y-89100000D01*
X179880000Y-99760000D02*
X179880000Y-97960000D01*
X179880000Y-97960000D02*
X192200000Y-97960000D01*
X192200000Y-97960000D02*
X192200000Y-99760000D01*
X192200000Y-99760000D02*
X179880000Y-99760000D01*
X182500000Y-101260000D02*
X184500000Y-101260000D01*
X184500000Y-101260000D02*
X184250000Y-99760000D01*
X184250000Y-99760000D02*
X182750000Y-99760000D01*
X182750000Y-99760000D02*
X182500000Y-101260000D01*
X187580000Y-101260000D02*
X189580000Y-101260000D01*
X189580000Y-101260000D02*
X189330000Y-99760000D01*
X189330000Y-99760000D02*
X187830000Y-99760000D01*
X187830000Y-99760000D02*
X187580000Y-101260000D01*
X183800000Y-88300000D02*
X183500000Y-88900000D01*
X183500000Y-88900000D02*
X183200000Y-88300000D01*
X183200000Y-88300000D02*
X183800000Y-88300000D01*
X137810000Y-76020000D02*
X143810000Y-76020000D01*
X143810000Y-76020000D02*
X143810000Y-60580000D01*
X143810000Y-60580000D02*
X137810000Y-60580000D01*
X137810000Y-60580000D02*
X137810000Y-76020000D01*
X143810000Y-74650000D02*
X142810000Y-74650000D01*
X142810000Y-74650000D02*
X142810000Y-61950000D01*
X142810000Y-61950000D02*
X143810000Y-61950000D01*
X142810000Y-74650000D02*
X142380000Y-74400000D01*
X142380000Y-74400000D02*
X142380000Y-62200000D01*
X142380000Y-62200000D02*
X142810000Y-61950000D01*
X143810000Y-74400000D02*
X142810000Y-74400000D01*
X143810000Y-62200000D02*
X142810000Y-62200000D01*
X137810000Y-75450000D02*
X138430000Y-75450000D01*
X138430000Y-75450000D02*
X138430000Y-73850000D01*
X138430000Y-73850000D02*
X137810000Y-73850000D01*
X137810000Y-72910000D02*
X138430000Y-72910000D01*
X138430000Y-72910000D02*
X138430000Y-71310000D01*
X138430000Y-71310000D02*
X137810000Y-71310000D01*
X137810000Y-70370000D02*
X138430000Y-70370000D01*
X138430000Y-70370000D02*
X138430000Y-68770000D01*
X138430000Y-68770000D02*
X137810000Y-68770000D01*
X137810000Y-67830000D02*
X138430000Y-67830000D01*
X138430000Y-67830000D02*
X138430000Y-66230000D01*
X138430000Y-66230000D02*
X137810000Y-66230000D01*
X137810000Y-65290000D02*
X138430000Y-65290000D01*
X138430000Y-65290000D02*
X138430000Y-63690000D01*
X138430000Y-63690000D02*
X137810000Y-63690000D01*
X137810000Y-62750000D02*
X138430000Y-62750000D01*
X138430000Y-62750000D02*
X138430000Y-61150000D01*
X138430000Y-61150000D02*
X137810000Y-61150000D01*
X155300000Y-76550000D02*
X155300000Y-77550000D01*
X153940000Y-77550000D02*
X153940000Y-76550000D01*
X166630000Y-100810000D02*
X166630000Y-99110000D01*
X166630000Y-99110000D02*
X164080000Y-99110000D01*
X166630000Y-100810000D02*
X164080000Y-100810000D01*
X167060000Y-98990000D02*
X167060000Y-100990000D01*
X167060000Y-100990000D02*
X170960000Y-100990000D01*
X167060000Y-98990000D02*
X170960000Y-98990000D01*
X164048031Y-96994535D02*
X165048031Y-96994535D01*
X165048031Y-98354535D02*
X164048031Y-98354535D01*
X166788031Y-96994535D02*
X167788031Y-96994535D01*
X167788031Y-98354535D02*
X166788031Y-98354535D01*
D15*
X176605238Y-91880952D02*
X176605238Y-92204762D01*
X176624286Y-92242857D01*
X176643333Y-92261905D01*
X176681429Y-92280952D01*
X176757619Y-92280952D01*
X176795714Y-92261905D01*
X176814762Y-92242857D01*
X176833810Y-92204762D01*
X176833810Y-91880952D01*
X176986191Y-91880952D02*
X177233810Y-91880952D01*
X177100477Y-92033333D01*
X177157619Y-92033333D01*
X177195715Y-92052381D01*
X177214762Y-92071429D01*
X177233810Y-92109524D01*
X177233810Y-92204762D01*
X177214762Y-92242857D01*
X177195715Y-92261905D01*
X177157619Y-92280952D01*
X177043334Y-92280952D01*
X177005238Y-92261905D01*
X176986191Y-92242857D01*
D13*
X173200309Y-96351456D02*
X173200309Y-96589551D01*
X172962214Y-96494313D02*
X173200309Y-96589551D01*
X173438405Y-96494313D01*
X173057452Y-96780027D02*
X173200309Y-96589551D01*
X173343167Y-96780027D01*
D16*
X151038095Y-82922974D02*
X151276190Y-82922974D01*
X150776190Y-83089641D02*
X151038095Y-82922974D01*
X150776190Y-82756308D01*
X151276190Y-82327737D02*
X151276190Y-82613451D01*
X151276190Y-82470594D02*
X150776190Y-82470594D01*
X150847619Y-82518213D01*
X150895238Y-82565832D01*
X150919048Y-82613451D01*
X153259048Y-72816190D02*
X153259048Y-73220952D01*
X153282857Y-73268571D01*
X153306667Y-73292381D01*
X153354286Y-73316190D01*
X153449524Y-73316190D01*
X153497143Y-73292381D01*
X153520952Y-73268571D01*
X153544762Y-73220952D01*
X153544762Y-72816190D01*
X153997143Y-72982857D02*
X153997143Y-73316190D01*
X153878096Y-72792381D02*
X153759048Y-73149524D01*
X154068572Y-73149524D01*
D10*
X174982857Y-63907142D02*
X175001905Y-63926190D01*
X175020952Y-63983333D01*
X175020952Y-64021428D01*
X175001905Y-64078571D01*
X174963810Y-64116666D01*
X174925714Y-64135714D01*
X174849524Y-64154762D01*
X174792381Y-64154762D01*
X174716190Y-64135714D01*
X174678095Y-64116666D01*
X174640000Y-64078571D01*
X174620952Y-64021428D01*
X174620952Y-63983333D01*
X174640000Y-63926190D01*
X174659048Y-63907142D01*
X175020952Y-63526190D02*
X175020952Y-63754762D01*
X175020952Y-63640476D02*
X174620952Y-63640476D01*
X174678095Y-63678571D01*
X174716190Y-63716666D01*
X174735238Y-63754762D01*
X174792381Y-63297619D02*
X174773333Y-63335714D01*
X174754286Y-63354762D01*
X174716190Y-63373810D01*
X174697143Y-63373810D01*
X174659048Y-63354762D01*
X174640000Y-63335714D01*
X174620952Y-63297619D01*
X174620952Y-63221429D01*
X174640000Y-63183333D01*
X174659048Y-63164286D01*
X174697143Y-63145238D01*
X174716190Y-63145238D01*
X174754286Y-63164286D01*
X174773333Y-63183333D01*
X174792381Y-63221429D01*
X174792381Y-63297619D01*
X174811429Y-63335714D01*
X174830476Y-63354762D01*
X174868571Y-63373810D01*
X174944762Y-63373810D01*
X174982857Y-63354762D01*
X175001905Y-63335714D01*
X175020952Y-63297619D01*
X175020952Y-63221429D01*
X175001905Y-63183333D01*
X174982857Y-63164286D01*
X174944762Y-63145238D01*
X174868571Y-63145238D01*
X174830476Y-63164286D01*
X174811429Y-63183333D01*
X174792381Y-63221429D01*
D16*
X164869048Y-89951190D02*
X164869048Y-90355952D01*
X164892857Y-90403571D01*
X164916667Y-90427381D01*
X164964286Y-90451190D01*
X165059524Y-90451190D01*
X165107143Y-90427381D01*
X165130952Y-90403571D01*
X165154762Y-90355952D01*
X165154762Y-89951190D01*
X165654762Y-90451190D02*
X165369048Y-90451190D01*
X165511905Y-90451190D02*
X165511905Y-89951190D01*
X165464286Y-90022619D01*
X165416667Y-90070238D01*
X165369048Y-90094048D01*
X158903571Y-94071428D02*
X158927381Y-94095238D01*
X158951190Y-94166666D01*
X158951190Y-94214285D01*
X158927381Y-94285714D01*
X158879762Y-94333333D01*
X158832143Y-94357142D01*
X158736905Y-94380952D01*
X158665476Y-94380952D01*
X158570238Y-94357142D01*
X158522619Y-94333333D01*
X158475000Y-94285714D01*
X158451190Y-94214285D01*
X158451190Y-94166666D01*
X158475000Y-94095238D01*
X158498810Y-94071428D01*
X158451190Y-93904761D02*
X158451190Y-93595238D01*
X158641667Y-93761904D01*
X158641667Y-93690476D01*
X158665476Y-93642857D01*
X158689286Y-93619047D01*
X158736905Y-93595238D01*
X158855952Y-93595238D01*
X158903571Y-93619047D01*
X158927381Y-93642857D01*
X158951190Y-93690476D01*
X158951190Y-93833333D01*
X158927381Y-93880952D01*
X158903571Y-93904761D01*
X158665476Y-93309524D02*
X158641667Y-93357143D01*
X158617857Y-93380952D01*
X158570238Y-93404762D01*
X158546429Y-93404762D01*
X158498810Y-93380952D01*
X158475000Y-93357143D01*
X158451190Y-93309524D01*
X158451190Y-93214286D01*
X158475000Y-93166667D01*
X158498810Y-93142857D01*
X158546429Y-93119048D01*
X158570238Y-93119048D01*
X158617857Y-93142857D01*
X158641667Y-93166667D01*
X158665476Y-93214286D01*
X158665476Y-93309524D01*
X158689286Y-93357143D01*
X158713095Y-93380952D01*
X158760714Y-93404762D01*
X158855952Y-93404762D01*
X158903571Y-93380952D01*
X158927381Y-93357143D01*
X158951190Y-93309524D01*
X158951190Y-93214286D01*
X158927381Y-93166667D01*
X158903571Y-93142857D01*
X158855952Y-93119048D01*
X158760714Y-93119048D01*
X158713095Y-93142857D01*
X158689286Y-93166667D01*
X158665476Y-93214286D01*
X197530953Y-66551190D02*
X197530953Y-66051190D01*
X197721429Y-66051190D01*
X197769048Y-66075000D01*
X197792857Y-66098810D01*
X197816667Y-66146429D01*
X197816667Y-66217857D01*
X197792857Y-66265476D01*
X197769048Y-66289286D01*
X197721429Y-66313095D01*
X197530953Y-66313095D01*
X198245238Y-66051190D02*
X198150000Y-66051190D01*
X198102381Y-66075000D01*
X198078572Y-66098810D01*
X198030953Y-66170238D01*
X198007143Y-66265476D01*
X198007143Y-66455952D01*
X198030953Y-66503571D01*
X198054762Y-66527381D01*
X198102381Y-66551190D01*
X198197619Y-66551190D01*
X198245238Y-66527381D01*
X198269048Y-66503571D01*
X198292857Y-66455952D01*
X198292857Y-66336905D01*
X198269048Y-66289286D01*
X198245238Y-66265476D01*
X198197619Y-66241667D01*
X198102381Y-66241667D01*
X198054762Y-66265476D01*
X198030953Y-66289286D01*
X198007143Y-66336905D01*
X178027382Y-64508333D02*
X178265477Y-64508333D01*
X177979763Y-64651190D02*
X178146430Y-64151190D01*
X178313096Y-64651190D01*
X178479763Y-64651190D02*
X178479763Y-64151190D01*
X178598810Y-64151190D01*
X178670239Y-64175000D01*
X178717858Y-64222619D01*
X178741667Y-64270238D01*
X178765477Y-64365476D01*
X178765477Y-64436905D01*
X178741667Y-64532143D01*
X178717858Y-64579762D01*
X178670239Y-64627381D01*
X178598810Y-64651190D01*
X178479763Y-64651190D01*
X179265477Y-64603571D02*
X179241667Y-64627381D01*
X179170239Y-64651190D01*
X179122620Y-64651190D01*
X179051191Y-64627381D01*
X179003572Y-64579762D01*
X178979763Y-64532143D01*
X178955953Y-64436905D01*
X178955953Y-64365476D01*
X178979763Y-64270238D01*
X179003572Y-64222619D01*
X179051191Y-64175000D01*
X179122620Y-64151190D01*
X179170239Y-64151190D01*
X179241667Y-64175000D01*
X179265477Y-64198810D01*
X179360715Y-64698810D02*
X179741667Y-64698810D01*
X180122619Y-64651190D02*
X179836905Y-64651190D01*
X179979762Y-64651190D02*
X179979762Y-64151190D01*
X179932143Y-64222619D01*
X179884524Y-64270238D01*
X179836905Y-64294048D01*
X160928182Y-53601333D02*
X161166277Y-53601333D01*
X160880563Y-53744190D02*
X161047230Y-53244190D01*
X161213896Y-53744190D01*
X161380563Y-53744190D02*
X161380563Y-53244190D01*
X161499610Y-53244190D01*
X161571039Y-53268000D01*
X161618658Y-53315619D01*
X161642467Y-53363238D01*
X161666277Y-53458476D01*
X161666277Y-53529905D01*
X161642467Y-53625143D01*
X161618658Y-53672762D01*
X161571039Y-53720381D01*
X161499610Y-53744190D01*
X161380563Y-53744190D01*
X162166277Y-53696571D02*
X162142467Y-53720381D01*
X162071039Y-53744190D01*
X162023420Y-53744190D01*
X161951991Y-53720381D01*
X161904372Y-53672762D01*
X161880563Y-53625143D01*
X161856753Y-53529905D01*
X161856753Y-53458476D01*
X161880563Y-53363238D01*
X161904372Y-53315619D01*
X161951991Y-53268000D01*
X162023420Y-53244190D01*
X162071039Y-53244190D01*
X162142467Y-53268000D01*
X162166277Y-53291810D01*
X162261515Y-53791810D02*
X162642467Y-53791810D01*
X162737705Y-53291810D02*
X162761515Y-53268000D01*
X162809134Y-53244190D01*
X162928181Y-53244190D01*
X162975800Y-53268000D01*
X162999610Y-53291810D01*
X163023419Y-53339429D01*
X163023419Y-53387048D01*
X162999610Y-53458476D01*
X162713896Y-53744190D01*
X163023419Y-53744190D01*
X139833334Y-101316190D02*
X139666667Y-101078095D01*
X139547620Y-101316190D02*
X139547620Y-100816190D01*
X139738096Y-100816190D01*
X139785715Y-100840000D01*
X139809524Y-100863810D01*
X139833334Y-100911429D01*
X139833334Y-100982857D01*
X139809524Y-101030476D01*
X139785715Y-101054286D01*
X139738096Y-101078095D01*
X139547620Y-101078095D01*
X140047620Y-101054286D02*
X140214286Y-101054286D01*
X140285715Y-101316190D02*
X140047620Y-101316190D01*
X140047620Y-100816190D01*
X140285715Y-100816190D01*
X140666667Y-101054286D02*
X140500001Y-101054286D01*
X140500001Y-101316190D02*
X140500001Y-100816190D01*
X140738096Y-100816190D01*
X141000000Y-100816190D02*
X141000000Y-100935238D01*
X140880953Y-100887619D02*
X141000000Y-100935238D01*
X141119048Y-100887619D01*
X140928572Y-101030476D02*
X141000000Y-100935238D01*
X141071429Y-101030476D01*
X141380952Y-100816190D02*
X141380952Y-100935238D01*
X141261905Y-100887619D02*
X141380952Y-100935238D01*
X141500000Y-100887619D01*
X141309524Y-101030476D02*
X141380952Y-100935238D01*
X141452381Y-101030476D01*
X139833334Y-58966190D02*
X139666667Y-58728095D01*
X139547620Y-58966190D02*
X139547620Y-58466190D01*
X139738096Y-58466190D01*
X139785715Y-58490000D01*
X139809524Y-58513810D01*
X139833334Y-58561429D01*
X139833334Y-58632857D01*
X139809524Y-58680476D01*
X139785715Y-58704286D01*
X139738096Y-58728095D01*
X139547620Y-58728095D01*
X140047620Y-58704286D02*
X140214286Y-58704286D01*
X140285715Y-58966190D02*
X140047620Y-58966190D01*
X140047620Y-58466190D01*
X140285715Y-58466190D01*
X140666667Y-58704286D02*
X140500001Y-58704286D01*
X140500001Y-58966190D02*
X140500001Y-58466190D01*
X140738096Y-58466190D01*
X141000000Y-58466190D02*
X141000000Y-58585238D01*
X140880953Y-58537619D02*
X141000000Y-58585238D01*
X141119048Y-58537619D01*
X140928572Y-58680476D02*
X141000000Y-58585238D01*
X141071429Y-58680476D01*
X141380952Y-58466190D02*
X141380952Y-58585238D01*
X141261905Y-58537619D02*
X141380952Y-58585238D01*
X141500000Y-58537619D01*
X141309524Y-58680476D02*
X141380952Y-58585238D01*
X141452381Y-58680476D01*
X195163334Y-101316190D02*
X194996667Y-101078095D01*
X194877620Y-101316190D02*
X194877620Y-100816190D01*
X195068096Y-100816190D01*
X195115715Y-100840000D01*
X195139524Y-100863810D01*
X195163334Y-100911429D01*
X195163334Y-100982857D01*
X195139524Y-101030476D01*
X195115715Y-101054286D01*
X195068096Y-101078095D01*
X194877620Y-101078095D01*
X195377620Y-101054286D02*
X195544286Y-101054286D01*
X195615715Y-101316190D02*
X195377620Y-101316190D01*
X195377620Y-100816190D01*
X195615715Y-100816190D01*
X195996667Y-101054286D02*
X195830001Y-101054286D01*
X195830001Y-101316190D02*
X195830001Y-100816190D01*
X196068096Y-100816190D01*
X196330000Y-100816190D02*
X196330000Y-100935238D01*
X196210953Y-100887619D02*
X196330000Y-100935238D01*
X196449048Y-100887619D01*
X196258572Y-101030476D02*
X196330000Y-100935238D01*
X196401429Y-101030476D01*
X196710952Y-100816190D02*
X196710952Y-100935238D01*
X196591905Y-100887619D02*
X196710952Y-100935238D01*
X196830000Y-100887619D01*
X196639524Y-101030476D02*
X196710952Y-100935238D01*
X196782381Y-101030476D01*
X192880953Y-59376190D02*
X192880953Y-58876190D01*
X193071429Y-58876190D01*
X193119048Y-58900000D01*
X193142857Y-58923810D01*
X193166667Y-58971429D01*
X193166667Y-59042857D01*
X193142857Y-59090476D01*
X193119048Y-59114286D01*
X193071429Y-59138095D01*
X192880953Y-59138095D01*
X193357143Y-58923810D02*
X193380953Y-58900000D01*
X193428572Y-58876190D01*
X193547619Y-58876190D01*
X193595238Y-58900000D01*
X193619048Y-58923810D01*
X193642857Y-58971429D01*
X193642857Y-59019048D01*
X193619048Y-59090476D01*
X193333334Y-59376190D01*
X193642857Y-59376190D01*
X159641667Y-97653571D02*
X159617857Y-97677381D01*
X159546429Y-97701190D01*
X159498810Y-97701190D01*
X159427381Y-97677381D01*
X159379762Y-97629762D01*
X159355953Y-97582143D01*
X159332143Y-97486905D01*
X159332143Y-97415476D01*
X159355953Y-97320238D01*
X159379762Y-97272619D01*
X159427381Y-97225000D01*
X159498810Y-97201190D01*
X159546429Y-97201190D01*
X159617857Y-97225000D01*
X159641667Y-97248810D01*
X160117857Y-97701190D02*
X159832143Y-97701190D01*
X159975000Y-97701190D02*
X159975000Y-97201190D01*
X159927381Y-97272619D01*
X159879762Y-97320238D01*
X159832143Y-97344048D01*
X168926667Y-94418571D02*
X168902857Y-94442381D01*
X168831429Y-94466190D01*
X168783810Y-94466190D01*
X168712381Y-94442381D01*
X168664762Y-94394762D01*
X168640953Y-94347143D01*
X168617143Y-94251905D01*
X168617143Y-94180476D01*
X168640953Y-94085238D01*
X168664762Y-94037619D01*
X168712381Y-93990000D01*
X168783810Y-93966190D01*
X168831429Y-93966190D01*
X168902857Y-93990000D01*
X168926667Y-94013810D01*
X169117143Y-94013810D02*
X169140953Y-93990000D01*
X169188572Y-93966190D01*
X169307619Y-93966190D01*
X169355238Y-93990000D01*
X169379048Y-94013810D01*
X169402857Y-94061429D01*
X169402857Y-94109048D01*
X169379048Y-94180476D01*
X169093334Y-94466190D01*
X169402857Y-94466190D01*
X162066667Y-84628571D02*
X162042857Y-84652381D01*
X161971429Y-84676190D01*
X161923810Y-84676190D01*
X161852381Y-84652381D01*
X161804762Y-84604762D01*
X161780953Y-84557143D01*
X161757143Y-84461905D01*
X161757143Y-84390476D01*
X161780953Y-84295238D01*
X161804762Y-84247619D01*
X161852381Y-84200000D01*
X161923810Y-84176190D01*
X161971429Y-84176190D01*
X162042857Y-84200000D01*
X162066667Y-84223810D01*
X162233334Y-84176190D02*
X162542857Y-84176190D01*
X162376191Y-84366667D01*
X162447619Y-84366667D01*
X162495238Y-84390476D01*
X162519048Y-84414286D01*
X162542857Y-84461905D01*
X162542857Y-84580952D01*
X162519048Y-84628571D01*
X162495238Y-84652381D01*
X162447619Y-84676190D01*
X162304762Y-84676190D01*
X162257143Y-84652381D01*
X162233334Y-84628571D01*
X159691667Y-84628571D02*
X159667857Y-84652381D01*
X159596429Y-84676190D01*
X159548810Y-84676190D01*
X159477381Y-84652381D01*
X159429762Y-84604762D01*
X159405953Y-84557143D01*
X159382143Y-84461905D01*
X159382143Y-84390476D01*
X159405953Y-84295238D01*
X159429762Y-84247619D01*
X159477381Y-84200000D01*
X159548810Y-84176190D01*
X159596429Y-84176190D01*
X159667857Y-84200000D01*
X159691667Y-84223810D01*
X160120238Y-84342857D02*
X160120238Y-84676190D01*
X160001191Y-84152381D02*
X159882143Y-84509524D01*
X160191667Y-84509524D01*
X172141667Y-85253571D02*
X172117857Y-85277381D01*
X172046429Y-85301190D01*
X171998810Y-85301190D01*
X171927381Y-85277381D01*
X171879762Y-85229762D01*
X171855953Y-85182143D01*
X171832143Y-85086905D01*
X171832143Y-85015476D01*
X171855953Y-84920238D01*
X171879762Y-84872619D01*
X171927381Y-84825000D01*
X171998810Y-84801190D01*
X172046429Y-84801190D01*
X172117857Y-84825000D01*
X172141667Y-84848810D01*
X172594048Y-84801190D02*
X172355953Y-84801190D01*
X172332143Y-85039286D01*
X172355953Y-85015476D01*
X172403572Y-84991667D01*
X172522619Y-84991667D01*
X172570238Y-85015476D01*
X172594048Y-85039286D01*
X172617857Y-85086905D01*
X172617857Y-85205952D01*
X172594048Y-85253571D01*
X172570238Y-85277381D01*
X172522619Y-85301190D01*
X172403572Y-85301190D01*
X172355953Y-85277381D01*
X172332143Y-85253571D01*
X173466667Y-89628571D02*
X173442857Y-89652381D01*
X173371429Y-89676190D01*
X173323810Y-89676190D01*
X173252381Y-89652381D01*
X173204762Y-89604762D01*
X173180953Y-89557143D01*
X173157143Y-89461905D01*
X173157143Y-89390476D01*
X173180953Y-89295238D01*
X173204762Y-89247619D01*
X173252381Y-89200000D01*
X173323810Y-89176190D01*
X173371429Y-89176190D01*
X173442857Y-89200000D01*
X173466667Y-89223810D01*
X173895238Y-89176190D02*
X173800000Y-89176190D01*
X173752381Y-89200000D01*
X173728572Y-89223810D01*
X173680953Y-89295238D01*
X173657143Y-89390476D01*
X173657143Y-89580952D01*
X173680953Y-89628571D01*
X173704762Y-89652381D01*
X173752381Y-89676190D01*
X173847619Y-89676190D01*
X173895238Y-89652381D01*
X173919048Y-89628571D01*
X173942857Y-89580952D01*
X173942857Y-89461905D01*
X173919048Y-89414286D01*
X173895238Y-89390476D01*
X173847619Y-89366667D01*
X173752381Y-89366667D01*
X173704762Y-89390476D01*
X173680953Y-89414286D01*
X173657143Y-89461905D01*
X175416667Y-83378571D02*
X175392857Y-83402381D01*
X175321429Y-83426190D01*
X175273810Y-83426190D01*
X175202381Y-83402381D01*
X175154762Y-83354762D01*
X175130953Y-83307143D01*
X175107143Y-83211905D01*
X175107143Y-83140476D01*
X175130953Y-83045238D01*
X175154762Y-82997619D01*
X175202381Y-82950000D01*
X175273810Y-82926190D01*
X175321429Y-82926190D01*
X175392857Y-82950000D01*
X175416667Y-82973810D01*
X175583334Y-82926190D02*
X175916667Y-82926190D01*
X175702381Y-83426190D01*
X174926078Y-90998836D02*
X174902268Y-91022646D01*
X174830840Y-91046455D01*
X174783221Y-91046455D01*
X174711792Y-91022646D01*
X174664173Y-90975027D01*
X174640364Y-90927408D01*
X174616554Y-90832170D01*
X174616554Y-90760741D01*
X174640364Y-90665503D01*
X174664173Y-90617884D01*
X174711792Y-90570265D01*
X174783221Y-90546455D01*
X174830840Y-90546455D01*
X174902268Y-90570265D01*
X174926078Y-90594075D01*
X175211792Y-90760741D02*
X175164173Y-90736932D01*
X175140364Y-90713122D01*
X175116554Y-90665503D01*
X175116554Y-90641694D01*
X175140364Y-90594075D01*
X175164173Y-90570265D01*
X175211792Y-90546455D01*
X175307030Y-90546455D01*
X175354649Y-90570265D01*
X175378459Y-90594075D01*
X175402268Y-90641694D01*
X175402268Y-90665503D01*
X175378459Y-90713122D01*
X175354649Y-90736932D01*
X175307030Y-90760741D01*
X175211792Y-90760741D01*
X175164173Y-90784551D01*
X175140364Y-90808360D01*
X175116554Y-90855979D01*
X175116554Y-90951217D01*
X175140364Y-90998836D01*
X175164173Y-91022646D01*
X175211792Y-91046455D01*
X175307030Y-91046455D01*
X175354649Y-91022646D01*
X175378459Y-90998836D01*
X175402268Y-90951217D01*
X175402268Y-90855979D01*
X175378459Y-90808360D01*
X175354649Y-90784551D01*
X175307030Y-90760741D01*
X177966667Y-92253571D02*
X177942857Y-92277381D01*
X177871429Y-92301190D01*
X177823810Y-92301190D01*
X177752381Y-92277381D01*
X177704762Y-92229762D01*
X177680953Y-92182143D01*
X177657143Y-92086905D01*
X177657143Y-92015476D01*
X177680953Y-91920238D01*
X177704762Y-91872619D01*
X177752381Y-91825000D01*
X177823810Y-91801190D01*
X177871429Y-91801190D01*
X177942857Y-91825000D01*
X177966667Y-91848810D01*
X178204762Y-92301190D02*
X178300000Y-92301190D01*
X178347619Y-92277381D01*
X178371429Y-92253571D01*
X178419048Y-92182143D01*
X178442857Y-92086905D01*
X178442857Y-91896429D01*
X178419048Y-91848810D01*
X178395238Y-91825000D01*
X178347619Y-91801190D01*
X178252381Y-91801190D01*
X178204762Y-91825000D01*
X178180953Y-91848810D01*
X178157143Y-91896429D01*
X178157143Y-92015476D01*
X178180953Y-92063095D01*
X178204762Y-92086905D01*
X178252381Y-92110714D01*
X178347619Y-92110714D01*
X178395238Y-92086905D01*
X178419048Y-92063095D01*
X178442857Y-92015476D01*
D10*
X150367857Y-72957142D02*
X150386905Y-72976190D01*
X150405952Y-73033333D01*
X150405952Y-73071428D01*
X150386905Y-73128571D01*
X150348810Y-73166666D01*
X150310714Y-73185714D01*
X150234524Y-73204762D01*
X150177381Y-73204762D01*
X150101190Y-73185714D01*
X150063095Y-73166666D01*
X150025000Y-73128571D01*
X150005952Y-73071428D01*
X150005952Y-73033333D01*
X150025000Y-72976190D01*
X150044048Y-72957142D01*
X150405952Y-72576190D02*
X150405952Y-72804762D01*
X150405952Y-72690476D02*
X150005952Y-72690476D01*
X150063095Y-72728571D01*
X150101190Y-72766666D01*
X150120238Y-72804762D01*
X150005952Y-72328571D02*
X150005952Y-72290476D01*
X150025000Y-72252381D01*
X150044048Y-72233333D01*
X150082143Y-72214286D01*
X150158333Y-72195238D01*
X150253571Y-72195238D01*
X150329762Y-72214286D01*
X150367857Y-72233333D01*
X150386905Y-72252381D01*
X150405952Y-72290476D01*
X150405952Y-72328571D01*
X150386905Y-72366667D01*
X150367857Y-72385714D01*
X150329762Y-72404762D01*
X150253571Y-72423810D01*
X150158333Y-72423810D01*
X150082143Y-72404762D01*
X150044048Y-72385714D01*
X150025000Y-72366667D01*
X150005952Y-72328571D01*
X150367857Y-70069902D02*
X150386905Y-70088950D01*
X150405952Y-70146093D01*
X150405952Y-70184188D01*
X150386905Y-70241331D01*
X150348810Y-70279426D01*
X150310714Y-70298474D01*
X150234524Y-70317522D01*
X150177381Y-70317522D01*
X150101190Y-70298474D01*
X150063095Y-70279426D01*
X150025000Y-70241331D01*
X150005952Y-70184188D01*
X150005952Y-70146093D01*
X150025000Y-70088950D01*
X150044048Y-70069902D01*
X150405952Y-69688950D02*
X150405952Y-69917522D01*
X150405952Y-69803236D02*
X150005952Y-69803236D01*
X150063095Y-69841331D01*
X150101190Y-69879426D01*
X150120238Y-69917522D01*
X150405952Y-69307998D02*
X150405952Y-69536570D01*
X150405952Y-69422284D02*
X150005952Y-69422284D01*
X150063095Y-69460379D01*
X150101190Y-69498474D01*
X150120238Y-69536570D01*
D16*
X158378571Y-68857068D02*
X158402381Y-68880878D01*
X158426190Y-68952306D01*
X158426190Y-68999925D01*
X158402381Y-69071354D01*
X158354762Y-69118973D01*
X158307143Y-69142782D01*
X158211905Y-69166592D01*
X158140476Y-69166592D01*
X158045238Y-69142782D01*
X157997619Y-69118973D01*
X157950000Y-69071354D01*
X157926190Y-68999925D01*
X157926190Y-68952306D01*
X157950000Y-68880878D01*
X157973810Y-68857068D01*
X158426190Y-68380878D02*
X158426190Y-68666592D01*
X158426190Y-68523735D02*
X157926190Y-68523735D01*
X157997619Y-68571354D01*
X158045238Y-68618973D01*
X158069048Y-68666592D01*
X157973810Y-68190402D02*
X157950000Y-68166592D01*
X157926190Y-68118973D01*
X157926190Y-67999926D01*
X157950000Y-67952307D01*
X157973810Y-67928497D01*
X158021429Y-67904688D01*
X158069048Y-67904688D01*
X158140476Y-67928497D01*
X158426190Y-68214211D01*
X158426190Y-67904688D01*
X154788571Y-67361428D02*
X154812381Y-67385238D01*
X154836190Y-67456666D01*
X154836190Y-67504285D01*
X154812381Y-67575714D01*
X154764762Y-67623333D01*
X154717143Y-67647142D01*
X154621905Y-67670952D01*
X154550476Y-67670952D01*
X154455238Y-67647142D01*
X154407619Y-67623333D01*
X154360000Y-67575714D01*
X154336190Y-67504285D01*
X154336190Y-67456666D01*
X154360000Y-67385238D01*
X154383810Y-67361428D01*
X154836190Y-66885238D02*
X154836190Y-67170952D01*
X154836190Y-67028095D02*
X154336190Y-67028095D01*
X154407619Y-67075714D01*
X154455238Y-67123333D01*
X154479048Y-67170952D01*
X154336190Y-66718571D02*
X154336190Y-66409048D01*
X154526667Y-66575714D01*
X154526667Y-66504286D01*
X154550476Y-66456667D01*
X154574286Y-66432857D01*
X154621905Y-66409048D01*
X154740952Y-66409048D01*
X154788571Y-66432857D01*
X154812381Y-66456667D01*
X154836190Y-66504286D01*
X154836190Y-66647143D01*
X154812381Y-66694762D01*
X154788571Y-66718571D01*
X148478571Y-77571428D02*
X148502381Y-77595238D01*
X148526190Y-77666666D01*
X148526190Y-77714285D01*
X148502381Y-77785714D01*
X148454762Y-77833333D01*
X148407143Y-77857142D01*
X148311905Y-77880952D01*
X148240476Y-77880952D01*
X148145238Y-77857142D01*
X148097619Y-77833333D01*
X148050000Y-77785714D01*
X148026190Y-77714285D01*
X148026190Y-77666666D01*
X148050000Y-77595238D01*
X148073810Y-77571428D01*
X148526190Y-77095238D02*
X148526190Y-77380952D01*
X148526190Y-77238095D02*
X148026190Y-77238095D01*
X148097619Y-77285714D01*
X148145238Y-77333333D01*
X148169048Y-77380952D01*
X148192857Y-76666667D02*
X148526190Y-76666667D01*
X148002381Y-76785714D02*
X148359524Y-76904762D01*
X148359524Y-76595238D01*
X153158572Y-64738571D02*
X153134762Y-64762381D01*
X153063334Y-64786190D01*
X153015715Y-64786190D01*
X152944286Y-64762381D01*
X152896667Y-64714762D01*
X152872858Y-64667143D01*
X152849048Y-64571905D01*
X152849048Y-64500476D01*
X152872858Y-64405238D01*
X152896667Y-64357619D01*
X152944286Y-64310000D01*
X153015715Y-64286190D01*
X153063334Y-64286190D01*
X153134762Y-64310000D01*
X153158572Y-64333810D01*
X153634762Y-64786190D02*
X153349048Y-64786190D01*
X153491905Y-64786190D02*
X153491905Y-64286190D01*
X153444286Y-64357619D01*
X153396667Y-64405238D01*
X153349048Y-64429048D01*
X154087143Y-64286190D02*
X153849048Y-64286190D01*
X153825238Y-64524286D01*
X153849048Y-64500476D01*
X153896667Y-64476667D01*
X154015714Y-64476667D01*
X154063333Y-64500476D01*
X154087143Y-64524286D01*
X154110952Y-64571905D01*
X154110952Y-64690952D01*
X154087143Y-64738571D01*
X154063333Y-64762381D01*
X154015714Y-64786190D01*
X153896667Y-64786190D01*
X153849048Y-64762381D01*
X153825238Y-64738571D01*
D17*
X149135000Y-66485000D02*
X149118334Y-66501667D01*
X149068334Y-66518333D01*
X149035000Y-66518333D01*
X148985000Y-66501667D01*
X148951667Y-66468333D01*
X148935000Y-66435000D01*
X148918334Y-66368333D01*
X148918334Y-66318333D01*
X148935000Y-66251667D01*
X148951667Y-66218333D01*
X148985000Y-66185000D01*
X149035000Y-66168333D01*
X149068334Y-66168333D01*
X149118334Y-66185000D01*
X149135000Y-66201667D01*
X149468334Y-66518333D02*
X149268334Y-66518333D01*
X149368334Y-66518333D02*
X149368334Y-66168333D01*
X149335000Y-66218333D01*
X149301667Y-66251667D01*
X149268334Y-66268333D01*
X149768333Y-66168333D02*
X149701667Y-66168333D01*
X149668333Y-66185000D01*
X149651667Y-66201667D01*
X149618333Y-66251667D01*
X149601667Y-66318333D01*
X149601667Y-66451667D01*
X149618333Y-66485000D01*
X149635000Y-66501667D01*
X149668333Y-66518333D01*
X149735000Y-66518333D01*
X149768333Y-66501667D01*
X149785000Y-66485000D01*
X149801667Y-66451667D01*
X149801667Y-66368333D01*
X149785000Y-66335000D01*
X149768333Y-66318333D01*
X149735000Y-66301667D01*
X149668333Y-66301667D01*
X149635000Y-66318333D01*
X149618333Y-66335000D01*
X149601667Y-66368333D01*
X149135000Y-67825000D02*
X149118334Y-67841667D01*
X149068334Y-67858333D01*
X149035000Y-67858333D01*
X148985000Y-67841667D01*
X148951667Y-67808333D01*
X148935000Y-67775000D01*
X148918334Y-67708333D01*
X148918334Y-67658333D01*
X148935000Y-67591667D01*
X148951667Y-67558333D01*
X148985000Y-67525000D01*
X149035000Y-67508333D01*
X149068334Y-67508333D01*
X149118334Y-67525000D01*
X149135000Y-67541667D01*
X149468334Y-67858333D02*
X149268334Y-67858333D01*
X149368334Y-67858333D02*
X149368334Y-67508333D01*
X149335000Y-67558333D01*
X149301667Y-67591667D01*
X149268334Y-67608333D01*
X149585000Y-67508333D02*
X149818333Y-67508333D01*
X149668333Y-67858333D01*
D16*
X174518571Y-55251428D02*
X174542381Y-55275238D01*
X174566190Y-55346666D01*
X174566190Y-55394285D01*
X174542381Y-55465714D01*
X174494762Y-55513333D01*
X174447143Y-55537142D01*
X174351905Y-55560952D01*
X174280476Y-55560952D01*
X174185238Y-55537142D01*
X174137619Y-55513333D01*
X174090000Y-55465714D01*
X174066190Y-55394285D01*
X174066190Y-55346666D01*
X174090000Y-55275238D01*
X174113810Y-55251428D01*
X174566190Y-54775238D02*
X174566190Y-55060952D01*
X174566190Y-54918095D02*
X174066190Y-54918095D01*
X174137619Y-54965714D01*
X174185238Y-55013333D01*
X174209048Y-55060952D01*
X174566190Y-54537143D02*
X174566190Y-54441905D01*
X174542381Y-54394286D01*
X174518571Y-54370476D01*
X174447143Y-54322857D01*
X174351905Y-54299048D01*
X174161429Y-54299048D01*
X174113810Y-54322857D01*
X174090000Y-54346667D01*
X174066190Y-54394286D01*
X174066190Y-54489524D01*
X174090000Y-54537143D01*
X174113810Y-54560952D01*
X174161429Y-54584762D01*
X174280476Y-54584762D01*
X174328095Y-54560952D01*
X174351905Y-54537143D01*
X174375714Y-54489524D01*
X174375714Y-54394286D01*
X174351905Y-54346667D01*
X174328095Y-54322857D01*
X174280476Y-54299048D01*
X171028571Y-63596428D02*
X171052381Y-63620238D01*
X171076190Y-63691666D01*
X171076190Y-63739285D01*
X171052381Y-63810714D01*
X171004762Y-63858333D01*
X170957143Y-63882142D01*
X170861905Y-63905952D01*
X170790476Y-63905952D01*
X170695238Y-63882142D01*
X170647619Y-63858333D01*
X170600000Y-63810714D01*
X170576190Y-63739285D01*
X170576190Y-63691666D01*
X170600000Y-63620238D01*
X170623810Y-63596428D01*
X170623810Y-63405952D02*
X170600000Y-63382142D01*
X170576190Y-63334523D01*
X170576190Y-63215476D01*
X170600000Y-63167857D01*
X170623810Y-63144047D01*
X170671429Y-63120238D01*
X170719048Y-63120238D01*
X170790476Y-63144047D01*
X171076190Y-63429761D01*
X171076190Y-63120238D01*
X170576190Y-62810714D02*
X170576190Y-62763095D01*
X170600000Y-62715476D01*
X170623810Y-62691667D01*
X170671429Y-62667857D01*
X170766667Y-62644048D01*
X170885714Y-62644048D01*
X170980952Y-62667857D01*
X171028571Y-62691667D01*
X171052381Y-62715476D01*
X171076190Y-62763095D01*
X171076190Y-62810714D01*
X171052381Y-62858333D01*
X171028571Y-62882143D01*
X170980952Y-62905952D01*
X170885714Y-62929762D01*
X170766667Y-62929762D01*
X170671429Y-62905952D01*
X170623810Y-62882143D01*
X170600000Y-62858333D01*
X170576190Y-62810714D01*
D17*
X169105000Y-64615000D02*
X169121667Y-64631666D01*
X169138333Y-64681666D01*
X169138333Y-64715000D01*
X169121667Y-64765000D01*
X169088333Y-64798333D01*
X169055000Y-64815000D01*
X168988333Y-64831666D01*
X168938333Y-64831666D01*
X168871667Y-64815000D01*
X168838333Y-64798333D01*
X168805000Y-64765000D01*
X168788333Y-64715000D01*
X168788333Y-64681666D01*
X168805000Y-64631666D01*
X168821667Y-64615000D01*
X168821667Y-64481666D02*
X168805000Y-64465000D01*
X168788333Y-64431666D01*
X168788333Y-64348333D01*
X168805000Y-64315000D01*
X168821667Y-64298333D01*
X168855000Y-64281666D01*
X168888333Y-64281666D01*
X168938333Y-64298333D01*
X169138333Y-64498333D01*
X169138333Y-64281666D01*
X169138333Y-63948333D02*
X169138333Y-64148333D01*
X169138333Y-64048333D02*
X168788333Y-64048333D01*
X168838333Y-64081667D01*
X168871667Y-64115000D01*
X168888333Y-64148333D01*
D16*
X171178571Y-66681428D02*
X171202381Y-66705238D01*
X171226190Y-66776666D01*
X171226190Y-66824285D01*
X171202381Y-66895714D01*
X171154762Y-66943333D01*
X171107143Y-66967142D01*
X171011905Y-66990952D01*
X170940476Y-66990952D01*
X170845238Y-66967142D01*
X170797619Y-66943333D01*
X170750000Y-66895714D01*
X170726190Y-66824285D01*
X170726190Y-66776666D01*
X170750000Y-66705238D01*
X170773810Y-66681428D01*
X170773810Y-66490952D02*
X170750000Y-66467142D01*
X170726190Y-66419523D01*
X170726190Y-66300476D01*
X170750000Y-66252857D01*
X170773810Y-66229047D01*
X170821429Y-66205238D01*
X170869048Y-66205238D01*
X170940476Y-66229047D01*
X171226190Y-66514761D01*
X171226190Y-66205238D01*
X170773810Y-66014762D02*
X170750000Y-65990952D01*
X170726190Y-65943333D01*
X170726190Y-65824286D01*
X170750000Y-65776667D01*
X170773810Y-65752857D01*
X170821429Y-65729048D01*
X170869048Y-65729048D01*
X170940476Y-65752857D01*
X171226190Y-66038571D01*
X171226190Y-65729048D01*
X163878571Y-55251428D02*
X163902381Y-55275238D01*
X163926190Y-55346666D01*
X163926190Y-55394285D01*
X163902381Y-55465714D01*
X163854762Y-55513333D01*
X163807143Y-55537142D01*
X163711905Y-55560952D01*
X163640476Y-55560952D01*
X163545238Y-55537142D01*
X163497619Y-55513333D01*
X163450000Y-55465714D01*
X163426190Y-55394285D01*
X163426190Y-55346666D01*
X163450000Y-55275238D01*
X163473810Y-55251428D01*
X163473810Y-55060952D02*
X163450000Y-55037142D01*
X163426190Y-54989523D01*
X163426190Y-54870476D01*
X163450000Y-54822857D01*
X163473810Y-54799047D01*
X163521429Y-54775238D01*
X163569048Y-54775238D01*
X163640476Y-54799047D01*
X163926190Y-55084761D01*
X163926190Y-54775238D01*
X163426190Y-54608571D02*
X163426190Y-54299048D01*
X163616667Y-54465714D01*
X163616667Y-54394286D01*
X163640476Y-54346667D01*
X163664286Y-54322857D01*
X163711905Y-54299048D01*
X163830952Y-54299048D01*
X163878571Y-54322857D01*
X163902381Y-54346667D01*
X163926190Y-54394286D01*
X163926190Y-54537143D01*
X163902381Y-54584762D01*
X163878571Y-54608571D01*
X163938571Y-64331428D02*
X163962381Y-64355238D01*
X163986190Y-64426666D01*
X163986190Y-64474285D01*
X163962381Y-64545714D01*
X163914762Y-64593333D01*
X163867143Y-64617142D01*
X163771905Y-64640952D01*
X163700476Y-64640952D01*
X163605238Y-64617142D01*
X163557619Y-64593333D01*
X163510000Y-64545714D01*
X163486190Y-64474285D01*
X163486190Y-64426666D01*
X163510000Y-64355238D01*
X163533810Y-64331428D01*
X163533810Y-64140952D02*
X163510000Y-64117142D01*
X163486190Y-64069523D01*
X163486190Y-63950476D01*
X163510000Y-63902857D01*
X163533810Y-63879047D01*
X163581429Y-63855238D01*
X163629048Y-63855238D01*
X163700476Y-63879047D01*
X163986190Y-64164761D01*
X163986190Y-63855238D01*
X163652857Y-63426667D02*
X163986190Y-63426667D01*
X163462381Y-63545714D02*
X163819524Y-63664762D01*
X163819524Y-63355238D01*
X164478571Y-66681428D02*
X164502381Y-66705238D01*
X164526190Y-66776666D01*
X164526190Y-66824285D01*
X164502381Y-66895714D01*
X164454762Y-66943333D01*
X164407143Y-66967142D01*
X164311905Y-66990952D01*
X164240476Y-66990952D01*
X164145238Y-66967142D01*
X164097619Y-66943333D01*
X164050000Y-66895714D01*
X164026190Y-66824285D01*
X164026190Y-66776666D01*
X164050000Y-66705238D01*
X164073810Y-66681428D01*
X164073810Y-66490952D02*
X164050000Y-66467142D01*
X164026190Y-66419523D01*
X164026190Y-66300476D01*
X164050000Y-66252857D01*
X164073810Y-66229047D01*
X164121429Y-66205238D01*
X164169048Y-66205238D01*
X164240476Y-66229047D01*
X164526190Y-66514761D01*
X164526190Y-66205238D01*
X164026190Y-65752857D02*
X164026190Y-65990952D01*
X164264286Y-66014762D01*
X164240476Y-65990952D01*
X164216667Y-65943333D01*
X164216667Y-65824286D01*
X164240476Y-65776667D01*
X164264286Y-65752857D01*
X164311905Y-65729048D01*
X164430952Y-65729048D01*
X164478571Y-65752857D01*
X164502381Y-65776667D01*
X164526190Y-65824286D01*
X164526190Y-65943333D01*
X164502381Y-65990952D01*
X164478571Y-66014762D01*
X166553572Y-64753571D02*
X166529762Y-64777381D01*
X166458334Y-64801190D01*
X166410715Y-64801190D01*
X166339286Y-64777381D01*
X166291667Y-64729762D01*
X166267858Y-64682143D01*
X166244048Y-64586905D01*
X166244048Y-64515476D01*
X166267858Y-64420238D01*
X166291667Y-64372619D01*
X166339286Y-64325000D01*
X166410715Y-64301190D01*
X166458334Y-64301190D01*
X166529762Y-64325000D01*
X166553572Y-64348810D01*
X166744048Y-64348810D02*
X166767858Y-64325000D01*
X166815477Y-64301190D01*
X166934524Y-64301190D01*
X166982143Y-64325000D01*
X167005953Y-64348810D01*
X167029762Y-64396429D01*
X167029762Y-64444048D01*
X167005953Y-64515476D01*
X166720239Y-64801190D01*
X167029762Y-64801190D01*
X167458333Y-64301190D02*
X167363095Y-64301190D01*
X167315476Y-64325000D01*
X167291667Y-64348810D01*
X167244048Y-64420238D01*
X167220238Y-64515476D01*
X167220238Y-64705952D01*
X167244048Y-64753571D01*
X167267857Y-64777381D01*
X167315476Y-64801190D01*
X167410714Y-64801190D01*
X167458333Y-64777381D01*
X167482143Y-64753571D01*
X167505952Y-64705952D01*
X167505952Y-64586905D01*
X167482143Y-64539286D01*
X167458333Y-64515476D01*
X167410714Y-64491667D01*
X167315476Y-64491667D01*
X167267857Y-64515476D01*
X167244048Y-64539286D01*
X167220238Y-64586905D01*
X156578572Y-79603571D02*
X156554762Y-79627381D01*
X156483334Y-79651190D01*
X156435715Y-79651190D01*
X156364286Y-79627381D01*
X156316667Y-79579762D01*
X156292858Y-79532143D01*
X156269048Y-79436905D01*
X156269048Y-79365476D01*
X156292858Y-79270238D01*
X156316667Y-79222619D01*
X156364286Y-79175000D01*
X156435715Y-79151190D01*
X156483334Y-79151190D01*
X156554762Y-79175000D01*
X156578572Y-79198810D01*
X156769048Y-79198810D02*
X156792858Y-79175000D01*
X156840477Y-79151190D01*
X156959524Y-79151190D01*
X157007143Y-79175000D01*
X157030953Y-79198810D01*
X157054762Y-79246429D01*
X157054762Y-79294048D01*
X157030953Y-79365476D01*
X156745239Y-79651190D01*
X157054762Y-79651190D01*
X157221429Y-79151190D02*
X157554762Y-79151190D01*
X157340476Y-79651190D01*
X156578572Y-83328571D02*
X156554762Y-83352381D01*
X156483334Y-83376190D01*
X156435715Y-83376190D01*
X156364286Y-83352381D01*
X156316667Y-83304762D01*
X156292858Y-83257143D01*
X156269048Y-83161905D01*
X156269048Y-83090476D01*
X156292858Y-82995238D01*
X156316667Y-82947619D01*
X156364286Y-82900000D01*
X156435715Y-82876190D01*
X156483334Y-82876190D01*
X156554762Y-82900000D01*
X156578572Y-82923810D01*
X156769048Y-82923810D02*
X156792858Y-82900000D01*
X156840477Y-82876190D01*
X156959524Y-82876190D01*
X157007143Y-82900000D01*
X157030953Y-82923810D01*
X157054762Y-82971429D01*
X157054762Y-83019048D01*
X157030953Y-83090476D01*
X156745239Y-83376190D01*
X157054762Y-83376190D01*
X157340476Y-83090476D02*
X157292857Y-83066667D01*
X157269048Y-83042857D01*
X157245238Y-82995238D01*
X157245238Y-82971429D01*
X157269048Y-82923810D01*
X157292857Y-82900000D01*
X157340476Y-82876190D01*
X157435714Y-82876190D01*
X157483333Y-82900000D01*
X157507143Y-82923810D01*
X157530952Y-82971429D01*
X157530952Y-82995238D01*
X157507143Y-83042857D01*
X157483333Y-83066667D01*
X157435714Y-83090476D01*
X157340476Y-83090476D01*
X157292857Y-83114286D01*
X157269048Y-83138095D01*
X157245238Y-83185714D01*
X157245238Y-83280952D01*
X157269048Y-83328571D01*
X157292857Y-83352381D01*
X157340476Y-83376190D01*
X157435714Y-83376190D01*
X157483333Y-83352381D01*
X157507143Y-83328571D01*
X157530952Y-83280952D01*
X157530952Y-83185714D01*
X157507143Y-83138095D01*
X157483333Y-83114286D01*
X157435714Y-83090476D01*
X178078572Y-80488571D02*
X178054762Y-80512381D01*
X177983334Y-80536190D01*
X177935715Y-80536190D01*
X177864286Y-80512381D01*
X177816667Y-80464762D01*
X177792858Y-80417143D01*
X177769048Y-80321905D01*
X177769048Y-80250476D01*
X177792858Y-80155238D01*
X177816667Y-80107619D01*
X177864286Y-80060000D01*
X177935715Y-80036190D01*
X177983334Y-80036190D01*
X178054762Y-80060000D01*
X178078572Y-80083810D01*
X178269048Y-80083810D02*
X178292858Y-80060000D01*
X178340477Y-80036190D01*
X178459524Y-80036190D01*
X178507143Y-80060000D01*
X178530953Y-80083810D01*
X178554762Y-80131429D01*
X178554762Y-80179048D01*
X178530953Y-80250476D01*
X178245239Y-80536190D01*
X178554762Y-80536190D01*
X178792857Y-80536190D02*
X178888095Y-80536190D01*
X178935714Y-80512381D01*
X178959524Y-80488571D01*
X179007143Y-80417143D01*
X179030952Y-80321905D01*
X179030952Y-80131429D01*
X179007143Y-80083810D01*
X178983333Y-80060000D01*
X178935714Y-80036190D01*
X178840476Y-80036190D01*
X178792857Y-80060000D01*
X178769048Y-80083810D01*
X178745238Y-80131429D01*
X178745238Y-80250476D01*
X178769048Y-80298095D01*
X178792857Y-80321905D01*
X178840476Y-80345714D01*
X178935714Y-80345714D01*
X178983333Y-80321905D01*
X179007143Y-80298095D01*
X179030952Y-80250476D01*
D10*
X158992857Y-74132142D02*
X159011905Y-74151190D01*
X159030952Y-74208333D01*
X159030952Y-74246428D01*
X159011905Y-74303571D01*
X158973810Y-74341666D01*
X158935714Y-74360714D01*
X158859524Y-74379762D01*
X158802381Y-74379762D01*
X158726190Y-74360714D01*
X158688095Y-74341666D01*
X158650000Y-74303571D01*
X158630952Y-74246428D01*
X158630952Y-74208333D01*
X158650000Y-74151190D01*
X158669048Y-74132142D01*
X158630952Y-73998809D02*
X158630952Y-73751190D01*
X158783333Y-73884523D01*
X158783333Y-73827381D01*
X158802381Y-73789285D01*
X158821429Y-73770238D01*
X158859524Y-73751190D01*
X158954762Y-73751190D01*
X158992857Y-73770238D01*
X159011905Y-73789285D01*
X159030952Y-73827381D01*
X159030952Y-73941666D01*
X159011905Y-73979762D01*
X158992857Y-73998809D01*
X158630952Y-73503571D02*
X158630952Y-73465476D01*
X158650000Y-73427381D01*
X158669048Y-73408333D01*
X158707143Y-73389286D01*
X158783333Y-73370238D01*
X158878571Y-73370238D01*
X158954762Y-73389286D01*
X158992857Y-73408333D01*
X159011905Y-73427381D01*
X159030952Y-73465476D01*
X159030952Y-73503571D01*
X159011905Y-73541667D01*
X158992857Y-73560714D01*
X158954762Y-73579762D01*
X158878571Y-73598810D01*
X158783333Y-73598810D01*
X158707143Y-73579762D01*
X158669048Y-73560714D01*
X158650000Y-73541667D01*
X158630952Y-73503571D01*
D17*
X158565000Y-71725000D02*
X158548334Y-71741667D01*
X158498334Y-71758333D01*
X158465000Y-71758333D01*
X158415000Y-71741667D01*
X158381667Y-71708333D01*
X158365000Y-71675000D01*
X158348334Y-71608333D01*
X158348334Y-71558333D01*
X158365000Y-71491667D01*
X158381667Y-71458333D01*
X158415000Y-71425000D01*
X158465000Y-71408333D01*
X158498334Y-71408333D01*
X158548334Y-71425000D01*
X158565000Y-71441667D01*
X158681667Y-71408333D02*
X158898334Y-71408333D01*
X158781667Y-71541667D01*
X158831667Y-71541667D01*
X158865000Y-71558333D01*
X158881667Y-71575000D01*
X158898334Y-71608333D01*
X158898334Y-71691667D01*
X158881667Y-71725000D01*
X158865000Y-71741667D01*
X158831667Y-71758333D01*
X158731667Y-71758333D01*
X158698334Y-71741667D01*
X158681667Y-71725000D01*
X159231667Y-71758333D02*
X159031667Y-71758333D01*
X159131667Y-71758333D02*
X159131667Y-71408333D01*
X159098333Y-71458333D01*
X159065000Y-71491667D01*
X159031667Y-71508333D01*
D16*
X174338571Y-74701428D02*
X174362381Y-74725238D01*
X174386190Y-74796666D01*
X174386190Y-74844285D01*
X174362381Y-74915714D01*
X174314762Y-74963333D01*
X174267143Y-74987142D01*
X174171905Y-75010952D01*
X174100476Y-75010952D01*
X174005238Y-74987142D01*
X173957619Y-74963333D01*
X173910000Y-74915714D01*
X173886190Y-74844285D01*
X173886190Y-74796666D01*
X173910000Y-74725238D01*
X173933810Y-74701428D01*
X173886190Y-74534761D02*
X173886190Y-74225238D01*
X174076667Y-74391904D01*
X174076667Y-74320476D01*
X174100476Y-74272857D01*
X174124286Y-74249047D01*
X174171905Y-74225238D01*
X174290952Y-74225238D01*
X174338571Y-74249047D01*
X174362381Y-74272857D01*
X174386190Y-74320476D01*
X174386190Y-74463333D01*
X174362381Y-74510952D01*
X174338571Y-74534761D01*
X173933810Y-74034762D02*
X173910000Y-74010952D01*
X173886190Y-73963333D01*
X173886190Y-73844286D01*
X173910000Y-73796667D01*
X173933810Y-73772857D01*
X173981429Y-73749048D01*
X174029048Y-73749048D01*
X174100476Y-73772857D01*
X174386190Y-74058571D01*
X174386190Y-73749048D01*
X183253572Y-65853571D02*
X183229762Y-65877381D01*
X183158334Y-65901190D01*
X183110715Y-65901190D01*
X183039286Y-65877381D01*
X182991667Y-65829762D01*
X182967858Y-65782143D01*
X182944048Y-65686905D01*
X182944048Y-65615476D01*
X182967858Y-65520238D01*
X182991667Y-65472619D01*
X183039286Y-65425000D01*
X183110715Y-65401190D01*
X183158334Y-65401190D01*
X183229762Y-65425000D01*
X183253572Y-65448810D01*
X183420239Y-65401190D02*
X183729762Y-65401190D01*
X183563096Y-65591667D01*
X183634524Y-65591667D01*
X183682143Y-65615476D01*
X183705953Y-65639286D01*
X183729762Y-65686905D01*
X183729762Y-65805952D01*
X183705953Y-65853571D01*
X183682143Y-65877381D01*
X183634524Y-65901190D01*
X183491667Y-65901190D01*
X183444048Y-65877381D01*
X183420239Y-65853571D01*
X183896429Y-65401190D02*
X184205952Y-65401190D01*
X184039286Y-65591667D01*
X184110714Y-65591667D01*
X184158333Y-65615476D01*
X184182143Y-65639286D01*
X184205952Y-65686905D01*
X184205952Y-65805952D01*
X184182143Y-65853571D01*
X184158333Y-65877381D01*
X184110714Y-65901190D01*
X183967857Y-65901190D01*
X183920238Y-65877381D01*
X183896429Y-65853571D01*
D10*
X159002857Y-78217142D02*
X159021905Y-78236190D01*
X159040952Y-78293333D01*
X159040952Y-78331428D01*
X159021905Y-78388571D01*
X158983810Y-78426666D01*
X158945714Y-78445714D01*
X158869524Y-78464762D01*
X158812381Y-78464762D01*
X158736190Y-78445714D01*
X158698095Y-78426666D01*
X158660000Y-78388571D01*
X158640952Y-78331428D01*
X158640952Y-78293333D01*
X158660000Y-78236190D01*
X158679048Y-78217142D01*
X158640952Y-78083809D02*
X158640952Y-77836190D01*
X158793333Y-77969523D01*
X158793333Y-77912381D01*
X158812381Y-77874285D01*
X158831429Y-77855238D01*
X158869524Y-77836190D01*
X158964762Y-77836190D01*
X159002857Y-77855238D01*
X159021905Y-77874285D01*
X159040952Y-77912381D01*
X159040952Y-78026666D01*
X159021905Y-78064762D01*
X159002857Y-78083809D01*
X158774286Y-77493333D02*
X159040952Y-77493333D01*
X158621905Y-77588571D02*
X158907619Y-77683810D01*
X158907619Y-77436190D01*
D16*
X183228572Y-69728571D02*
X183204762Y-69752381D01*
X183133334Y-69776190D01*
X183085715Y-69776190D01*
X183014286Y-69752381D01*
X182966667Y-69704762D01*
X182942858Y-69657143D01*
X182919048Y-69561905D01*
X182919048Y-69490476D01*
X182942858Y-69395238D01*
X182966667Y-69347619D01*
X183014286Y-69300000D01*
X183085715Y-69276190D01*
X183133334Y-69276190D01*
X183204762Y-69300000D01*
X183228572Y-69323810D01*
X183395239Y-69276190D02*
X183704762Y-69276190D01*
X183538096Y-69466667D01*
X183609524Y-69466667D01*
X183657143Y-69490476D01*
X183680953Y-69514286D01*
X183704762Y-69561905D01*
X183704762Y-69680952D01*
X183680953Y-69728571D01*
X183657143Y-69752381D01*
X183609524Y-69776190D01*
X183466667Y-69776190D01*
X183419048Y-69752381D01*
X183395239Y-69728571D01*
X184157143Y-69276190D02*
X183919048Y-69276190D01*
X183895238Y-69514286D01*
X183919048Y-69490476D01*
X183966667Y-69466667D01*
X184085714Y-69466667D01*
X184133333Y-69490476D01*
X184157143Y-69514286D01*
X184180952Y-69561905D01*
X184180952Y-69680952D01*
X184157143Y-69728571D01*
X184133333Y-69752381D01*
X184085714Y-69776190D01*
X183966667Y-69776190D01*
X183919048Y-69752381D01*
X183895238Y-69728571D01*
X163668571Y-66691428D02*
X163692381Y-66715238D01*
X163716190Y-66786666D01*
X163716190Y-66834285D01*
X163692381Y-66905714D01*
X163644762Y-66953333D01*
X163597143Y-66977142D01*
X163501905Y-67000952D01*
X163430476Y-67000952D01*
X163335238Y-66977142D01*
X163287619Y-66953333D01*
X163240000Y-66905714D01*
X163216190Y-66834285D01*
X163216190Y-66786666D01*
X163240000Y-66715238D01*
X163263810Y-66691428D01*
X163216190Y-66524761D02*
X163216190Y-66215238D01*
X163406667Y-66381904D01*
X163406667Y-66310476D01*
X163430476Y-66262857D01*
X163454286Y-66239047D01*
X163501905Y-66215238D01*
X163620952Y-66215238D01*
X163668571Y-66239047D01*
X163692381Y-66262857D01*
X163716190Y-66310476D01*
X163716190Y-66453333D01*
X163692381Y-66500952D01*
X163668571Y-66524761D01*
X163216190Y-65786667D02*
X163216190Y-65881905D01*
X163240000Y-65929524D01*
X163263810Y-65953333D01*
X163335238Y-66000952D01*
X163430476Y-66024762D01*
X163620952Y-66024762D01*
X163668571Y-66000952D01*
X163692381Y-65977143D01*
X163716190Y-65929524D01*
X163716190Y-65834286D01*
X163692381Y-65786667D01*
X163668571Y-65762857D01*
X163620952Y-65739048D01*
X163501905Y-65739048D01*
X163454286Y-65762857D01*
X163430476Y-65786667D01*
X163406667Y-65834286D01*
X163406667Y-65929524D01*
X163430476Y-65977143D01*
X163454286Y-66000952D01*
X163501905Y-66024762D01*
D10*
X159002857Y-76467142D02*
X159021905Y-76486190D01*
X159040952Y-76543333D01*
X159040952Y-76581428D01*
X159021905Y-76638571D01*
X158983810Y-76676666D01*
X158945714Y-76695714D01*
X158869524Y-76714762D01*
X158812381Y-76714762D01*
X158736190Y-76695714D01*
X158698095Y-76676666D01*
X158660000Y-76638571D01*
X158640952Y-76581428D01*
X158640952Y-76543333D01*
X158660000Y-76486190D01*
X158679048Y-76467142D01*
X158640952Y-76333809D02*
X158640952Y-76086190D01*
X158793333Y-76219523D01*
X158793333Y-76162381D01*
X158812381Y-76124285D01*
X158831429Y-76105238D01*
X158869524Y-76086190D01*
X158964762Y-76086190D01*
X159002857Y-76105238D01*
X159021905Y-76124285D01*
X159040952Y-76162381D01*
X159040952Y-76276666D01*
X159021905Y-76314762D01*
X159002857Y-76333809D01*
X158640952Y-75952857D02*
X158640952Y-75686190D01*
X159040952Y-75857619D01*
D16*
X157730953Y-89926190D02*
X157730953Y-89426190D01*
X157850000Y-89426190D01*
X157921429Y-89450000D01*
X157969048Y-89497619D01*
X157992857Y-89545238D01*
X158016667Y-89640476D01*
X158016667Y-89711905D01*
X157992857Y-89807143D01*
X157969048Y-89854762D01*
X157921429Y-89902381D01*
X157850000Y-89926190D01*
X157730953Y-89926190D01*
X158492857Y-89926190D02*
X158207143Y-89926190D01*
X158350000Y-89926190D02*
X158350000Y-89426190D01*
X158302381Y-89497619D01*
X158254762Y-89545238D01*
X158207143Y-89569048D01*
D10*
X174829762Y-101670952D02*
X174829762Y-101270952D01*
X174925000Y-101270952D01*
X174982143Y-101290000D01*
X175020238Y-101328095D01*
X175039286Y-101366190D01*
X175058334Y-101442381D01*
X175058334Y-101499524D01*
X175039286Y-101575714D01*
X175020238Y-101613810D01*
X174982143Y-101651905D01*
X174925000Y-101670952D01*
X174829762Y-101670952D01*
X175210714Y-101309048D02*
X175229762Y-101290000D01*
X175267857Y-101270952D01*
X175363095Y-101270952D01*
X175401191Y-101290000D01*
X175420238Y-101309048D01*
X175439286Y-101347143D01*
X175439286Y-101385238D01*
X175420238Y-101442381D01*
X175191667Y-101670952D01*
X175439286Y-101670952D01*
D16*
X184630953Y-64651190D02*
X184630953Y-64151190D01*
X184750000Y-64151190D01*
X184821429Y-64175000D01*
X184869048Y-64222619D01*
X184892857Y-64270238D01*
X184916667Y-64365476D01*
X184916667Y-64436905D01*
X184892857Y-64532143D01*
X184869048Y-64579762D01*
X184821429Y-64627381D01*
X184750000Y-64651190D01*
X184630953Y-64651190D01*
X185083334Y-64151190D02*
X185392857Y-64151190D01*
X185226191Y-64341667D01*
X185297619Y-64341667D01*
X185345238Y-64365476D01*
X185369048Y-64389286D01*
X185392857Y-64436905D01*
X185392857Y-64555952D01*
X185369048Y-64603571D01*
X185345238Y-64627381D01*
X185297619Y-64651190D01*
X185154762Y-64651190D01*
X185107143Y-64627381D01*
X185083334Y-64603571D01*
X181755953Y-64651190D02*
X181755953Y-64151190D01*
X181875000Y-64151190D01*
X181946429Y-64175000D01*
X181994048Y-64222619D01*
X182017857Y-64270238D01*
X182041667Y-64365476D01*
X182041667Y-64436905D01*
X182017857Y-64532143D01*
X181994048Y-64579762D01*
X181946429Y-64627381D01*
X181875000Y-64651190D01*
X181755953Y-64651190D01*
X182470238Y-64317857D02*
X182470238Y-64651190D01*
X182351191Y-64127381D02*
X182232143Y-64484524D01*
X182541667Y-64484524D01*
X183105953Y-64651190D02*
X183105953Y-64151190D01*
X183225000Y-64151190D01*
X183296429Y-64175000D01*
X183344048Y-64222619D01*
X183367857Y-64270238D01*
X183391667Y-64365476D01*
X183391667Y-64436905D01*
X183367857Y-64532143D01*
X183344048Y-64579762D01*
X183296429Y-64627381D01*
X183225000Y-64651190D01*
X183105953Y-64651190D01*
X183844048Y-64151190D02*
X183605953Y-64151190D01*
X183582143Y-64389286D01*
X183605953Y-64365476D01*
X183653572Y-64341667D01*
X183772619Y-64341667D01*
X183820238Y-64365476D01*
X183844048Y-64389286D01*
X183867857Y-64436905D01*
X183867857Y-64555952D01*
X183844048Y-64603571D01*
X183820238Y-64627381D01*
X183772619Y-64651190D01*
X183653572Y-64651190D01*
X183605953Y-64627381D01*
X183582143Y-64603571D01*
X185980953Y-64651190D02*
X185980953Y-64151190D01*
X186100000Y-64151190D01*
X186171429Y-64175000D01*
X186219048Y-64222619D01*
X186242857Y-64270238D01*
X186266667Y-64365476D01*
X186266667Y-64436905D01*
X186242857Y-64532143D01*
X186219048Y-64579762D01*
X186171429Y-64627381D01*
X186100000Y-64651190D01*
X185980953Y-64651190D01*
X186695238Y-64151190D02*
X186600000Y-64151190D01*
X186552381Y-64175000D01*
X186528572Y-64198810D01*
X186480953Y-64270238D01*
X186457143Y-64365476D01*
X186457143Y-64555952D01*
X186480953Y-64603571D01*
X186504762Y-64627381D01*
X186552381Y-64651190D01*
X186647619Y-64651190D01*
X186695238Y-64627381D01*
X186719048Y-64603571D01*
X186742857Y-64555952D01*
X186742857Y-64436905D01*
X186719048Y-64389286D01*
X186695238Y-64365476D01*
X186647619Y-64341667D01*
X186552381Y-64341667D01*
X186504762Y-64365476D01*
X186480953Y-64389286D01*
X186457143Y-64436905D01*
X180630953Y-69851190D02*
X180630953Y-69351190D01*
X180750000Y-69351190D01*
X180821429Y-69375000D01*
X180869048Y-69422619D01*
X180892857Y-69470238D01*
X180916667Y-69565476D01*
X180916667Y-69636905D01*
X180892857Y-69732143D01*
X180869048Y-69779762D01*
X180821429Y-69827381D01*
X180750000Y-69851190D01*
X180630953Y-69851190D01*
X181083334Y-69351190D02*
X181416667Y-69351190D01*
X181202381Y-69851190D01*
X180630953Y-66026190D02*
X180630953Y-65526190D01*
X180750000Y-65526190D01*
X180821429Y-65550000D01*
X180869048Y-65597619D01*
X180892857Y-65645238D01*
X180916667Y-65740476D01*
X180916667Y-65811905D01*
X180892857Y-65907143D01*
X180869048Y-65954762D01*
X180821429Y-66002381D01*
X180750000Y-66026190D01*
X180630953Y-66026190D01*
X181202381Y-65740476D02*
X181154762Y-65716667D01*
X181130953Y-65692857D01*
X181107143Y-65645238D01*
X181107143Y-65621429D01*
X181130953Y-65573810D01*
X181154762Y-65550000D01*
X181202381Y-65526190D01*
X181297619Y-65526190D01*
X181345238Y-65550000D01*
X181369048Y-65573810D01*
X181392857Y-65621429D01*
X181392857Y-65645238D01*
X181369048Y-65692857D01*
X181345238Y-65716667D01*
X181297619Y-65740476D01*
X181202381Y-65740476D01*
X181154762Y-65764286D01*
X181130953Y-65788095D01*
X181107143Y-65835714D01*
X181107143Y-65930952D01*
X181130953Y-65978571D01*
X181154762Y-66002381D01*
X181202381Y-66026190D01*
X181297619Y-66026190D01*
X181345238Y-66002381D01*
X181369048Y-65978571D01*
X181392857Y-65930952D01*
X181392857Y-65835714D01*
X181369048Y-65788095D01*
X181345238Y-65764286D01*
X181297619Y-65740476D01*
X164326190Y-86583333D02*
X164326190Y-86821428D01*
X163826190Y-86821428D01*
X164326190Y-86154762D02*
X164326190Y-86440476D01*
X164326190Y-86297619D02*
X163826190Y-86297619D01*
X163897619Y-86345238D01*
X163945238Y-86392857D01*
X163969048Y-86440476D01*
X171691667Y-91351190D02*
X171453572Y-91351190D01*
X171453572Y-90851190D01*
X171834524Y-90898810D02*
X171858334Y-90875000D01*
X171905953Y-90851190D01*
X172025000Y-90851190D01*
X172072619Y-90875000D01*
X172096429Y-90898810D01*
X172120238Y-90946429D01*
X172120238Y-90994048D01*
X172096429Y-91065476D01*
X171810715Y-91351190D01*
X172120238Y-91351190D01*
X147750953Y-88056190D02*
X147750953Y-87556190D01*
X147941429Y-87556190D01*
X147989048Y-87580000D01*
X148012857Y-87603810D01*
X148036667Y-87651429D01*
X148036667Y-87722857D01*
X148012857Y-87770476D01*
X147989048Y-87794286D01*
X147941429Y-87818095D01*
X147750953Y-87818095D01*
X148512857Y-88056190D02*
X148227143Y-88056190D01*
X148370000Y-88056190D02*
X148370000Y-87556190D01*
X148322381Y-87627619D01*
X148274762Y-87675238D01*
X148227143Y-87699048D01*
X144140953Y-54266190D02*
X144140953Y-53766190D01*
X144331429Y-53766190D01*
X144379048Y-53790000D01*
X144402857Y-53813810D01*
X144426667Y-53861429D01*
X144426667Y-53932857D01*
X144402857Y-53980476D01*
X144379048Y-54004286D01*
X144331429Y-54028095D01*
X144140953Y-54028095D01*
X144879048Y-53766190D02*
X144640953Y-53766190D01*
X144617143Y-54004286D01*
X144640953Y-53980476D01*
X144688572Y-53956667D01*
X144807619Y-53956667D01*
X144855238Y-53980476D01*
X144879048Y-54004286D01*
X144902857Y-54051905D01*
X144902857Y-54170952D01*
X144879048Y-54218571D01*
X144855238Y-54242381D01*
X144807619Y-54266190D01*
X144688572Y-54266190D01*
X144640953Y-54242381D01*
X144617143Y-54218571D01*
X175609382Y-53753733D02*
X175847477Y-53753733D01*
X175561763Y-53896590D02*
X175728430Y-53396590D01*
X175895096Y-53896590D01*
X176061763Y-53896590D02*
X176061763Y-53396590D01*
X176180810Y-53396590D01*
X176252239Y-53420400D01*
X176299858Y-53468019D01*
X176323667Y-53515638D01*
X176347477Y-53610876D01*
X176347477Y-53682305D01*
X176323667Y-53777543D01*
X176299858Y-53825162D01*
X176252239Y-53872781D01*
X176180810Y-53896590D01*
X176061763Y-53896590D01*
X176847477Y-53848971D02*
X176823667Y-53872781D01*
X176752239Y-53896590D01*
X176704620Y-53896590D01*
X176633191Y-53872781D01*
X176585572Y-53825162D01*
X176561763Y-53777543D01*
X176537953Y-53682305D01*
X176537953Y-53610876D01*
X176561763Y-53515638D01*
X176585572Y-53468019D01*
X176633191Y-53420400D01*
X176704620Y-53396590D01*
X176752239Y-53396590D01*
X176823667Y-53420400D01*
X176847477Y-53444210D01*
X176942715Y-53944210D02*
X177323667Y-53944210D01*
X177395096Y-53396590D02*
X177704619Y-53396590D01*
X177537953Y-53587067D01*
X177609381Y-53587067D01*
X177657000Y-53610876D01*
X177680810Y-53634686D01*
X177704619Y-53682305D01*
X177704619Y-53801352D01*
X177680810Y-53848971D01*
X177657000Y-53872781D01*
X177609381Y-53896590D01*
X177466524Y-53896590D01*
X177418905Y-53872781D01*
X177395096Y-53848971D01*
X157162382Y-64033333D02*
X157400477Y-64033333D01*
X157114763Y-64176190D02*
X157281430Y-63676190D01*
X157448096Y-64176190D01*
X157614763Y-64176190D02*
X157614763Y-63676190D01*
X157733810Y-63676190D01*
X157805239Y-63700000D01*
X157852858Y-63747619D01*
X157876667Y-63795238D01*
X157900477Y-63890476D01*
X157900477Y-63961905D01*
X157876667Y-64057143D01*
X157852858Y-64104762D01*
X157805239Y-64152381D01*
X157733810Y-64176190D01*
X157614763Y-64176190D01*
X158400477Y-64128571D02*
X158376667Y-64152381D01*
X158305239Y-64176190D01*
X158257620Y-64176190D01*
X158186191Y-64152381D01*
X158138572Y-64104762D01*
X158114763Y-64057143D01*
X158090953Y-63961905D01*
X158090953Y-63890476D01*
X158114763Y-63795238D01*
X158138572Y-63747619D01*
X158186191Y-63700000D01*
X158257620Y-63676190D01*
X158305239Y-63676190D01*
X158376667Y-63700000D01*
X158400477Y-63723810D01*
X158495715Y-64223810D02*
X158876667Y-64223810D01*
X159210000Y-63842857D02*
X159210000Y-64176190D01*
X159090953Y-63652381D02*
X158971905Y-64009524D01*
X159281429Y-64009524D01*
X177180001Y-75125714D02*
X177560953Y-75125714D01*
X177370477Y-75316190D02*
X177370477Y-74935238D01*
X177751430Y-74816190D02*
X178060953Y-74816190D01*
X177894287Y-75006667D01*
X177965715Y-75006667D01*
X178013334Y-75030476D01*
X178037144Y-75054286D01*
X178060953Y-75101905D01*
X178060953Y-75220952D01*
X178037144Y-75268571D01*
X178013334Y-75292381D01*
X177965715Y-75316190D01*
X177822858Y-75316190D01*
X177775239Y-75292381D01*
X177751430Y-75268571D01*
X178275239Y-75268571D02*
X178299048Y-75292381D01*
X178275239Y-75316190D01*
X178251429Y-75292381D01*
X178275239Y-75268571D01*
X178275239Y-75316190D01*
X178465715Y-74816190D02*
X178775238Y-74816190D01*
X178608572Y-75006667D01*
X178680000Y-75006667D01*
X178727619Y-75030476D01*
X178751429Y-75054286D01*
X178775238Y-75101905D01*
X178775238Y-75220952D01*
X178751429Y-75268571D01*
X178727619Y-75292381D01*
X178680000Y-75316190D01*
X178537143Y-75316190D01*
X178489524Y-75292381D01*
X178465715Y-75268571D01*
X178918095Y-74816190D02*
X179084762Y-75316190D01*
X179251428Y-74816190D01*
X156879047Y-85510000D02*
X156831428Y-85486190D01*
X156760000Y-85486190D01*
X156688571Y-85510000D01*
X156640952Y-85557619D01*
X156617143Y-85605238D01*
X156593333Y-85700476D01*
X156593333Y-85771905D01*
X156617143Y-85867143D01*
X156640952Y-85914762D01*
X156688571Y-85962381D01*
X156760000Y-85986190D01*
X156807619Y-85986190D01*
X156879047Y-85962381D01*
X156902857Y-85938571D01*
X156902857Y-85771905D01*
X156807619Y-85771905D01*
X157117143Y-85986190D02*
X157117143Y-85486190D01*
X157402857Y-85986190D01*
X157402857Y-85486190D01*
X157640953Y-85986190D02*
X157640953Y-85486190D01*
X157760000Y-85486190D01*
X157831429Y-85510000D01*
X157879048Y-85557619D01*
X157902857Y-85605238D01*
X157926667Y-85700476D01*
X157926667Y-85771905D01*
X157902857Y-85867143D01*
X157879048Y-85914762D01*
X157831429Y-85962381D01*
X157760000Y-85986190D01*
X157640953Y-85986190D01*
X194919047Y-90400000D02*
X194871428Y-90376190D01*
X194800000Y-90376190D01*
X194728571Y-90400000D01*
X194680952Y-90447619D01*
X194657143Y-90495238D01*
X194633333Y-90590476D01*
X194633333Y-90661905D01*
X194657143Y-90757143D01*
X194680952Y-90804762D01*
X194728571Y-90852381D01*
X194800000Y-90876190D01*
X194847619Y-90876190D01*
X194919047Y-90852381D01*
X194942857Y-90828571D01*
X194942857Y-90661905D01*
X194847619Y-90661905D01*
X195157143Y-90876190D02*
X195157143Y-90376190D01*
X195442857Y-90876190D01*
X195442857Y-90376190D01*
X195680953Y-90876190D02*
X195680953Y-90376190D01*
X195800000Y-90376190D01*
X195871429Y-90400000D01*
X195919048Y-90447619D01*
X195942857Y-90495238D01*
X195966667Y-90590476D01*
X195966667Y-90661905D01*
X195942857Y-90757143D01*
X195919048Y-90804762D01*
X195871429Y-90852381D01*
X195800000Y-90876190D01*
X195680953Y-90876190D01*
X144009047Y-56930000D02*
X143961428Y-56906190D01*
X143890000Y-56906190D01*
X143818571Y-56930000D01*
X143770952Y-56977619D01*
X143747143Y-57025238D01*
X143723333Y-57120476D01*
X143723333Y-57191905D01*
X143747143Y-57287143D01*
X143770952Y-57334762D01*
X143818571Y-57382381D01*
X143890000Y-57406190D01*
X143937619Y-57406190D01*
X144009047Y-57382381D01*
X144032857Y-57358571D01*
X144032857Y-57191905D01*
X143937619Y-57191905D01*
X144247143Y-57406190D02*
X144247143Y-56906190D01*
X144532857Y-57406190D01*
X144532857Y-56906190D01*
X144770953Y-57406190D02*
X144770953Y-56906190D01*
X144890000Y-56906190D01*
X144961429Y-56930000D01*
X145009048Y-56977619D01*
X145032857Y-57025238D01*
X145056667Y-57120476D01*
X145056667Y-57191905D01*
X145032857Y-57287143D01*
X145009048Y-57334762D01*
X144961429Y-57382381D01*
X144890000Y-57406190D01*
X144770953Y-57406190D01*
X168619047Y-53625000D02*
X168571428Y-53601190D01*
X168500000Y-53601190D01*
X168428571Y-53625000D01*
X168380952Y-53672619D01*
X168357143Y-53720238D01*
X168333333Y-53815476D01*
X168333333Y-53886905D01*
X168357143Y-53982143D01*
X168380952Y-54029762D01*
X168428571Y-54077381D01*
X168500000Y-54101190D01*
X168547619Y-54101190D01*
X168619047Y-54077381D01*
X168642857Y-54053571D01*
X168642857Y-53886905D01*
X168547619Y-53886905D01*
X168857143Y-54101190D02*
X168857143Y-53601190D01*
X169142857Y-54101190D01*
X169142857Y-53601190D01*
X169380953Y-54101190D02*
X169380953Y-53601190D01*
X169500000Y-53601190D01*
X169571429Y-53625000D01*
X169619048Y-53672619D01*
X169642857Y-53720238D01*
X169666667Y-53815476D01*
X169666667Y-53886905D01*
X169642857Y-53982143D01*
X169619048Y-54029762D01*
X169571429Y-54077381D01*
X169500000Y-54101190D01*
X169380953Y-54101190D01*
X148720001Y-86265714D02*
X149100953Y-86265714D01*
X148910477Y-86456190D02*
X148910477Y-86075238D01*
X149291430Y-85956190D02*
X149600953Y-85956190D01*
X149434287Y-86146667D01*
X149505715Y-86146667D01*
X149553334Y-86170476D01*
X149577144Y-86194286D01*
X149600953Y-86241905D01*
X149600953Y-86360952D01*
X149577144Y-86408571D01*
X149553334Y-86432381D01*
X149505715Y-86456190D01*
X149362858Y-86456190D01*
X149315239Y-86432381D01*
X149291430Y-86408571D01*
X149815239Y-86408571D02*
X149839048Y-86432381D01*
X149815239Y-86456190D01*
X149791429Y-86432381D01*
X149815239Y-86408571D01*
X149815239Y-86456190D01*
X150005715Y-85956190D02*
X150315238Y-85956190D01*
X150148572Y-86146667D01*
X150220000Y-86146667D01*
X150267619Y-86170476D01*
X150291429Y-86194286D01*
X150315238Y-86241905D01*
X150315238Y-86360952D01*
X150291429Y-86408571D01*
X150267619Y-86432381D01*
X150220000Y-86456190D01*
X150077143Y-86456190D01*
X150029524Y-86432381D01*
X150005715Y-86408571D01*
X150458095Y-85956190D02*
X150624762Y-86456190D01*
X150791428Y-85956190D01*
X168058097Y-87556190D02*
X168058097Y-87056190D01*
X168177144Y-87056190D01*
X168248573Y-87080000D01*
X168296192Y-87127619D01*
X168320001Y-87175238D01*
X168343811Y-87270476D01*
X168343811Y-87341905D01*
X168320001Y-87437143D01*
X168296192Y-87484762D01*
X168248573Y-87532381D01*
X168177144Y-87556190D01*
X168058097Y-87556190D01*
X168843811Y-87508571D02*
X168820001Y-87532381D01*
X168748573Y-87556190D01*
X168700954Y-87556190D01*
X168629525Y-87532381D01*
X168581906Y-87484762D01*
X168558097Y-87437143D01*
X168534287Y-87341905D01*
X168534287Y-87270476D01*
X168558097Y-87175238D01*
X168581906Y-87127619D01*
X168629525Y-87080000D01*
X168700954Y-87056190D01*
X168748573Y-87056190D01*
X168820001Y-87080000D01*
X168843811Y-87103810D01*
X168939049Y-87603810D02*
X169320001Y-87603810D01*
X169391430Y-87056190D02*
X169700953Y-87056190D01*
X169534287Y-87246667D01*
X169605715Y-87246667D01*
X169653334Y-87270476D01*
X169677144Y-87294286D01*
X169700953Y-87341905D01*
X169700953Y-87460952D01*
X169677144Y-87508571D01*
X169653334Y-87532381D01*
X169605715Y-87556190D01*
X169462858Y-87556190D01*
X169415239Y-87532381D01*
X169391430Y-87508571D01*
X169843810Y-87056190D02*
X170010477Y-87556190D01*
X170177143Y-87056190D01*
X170558095Y-87056190D02*
X170462857Y-87056190D01*
X170415238Y-87080000D01*
X170391429Y-87103810D01*
X170343810Y-87175238D01*
X170320000Y-87270476D01*
X170320000Y-87460952D01*
X170343810Y-87508571D01*
X170367619Y-87532381D01*
X170415238Y-87556190D01*
X170510476Y-87556190D01*
X170558095Y-87532381D01*
X170581905Y-87508571D01*
X170605714Y-87460952D01*
X170605714Y-87341905D01*
X170581905Y-87294286D01*
X170558095Y-87270476D01*
X170510476Y-87246667D01*
X170415238Y-87246667D01*
X170367619Y-87270476D01*
X170343810Y-87294286D01*
X170320000Y-87341905D01*
X140394049Y-91676190D02*
X140394049Y-91176190D01*
X140513096Y-91176190D01*
X140584525Y-91200000D01*
X140632144Y-91247619D01*
X140655953Y-91295238D01*
X140679763Y-91390476D01*
X140679763Y-91461905D01*
X140655953Y-91557143D01*
X140632144Y-91604762D01*
X140584525Y-91652381D01*
X140513096Y-91676190D01*
X140394049Y-91676190D01*
X141179763Y-91628571D02*
X141155953Y-91652381D01*
X141084525Y-91676190D01*
X141036906Y-91676190D01*
X140965477Y-91652381D01*
X140917858Y-91604762D01*
X140894049Y-91557143D01*
X140870239Y-91461905D01*
X140870239Y-91390476D01*
X140894049Y-91295238D01*
X140917858Y-91247619D01*
X140965477Y-91200000D01*
X141036906Y-91176190D01*
X141084525Y-91176190D01*
X141155953Y-91200000D01*
X141179763Y-91223810D01*
X141275001Y-91723810D02*
X141655953Y-91723810D01*
X141703572Y-91176190D02*
X141870239Y-91676190D01*
X142036905Y-91176190D01*
X142203572Y-91676190D02*
X142203572Y-91342857D01*
X142203572Y-91176190D02*
X142179762Y-91200000D01*
X142203572Y-91223810D01*
X142227381Y-91200000D01*
X142203572Y-91176190D01*
X142203572Y-91223810D01*
X142441667Y-91342857D02*
X142441667Y-91676190D01*
X142441667Y-91390476D02*
X142465476Y-91366667D01*
X142513095Y-91342857D01*
X142584524Y-91342857D01*
X142632143Y-91366667D01*
X142655952Y-91414286D01*
X142655952Y-91676190D01*
X143956429Y-76546190D02*
X144123096Y-77046190D01*
X144289762Y-76546190D01*
X144456429Y-77046190D02*
X144456429Y-76712857D01*
X144456429Y-76808095D02*
X144480238Y-76760476D01*
X144504048Y-76736667D01*
X144551667Y-76712857D01*
X144599286Y-76712857D01*
X144956429Y-77022381D02*
X144908810Y-77046190D01*
X144813572Y-77046190D01*
X144765953Y-77022381D01*
X144742143Y-76974762D01*
X144742143Y-76784286D01*
X144765953Y-76736667D01*
X144813572Y-76712857D01*
X144908810Y-76712857D01*
X144956429Y-76736667D01*
X144980238Y-76784286D01*
X144980238Y-76831905D01*
X144742143Y-76879524D01*
X145123095Y-76712857D02*
X145313571Y-76712857D01*
X145194524Y-77046190D02*
X145194524Y-76617619D01*
X145218333Y-76570000D01*
X145265952Y-76546190D01*
X145313571Y-76546190D01*
X148219048Y-79226190D02*
X148219048Y-78726190D01*
X148219048Y-78964286D02*
X148504762Y-78964286D01*
X148504762Y-79226190D02*
X148504762Y-78726190D01*
X148719048Y-79202381D02*
X148790477Y-79226190D01*
X148909524Y-79226190D01*
X148957143Y-79202381D01*
X148980953Y-79178571D01*
X149004762Y-79130952D01*
X149004762Y-79083333D01*
X148980953Y-79035714D01*
X148957143Y-79011905D01*
X148909524Y-78988095D01*
X148814286Y-78964286D01*
X148766667Y-78940476D01*
X148742858Y-78916667D01*
X148719048Y-78869048D01*
X148719048Y-78821429D01*
X148742858Y-78773810D01*
X148766667Y-78750000D01*
X148814286Y-78726190D01*
X148933334Y-78726190D01*
X149004762Y-78750000D01*
X148516667Y-82626190D02*
X148278572Y-82626190D01*
X148278572Y-82126190D01*
X148659524Y-82602381D02*
X148730953Y-82626190D01*
X148850000Y-82626190D01*
X148897619Y-82602381D01*
X148921429Y-82578571D01*
X148945238Y-82530952D01*
X148945238Y-82483333D01*
X148921429Y-82435714D01*
X148897619Y-82411905D01*
X148850000Y-82388095D01*
X148754762Y-82364286D01*
X148707143Y-82340476D01*
X148683334Y-82316667D01*
X148659524Y-82269048D01*
X148659524Y-82221429D01*
X148683334Y-82173810D01*
X148707143Y-82150000D01*
X148754762Y-82126190D01*
X148873810Y-82126190D01*
X148945238Y-82150000D01*
X140220258Y-89235990D02*
X140220258Y-88735990D01*
X140410734Y-88735990D01*
X140458353Y-88759800D01*
X140482162Y-88783610D01*
X140505972Y-88831229D01*
X140505972Y-88902657D01*
X140482162Y-88950276D01*
X140458353Y-88974086D01*
X140410734Y-88997895D01*
X140220258Y-88997895D01*
X140696448Y-88783610D02*
X140720258Y-88759800D01*
X140767877Y-88735990D01*
X140886924Y-88735990D01*
X140934543Y-88759800D01*
X140958353Y-88783610D01*
X140982162Y-88831229D01*
X140982162Y-88878848D01*
X140958353Y-88950276D01*
X140672639Y-89235990D01*
X140982162Y-89235990D01*
X141267876Y-88950276D02*
X141220257Y-88926467D01*
X141196448Y-88902657D01*
X141172638Y-88855038D01*
X141172638Y-88831229D01*
X141196448Y-88783610D01*
X141220257Y-88759800D01*
X141267876Y-88735990D01*
X141363114Y-88735990D01*
X141410733Y-88759800D01*
X141434543Y-88783610D01*
X141458352Y-88831229D01*
X141458352Y-88855038D01*
X141434543Y-88902657D01*
X141410733Y-88926467D01*
X141363114Y-88950276D01*
X141267876Y-88950276D01*
X141220257Y-88974086D01*
X141196448Y-88997895D01*
X141172638Y-89045514D01*
X141172638Y-89140752D01*
X141196448Y-89188371D01*
X141220257Y-89212181D01*
X141267876Y-89235990D01*
X141363114Y-89235990D01*
X141410733Y-89212181D01*
X141434543Y-89188371D01*
X141458352Y-89140752D01*
X141458352Y-89045514D01*
X141434543Y-88997895D01*
X141410733Y-88974086D01*
X141363114Y-88950276D01*
X163146190Y-96643333D02*
X162908095Y-96810000D01*
X163146190Y-96929047D02*
X162646190Y-96929047D01*
X162646190Y-96738571D01*
X162670000Y-96690952D01*
X162693810Y-96667143D01*
X162741429Y-96643333D01*
X162812857Y-96643333D01*
X162860476Y-96667143D01*
X162884286Y-96690952D01*
X162908095Y-96738571D01*
X162908095Y-96929047D01*
X163146190Y-96167143D02*
X163146190Y-96452857D01*
X163146190Y-96310000D02*
X162646190Y-96310000D01*
X162717619Y-96357619D01*
X162765238Y-96405238D01*
X162789048Y-96452857D01*
X169056667Y-96276190D02*
X168890000Y-96038095D01*
X168770953Y-96276190D02*
X168770953Y-95776190D01*
X168961429Y-95776190D01*
X169009048Y-95800000D01*
X169032857Y-95823810D01*
X169056667Y-95871429D01*
X169056667Y-95942857D01*
X169032857Y-95990476D01*
X169009048Y-96014286D01*
X168961429Y-96038095D01*
X168770953Y-96038095D01*
X169247143Y-95823810D02*
X169270953Y-95800000D01*
X169318572Y-95776190D01*
X169437619Y-95776190D01*
X169485238Y-95800000D01*
X169509048Y-95823810D01*
X169532857Y-95871429D01*
X169532857Y-95919048D01*
X169509048Y-95990476D01*
X169223334Y-96276190D01*
X169532857Y-96276190D01*
X178541667Y-99351190D02*
X178375000Y-99113095D01*
X178255953Y-99351190D02*
X178255953Y-98851190D01*
X178446429Y-98851190D01*
X178494048Y-98875000D01*
X178517857Y-98898810D01*
X178541667Y-98946429D01*
X178541667Y-99017857D01*
X178517857Y-99065476D01*
X178494048Y-99089286D01*
X178446429Y-99113095D01*
X178255953Y-99113095D01*
X178708334Y-98851190D02*
X179017857Y-98851190D01*
X178851191Y-99041667D01*
X178922619Y-99041667D01*
X178970238Y-99065476D01*
X178994048Y-99089286D01*
X179017857Y-99136905D01*
X179017857Y-99255952D01*
X178994048Y-99303571D01*
X178970238Y-99327381D01*
X178922619Y-99351190D01*
X178779762Y-99351190D01*
X178732143Y-99327381D01*
X178708334Y-99303571D01*
X173903781Y-98042818D02*
X173665686Y-98209485D01*
X173903781Y-98328532D02*
X173403781Y-98328532D01*
X173403781Y-98138056D01*
X173427591Y-98090437D01*
X173451401Y-98066628D01*
X173499020Y-98042818D01*
X173570448Y-98042818D01*
X173618067Y-98066628D01*
X173641877Y-98090437D01*
X173665686Y-98138056D01*
X173665686Y-98328532D01*
X173570448Y-97614247D02*
X173903781Y-97614247D01*
X173379972Y-97733294D02*
X173737115Y-97852342D01*
X173737115Y-97542818D01*
X145091667Y-73806190D02*
X144925000Y-73568095D01*
X144805953Y-73806190D02*
X144805953Y-73306190D01*
X144996429Y-73306190D01*
X145044048Y-73330000D01*
X145067857Y-73353810D01*
X145091667Y-73401429D01*
X145091667Y-73472857D01*
X145067857Y-73520476D01*
X145044048Y-73544286D01*
X144996429Y-73568095D01*
X144805953Y-73568095D01*
X145544048Y-73306190D02*
X145305953Y-73306190D01*
X145282143Y-73544286D01*
X145305953Y-73520476D01*
X145353572Y-73496667D01*
X145472619Y-73496667D01*
X145520238Y-73520476D01*
X145544048Y-73544286D01*
X145567857Y-73591905D01*
X145567857Y-73710952D01*
X145544048Y-73758571D01*
X145520238Y-73782381D01*
X145472619Y-73806190D01*
X145353572Y-73806190D01*
X145305953Y-73782381D01*
X145282143Y-73758571D01*
X145091667Y-69201190D02*
X144925000Y-68963095D01*
X144805953Y-69201190D02*
X144805953Y-68701190D01*
X144996429Y-68701190D01*
X145044048Y-68725000D01*
X145067857Y-68748810D01*
X145091667Y-68796429D01*
X145091667Y-68867857D01*
X145067857Y-68915476D01*
X145044048Y-68939286D01*
X144996429Y-68963095D01*
X144805953Y-68963095D01*
X145520238Y-68701190D02*
X145425000Y-68701190D01*
X145377381Y-68725000D01*
X145353572Y-68748810D01*
X145305953Y-68820238D01*
X145282143Y-68915476D01*
X145282143Y-69105952D01*
X145305953Y-69153571D01*
X145329762Y-69177381D01*
X145377381Y-69201190D01*
X145472619Y-69201190D01*
X145520238Y-69177381D01*
X145544048Y-69153571D01*
X145567857Y-69105952D01*
X145567857Y-68986905D01*
X145544048Y-68939286D01*
X145520238Y-68915476D01*
X145472619Y-68891667D01*
X145377381Y-68891667D01*
X145329762Y-68915476D01*
X145305953Y-68939286D01*
X145282143Y-68986905D01*
X145091667Y-72836190D02*
X144925000Y-72598095D01*
X144805953Y-72836190D02*
X144805953Y-72336190D01*
X144996429Y-72336190D01*
X145044048Y-72360000D01*
X145067857Y-72383810D01*
X145091667Y-72431429D01*
X145091667Y-72502857D01*
X145067857Y-72550476D01*
X145044048Y-72574286D01*
X144996429Y-72598095D01*
X144805953Y-72598095D01*
X145258334Y-72336190D02*
X145591667Y-72336190D01*
X145377381Y-72836190D01*
X145086667Y-70196190D02*
X144920000Y-69958095D01*
X144800953Y-70196190D02*
X144800953Y-69696190D01*
X144991429Y-69696190D01*
X145039048Y-69720000D01*
X145062857Y-69743810D01*
X145086667Y-69791429D01*
X145086667Y-69862857D01*
X145062857Y-69910476D01*
X145039048Y-69934286D01*
X144991429Y-69958095D01*
X144800953Y-69958095D01*
X145372381Y-69910476D02*
X145324762Y-69886667D01*
X145300953Y-69862857D01*
X145277143Y-69815238D01*
X145277143Y-69791429D01*
X145300953Y-69743810D01*
X145324762Y-69720000D01*
X145372381Y-69696190D01*
X145467619Y-69696190D01*
X145515238Y-69720000D01*
X145539048Y-69743810D01*
X145562857Y-69791429D01*
X145562857Y-69815238D01*
X145539048Y-69862857D01*
X145515238Y-69886667D01*
X145467619Y-69910476D01*
X145372381Y-69910476D01*
X145324762Y-69934286D01*
X145300953Y-69958095D01*
X145277143Y-70005714D01*
X145277143Y-70100952D01*
X145300953Y-70148571D01*
X145324762Y-70172381D01*
X145372381Y-70196190D01*
X145467619Y-70196190D01*
X145515238Y-70172381D01*
X145539048Y-70148571D01*
X145562857Y-70100952D01*
X145562857Y-70005714D01*
X145539048Y-69958095D01*
X145515238Y-69934286D01*
X145467619Y-69910476D01*
X155666667Y-64351190D02*
X155500000Y-64113095D01*
X155380953Y-64351190D02*
X155380953Y-63851190D01*
X155571429Y-63851190D01*
X155619048Y-63875000D01*
X155642857Y-63898810D01*
X155666667Y-63946429D01*
X155666667Y-64017857D01*
X155642857Y-64065476D01*
X155619048Y-64089286D01*
X155571429Y-64113095D01*
X155380953Y-64113095D01*
X155904762Y-64351190D02*
X156000000Y-64351190D01*
X156047619Y-64327381D01*
X156071429Y-64303571D01*
X156119048Y-64232143D01*
X156142857Y-64136905D01*
X156142857Y-63946429D01*
X156119048Y-63898810D01*
X156095238Y-63875000D01*
X156047619Y-63851190D01*
X155952381Y-63851190D01*
X155904762Y-63875000D01*
X155880953Y-63898810D01*
X155857143Y-63946429D01*
X155857143Y-64065476D01*
X155880953Y-64113095D01*
X155904762Y-64136905D01*
X155952381Y-64160714D01*
X156047619Y-64160714D01*
X156095238Y-64136905D01*
X156119048Y-64113095D01*
X156142857Y-64065476D01*
D10*
X158442858Y-70570952D02*
X158309524Y-70380476D01*
X158214286Y-70570952D02*
X158214286Y-70170952D01*
X158366667Y-70170952D01*
X158404762Y-70190000D01*
X158423810Y-70209048D01*
X158442858Y-70247143D01*
X158442858Y-70304286D01*
X158423810Y-70342381D01*
X158404762Y-70361429D01*
X158366667Y-70380476D01*
X158214286Y-70380476D01*
X158823810Y-70570952D02*
X158595238Y-70570952D01*
X158709524Y-70570952D02*
X158709524Y-70170952D01*
X158671429Y-70228095D01*
X158633334Y-70266190D01*
X158595238Y-70285238D01*
X159071429Y-70170952D02*
X159109524Y-70170952D01*
X159147619Y-70190000D01*
X159166667Y-70209048D01*
X159185714Y-70247143D01*
X159204762Y-70323333D01*
X159204762Y-70418571D01*
X159185714Y-70494762D01*
X159166667Y-70532857D01*
X159147619Y-70551905D01*
X159109524Y-70570952D01*
X159071429Y-70570952D01*
X159033333Y-70551905D01*
X159014286Y-70532857D01*
X158995238Y-70494762D01*
X158976190Y-70418571D01*
X158976190Y-70323333D01*
X158995238Y-70247143D01*
X159014286Y-70209048D01*
X159033333Y-70190000D01*
X159071429Y-70170952D01*
X177572858Y-61010952D02*
X177439524Y-60820476D01*
X177344286Y-61010952D02*
X177344286Y-60610952D01*
X177496667Y-60610952D01*
X177534762Y-60630000D01*
X177553810Y-60649048D01*
X177572858Y-60687143D01*
X177572858Y-60744286D01*
X177553810Y-60782381D01*
X177534762Y-60801429D01*
X177496667Y-60820476D01*
X177344286Y-60820476D01*
X177953810Y-61010952D02*
X177725238Y-61010952D01*
X177839524Y-61010952D02*
X177839524Y-60610952D01*
X177801429Y-60668095D01*
X177763334Y-60706190D01*
X177725238Y-60725238D01*
X178334762Y-61010952D02*
X178106190Y-61010952D01*
X178220476Y-61010952D02*
X178220476Y-60610952D01*
X178182381Y-60668095D01*
X178144286Y-60706190D01*
X178106190Y-60725238D01*
X177572858Y-59830952D02*
X177439524Y-59640476D01*
X177344286Y-59830952D02*
X177344286Y-59430952D01*
X177496667Y-59430952D01*
X177534762Y-59450000D01*
X177553810Y-59469048D01*
X177572858Y-59507143D01*
X177572858Y-59564286D01*
X177553810Y-59602381D01*
X177534762Y-59621429D01*
X177496667Y-59640476D01*
X177344286Y-59640476D01*
X177953810Y-59830952D02*
X177725238Y-59830952D01*
X177839524Y-59830952D02*
X177839524Y-59430952D01*
X177801429Y-59488095D01*
X177763334Y-59526190D01*
X177725238Y-59545238D01*
X178106190Y-59469048D02*
X178125238Y-59450000D01*
X178163333Y-59430952D01*
X178258571Y-59430952D01*
X178296667Y-59450000D01*
X178315714Y-59469048D01*
X178334762Y-59507143D01*
X178334762Y-59545238D01*
X178315714Y-59602381D01*
X178087143Y-59830952D01*
X178334762Y-59830952D01*
X177582858Y-57450952D02*
X177449524Y-57260476D01*
X177354286Y-57450952D02*
X177354286Y-57050952D01*
X177506667Y-57050952D01*
X177544762Y-57070000D01*
X177563810Y-57089048D01*
X177582858Y-57127143D01*
X177582858Y-57184286D01*
X177563810Y-57222381D01*
X177544762Y-57241429D01*
X177506667Y-57260476D01*
X177354286Y-57260476D01*
X177963810Y-57450952D02*
X177735238Y-57450952D01*
X177849524Y-57450952D02*
X177849524Y-57050952D01*
X177811429Y-57108095D01*
X177773334Y-57146190D01*
X177735238Y-57165238D01*
X178097143Y-57050952D02*
X178344762Y-57050952D01*
X178211429Y-57203333D01*
X178268571Y-57203333D01*
X178306667Y-57222381D01*
X178325714Y-57241429D01*
X178344762Y-57279524D01*
X178344762Y-57374762D01*
X178325714Y-57412857D01*
X178306667Y-57431905D01*
X178268571Y-57450952D01*
X178154286Y-57450952D01*
X178116190Y-57431905D01*
X178097143Y-57412857D01*
X177582858Y-58260952D02*
X177449524Y-58070476D01*
X177354286Y-58260952D02*
X177354286Y-57860952D01*
X177506667Y-57860952D01*
X177544762Y-57880000D01*
X177563810Y-57899048D01*
X177582858Y-57937143D01*
X177582858Y-57994286D01*
X177563810Y-58032381D01*
X177544762Y-58051429D01*
X177506667Y-58070476D01*
X177354286Y-58070476D01*
X177963810Y-58260952D02*
X177735238Y-58260952D01*
X177849524Y-58260952D02*
X177849524Y-57860952D01*
X177811429Y-57918095D01*
X177773334Y-57956190D01*
X177735238Y-57975238D01*
X178306667Y-57994286D02*
X178306667Y-58260952D01*
X178211429Y-57841905D02*
X178116190Y-58127619D01*
X178363810Y-58127619D01*
D16*
X159778572Y-57301190D02*
X159611905Y-57063095D01*
X159492858Y-57301190D02*
X159492858Y-56801190D01*
X159683334Y-56801190D01*
X159730953Y-56825000D01*
X159754762Y-56848810D01*
X159778572Y-56896429D01*
X159778572Y-56967857D01*
X159754762Y-57015476D01*
X159730953Y-57039286D01*
X159683334Y-57063095D01*
X159492858Y-57063095D01*
X160254762Y-57301190D02*
X159969048Y-57301190D01*
X160111905Y-57301190D02*
X160111905Y-56801190D01*
X160064286Y-56872619D01*
X160016667Y-56920238D01*
X159969048Y-56944048D01*
X160707143Y-56801190D02*
X160469048Y-56801190D01*
X160445238Y-57039286D01*
X160469048Y-57015476D01*
X160516667Y-56991667D01*
X160635714Y-56991667D01*
X160683333Y-57015476D01*
X160707143Y-57039286D01*
X160730952Y-57086905D01*
X160730952Y-57205952D01*
X160707143Y-57253571D01*
X160683333Y-57277381D01*
X160635714Y-57301190D01*
X160516667Y-57301190D01*
X160469048Y-57277381D01*
X160445238Y-57253571D01*
X159758572Y-58296190D02*
X159591905Y-58058095D01*
X159472858Y-58296190D02*
X159472858Y-57796190D01*
X159663334Y-57796190D01*
X159710953Y-57820000D01*
X159734762Y-57843810D01*
X159758572Y-57891429D01*
X159758572Y-57962857D01*
X159734762Y-58010476D01*
X159710953Y-58034286D01*
X159663334Y-58058095D01*
X159472858Y-58058095D01*
X160234762Y-58296190D02*
X159949048Y-58296190D01*
X160091905Y-58296190D02*
X160091905Y-57796190D01*
X160044286Y-57867619D01*
X159996667Y-57915238D01*
X159949048Y-57939048D01*
X160663333Y-57796190D02*
X160568095Y-57796190D01*
X160520476Y-57820000D01*
X160496667Y-57843810D01*
X160449048Y-57915238D01*
X160425238Y-58010476D01*
X160425238Y-58200952D01*
X160449048Y-58248571D01*
X160472857Y-58272381D01*
X160520476Y-58296190D01*
X160615714Y-58296190D01*
X160663333Y-58272381D01*
X160687143Y-58248571D01*
X160710952Y-58200952D01*
X160710952Y-58081905D01*
X160687143Y-58034286D01*
X160663333Y-58010476D01*
X160615714Y-57986667D01*
X160520476Y-57986667D01*
X160472857Y-58010476D01*
X160449048Y-58034286D01*
X160425238Y-58081905D01*
X159703572Y-61926190D02*
X159536905Y-61688095D01*
X159417858Y-61926190D02*
X159417858Y-61426190D01*
X159608334Y-61426190D01*
X159655953Y-61450000D01*
X159679762Y-61473810D01*
X159703572Y-61521429D01*
X159703572Y-61592857D01*
X159679762Y-61640476D01*
X159655953Y-61664286D01*
X159608334Y-61688095D01*
X159417858Y-61688095D01*
X160179762Y-61926190D02*
X159894048Y-61926190D01*
X160036905Y-61926190D02*
X160036905Y-61426190D01*
X159989286Y-61497619D01*
X159941667Y-61545238D01*
X159894048Y-61569048D01*
X160346429Y-61426190D02*
X160679762Y-61426190D01*
X160465476Y-61926190D01*
X159768572Y-59766190D02*
X159601905Y-59528095D01*
X159482858Y-59766190D02*
X159482858Y-59266190D01*
X159673334Y-59266190D01*
X159720953Y-59290000D01*
X159744762Y-59313810D01*
X159768572Y-59361429D01*
X159768572Y-59432857D01*
X159744762Y-59480476D01*
X159720953Y-59504286D01*
X159673334Y-59528095D01*
X159482858Y-59528095D01*
X160244762Y-59766190D02*
X159959048Y-59766190D01*
X160101905Y-59766190D02*
X160101905Y-59266190D01*
X160054286Y-59337619D01*
X160006667Y-59385238D01*
X159959048Y-59409048D01*
X160530476Y-59480476D02*
X160482857Y-59456667D01*
X160459048Y-59432857D01*
X160435238Y-59385238D01*
X160435238Y-59361429D01*
X160459048Y-59313810D01*
X160482857Y-59290000D01*
X160530476Y-59266190D01*
X160625714Y-59266190D01*
X160673333Y-59290000D01*
X160697143Y-59313810D01*
X160720952Y-59361429D01*
X160720952Y-59385238D01*
X160697143Y-59432857D01*
X160673333Y-59456667D01*
X160625714Y-59480476D01*
X160530476Y-59480476D01*
X160482857Y-59504286D01*
X160459048Y-59528095D01*
X160435238Y-59575714D01*
X160435238Y-59670952D01*
X160459048Y-59718571D01*
X160482857Y-59742381D01*
X160530476Y-59766190D01*
X160625714Y-59766190D01*
X160673333Y-59742381D01*
X160697143Y-59718571D01*
X160720952Y-59670952D01*
X160720952Y-59575714D01*
X160697143Y-59528095D01*
X160673333Y-59504286D01*
X160625714Y-59480476D01*
X176853572Y-69276190D02*
X176686905Y-69038095D01*
X176567858Y-69276190D02*
X176567858Y-68776190D01*
X176758334Y-68776190D01*
X176805953Y-68800000D01*
X176829762Y-68823810D01*
X176853572Y-68871429D01*
X176853572Y-68942857D01*
X176829762Y-68990476D01*
X176805953Y-69014286D01*
X176758334Y-69038095D01*
X176567858Y-69038095D01*
X177329762Y-69276190D02*
X177044048Y-69276190D01*
X177186905Y-69276190D02*
X177186905Y-68776190D01*
X177139286Y-68847619D01*
X177091667Y-68895238D01*
X177044048Y-68919048D01*
X177567857Y-69276190D02*
X177663095Y-69276190D01*
X177710714Y-69252381D01*
X177734524Y-69228571D01*
X177782143Y-69157143D01*
X177805952Y-69061905D01*
X177805952Y-68871429D01*
X177782143Y-68823810D01*
X177758333Y-68800000D01*
X177710714Y-68776190D01*
X177615476Y-68776190D01*
X177567857Y-68800000D01*
X177544048Y-68823810D01*
X177520238Y-68871429D01*
X177520238Y-68990476D01*
X177544048Y-69038095D01*
X177567857Y-69061905D01*
X177615476Y-69085714D01*
X177710714Y-69085714D01*
X177758333Y-69061905D01*
X177782143Y-69038095D01*
X177805952Y-68990476D01*
X176853572Y-66351190D02*
X176686905Y-66113095D01*
X176567858Y-66351190D02*
X176567858Y-65851190D01*
X176758334Y-65851190D01*
X176805953Y-65875000D01*
X176829762Y-65898810D01*
X176853572Y-65946429D01*
X176853572Y-66017857D01*
X176829762Y-66065476D01*
X176805953Y-66089286D01*
X176758334Y-66113095D01*
X176567858Y-66113095D01*
X177044048Y-65898810D02*
X177067858Y-65875000D01*
X177115477Y-65851190D01*
X177234524Y-65851190D01*
X177282143Y-65875000D01*
X177305953Y-65898810D01*
X177329762Y-65946429D01*
X177329762Y-65994048D01*
X177305953Y-66065476D01*
X177020239Y-66351190D01*
X177329762Y-66351190D01*
X177639286Y-65851190D02*
X177686905Y-65851190D01*
X177734524Y-65875000D01*
X177758333Y-65898810D01*
X177782143Y-65946429D01*
X177805952Y-66041667D01*
X177805952Y-66160714D01*
X177782143Y-66255952D01*
X177758333Y-66303571D01*
X177734524Y-66327381D01*
X177686905Y-66351190D01*
X177639286Y-66351190D01*
X177591667Y-66327381D01*
X177567857Y-66303571D01*
X177544048Y-66255952D01*
X177520238Y-66160714D01*
X177520238Y-66041667D01*
X177544048Y-65946429D01*
X177567857Y-65898810D01*
X177591667Y-65875000D01*
X177639286Y-65851190D01*
X176853572Y-67801190D02*
X176686905Y-67563095D01*
X176567858Y-67801190D02*
X176567858Y-67301190D01*
X176758334Y-67301190D01*
X176805953Y-67325000D01*
X176829762Y-67348810D01*
X176853572Y-67396429D01*
X176853572Y-67467857D01*
X176829762Y-67515476D01*
X176805953Y-67539286D01*
X176758334Y-67563095D01*
X176567858Y-67563095D01*
X177044048Y-67348810D02*
X177067858Y-67325000D01*
X177115477Y-67301190D01*
X177234524Y-67301190D01*
X177282143Y-67325000D01*
X177305953Y-67348810D01*
X177329762Y-67396429D01*
X177329762Y-67444048D01*
X177305953Y-67515476D01*
X177020239Y-67801190D01*
X177329762Y-67801190D01*
X177805952Y-67801190D02*
X177520238Y-67801190D01*
X177663095Y-67801190D02*
X177663095Y-67301190D01*
X177615476Y-67372619D01*
X177567857Y-67420238D01*
X177520238Y-67444048D01*
X176853572Y-70876190D02*
X176686905Y-70638095D01*
X176567858Y-70876190D02*
X176567858Y-70376190D01*
X176758334Y-70376190D01*
X176805953Y-70400000D01*
X176829762Y-70423810D01*
X176853572Y-70471429D01*
X176853572Y-70542857D01*
X176829762Y-70590476D01*
X176805953Y-70614286D01*
X176758334Y-70638095D01*
X176567858Y-70638095D01*
X177044048Y-70423810D02*
X177067858Y-70400000D01*
X177115477Y-70376190D01*
X177234524Y-70376190D01*
X177282143Y-70400000D01*
X177305953Y-70423810D01*
X177329762Y-70471429D01*
X177329762Y-70519048D01*
X177305953Y-70590476D01*
X177020239Y-70876190D01*
X177329762Y-70876190D01*
X177520238Y-70423810D02*
X177544048Y-70400000D01*
X177591667Y-70376190D01*
X177710714Y-70376190D01*
X177758333Y-70400000D01*
X177782143Y-70423810D01*
X177805952Y-70471429D01*
X177805952Y-70519048D01*
X177782143Y-70590476D01*
X177496429Y-70876190D01*
X177805952Y-70876190D01*
X145228572Y-87351190D02*
X145061905Y-87113095D01*
X144942858Y-87351190D02*
X144942858Y-86851190D01*
X145133334Y-86851190D01*
X145180953Y-86875000D01*
X145204762Y-86898810D01*
X145228572Y-86946429D01*
X145228572Y-87017857D01*
X145204762Y-87065476D01*
X145180953Y-87089286D01*
X145133334Y-87113095D01*
X144942858Y-87113095D01*
X145419048Y-86898810D02*
X145442858Y-86875000D01*
X145490477Y-86851190D01*
X145609524Y-86851190D01*
X145657143Y-86875000D01*
X145680953Y-86898810D01*
X145704762Y-86946429D01*
X145704762Y-86994048D01*
X145680953Y-87065476D01*
X145395239Y-87351190D01*
X145704762Y-87351190D01*
X145871429Y-86851190D02*
X146180952Y-86851190D01*
X146014286Y-87041667D01*
X146085714Y-87041667D01*
X146133333Y-87065476D01*
X146157143Y-87089286D01*
X146180952Y-87136905D01*
X146180952Y-87255952D01*
X146157143Y-87303571D01*
X146133333Y-87327381D01*
X146085714Y-87351190D01*
X145942857Y-87351190D01*
X145895238Y-87327381D01*
X145871429Y-87303571D01*
X145203572Y-82026190D02*
X145036905Y-81788095D01*
X144917858Y-82026190D02*
X144917858Y-81526190D01*
X145108334Y-81526190D01*
X145155953Y-81550000D01*
X145179762Y-81573810D01*
X145203572Y-81621429D01*
X145203572Y-81692857D01*
X145179762Y-81740476D01*
X145155953Y-81764286D01*
X145108334Y-81788095D01*
X144917858Y-81788095D01*
X145394048Y-81573810D02*
X145417858Y-81550000D01*
X145465477Y-81526190D01*
X145584524Y-81526190D01*
X145632143Y-81550000D01*
X145655953Y-81573810D01*
X145679762Y-81621429D01*
X145679762Y-81669048D01*
X145655953Y-81740476D01*
X145370239Y-82026190D01*
X145679762Y-82026190D01*
X146108333Y-81692857D02*
X146108333Y-82026190D01*
X145989286Y-81502381D02*
X145870238Y-81859524D01*
X146179762Y-81859524D01*
X175676190Y-80146428D02*
X175438095Y-80313095D01*
X175676190Y-80432142D02*
X175176190Y-80432142D01*
X175176190Y-80241666D01*
X175200000Y-80194047D01*
X175223810Y-80170238D01*
X175271429Y-80146428D01*
X175342857Y-80146428D01*
X175390476Y-80170238D01*
X175414286Y-80194047D01*
X175438095Y-80241666D01*
X175438095Y-80432142D01*
X175223810Y-79955952D02*
X175200000Y-79932142D01*
X175176190Y-79884523D01*
X175176190Y-79765476D01*
X175200000Y-79717857D01*
X175223810Y-79694047D01*
X175271429Y-79670238D01*
X175319048Y-79670238D01*
X175390476Y-79694047D01*
X175676190Y-79979761D01*
X175676190Y-79670238D01*
X175176190Y-79217857D02*
X175176190Y-79455952D01*
X175414286Y-79479762D01*
X175390476Y-79455952D01*
X175366667Y-79408333D01*
X175366667Y-79289286D01*
X175390476Y-79241667D01*
X175414286Y-79217857D01*
X175461905Y-79194048D01*
X175580952Y-79194048D01*
X175628571Y-79217857D01*
X175652381Y-79241667D01*
X175676190Y-79289286D01*
X175676190Y-79408333D01*
X175652381Y-79455952D01*
X175628571Y-79479762D01*
X186058172Y-66451190D02*
X185891505Y-66213095D01*
X185772458Y-66451190D02*
X185772458Y-65951190D01*
X185962934Y-65951190D01*
X186010553Y-65975000D01*
X186034362Y-65998810D01*
X186058172Y-66046429D01*
X186058172Y-66117857D01*
X186034362Y-66165476D01*
X186010553Y-66189286D01*
X185962934Y-66213095D01*
X185772458Y-66213095D01*
X186248648Y-65998810D02*
X186272458Y-65975000D01*
X186320077Y-65951190D01*
X186439124Y-65951190D01*
X186486743Y-65975000D01*
X186510553Y-65998810D01*
X186534362Y-66046429D01*
X186534362Y-66094048D01*
X186510553Y-66165476D01*
X186224839Y-66451190D01*
X186534362Y-66451190D01*
X186962933Y-65951190D02*
X186867695Y-65951190D01*
X186820076Y-65975000D01*
X186796267Y-65998810D01*
X186748648Y-66070238D01*
X186724838Y-66165476D01*
X186724838Y-66355952D01*
X186748648Y-66403571D01*
X186772457Y-66427381D01*
X186820076Y-66451190D01*
X186915314Y-66451190D01*
X186962933Y-66427381D01*
X186986743Y-66403571D01*
X187010552Y-66355952D01*
X187010552Y-66236905D01*
X186986743Y-66189286D01*
X186962933Y-66165476D01*
X186915314Y-66141667D01*
X186820076Y-66141667D01*
X186772457Y-66165476D01*
X186748648Y-66189286D01*
X186724838Y-66236905D01*
X186078572Y-70201190D02*
X185911905Y-69963095D01*
X185792858Y-70201190D02*
X185792858Y-69701190D01*
X185983334Y-69701190D01*
X186030953Y-69725000D01*
X186054762Y-69748810D01*
X186078572Y-69796429D01*
X186078572Y-69867857D01*
X186054762Y-69915476D01*
X186030953Y-69939286D01*
X185983334Y-69963095D01*
X185792858Y-69963095D01*
X186269048Y-69748810D02*
X186292858Y-69725000D01*
X186340477Y-69701190D01*
X186459524Y-69701190D01*
X186507143Y-69725000D01*
X186530953Y-69748810D01*
X186554762Y-69796429D01*
X186554762Y-69844048D01*
X186530953Y-69915476D01*
X186245239Y-70201190D01*
X186554762Y-70201190D01*
X186721429Y-69701190D02*
X187054762Y-69701190D01*
X186840476Y-70201190D01*
X160103572Y-66176190D02*
X159936905Y-65938095D01*
X159817858Y-66176190D02*
X159817858Y-65676190D01*
X160008334Y-65676190D01*
X160055953Y-65700000D01*
X160079762Y-65723810D01*
X160103572Y-65771429D01*
X160103572Y-65842857D01*
X160079762Y-65890476D01*
X160055953Y-65914286D01*
X160008334Y-65938095D01*
X159817858Y-65938095D01*
X160294048Y-65723810D02*
X160317858Y-65700000D01*
X160365477Y-65676190D01*
X160484524Y-65676190D01*
X160532143Y-65700000D01*
X160555953Y-65723810D01*
X160579762Y-65771429D01*
X160579762Y-65819048D01*
X160555953Y-65890476D01*
X160270239Y-66176190D01*
X160579762Y-66176190D01*
X160865476Y-65890476D02*
X160817857Y-65866667D01*
X160794048Y-65842857D01*
X160770238Y-65795238D01*
X160770238Y-65771429D01*
X160794048Y-65723810D01*
X160817857Y-65700000D01*
X160865476Y-65676190D01*
X160960714Y-65676190D01*
X161008333Y-65700000D01*
X161032143Y-65723810D01*
X161055952Y-65771429D01*
X161055952Y-65795238D01*
X161032143Y-65842857D01*
X161008333Y-65866667D01*
X160960714Y-65890476D01*
X160865476Y-65890476D01*
X160817857Y-65914286D01*
X160794048Y-65938095D01*
X160770238Y-65985714D01*
X160770238Y-66080952D01*
X160794048Y-66128571D01*
X160817857Y-66152381D01*
X160865476Y-66176190D01*
X160960714Y-66176190D01*
X161008333Y-66152381D01*
X161032143Y-66128571D01*
X161055952Y-66080952D01*
X161055952Y-65985714D01*
X161032143Y-65938095D01*
X161008333Y-65914286D01*
X160960714Y-65890476D01*
X172203572Y-64501190D02*
X172036905Y-64263095D01*
X171917858Y-64501190D02*
X171917858Y-64001190D01*
X172108334Y-64001190D01*
X172155953Y-64025000D01*
X172179762Y-64048810D01*
X172203572Y-64096429D01*
X172203572Y-64167857D01*
X172179762Y-64215476D01*
X172155953Y-64239286D01*
X172108334Y-64263095D01*
X171917858Y-64263095D01*
X172394048Y-64048810D02*
X172417858Y-64025000D01*
X172465477Y-64001190D01*
X172584524Y-64001190D01*
X172632143Y-64025000D01*
X172655953Y-64048810D01*
X172679762Y-64096429D01*
X172679762Y-64144048D01*
X172655953Y-64215476D01*
X172370239Y-64501190D01*
X172679762Y-64501190D01*
X172917857Y-64501190D02*
X173013095Y-64501190D01*
X173060714Y-64477381D01*
X173084524Y-64453571D01*
X173132143Y-64382143D01*
X173155952Y-64286905D01*
X173155952Y-64096429D01*
X173132143Y-64048810D01*
X173108333Y-64025000D01*
X173060714Y-64001190D01*
X172965476Y-64001190D01*
X172917857Y-64025000D01*
X172894048Y-64048810D01*
X172870238Y-64096429D01*
X172870238Y-64215476D01*
X172894048Y-64263095D01*
X172917857Y-64286905D01*
X172965476Y-64310714D01*
X173060714Y-64310714D01*
X173108333Y-64286905D01*
X173132143Y-64263095D01*
X173155952Y-64215476D01*
X172328572Y-54576190D02*
X172161905Y-54338095D01*
X172042858Y-54576190D02*
X172042858Y-54076190D01*
X172233334Y-54076190D01*
X172280953Y-54100000D01*
X172304762Y-54123810D01*
X172328572Y-54171429D01*
X172328572Y-54242857D01*
X172304762Y-54290476D01*
X172280953Y-54314286D01*
X172233334Y-54338095D01*
X172042858Y-54338095D01*
X172495239Y-54076190D02*
X172804762Y-54076190D01*
X172638096Y-54266667D01*
X172709524Y-54266667D01*
X172757143Y-54290476D01*
X172780953Y-54314286D01*
X172804762Y-54361905D01*
X172804762Y-54480952D01*
X172780953Y-54528571D01*
X172757143Y-54552381D01*
X172709524Y-54576190D01*
X172566667Y-54576190D01*
X172519048Y-54552381D01*
X172495239Y-54528571D01*
X173114286Y-54076190D02*
X173161905Y-54076190D01*
X173209524Y-54100000D01*
X173233333Y-54123810D01*
X173257143Y-54171429D01*
X173280952Y-54266667D01*
X173280952Y-54385714D01*
X173257143Y-54480952D01*
X173233333Y-54528571D01*
X173209524Y-54552381D01*
X173161905Y-54576190D01*
X173114286Y-54576190D01*
X173066667Y-54552381D01*
X173042857Y-54528571D01*
X173019048Y-54480952D01*
X172995238Y-54385714D01*
X172995238Y-54266667D01*
X173019048Y-54171429D01*
X173042857Y-54123810D01*
X173066667Y-54100000D01*
X173114286Y-54076190D01*
X165032788Y-54551190D02*
X164866121Y-54313095D01*
X164747074Y-54551190D02*
X164747074Y-54051190D01*
X164937550Y-54051190D01*
X164985169Y-54075000D01*
X165008978Y-54098810D01*
X165032788Y-54146429D01*
X165032788Y-54217857D01*
X165008978Y-54265476D01*
X164985169Y-54289286D01*
X164937550Y-54313095D01*
X164747074Y-54313095D01*
X165199455Y-54051190D02*
X165508978Y-54051190D01*
X165342312Y-54241667D01*
X165413740Y-54241667D01*
X165461359Y-54265476D01*
X165485169Y-54289286D01*
X165508978Y-54336905D01*
X165508978Y-54455952D01*
X165485169Y-54503571D01*
X165461359Y-54527381D01*
X165413740Y-54551190D01*
X165270883Y-54551190D01*
X165223264Y-54527381D01*
X165199455Y-54503571D01*
X165985168Y-54551190D02*
X165699454Y-54551190D01*
X165842311Y-54551190D02*
X165842311Y-54051190D01*
X165794692Y-54122619D01*
X165747073Y-54170238D01*
X165699454Y-54194048D01*
X167401190Y-63621428D02*
X167163095Y-63788095D01*
X167401190Y-63907142D02*
X166901190Y-63907142D01*
X166901190Y-63716666D01*
X166925000Y-63669047D01*
X166948810Y-63645238D01*
X166996429Y-63621428D01*
X167067857Y-63621428D01*
X167115476Y-63645238D01*
X167139286Y-63669047D01*
X167163095Y-63716666D01*
X167163095Y-63907142D01*
X166901190Y-63454761D02*
X166901190Y-63145238D01*
X167091667Y-63311904D01*
X167091667Y-63240476D01*
X167115476Y-63192857D01*
X167139286Y-63169047D01*
X167186905Y-63145238D01*
X167305952Y-63145238D01*
X167353571Y-63169047D01*
X167377381Y-63192857D01*
X167401190Y-63240476D01*
X167401190Y-63383333D01*
X167377381Y-63430952D01*
X167353571Y-63454761D01*
X166948810Y-62954762D02*
X166925000Y-62930952D01*
X166901190Y-62883333D01*
X166901190Y-62764286D01*
X166925000Y-62716667D01*
X166948810Y-62692857D01*
X166996429Y-62669048D01*
X167044048Y-62669048D01*
X167115476Y-62692857D01*
X167401190Y-62978571D01*
X167401190Y-62669048D01*
X177294048Y-84526190D02*
X177294048Y-84930952D01*
X177317857Y-84978571D01*
X177341667Y-85002381D01*
X177389286Y-85026190D01*
X177484524Y-85026190D01*
X177532143Y-85002381D01*
X177555952Y-84978571D01*
X177579762Y-84930952D01*
X177579762Y-84526190D01*
X177794048Y-84573810D02*
X177817858Y-84550000D01*
X177865477Y-84526190D01*
X177984524Y-84526190D01*
X178032143Y-84550000D01*
X178055953Y-84573810D01*
X178079762Y-84621429D01*
X178079762Y-84669048D01*
X178055953Y-84740476D01*
X177770239Y-85026190D01*
X178079762Y-85026190D01*
X173135190Y-85017080D02*
X173254238Y-85017080D01*
X173206619Y-85255175D02*
X173254238Y-85017080D01*
X173206619Y-84778984D01*
X173349476Y-85159937D02*
X173254238Y-85017080D01*
X173349476Y-84874222D01*
X151504048Y-78706190D02*
X151504048Y-79110952D01*
X151527857Y-79158571D01*
X151551667Y-79182381D01*
X151599286Y-79206190D01*
X151694524Y-79206190D01*
X151742143Y-79182381D01*
X151765952Y-79158571D01*
X151789762Y-79110952D01*
X151789762Y-78706190D01*
X152265953Y-78706190D02*
X152027858Y-78706190D01*
X152004048Y-78944286D01*
X152027858Y-78920476D01*
X152075477Y-78896667D01*
X152194524Y-78896667D01*
X152242143Y-78920476D01*
X152265953Y-78944286D01*
X152289762Y-78991905D01*
X152289762Y-79110952D01*
X152265953Y-79158571D01*
X152242143Y-79182381D01*
X152194524Y-79206190D01*
X152075477Y-79206190D01*
X152027858Y-79182381D01*
X152004048Y-79158571D01*
X170294048Y-55951190D02*
X170294048Y-56355952D01*
X170317857Y-56403571D01*
X170341667Y-56427381D01*
X170389286Y-56451190D01*
X170484524Y-56451190D01*
X170532143Y-56427381D01*
X170555952Y-56403571D01*
X170579762Y-56355952D01*
X170579762Y-55951190D01*
X171032143Y-55951190D02*
X170936905Y-55951190D01*
X170889286Y-55975000D01*
X170865477Y-55998810D01*
X170817858Y-56070238D01*
X170794048Y-56165476D01*
X170794048Y-56355952D01*
X170817858Y-56403571D01*
X170841667Y-56427381D01*
X170889286Y-56451190D01*
X170984524Y-56451190D01*
X171032143Y-56427381D01*
X171055953Y-56403571D01*
X171079762Y-56355952D01*
X171079762Y-56236905D01*
X171055953Y-56189286D01*
X171032143Y-56165476D01*
X170984524Y-56141667D01*
X170889286Y-56141667D01*
X170841667Y-56165476D01*
X170817858Y-56189286D01*
X170794048Y-56236905D01*
X171419048Y-67551190D02*
X171419048Y-67955952D01*
X171442857Y-68003571D01*
X171466667Y-68027381D01*
X171514286Y-68051190D01*
X171609524Y-68051190D01*
X171657143Y-68027381D01*
X171680952Y-68003571D01*
X171704762Y-67955952D01*
X171704762Y-67551190D01*
X171895239Y-67551190D02*
X172228572Y-67551190D01*
X172014286Y-68051190D01*
X198416190Y-81447141D02*
X198916190Y-81113808D01*
X198416190Y-81113808D02*
X198916190Y-81447141D01*
X198892381Y-80947142D02*
X198916190Y-80875713D01*
X198916190Y-80756666D01*
X198892381Y-80709047D01*
X198868571Y-80685237D01*
X198820952Y-80661428D01*
X198773333Y-80661428D01*
X198725714Y-80685237D01*
X198701905Y-80709047D01*
X198678095Y-80756666D01*
X198654286Y-80851904D01*
X198630476Y-80899523D01*
X198606667Y-80923332D01*
X198559048Y-80947142D01*
X198511429Y-80947142D01*
X198463810Y-80923332D01*
X198440000Y-80899523D01*
X198416190Y-80851904D01*
X198416190Y-80732856D01*
X198440000Y-80661428D01*
X198916190Y-80185238D02*
X198916190Y-80470952D01*
X198916190Y-80328095D02*
X198416190Y-80328095D01*
X198487619Y-80375714D01*
X198535238Y-80423333D01*
X198559048Y-80470952D01*
X193230953Y-93981190D02*
X193230953Y-93481190D01*
X193421429Y-93481190D01*
X193469048Y-93505000D01*
X193492857Y-93528810D01*
X193516667Y-93576429D01*
X193516667Y-93647857D01*
X193492857Y-93695476D01*
X193469048Y-93719286D01*
X193421429Y-93743095D01*
X193230953Y-93743095D01*
X193683334Y-93481190D02*
X193992857Y-93481190D01*
X193826191Y-93671667D01*
X193897619Y-93671667D01*
X193945238Y-93695476D01*
X193969048Y-93719286D01*
X193992857Y-93766905D01*
X193992857Y-93885952D01*
X193969048Y-93933571D01*
X193945238Y-93957381D01*
X193897619Y-93981190D01*
X193754762Y-93981190D01*
X193707143Y-93957381D01*
X193683334Y-93933571D01*
X195163334Y-58966190D02*
X194996667Y-58728095D01*
X194877620Y-58966190D02*
X194877620Y-58466190D01*
X195068096Y-58466190D01*
X195115715Y-58490000D01*
X195139524Y-58513810D01*
X195163334Y-58561429D01*
X195163334Y-58632857D01*
X195139524Y-58680476D01*
X195115715Y-58704286D01*
X195068096Y-58728095D01*
X194877620Y-58728095D01*
X195377620Y-58704286D02*
X195544286Y-58704286D01*
X195615715Y-58966190D02*
X195377620Y-58966190D01*
X195377620Y-58466190D01*
X195615715Y-58466190D01*
X195996667Y-58704286D02*
X195830001Y-58704286D01*
X195830001Y-58966190D02*
X195830001Y-58466190D01*
X196068096Y-58466190D01*
X196330000Y-58466190D02*
X196330000Y-58585238D01*
X196210953Y-58537619D02*
X196330000Y-58585238D01*
X196449048Y-58537619D01*
X196258572Y-58680476D02*
X196330000Y-58585238D01*
X196401429Y-58680476D01*
X196710952Y-58466190D02*
X196710952Y-58585238D01*
X196591905Y-58537619D02*
X196710952Y-58585238D01*
X196830000Y-58537619D01*
X196639524Y-58680476D02*
X196710952Y-58585238D01*
X196782381Y-58680476D01*
X137850953Y-59716190D02*
X137850953Y-59216190D01*
X138041429Y-59216190D01*
X138089048Y-59240000D01*
X138112857Y-59263810D01*
X138136667Y-59311429D01*
X138136667Y-59382857D01*
X138112857Y-59430476D01*
X138089048Y-59454286D01*
X138041429Y-59478095D01*
X137850953Y-59478095D01*
X138565238Y-59382857D02*
X138565238Y-59716190D01*
X138446191Y-59192381D02*
X138327143Y-59549524D01*
X138636667Y-59549524D01*
D10*
X154160952Y-79197142D02*
X153970476Y-79330476D01*
X154160952Y-79425714D02*
X153760952Y-79425714D01*
X153760952Y-79273333D01*
X153780000Y-79235238D01*
X153799048Y-79216190D01*
X153837143Y-79197142D01*
X153894286Y-79197142D01*
X153932381Y-79216190D01*
X153951429Y-79235238D01*
X153970476Y-79273333D01*
X153970476Y-79425714D01*
X153760952Y-79063809D02*
X153760952Y-78816190D01*
X153913333Y-78949523D01*
X153913333Y-78892381D01*
X153932381Y-78854285D01*
X153951429Y-78835238D01*
X153989524Y-78816190D01*
X154084762Y-78816190D01*
X154122857Y-78835238D01*
X154141905Y-78854285D01*
X154160952Y-78892381D01*
X154160952Y-79006666D01*
X154141905Y-79044762D01*
X154122857Y-79063809D01*
X153760952Y-78682857D02*
X153760952Y-78435238D01*
X153913333Y-78568571D01*
X153913333Y-78511429D01*
X153932381Y-78473333D01*
X153951429Y-78454286D01*
X153989524Y-78435238D01*
X154084762Y-78435238D01*
X154122857Y-78454286D01*
X154141905Y-78473333D01*
X154160952Y-78511429D01*
X154160952Y-78625714D01*
X154141905Y-78663810D01*
X154122857Y-78682857D01*
X164834762Y-101590952D02*
X164834762Y-101190952D01*
X164930000Y-101190952D01*
X164987143Y-101210000D01*
X165025238Y-101248095D01*
X165044286Y-101286190D01*
X165063334Y-101362381D01*
X165063334Y-101419524D01*
X165044286Y-101495714D01*
X165025238Y-101533810D01*
X164987143Y-101571905D01*
X164930000Y-101590952D01*
X164834762Y-101590952D01*
X165253810Y-101590952D02*
X165330000Y-101590952D01*
X165368095Y-101571905D01*
X165387143Y-101552857D01*
X165425238Y-101495714D01*
X165444286Y-101419524D01*
X165444286Y-101267143D01*
X165425238Y-101229048D01*
X165406191Y-101210000D01*
X165368095Y-101190952D01*
X165291905Y-101190952D01*
X165253810Y-101210000D01*
X165234762Y-101229048D01*
X165215714Y-101267143D01*
X165215714Y-101362381D01*
X165234762Y-101400476D01*
X165253810Y-101419524D01*
X165291905Y-101438571D01*
X165368095Y-101438571D01*
X165406191Y-101419524D01*
X165425238Y-101400476D01*
X165444286Y-101362381D01*
X168814286Y-101630952D02*
X168814286Y-101230952D01*
X168909524Y-101230952D01*
X168966667Y-101250000D01*
X169004762Y-101288095D01*
X169023810Y-101326190D01*
X169042858Y-101402381D01*
X169042858Y-101459524D01*
X169023810Y-101535714D01*
X169004762Y-101573810D01*
X168966667Y-101611905D01*
X168909524Y-101630952D01*
X168814286Y-101630952D01*
X169423810Y-101630952D02*
X169195238Y-101630952D01*
X169309524Y-101630952D02*
X169309524Y-101230952D01*
X169271429Y-101288095D01*
X169233334Y-101326190D01*
X169195238Y-101345238D01*
X169671429Y-101230952D02*
X169709524Y-101230952D01*
X169747619Y-101250000D01*
X169766667Y-101269048D01*
X169785714Y-101307143D01*
X169804762Y-101383333D01*
X169804762Y-101478571D01*
X169785714Y-101554762D01*
X169766667Y-101592857D01*
X169747619Y-101611905D01*
X169709524Y-101630952D01*
X169671429Y-101630952D01*
X169633333Y-101611905D01*
X169614286Y-101592857D01*
X169595238Y-101554762D01*
X169576190Y-101478571D01*
X169576190Y-101383333D01*
X169595238Y-101307143D01*
X169614286Y-101269048D01*
X169633333Y-101250000D01*
X169671429Y-101230952D01*
D16*
X162138572Y-97846190D02*
X161971905Y-97608095D01*
X161852858Y-97846190D02*
X161852858Y-97346190D01*
X162043334Y-97346190D01*
X162090953Y-97370000D01*
X162114762Y-97393810D01*
X162138572Y-97441429D01*
X162138572Y-97512857D01*
X162114762Y-97560476D01*
X162090953Y-97584286D01*
X162043334Y-97608095D01*
X161852858Y-97608095D01*
X162305239Y-97346190D02*
X162614762Y-97346190D01*
X162448096Y-97536667D01*
X162519524Y-97536667D01*
X162567143Y-97560476D01*
X162590953Y-97584286D01*
X162614762Y-97631905D01*
X162614762Y-97750952D01*
X162590953Y-97798571D01*
X162567143Y-97822381D01*
X162519524Y-97846190D01*
X162376667Y-97846190D01*
X162329048Y-97822381D01*
X162305239Y-97798571D01*
X163043333Y-97512857D02*
X163043333Y-97846190D01*
X162924286Y-97322381D02*
X162805238Y-97679524D01*
X163114762Y-97679524D01*
X169078572Y-98506190D02*
X168911905Y-98268095D01*
X168792858Y-98506190D02*
X168792858Y-98006190D01*
X168983334Y-98006190D01*
X169030953Y-98030000D01*
X169054762Y-98053810D01*
X169078572Y-98101429D01*
X169078572Y-98172857D01*
X169054762Y-98220476D01*
X169030953Y-98244286D01*
X168983334Y-98268095D01*
X168792858Y-98268095D01*
X169245239Y-98006190D02*
X169554762Y-98006190D01*
X169388096Y-98196667D01*
X169459524Y-98196667D01*
X169507143Y-98220476D01*
X169530953Y-98244286D01*
X169554762Y-98291905D01*
X169554762Y-98410952D01*
X169530953Y-98458571D01*
X169507143Y-98482381D01*
X169459524Y-98506190D01*
X169316667Y-98506190D01*
X169269048Y-98482381D01*
X169245239Y-98458571D01*
X170007143Y-98006190D02*
X169769048Y-98006190D01*
X169745238Y-98244286D01*
X169769048Y-98220476D01*
X169816667Y-98196667D01*
X169935714Y-98196667D01*
X169983333Y-98220476D01*
X170007143Y-98244286D01*
X170030952Y-98291905D01*
X170030952Y-98410952D01*
X170007143Y-98458571D01*
X169983333Y-98482381D01*
X169935714Y-98506190D01*
X169816667Y-98506190D01*
X169769048Y-98482381D01*
X169745238Y-98458571D01*
%LPC*%
D18*
X174147809Y-96099075D03*
X176052809Y-96099075D03*
X174147809Y-93699075D03*
X175100309Y-96099075D03*
X176052809Y-93699075D03*
D19*
X152371800Y-81034880D03*
X152371800Y-84334880D03*
X154371800Y-84334880D03*
X154371800Y-81034880D03*
D20*
X153384700Y-69100180D03*
X152884700Y-69100180D03*
X152384700Y-69100180D03*
X151884700Y-69100180D03*
D21*
X151159700Y-69825180D03*
X151159700Y-70325180D03*
X151159700Y-70825180D03*
X151159700Y-71325180D03*
D20*
X151884700Y-72050180D03*
X152384700Y-72050180D03*
X152884700Y-72050180D03*
X153384700Y-72050180D03*
D21*
X154109700Y-71325180D03*
X154109700Y-70825180D03*
X154109700Y-70325180D03*
X154109700Y-69825180D03*
D22*
X152184700Y-71025180D03*
X153084700Y-71025180D03*
X152184700Y-70125180D03*
X153084700Y-70125180D03*
D23*
X173807336Y-60187330D03*
X173807336Y-61687330D03*
D21*
X163762000Y-91984240D03*
X163762000Y-92484240D03*
X163762000Y-92984240D03*
X163762000Y-93484240D03*
D20*
X164487000Y-94209240D03*
X164987000Y-94209240D03*
X165487000Y-94209240D03*
X165987000Y-94209240D03*
D21*
X166712000Y-93484240D03*
X166712000Y-92984240D03*
X166712000Y-92484240D03*
X166712000Y-91984240D03*
D20*
X165987000Y-91259240D03*
X165487000Y-91259240D03*
X164987000Y-91259240D03*
X164487000Y-91259240D03*
D22*
X165687000Y-93184240D03*
X165687000Y-92284240D03*
X164787000Y-93184240D03*
X164787000Y-92284240D03*
D24*
X159825000Y-93775000D03*
X161325000Y-93775000D03*
D25*
X193600000Y-70590000D03*
D26*
X193600000Y-68050000D03*
X193600000Y-65510000D03*
X193600000Y-62970000D03*
D27*
X179057300Y-62890400D03*
X161975800Y-55118000D03*
D28*
X140500000Y-98550000D03*
D29*
X140500000Y-96264000D03*
X138214000Y-98550000D03*
X142100000Y-96950000D03*
X142786000Y-98550000D03*
X138900000Y-96950000D03*
X138900000Y-100150000D03*
X140500000Y-100836000D03*
X142100000Y-100150000D03*
D28*
X140500000Y-56200000D03*
D29*
X140500000Y-53914000D03*
X138214000Y-56200000D03*
X142100000Y-54600000D03*
X142786000Y-56200000D03*
X138900000Y-54600000D03*
X138900000Y-57800000D03*
X140500000Y-58486000D03*
X142100000Y-57800000D03*
D28*
X195830000Y-98550000D03*
D29*
X195830000Y-96264000D03*
X193544000Y-98550000D03*
X197430000Y-96950000D03*
X198116000Y-98550000D03*
X194230000Y-96950000D03*
X194230000Y-100150000D03*
X195830000Y-100836000D03*
X197430000Y-100150000D03*
D30*
X190677800Y-57124600D03*
D31*
X188137800Y-57124600D03*
X185597800Y-57124600D03*
X183057800Y-57124600D03*
X180517800Y-57124600D03*
D32*
X158225000Y-95775000D03*
X161225000Y-95775000D03*
D23*
X169000000Y-93150000D03*
X169000000Y-91650000D03*
D33*
X162142286Y-85925000D03*
X162142286Y-88925000D03*
X159775000Y-85925000D03*
X159775000Y-88925000D03*
D23*
X172200000Y-86125000D03*
X172200000Y-87625000D03*
D24*
X176375000Y-89450000D03*
X174875000Y-89450000D03*
X176275000Y-84325000D03*
X174775000Y-84325000D03*
X174260000Y-91820000D03*
X175760000Y-91820000D03*
D33*
X178000989Y-93256835D03*
X178000989Y-96256835D03*
D23*
X149236600Y-73460900D03*
X149236600Y-71960900D03*
X149236600Y-70562760D03*
X149236600Y-69062760D03*
X157097900Y-69285640D03*
X157097900Y-67785640D03*
X155660260Y-69296500D03*
X155660260Y-67796500D03*
X149310000Y-77910000D03*
X149310000Y-76410000D03*
X153463160Y-67728120D03*
X153463160Y-66228120D03*
D24*
X152058540Y-66340580D03*
X150558540Y-66340580D03*
X152066860Y-67714720D03*
X150566860Y-67714720D03*
D23*
X173779396Y-58667270D03*
X173779396Y-57167270D03*
D24*
X169761816Y-63093790D03*
X168261816Y-63093790D03*
D23*
X168395500Y-67107560D03*
X168395500Y-65607560D03*
X169868700Y-67112640D03*
X169868700Y-65612640D03*
X164277256Y-58649490D03*
X164277256Y-57149490D03*
X164282336Y-60151770D03*
X164282336Y-61651770D03*
X165423700Y-67112640D03*
X165423700Y-65612640D03*
X166922300Y-67110800D03*
X166922300Y-65610800D03*
D24*
X157668300Y-80508100D03*
X156168300Y-80508100D03*
X157670840Y-81882240D03*
X156170840Y-81882240D03*
D23*
X178398000Y-82843500D03*
X178398000Y-81343500D03*
D24*
X156146214Y-73808354D03*
X157646214Y-73808354D03*
X156146914Y-72411354D03*
X157646914Y-72411354D03*
D23*
X172982740Y-75512420D03*
X172982740Y-74012420D03*
X183556960Y-66807500D03*
X183556960Y-68307500D03*
D24*
X156160000Y-77740519D03*
X157660000Y-77740519D03*
D23*
X183551880Y-70587020D03*
X183551880Y-72087020D03*
X162388400Y-67176140D03*
X162388400Y-65676140D03*
D24*
X156160000Y-76353679D03*
X157660000Y-76353679D03*
D34*
X161525000Y-91275000D03*
X158575000Y-91275000D03*
X176605000Y-99970000D03*
X173655000Y-99970000D03*
D35*
X184950100Y-63258500D03*
X184950100Y-61658500D03*
X182105300Y-63258700D03*
X182105300Y-61658700D03*
X183527700Y-63258600D03*
X183527700Y-61658600D03*
X186359800Y-63258700D03*
X186359800Y-61658700D03*
D36*
X181970480Y-71978700D03*
X181970480Y-70678700D03*
X179970480Y-71328700D03*
X181986480Y-68173780D03*
X181986480Y-66873780D03*
X179986480Y-67523780D03*
D37*
X166125000Y-88475000D03*
X166125000Y-84475000D03*
X171775449Y-92916855D03*
X171775449Y-96916855D03*
D38*
X148070000Y-91180000D03*
D39*
X153150000Y-91180000D03*
D30*
X157325000Y-57124600D03*
D31*
X154785000Y-57124600D03*
X152245000Y-57124600D03*
X149705000Y-57124600D03*
X147165000Y-57124600D03*
D27*
X176657000Y-55270400D03*
X160675000Y-63625000D03*
X178180000Y-76690000D03*
X155850000Y-87200000D03*
X195300000Y-92250000D03*
X144070000Y-58720000D03*
X169000000Y-55475000D03*
X151910000Y-87200000D03*
X169230000Y-88990000D03*
X141525000Y-93150000D03*
X146660000Y-76820000D03*
X148600000Y-80600000D03*
X148600000Y-84000000D03*
D25*
X140820000Y-86520000D03*
D26*
X140820000Y-83980000D03*
X140820000Y-81440000D03*
X140820000Y-78900000D03*
D40*
X165300000Y-96025000D03*
X163800000Y-96025000D03*
X168000000Y-96025000D03*
X166500000Y-96025000D03*
X178780389Y-97907895D03*
X177280389Y-97907895D03*
X176010000Y-98050000D03*
X174510000Y-98050000D03*
X146434280Y-73429720D03*
X147934280Y-73429720D03*
X146431740Y-68999960D03*
X147931740Y-68999960D03*
X146434280Y-71951440D03*
X147934280Y-71951440D03*
X146426660Y-70475700D03*
X147926660Y-70475700D03*
D41*
X155725000Y-66575000D03*
X155725000Y-65075000D03*
D40*
X157575000Y-70800000D03*
X156075000Y-70800000D03*
X176541076Y-61668850D03*
X175041076Y-61668850D03*
X175043616Y-60193110D03*
X176543616Y-60193110D03*
X176533456Y-57200990D03*
X175033456Y-57200990D03*
X175033456Y-58671650D03*
X176533456Y-58671650D03*
X161510496Y-57198450D03*
X163010496Y-57198450D03*
X163010496Y-58676730D03*
X161510496Y-58676730D03*
X161546056Y-61653610D03*
X163046056Y-61653610D03*
X163051136Y-60170250D03*
X161551136Y-60170250D03*
X174104300Y-69088000D03*
X175604300Y-69088000D03*
X174104300Y-66090800D03*
X175604300Y-66090800D03*
X174104300Y-67589400D03*
X175604300Y-67589400D03*
X174103600Y-70599300D03*
X175603600Y-70599300D03*
D41*
X145525000Y-86100000D03*
X145525000Y-84600000D03*
X145515000Y-79290000D03*
X145515000Y-80790000D03*
X176900000Y-80575000D03*
X176900000Y-79075000D03*
D40*
X185629600Y-67564420D03*
X187129600Y-67564420D03*
X185629600Y-71349020D03*
X187129600Y-71349020D03*
X161164820Y-67119560D03*
X159664820Y-67119560D03*
X173265176Y-63152210D03*
X171765176Y-63152210D03*
X173399096Y-55649050D03*
X171899096Y-55649050D03*
X164604216Y-55633810D03*
X166104216Y-55633810D03*
X164775000Y-63250000D03*
X166275000Y-63250000D03*
D42*
X174209000Y-85964580D03*
X174209000Y-87869580D03*
X176609000Y-85964580D03*
X174209000Y-86917080D03*
X176609000Y-87869580D03*
D43*
X150918960Y-77743300D03*
X152818960Y-77743300D03*
X151868960Y-75643300D03*
D44*
X171984676Y-61459850D03*
X171984676Y-60809850D03*
X171984676Y-60159850D03*
X171984676Y-59509850D03*
X171984676Y-58859850D03*
X171984676Y-58209850D03*
X171984676Y-57559850D03*
X166084676Y-57559850D03*
X166084676Y-58209850D03*
X166084676Y-58859850D03*
X166084676Y-59509850D03*
X166084676Y-60159850D03*
X166084676Y-60809850D03*
X166084676Y-61459850D03*
D45*
X160056200Y-71040680D03*
X160056200Y-71540680D03*
X160056200Y-72040680D03*
X160056200Y-72540680D03*
X160056200Y-73040680D03*
X160056200Y-73540680D03*
X160056200Y-74040680D03*
X160056200Y-74540680D03*
X160056200Y-75040680D03*
X160056200Y-75540680D03*
X160056200Y-76040680D03*
X160056200Y-76540680D03*
X160056200Y-77040680D03*
X160056200Y-77540680D03*
X160056200Y-78040680D03*
X160056200Y-78540680D03*
D46*
X162006200Y-80490680D03*
X162506200Y-80490680D03*
X163006200Y-80490680D03*
X163506200Y-80490680D03*
X164006200Y-80490680D03*
X164506200Y-80490680D03*
X165006200Y-80490680D03*
X165506200Y-80490680D03*
X166006200Y-80490680D03*
X166506200Y-80490680D03*
X167006200Y-80490680D03*
X167506200Y-80490680D03*
X168006200Y-80490680D03*
X168506200Y-80490680D03*
X169006200Y-80490680D03*
X169506200Y-80490680D03*
D45*
X171456200Y-78540680D03*
X171456200Y-78040680D03*
X171456200Y-77540680D03*
X171456200Y-77040680D03*
X171456200Y-76540680D03*
X171456200Y-76040680D03*
X171456200Y-75540680D03*
X171456200Y-75040680D03*
X171456200Y-74540680D03*
X171456200Y-74040680D03*
X171456200Y-73540680D03*
X171456200Y-73040680D03*
X171456200Y-72540680D03*
X171456200Y-72040680D03*
X171456200Y-71540680D03*
X171456200Y-71040680D03*
D46*
X169506200Y-69090680D03*
X169006200Y-69090680D03*
X168506200Y-69090680D03*
X168006200Y-69090680D03*
X167506200Y-69090680D03*
X167006200Y-69090680D03*
X166506200Y-69090680D03*
X166006200Y-69090680D03*
X165506200Y-69090680D03*
X165006200Y-69090680D03*
X164506200Y-69090680D03*
X164006200Y-69090680D03*
X163506200Y-69090680D03*
X163006200Y-69090680D03*
X162506200Y-69090680D03*
X162006200Y-69090680D03*
D47*
X195725000Y-73800000D03*
D48*
X195275000Y-87300000D03*
D49*
X180625000Y-77700000D03*
X180625000Y-78800000D03*
X180625000Y-79900000D03*
X180625000Y-81000000D03*
X180625000Y-82100000D03*
X180625000Y-83200000D03*
X180625000Y-84300000D03*
X180625000Y-85400000D03*
D50*
X180625000Y-76150000D03*
D51*
X180625000Y-86350000D03*
D52*
X191125000Y-87300000D03*
D50*
X184925000Y-87300000D03*
D38*
X183500000Y-91180000D03*
D39*
X188580000Y-91180000D03*
D28*
X195830000Y-56200000D03*
D29*
X195830000Y-53914000D03*
X193544000Y-56200000D03*
X197430000Y-54600000D03*
X198116000Y-56200000D03*
X194230000Y-54600000D03*
X194230000Y-57800000D03*
X195830000Y-58486000D03*
X197430000Y-57800000D03*
D25*
X140830000Y-74650000D03*
D26*
X140830000Y-72110000D03*
X140830000Y-69570000D03*
X140830000Y-67030000D03*
X140830000Y-64490000D03*
X140830000Y-61950000D03*
D41*
X154620000Y-77800000D03*
X154620000Y-76300000D03*
D53*
X166180000Y-99960000D03*
X164080000Y-99960000D03*
D34*
X167835000Y-99990000D03*
X170785000Y-99990000D03*
D40*
X165298031Y-97674535D03*
X163798031Y-97674535D03*
X168038031Y-97674535D03*
X166538031Y-97674535D03*
D54*
X163120000Y-99880000D03*
X168960000Y-97400000D03*
X169925000Y-75025000D03*
X149610000Y-75220000D03*
X170925000Y-64550000D03*
X180500000Y-92500000D03*
X180500000Y-93500000D03*
X181500000Y-93500000D03*
X181500000Y-92500000D03*
X181500000Y-90500000D03*
X180500000Y-90500000D03*
X180500000Y-91500000D03*
X181500000Y-91500000D03*
X155000000Y-90500000D03*
X156000000Y-90500000D03*
X156000000Y-91500000D03*
X156000000Y-92500000D03*
X156000000Y-93500000D03*
X155000000Y-93500000D03*
X155000000Y-92500000D03*
X155000000Y-91500000D03*
X152500000Y-97500000D03*
X153500000Y-97500000D03*
X154500000Y-97500000D03*
X155500000Y-97500000D03*
X155500000Y-96500000D03*
X154500000Y-96500000D03*
X153500000Y-96500000D03*
X152500000Y-96500000D03*
X153385000Y-82715000D03*
X153460000Y-65240000D03*
X153084700Y-70125180D03*
X152184700Y-71025180D03*
X153084700Y-71025180D03*
X152184700Y-70125180D03*
X152621743Y-73103257D03*
X148500000Y-66200000D03*
X148500000Y-66925000D03*
X148500000Y-67650000D03*
X175050000Y-62725000D03*
X177650000Y-60200000D03*
X174100000Y-75525000D03*
X154584308Y-68147940D03*
X177358721Y-82764454D03*
X175100000Y-94850000D03*
X173425000Y-84325000D03*
X175850000Y-86900000D03*
X164787000Y-93184240D03*
X165687000Y-93184240D03*
X165687000Y-92284240D03*
X164787000Y-92284240D03*
X182700000Y-83250000D03*
X162000000Y-64650000D03*
X163709200Y-62950020D03*
X151875000Y-73150000D03*
X145250000Y-71875000D03*
X145250000Y-70575000D03*
X155850000Y-83100000D03*
X187960000Y-63182500D03*
X187960000Y-62420500D03*
X187960000Y-61658500D03*
X186258200Y-54610000D03*
X161778800Y-75618400D03*
X184567880Y-72314220D03*
X168357400Y-64493200D03*
X177730000Y-58702000D03*
X174301000Y-56009600D03*
X160661200Y-60200600D03*
X160610400Y-58702000D03*
X163633000Y-56035000D03*
X182002480Y-69164620D03*
X162350000Y-98275000D03*
X177925000Y-61425000D03*
X162350000Y-95950000D03*
X162375000Y-95250000D03*
X167900000Y-92375000D03*
X158848245Y-72454010D03*
X156940000Y-65510000D03*
X157903409Y-66337990D03*
X154610000Y-78800000D03*
X169650000Y-64450000D03*
X179000000Y-85400000D03*
X179000000Y-86200000D03*
X178200000Y-86200000D03*
X178200000Y-85400000D03*
X177075000Y-81425000D03*
X184859920Y-66702720D03*
X173056400Y-72697400D03*
X184923480Y-69825020D03*
X148250000Y-75530000D03*
X149550000Y-65100000D03*
X153880000Y-75190000D03*
X157147613Y-75461684D03*
X152275000Y-65250000D03*
X174175000Y-63625000D03*
X164515800Y-64262000D03*
X163325000Y-67925000D03*
X158775000Y-63000000D03*
X153775000Y-60450000D03*
X161850000Y-81720000D03*
X163230000Y-82490000D03*
X159175000Y-69675000D03*
X176100000Y-94900000D03*
X165000000Y-78000000D03*
X154437768Y-73498901D03*
X169350000Y-71910000D03*
X155175831Y-73180000D03*
X162530000Y-73180000D03*
X155119299Y-71900701D03*
X167950000Y-72200000D03*
X158625000Y-71025000D03*
X146875000Y-61250000D03*
X165550000Y-56725000D03*
X150000000Y-62300000D03*
X165550000Y-62275000D03*
X156850000Y-74620000D03*
X154990000Y-74700000D03*
X162960000Y-71000000D03*
M02*
