M48
METRIC,TZ
T1C0.300
T2C0.500
T3C0.635
T4C1.200
T5C1.400
T6C3.200
%
G90
G05
T1
X145250Y-70575
X145250Y-71875
X146875Y-61250
X148250Y-75530
X148500Y-66200
X148500Y-66925
X148500Y-67650
X149550Y-65100
X149610Y-75220
X150000Y-62300
X151875Y-73150
X152185Y-70125
X152185Y-71025
X152275Y-65250
X152500Y-96500
X152500Y-97500
X152622Y-73103
X153085Y-70125
X153085Y-71025
X153385Y-82715
X153460Y-65240
X153500Y-96500
X153500Y-97500
X153775Y-60450
X153880Y-75190
X154438Y-73499
X154500Y-96500
X154500Y-97500
X154584Y-68148
X154610Y-78800
X154990Y-74700
X155000Y-90500
X155000Y-91500
X155000Y-92500
X155000Y-93500
X155119Y-71901
X155176Y-73180
X155500Y-96500
X155500Y-97500
X155850Y-83100
X156000Y-90500
X156000Y-91500
X156000Y-92500
X156000Y-93500
X156850Y-74620
X156940Y-65510
X157148Y-75462
X157903Y-66338
X158625Y-71025
X158775Y-63000
X158848Y-72454
X159175Y-69675
X160610Y-58702
X160661Y-60201
X161779Y-75618
X161850Y-81720
X162000Y-64650
X162350Y-95950
X162350Y-98275
X162375Y-95250
X162530Y-73180
X162960Y-71000
X163120Y-99880
X163230Y-82490
X163325Y-67925
X163633Y-56035
X163709Y-62950
X164516Y-64262
X164787Y-92284
X164787Y-93184
X165000Y-78000
X165550Y-56725
X165550Y-62275
X165687Y-92284
X165687Y-93184
X167900Y-92375
X167950Y-72200
X168357Y-64493
X168960Y-97400
X169350Y-71910
X169650Y-64450
X169925Y-75025
X170925Y-64550
X173056Y-72697
X173425Y-84325
X174100Y-75525
X174175Y-63625
X174301Y-56010
X175050Y-62725
X175100Y-94850
X175850Y-86900
X176100Y-94900
X177075Y-81425
X177359Y-82764
X177650Y-60200
X177730Y-58702
X177925Y-61425
X178200Y-85400
X178200Y-86200
X179000Y-85400
X179000Y-86200
X180500Y-90500
X180500Y-91500
X180500Y-92500
X180500Y-93500
X181500Y-90500
X181500Y-91500
X181500Y-92500
X181500Y-93500
X182002Y-69165
X182700Y-83250
X184568Y-72314
X184860Y-66703
X184923Y-69825
X186258Y-54610
X187960Y-61658
X187960Y-62420
X187960Y-63182
T2
X138214Y-56200
X138214Y-98550
X138900Y-54600
X138900Y-57800
X138900Y-96950
X138900Y-100150
X140500Y-53914
X140500Y-58486
X140500Y-96264
X140500Y-100836
X142100Y-54600
X142100Y-57800
X142100Y-96950
X142100Y-100150
X142786Y-56200
X142786Y-98550
X193544Y-56200
X193544Y-98550
X194230Y-54600
X194230Y-57800
X194230Y-96950
X194230Y-100150
X195830Y-53914
X195830Y-58486
X195830Y-96264
X195830Y-100836
X197430Y-54600
X197430Y-57800
X197430Y-96950
X197430Y-100150
X198116Y-56200
X198116Y-98550
T3
X141525Y-93150
X144070Y-58720
X146660Y-76820
X148600Y-80600
X148600Y-84000
X151910Y-87200
X155850Y-87200
X160675Y-63625
X161976Y-55118
X169000Y-55475
X169230Y-88990
X176657Y-55270
X178180Y-76690
X179057Y-62890
X195300Y-92250
T4
X140820Y-78900
X140820Y-81440
X140820Y-83980
X140820Y-86520
X140830Y-61950
X140830Y-64490
X140830Y-67030
X140830Y-69570
X140830Y-72110
X140830Y-74650
X147165Y-57125
X149705Y-57125
X152245Y-57125
X154785Y-57125
X157325Y-57125
X180518Y-57125
X183058Y-57125
X185598Y-57125
X188138Y-57125
X190678Y-57125
X193600Y-62970
X193600Y-65510
X193600Y-68050
X193600Y-70590
T5
X148070Y-91180
X153150Y-91180
X183500Y-91180
X188580Y-91180
T6
X140500Y-56200
X140500Y-98550
X195830Y-56200
X195830Y-98550
T0
M30
