G04 #@! TF.FileFunction,Copper,L3,Inr,Plane*
%FSLAX46Y46*%
G04 Gerber Fmt 4.6, Leading zero omitted, Abs format (unit mm)*
G04 Created by KiCad (PCBNEW 4.0.6) date 04/19/17 14:22:56*
%MOMM*%
%LPD*%
G01*
G04 APERTURE LIST*
%ADD10C,0.100000*%
%ADD11R,2.600000X2.000000*%
%ADD12O,2.600000X2.000000*%
%ADD13C,1.143000*%
%ADD14C,5.800000*%
%ADD15C,0.500000*%
%ADD16R,2.000000X2.600000*%
%ADD17O,2.000000X2.600000*%
%ADD18R,2.100000X3.600000*%
%ADD19O,2.100000X3.600000*%
%ADD20C,0.650000*%
%ADD21C,0.254000*%
G04 APERTURE END LIST*
D10*
D11*
X193600000Y-70590000D03*
D12*
X193600000Y-68050000D03*
X193600000Y-65510000D03*
X193600000Y-62970000D03*
D13*
X179057300Y-62890400D03*
X161975800Y-55118000D03*
D14*
X140500000Y-98550000D03*
D15*
X140500000Y-96264000D03*
X138214000Y-98550000D03*
X142100000Y-96950000D03*
X142786000Y-98550000D03*
X138900000Y-96950000D03*
X138900000Y-100150000D03*
X140500000Y-100836000D03*
X142100000Y-100150000D03*
D14*
X140500000Y-56200000D03*
D15*
X140500000Y-53914000D03*
X138214000Y-56200000D03*
X142100000Y-54600000D03*
X142786000Y-56200000D03*
X138900000Y-54600000D03*
X138900000Y-57800000D03*
X140500000Y-58486000D03*
X142100000Y-57800000D03*
D14*
X195830000Y-98550000D03*
D15*
X195830000Y-96264000D03*
X193544000Y-98550000D03*
X197430000Y-96950000D03*
X198116000Y-98550000D03*
X194230000Y-96950000D03*
X194230000Y-100150000D03*
X195830000Y-100836000D03*
X197430000Y-100150000D03*
D16*
X190677800Y-57124600D03*
D17*
X188137800Y-57124600D03*
X185597800Y-57124600D03*
X183057800Y-57124600D03*
X180517800Y-57124600D03*
D18*
X148070000Y-91180000D03*
D19*
X153150000Y-91180000D03*
D16*
X157325000Y-57124600D03*
D17*
X154785000Y-57124600D03*
X152245000Y-57124600D03*
X149705000Y-57124600D03*
X147165000Y-57124600D03*
D13*
X176657000Y-55270400D03*
X160675000Y-63625000D03*
X178180000Y-76690000D03*
X155850000Y-87200000D03*
X195300000Y-92250000D03*
X144070000Y-58720000D03*
X169000000Y-55475000D03*
X151910000Y-87200000D03*
X169230000Y-88990000D03*
X141525000Y-93150000D03*
X146660000Y-76820000D03*
X148600000Y-80600000D03*
X148600000Y-84000000D03*
D11*
X140820000Y-86520000D03*
D12*
X140820000Y-83980000D03*
X140820000Y-81440000D03*
X140820000Y-78900000D03*
D18*
X183500000Y-91180000D03*
D19*
X188580000Y-91180000D03*
D14*
X195830000Y-56200000D03*
D15*
X195830000Y-53914000D03*
X193544000Y-56200000D03*
X197430000Y-54600000D03*
X198116000Y-56200000D03*
X194230000Y-54600000D03*
X194230000Y-57800000D03*
X195830000Y-58486000D03*
X197430000Y-57800000D03*
D11*
X140830000Y-74650000D03*
D12*
X140830000Y-72110000D03*
X140830000Y-69570000D03*
X140830000Y-67030000D03*
X140830000Y-64490000D03*
X140830000Y-61950000D03*
D20*
X163120000Y-99880000D03*
X168960000Y-97400000D03*
X169925000Y-75025000D03*
X149610000Y-75220000D03*
X170925000Y-64550000D03*
X180500000Y-92500000D03*
X180500000Y-93500000D03*
X181500000Y-93500000D03*
X181500000Y-92500000D03*
X181500000Y-90500000D03*
X180500000Y-90500000D03*
X180500000Y-91500000D03*
X181500000Y-91500000D03*
X155000000Y-90500000D03*
X156000000Y-90500000D03*
X156000000Y-91500000D03*
X156000000Y-92500000D03*
X156000000Y-93500000D03*
X155000000Y-93500000D03*
X155000000Y-92500000D03*
X155000000Y-91500000D03*
X152500000Y-97500000D03*
X153500000Y-97500000D03*
X154500000Y-97500000D03*
X155500000Y-97500000D03*
X155500000Y-96500000D03*
X154500000Y-96500000D03*
X153500000Y-96500000D03*
X152500000Y-96500000D03*
X153385000Y-82715000D03*
X153460000Y-65240000D03*
X153084700Y-70125180D03*
X152184700Y-71025180D03*
X153084700Y-71025180D03*
X152184700Y-70125180D03*
X152621743Y-73103257D03*
X148500000Y-66200000D03*
X148500000Y-66925000D03*
X148500000Y-67650000D03*
X175050000Y-62725000D03*
X177650000Y-60200000D03*
X174100000Y-75525000D03*
X154584308Y-68147940D03*
X177358721Y-82764454D03*
X175100000Y-94850000D03*
X173425000Y-84325000D03*
X175850000Y-86900000D03*
X164787000Y-93184240D03*
X165687000Y-93184240D03*
X165687000Y-92284240D03*
X164787000Y-92284240D03*
X182700000Y-83250000D03*
X162000000Y-64650000D03*
X163709200Y-62950020D03*
X151875000Y-73150000D03*
X145250000Y-71875000D03*
X145250000Y-70575000D03*
X155850000Y-83100000D03*
X187960000Y-63182500D03*
X187960000Y-62420500D03*
X187960000Y-61658500D03*
X186258200Y-54610000D03*
X161778800Y-75618400D03*
X184567880Y-72314220D03*
X168357400Y-64493200D03*
X177730000Y-58702000D03*
X174301000Y-56009600D03*
X160661200Y-60200600D03*
X160610400Y-58702000D03*
X163633000Y-56035000D03*
X182002480Y-69164620D03*
X162350000Y-98275000D03*
X177925000Y-61425000D03*
X162350000Y-95950000D03*
X162375000Y-95250000D03*
X167900000Y-92375000D03*
X158848245Y-72454010D03*
X156940000Y-65510000D03*
X157903409Y-66337990D03*
X154610000Y-78800000D03*
X169650000Y-64450000D03*
X179000000Y-85400000D03*
X179000000Y-86200000D03*
X178200000Y-86200000D03*
X178200000Y-85400000D03*
X177075000Y-81425000D03*
X184859920Y-66702720D03*
X173056400Y-72697400D03*
X184923480Y-69825020D03*
X148250000Y-75530000D03*
X149550000Y-65100000D03*
X153880000Y-75190000D03*
X157147613Y-75461684D03*
X152275000Y-65250000D03*
X174175000Y-63625000D03*
X164515800Y-64262000D03*
X163325000Y-67925000D03*
X158775000Y-63000000D03*
X153775000Y-60450000D03*
X161850000Y-81720000D03*
X163230000Y-82490000D03*
X159175000Y-69675000D03*
X176100000Y-94900000D03*
X165000000Y-78000000D03*
X154437768Y-73498901D03*
X169350000Y-71910000D03*
X155175831Y-73180000D03*
X162530000Y-73180000D03*
X155119299Y-71900701D03*
X167950000Y-72200000D03*
X158625000Y-71025000D03*
X146875000Y-61250000D03*
X165550000Y-56725000D03*
X150000000Y-62300000D03*
X165550000Y-62275000D03*
X156850000Y-74620000D03*
X154990000Y-74700000D03*
X162960000Y-71000000D03*
D21*
G36*
X193108930Y-53916752D02*
X192717268Y-54488761D01*
X192444168Y-55125951D01*
X192310359Y-55755470D01*
X192307808Y-55723479D01*
X192254694Y-55551966D01*
X192155900Y-55402041D01*
X192019250Y-55285575D01*
X191855563Y-55211790D01*
X191677800Y-55186528D01*
X189677800Y-55186528D01*
X189576679Y-55194592D01*
X189405166Y-55247706D01*
X189255241Y-55346500D01*
X189138775Y-55483150D01*
X189122906Y-55518353D01*
X189052080Y-55459761D01*
X188771388Y-55307991D01*
X188466562Y-55213631D01*
X188149214Y-55180277D01*
X187831432Y-55209197D01*
X187525318Y-55299291D01*
X187242534Y-55447127D01*
X186993850Y-55647074D01*
X186867569Y-55797569D01*
X186757948Y-55663160D01*
X186579146Y-55515242D01*
X186693137Y-55471028D01*
X186852095Y-55370151D01*
X186988431Y-55240319D01*
X187096954Y-55086479D01*
X187173529Y-54914489D01*
X187215238Y-54730902D01*
X187218241Y-54515867D01*
X187181673Y-54331187D01*
X187109931Y-54157127D01*
X187005746Y-54000316D01*
X186873088Y-53866728D01*
X186717009Y-53761451D01*
X186543453Y-53688496D01*
X186359033Y-53650639D01*
X186170772Y-53649325D01*
X185985841Y-53684603D01*
X185811284Y-53755128D01*
X185653750Y-53858216D01*
X185519239Y-53989938D01*
X185412875Y-54145279D01*
X185338709Y-54318320D01*
X185299567Y-54502472D01*
X185296938Y-54690719D01*
X185330924Y-54875892D01*
X185400229Y-55050937D01*
X185490543Y-55191077D01*
X185291432Y-55209197D01*
X184985318Y-55299291D01*
X184702534Y-55447127D01*
X184453850Y-55647074D01*
X184327569Y-55797569D01*
X184217948Y-55663160D01*
X183972080Y-55459761D01*
X183691388Y-55307991D01*
X183386562Y-55213631D01*
X183069214Y-55180277D01*
X182751432Y-55209197D01*
X182445318Y-55299291D01*
X182162534Y-55447127D01*
X181913850Y-55647074D01*
X181787569Y-55797569D01*
X181677948Y-55663160D01*
X181432080Y-55459761D01*
X181151388Y-55307991D01*
X180846562Y-55213631D01*
X180529214Y-55180277D01*
X180211432Y-55209197D01*
X179905318Y-55299291D01*
X179622534Y-55447127D01*
X179373850Y-55647074D01*
X179168739Y-55891516D01*
X179015014Y-56171142D01*
X178918529Y-56475301D01*
X178882959Y-56792409D01*
X178882800Y-56815237D01*
X178882800Y-57433963D01*
X178913938Y-57751536D01*
X179006167Y-58057013D01*
X179155974Y-58338758D01*
X179357652Y-58586040D01*
X179603520Y-58789439D01*
X179884212Y-58941209D01*
X180189038Y-59035569D01*
X180506386Y-59068923D01*
X180824168Y-59040003D01*
X181130282Y-58949909D01*
X181413066Y-58802073D01*
X181661750Y-58602126D01*
X181788031Y-58451631D01*
X181897652Y-58586040D01*
X182143520Y-58789439D01*
X182424212Y-58941209D01*
X182729038Y-59035569D01*
X183046386Y-59068923D01*
X183364168Y-59040003D01*
X183670282Y-58949909D01*
X183953066Y-58802073D01*
X184201750Y-58602126D01*
X184328031Y-58451631D01*
X184437652Y-58586040D01*
X184683520Y-58789439D01*
X184964212Y-58941209D01*
X185269038Y-59035569D01*
X185586386Y-59068923D01*
X185904168Y-59040003D01*
X186210282Y-58949909D01*
X186493066Y-58802073D01*
X186741750Y-58602126D01*
X186868031Y-58451631D01*
X186977652Y-58586040D01*
X187223520Y-58789439D01*
X187504212Y-58941209D01*
X187809038Y-59035569D01*
X188126386Y-59068923D01*
X188444168Y-59040003D01*
X188750282Y-58949909D01*
X189033066Y-58802073D01*
X189122570Y-58730110D01*
X189199700Y-58847159D01*
X189336350Y-58963625D01*
X189500037Y-59037410D01*
X189677800Y-59062672D01*
X191677800Y-59062672D01*
X191778921Y-59054608D01*
X191950434Y-59001494D01*
X192100359Y-58902700D01*
X192216825Y-58766050D01*
X192290610Y-58602363D01*
X192315872Y-58424600D01*
X192315872Y-56636270D01*
X192415498Y-57179093D01*
X192670701Y-57823659D01*
X193046239Y-58406382D01*
X193527811Y-58905063D01*
X194097072Y-59300710D01*
X194732339Y-59578252D01*
X195409417Y-59727117D01*
X196102514Y-59741635D01*
X196785231Y-59621254D01*
X197431564Y-59370558D01*
X197848000Y-59106279D01*
X197848000Y-95646996D01*
X197519467Y-95425397D01*
X196880386Y-95156752D01*
X196201296Y-95017355D01*
X195508064Y-95012515D01*
X194827094Y-95142417D01*
X194184324Y-95402113D01*
X193604238Y-95781710D01*
X193108930Y-96266752D01*
X192717268Y-96838761D01*
X192444168Y-97475951D01*
X192300033Y-98154051D01*
X192290354Y-98847232D01*
X192415498Y-99529093D01*
X192670701Y-100173659D01*
X193046239Y-100756382D01*
X193368411Y-101090000D01*
X142958971Y-101090000D01*
X143188925Y-100871018D01*
X143588536Y-100304533D01*
X143870506Y-99671218D01*
X144024095Y-98995197D01*
X144035151Y-98203375D01*
X143900498Y-97523329D01*
X143636322Y-96882388D01*
X143435894Y-96580719D01*
X151538738Y-96580719D01*
X151572724Y-96765892D01*
X151642029Y-96940937D01*
X151679481Y-96999051D01*
X151654675Y-97035279D01*
X151580509Y-97208320D01*
X151541367Y-97392472D01*
X151538738Y-97580719D01*
X151572724Y-97765892D01*
X151642029Y-97940937D01*
X151744014Y-98099187D01*
X151874794Y-98234614D01*
X152029389Y-98342060D01*
X152201908Y-98417432D01*
X152385782Y-98457859D01*
X152574007Y-98461802D01*
X152759412Y-98429110D01*
X152934937Y-98361028D01*
X152998574Y-98320643D01*
X153029389Y-98342060D01*
X153201908Y-98417432D01*
X153385782Y-98457859D01*
X153574007Y-98461802D01*
X153759412Y-98429110D01*
X153934937Y-98361028D01*
X153998574Y-98320643D01*
X154029389Y-98342060D01*
X154201908Y-98417432D01*
X154385782Y-98457859D01*
X154574007Y-98461802D01*
X154759412Y-98429110D01*
X154934937Y-98361028D01*
X154998574Y-98320643D01*
X155029389Y-98342060D01*
X155201908Y-98417432D01*
X155385782Y-98457859D01*
X155574007Y-98461802D01*
X155759412Y-98429110D01*
X155934937Y-98361028D01*
X155943302Y-98355719D01*
X161388738Y-98355719D01*
X161422724Y-98540892D01*
X161492029Y-98715937D01*
X161594014Y-98874187D01*
X161724794Y-99009614D01*
X161879389Y-99117060D01*
X162051908Y-99192432D01*
X162235782Y-99232859D01*
X162405070Y-99236405D01*
X162381039Y-99259938D01*
X162274675Y-99415279D01*
X162200509Y-99588320D01*
X162161367Y-99772472D01*
X162158738Y-99960719D01*
X162192724Y-100145892D01*
X162262029Y-100320937D01*
X162364014Y-100479187D01*
X162494794Y-100614614D01*
X162649389Y-100722060D01*
X162821908Y-100797432D01*
X163005782Y-100837859D01*
X163194007Y-100841802D01*
X163379412Y-100809110D01*
X163554937Y-100741028D01*
X163713895Y-100640151D01*
X163850231Y-100510319D01*
X163958754Y-100356479D01*
X164035329Y-100184489D01*
X164077038Y-100000902D01*
X164080041Y-99785867D01*
X164043473Y-99601187D01*
X163971731Y-99427127D01*
X163867546Y-99270316D01*
X163734888Y-99136728D01*
X163578809Y-99031451D01*
X163405253Y-98958496D01*
X163220833Y-98920639D01*
X163065284Y-98919553D01*
X163080231Y-98905319D01*
X163188754Y-98751479D01*
X163265329Y-98579489D01*
X163307038Y-98395902D01*
X163310041Y-98180867D01*
X163273473Y-97996187D01*
X163201731Y-97822127D01*
X163097546Y-97665316D01*
X162964888Y-97531728D01*
X162889265Y-97480719D01*
X167998738Y-97480719D01*
X168032724Y-97665892D01*
X168102029Y-97840937D01*
X168204014Y-97999187D01*
X168334794Y-98134614D01*
X168489389Y-98242060D01*
X168661908Y-98317432D01*
X168845782Y-98357859D01*
X169034007Y-98361802D01*
X169219412Y-98329110D01*
X169394937Y-98261028D01*
X169553895Y-98160151D01*
X169690231Y-98030319D01*
X169798754Y-97876479D01*
X169875329Y-97704489D01*
X169917038Y-97520902D01*
X169920041Y-97305867D01*
X169883473Y-97121187D01*
X169811731Y-96947127D01*
X169707546Y-96790316D01*
X169574888Y-96656728D01*
X169418809Y-96551451D01*
X169245253Y-96478496D01*
X169060833Y-96440639D01*
X168872572Y-96439325D01*
X168687641Y-96474603D01*
X168513084Y-96545128D01*
X168355550Y-96648216D01*
X168221039Y-96779938D01*
X168114675Y-96935279D01*
X168040509Y-97108320D01*
X168001367Y-97292472D01*
X167998738Y-97480719D01*
X162889265Y-97480719D01*
X162808809Y-97426451D01*
X162635253Y-97353496D01*
X162450833Y-97315639D01*
X162262572Y-97314325D01*
X162077641Y-97349603D01*
X161903084Y-97420128D01*
X161745550Y-97523216D01*
X161611039Y-97654938D01*
X161504675Y-97810279D01*
X161430509Y-97983320D01*
X161391367Y-98167472D01*
X161388738Y-98355719D01*
X155943302Y-98355719D01*
X156093895Y-98260151D01*
X156230231Y-98130319D01*
X156338754Y-97976479D01*
X156415329Y-97804489D01*
X156457038Y-97620902D01*
X156460041Y-97405867D01*
X156423473Y-97221187D01*
X156351731Y-97047127D01*
X156321265Y-97001272D01*
X156338754Y-96976479D01*
X156415329Y-96804489D01*
X156457038Y-96620902D01*
X156460041Y-96405867D01*
X156423473Y-96221187D01*
X156351731Y-96047127D01*
X156340830Y-96030719D01*
X161388738Y-96030719D01*
X161422724Y-96215892D01*
X161492029Y-96390937D01*
X161594014Y-96549187D01*
X161724794Y-96684614D01*
X161879389Y-96792060D01*
X162051908Y-96867432D01*
X162235782Y-96907859D01*
X162424007Y-96911802D01*
X162609412Y-96879110D01*
X162784937Y-96811028D01*
X162943895Y-96710151D01*
X163080231Y-96580319D01*
X163188754Y-96426479D01*
X163265329Y-96254489D01*
X163307038Y-96070902D01*
X163310041Y-95855867D01*
X163308531Y-95848236D01*
X170148012Y-95848236D01*
X170156685Y-95896159D01*
X170183965Y-95938553D01*
X170225590Y-95966994D01*
X170275000Y-95977000D01*
X173500000Y-95977000D01*
X173544512Y-95968944D01*
X173587281Y-95942256D01*
X173616297Y-95901030D01*
X173626988Y-95851764D01*
X173639780Y-94930719D01*
X174138738Y-94930719D01*
X174172724Y-95115892D01*
X174242029Y-95290937D01*
X174344014Y-95449187D01*
X174474794Y-95584614D01*
X174629389Y-95692060D01*
X174801908Y-95767432D01*
X174985782Y-95807859D01*
X175174007Y-95811802D01*
X175359412Y-95779110D01*
X175534937Y-95711028D01*
X175560970Y-95694507D01*
X175629389Y-95742060D01*
X175801908Y-95817432D01*
X175985782Y-95857859D01*
X176174007Y-95861802D01*
X176359412Y-95829110D01*
X176534937Y-95761028D01*
X176693895Y-95660151D01*
X176830231Y-95530319D01*
X176938754Y-95376479D01*
X177015329Y-95204489D01*
X177057038Y-95020902D01*
X177060041Y-94805867D01*
X177023473Y-94621187D01*
X176951731Y-94447127D01*
X176847546Y-94290316D01*
X176714888Y-94156728D01*
X176558809Y-94051451D01*
X176385253Y-93978496D01*
X176200833Y-93940639D01*
X176012572Y-93939325D01*
X175827641Y-93974603D01*
X175653084Y-94045128D01*
X175638100Y-94054933D01*
X175558809Y-94001451D01*
X175385253Y-93928496D01*
X175200833Y-93890639D01*
X175012572Y-93889325D01*
X174827641Y-93924603D01*
X174653084Y-93995128D01*
X174495550Y-94098216D01*
X174361039Y-94229938D01*
X174254675Y-94385279D01*
X174180509Y-94558320D01*
X174141367Y-94742472D01*
X174138738Y-94930719D01*
X173639780Y-94930719D01*
X173651988Y-94051764D01*
X173643315Y-94003841D01*
X173616035Y-93961447D01*
X173574410Y-93933006D01*
X173525000Y-93923000D01*
X170300000Y-93923000D01*
X170255488Y-93931056D01*
X170212719Y-93957744D01*
X170183703Y-93998970D01*
X170173012Y-94048236D01*
X170148012Y-95848236D01*
X163308531Y-95848236D01*
X163273473Y-95671187D01*
X163256599Y-95630248D01*
X163290329Y-95554489D01*
X163332038Y-95370902D01*
X163335041Y-95155867D01*
X163298473Y-94971187D01*
X163226731Y-94797127D01*
X163122546Y-94640316D01*
X162989888Y-94506728D01*
X162833809Y-94401451D01*
X162660253Y-94328496D01*
X162475833Y-94290639D01*
X162287572Y-94289325D01*
X162102641Y-94324603D01*
X161928084Y-94395128D01*
X161770550Y-94498216D01*
X161636039Y-94629938D01*
X161529675Y-94785279D01*
X161455509Y-94958320D01*
X161416367Y-95142472D01*
X161413738Y-95330719D01*
X161447724Y-95515892D01*
X161468771Y-95569050D01*
X161430509Y-95658320D01*
X161391367Y-95842472D01*
X161388738Y-96030719D01*
X156340830Y-96030719D01*
X156247546Y-95890316D01*
X156114888Y-95756728D01*
X155958809Y-95651451D01*
X155785253Y-95578496D01*
X155600833Y-95540639D01*
X155412572Y-95539325D01*
X155227641Y-95574603D01*
X155053084Y-95645128D01*
X155000475Y-95679555D01*
X154958809Y-95651451D01*
X154785253Y-95578496D01*
X154600833Y-95540639D01*
X154412572Y-95539325D01*
X154227641Y-95574603D01*
X154053084Y-95645128D01*
X154000475Y-95679555D01*
X153958809Y-95651451D01*
X153785253Y-95578496D01*
X153600833Y-95540639D01*
X153412572Y-95539325D01*
X153227641Y-95574603D01*
X153053084Y-95645128D01*
X153000475Y-95679555D01*
X152958809Y-95651451D01*
X152785253Y-95578496D01*
X152600833Y-95540639D01*
X152412572Y-95539325D01*
X152227641Y-95574603D01*
X152053084Y-95645128D01*
X151895550Y-95748216D01*
X151761039Y-95879938D01*
X151654675Y-96035279D01*
X151580509Y-96208320D01*
X151541367Y-96392472D01*
X151538738Y-96580719D01*
X143435894Y-96580719D01*
X143252683Y-96304966D01*
X142764196Y-95813057D01*
X142189467Y-95425397D01*
X141550386Y-95156752D01*
X140871296Y-95017355D01*
X140178064Y-95012515D01*
X139497094Y-95142417D01*
X138854324Y-95402113D01*
X138352000Y-95730824D01*
X138352000Y-93251446D01*
X140316914Y-93251446D01*
X140359626Y-93484166D01*
X140446727Y-93704157D01*
X140574899Y-93903041D01*
X140739260Y-94073242D01*
X140933549Y-94208277D01*
X141150367Y-94303002D01*
X141381454Y-94353810D01*
X141618009Y-94358765D01*
X141851022Y-94317679D01*
X142071616Y-94232116D01*
X142271390Y-94105335D01*
X142442734Y-93942167D01*
X142579122Y-93748824D01*
X142675358Y-93532673D01*
X142727778Y-93301946D01*
X142731552Y-93031697D01*
X142685595Y-92799596D01*
X142595431Y-92580842D01*
X142464495Y-92383767D01*
X142297773Y-92215878D01*
X142101617Y-92083569D01*
X141883498Y-91991880D01*
X141651724Y-91944303D01*
X141415123Y-91942651D01*
X141182707Y-91986987D01*
X140963329Y-92075622D01*
X140765344Y-92205179D01*
X140596295Y-92370724D01*
X140462620Y-92565952D01*
X140369411Y-92783425D01*
X140320217Y-93014862D01*
X140316914Y-93251446D01*
X138352000Y-93251446D01*
X138352000Y-89380000D01*
X146381928Y-89380000D01*
X146381928Y-92980000D01*
X146389992Y-93081121D01*
X146443106Y-93252634D01*
X146541900Y-93402559D01*
X146678550Y-93519025D01*
X146842237Y-93592810D01*
X147020000Y-93618072D01*
X149120000Y-93618072D01*
X149221121Y-93610008D01*
X149392634Y-93556894D01*
X149542559Y-93458100D01*
X149659025Y-93321450D01*
X149732810Y-93157763D01*
X149758072Y-92980000D01*
X149758072Y-90418218D01*
X151465000Y-90418218D01*
X151465000Y-91941782D01*
X151497091Y-92269067D01*
X151592140Y-92583886D01*
X151746528Y-92874247D01*
X151954373Y-93129091D01*
X152207760Y-93338710D01*
X152497036Y-93495121D01*
X152811184Y-93592366D01*
X153138237Y-93626741D01*
X153465738Y-93596936D01*
X153781212Y-93504087D01*
X154047199Y-93365032D01*
X154041367Y-93392472D01*
X154038738Y-93580719D01*
X154072724Y-93765892D01*
X154142029Y-93940937D01*
X154244014Y-94099187D01*
X154374794Y-94234614D01*
X154529389Y-94342060D01*
X154701908Y-94417432D01*
X154885782Y-94457859D01*
X155074007Y-94461802D01*
X155259412Y-94429110D01*
X155434937Y-94361028D01*
X155498574Y-94320643D01*
X155529389Y-94342060D01*
X155701908Y-94417432D01*
X155885782Y-94457859D01*
X156074007Y-94461802D01*
X156259412Y-94429110D01*
X156434937Y-94361028D01*
X156593895Y-94260151D01*
X156730231Y-94130319D01*
X156838754Y-93976479D01*
X156915329Y-93804489D01*
X156957038Y-93620902D01*
X156960041Y-93405867D01*
X156923473Y-93221187D01*
X156851731Y-93047127D01*
X156821265Y-93001272D01*
X156838754Y-92976479D01*
X156915329Y-92804489D01*
X156957038Y-92620902D01*
X156960041Y-92405867D01*
X156951941Y-92364959D01*
X163825738Y-92364959D01*
X163859724Y-92550132D01*
X163929029Y-92725177D01*
X163935167Y-92734702D01*
X163867509Y-92892560D01*
X163828367Y-93076712D01*
X163825738Y-93264959D01*
X163859724Y-93450132D01*
X163929029Y-93625177D01*
X164031014Y-93783427D01*
X164161794Y-93918854D01*
X164316389Y-94026300D01*
X164488908Y-94101672D01*
X164672782Y-94142099D01*
X164861007Y-94146042D01*
X165046412Y-94113350D01*
X165221937Y-94045268D01*
X165237377Y-94035470D01*
X165388908Y-94101672D01*
X165572782Y-94142099D01*
X165761007Y-94146042D01*
X165946412Y-94113350D01*
X166121937Y-94045268D01*
X166280895Y-93944391D01*
X166417231Y-93814559D01*
X166525754Y-93660719D01*
X166602329Y-93488729D01*
X166644038Y-93305142D01*
X166647041Y-93090107D01*
X166610473Y-92905427D01*
X166538775Y-92731474D01*
X166602329Y-92588729D01*
X166632547Y-92455719D01*
X166938738Y-92455719D01*
X166972724Y-92640892D01*
X167042029Y-92815937D01*
X167144014Y-92974187D01*
X167274794Y-93109614D01*
X167429389Y-93217060D01*
X167601908Y-93292432D01*
X167785782Y-93332859D01*
X167974007Y-93336802D01*
X168159412Y-93304110D01*
X168334937Y-93236028D01*
X168493895Y-93135151D01*
X168630231Y-93005319D01*
X168738754Y-92851479D01*
X168815329Y-92679489D01*
X168857038Y-92495902D01*
X168860041Y-92280867D01*
X168823473Y-92096187D01*
X168751731Y-91922127D01*
X168647546Y-91765316D01*
X168514888Y-91631728D01*
X168358809Y-91526451D01*
X168185253Y-91453496D01*
X168000833Y-91415639D01*
X167812572Y-91414325D01*
X167627641Y-91449603D01*
X167453084Y-91520128D01*
X167295550Y-91623216D01*
X167161039Y-91754938D01*
X167054675Y-91910279D01*
X166980509Y-92083320D01*
X166941367Y-92267472D01*
X166938738Y-92455719D01*
X166632547Y-92455719D01*
X166644038Y-92405142D01*
X166647041Y-92190107D01*
X166610473Y-92005427D01*
X166538731Y-91831367D01*
X166434546Y-91674556D01*
X166301888Y-91540968D01*
X166145809Y-91435691D01*
X165972253Y-91362736D01*
X165787833Y-91324879D01*
X165599572Y-91323565D01*
X165414641Y-91358843D01*
X165240084Y-91429368D01*
X165236440Y-91431753D01*
X165072253Y-91362736D01*
X164887833Y-91324879D01*
X164699572Y-91323565D01*
X164514641Y-91358843D01*
X164340084Y-91429368D01*
X164182550Y-91532456D01*
X164048039Y-91664178D01*
X163941675Y-91819519D01*
X163867509Y-91992560D01*
X163828367Y-92176712D01*
X163825738Y-92364959D01*
X156951941Y-92364959D01*
X156923473Y-92221187D01*
X156851731Y-92047127D01*
X156821265Y-92001272D01*
X156838754Y-91976479D01*
X156915329Y-91804489D01*
X156957038Y-91620902D01*
X156960041Y-91405867D01*
X156923473Y-91221187D01*
X156851731Y-91047127D01*
X156821265Y-91001272D01*
X156838754Y-90976479D01*
X156915329Y-90804489D01*
X156957038Y-90620902D01*
X156957599Y-90580719D01*
X179538738Y-90580719D01*
X179572724Y-90765892D01*
X179642029Y-90940937D01*
X179679481Y-90999051D01*
X179654675Y-91035279D01*
X179580509Y-91208320D01*
X179541367Y-91392472D01*
X179538738Y-91580719D01*
X179572724Y-91765892D01*
X179642029Y-91940937D01*
X179679481Y-91999051D01*
X179654675Y-92035279D01*
X179580509Y-92208320D01*
X179541367Y-92392472D01*
X179538738Y-92580719D01*
X179572724Y-92765892D01*
X179642029Y-92940937D01*
X179679481Y-92999051D01*
X179654675Y-93035279D01*
X179580509Y-93208320D01*
X179541367Y-93392472D01*
X179538738Y-93580719D01*
X179572724Y-93765892D01*
X179642029Y-93940937D01*
X179744014Y-94099187D01*
X179874794Y-94234614D01*
X180029389Y-94342060D01*
X180201908Y-94417432D01*
X180385782Y-94457859D01*
X180574007Y-94461802D01*
X180759412Y-94429110D01*
X180934937Y-94361028D01*
X180998574Y-94320643D01*
X181029389Y-94342060D01*
X181201908Y-94417432D01*
X181385782Y-94457859D01*
X181574007Y-94461802D01*
X181759412Y-94429110D01*
X181934937Y-94361028D01*
X182093895Y-94260151D01*
X182230231Y-94130319D01*
X182338754Y-93976479D01*
X182415329Y-93804489D01*
X182457038Y-93620902D01*
X182457078Y-93618072D01*
X184550000Y-93618072D01*
X184651121Y-93610008D01*
X184822634Y-93556894D01*
X184972559Y-93458100D01*
X185089025Y-93321450D01*
X185162810Y-93157763D01*
X185188072Y-92980000D01*
X185188072Y-90418218D01*
X186895000Y-90418218D01*
X186895000Y-91941782D01*
X186927091Y-92269067D01*
X187022140Y-92583886D01*
X187176528Y-92874247D01*
X187384373Y-93129091D01*
X187637760Y-93338710D01*
X187927036Y-93495121D01*
X188241184Y-93592366D01*
X188568237Y-93626741D01*
X188895738Y-93596936D01*
X189211212Y-93504087D01*
X189502644Y-93351730D01*
X189758933Y-93145668D01*
X189970316Y-92893751D01*
X190128743Y-92605574D01*
X190209357Y-92351446D01*
X194091914Y-92351446D01*
X194134626Y-92584166D01*
X194221727Y-92804157D01*
X194349899Y-93003041D01*
X194514260Y-93173242D01*
X194708549Y-93308277D01*
X194925367Y-93403002D01*
X195156454Y-93453810D01*
X195393009Y-93458765D01*
X195626022Y-93417679D01*
X195846616Y-93332116D01*
X196046390Y-93205335D01*
X196217734Y-93042167D01*
X196354122Y-92848824D01*
X196450358Y-92632673D01*
X196502778Y-92401946D01*
X196506552Y-92131697D01*
X196460595Y-91899596D01*
X196370431Y-91680842D01*
X196239495Y-91483767D01*
X196072773Y-91315878D01*
X195876617Y-91183569D01*
X195658498Y-91091880D01*
X195426724Y-91044303D01*
X195190123Y-91042651D01*
X194957707Y-91086987D01*
X194738329Y-91175622D01*
X194540344Y-91305179D01*
X194371295Y-91470724D01*
X194237620Y-91665952D01*
X194144411Y-91883425D01*
X194095217Y-92114862D01*
X194091914Y-92351446D01*
X190209357Y-92351446D01*
X190228179Y-92292113D01*
X190264836Y-91965308D01*
X190265000Y-91941782D01*
X190265000Y-90418218D01*
X190232909Y-90090933D01*
X190137860Y-89776114D01*
X189983472Y-89485753D01*
X189775627Y-89230909D01*
X189522240Y-89021290D01*
X189232964Y-88864879D01*
X188918816Y-88767634D01*
X188591763Y-88733259D01*
X188264262Y-88763064D01*
X187948788Y-88855913D01*
X187657356Y-89008270D01*
X187401067Y-89214332D01*
X187189684Y-89466249D01*
X187031257Y-89754426D01*
X186931821Y-90067887D01*
X186895164Y-90394692D01*
X186895000Y-90418218D01*
X185188072Y-90418218D01*
X185188072Y-89380000D01*
X185180008Y-89278879D01*
X185126894Y-89107366D01*
X185028100Y-88957441D01*
X184891450Y-88840975D01*
X184727763Y-88767190D01*
X184550000Y-88741928D01*
X182450000Y-88741928D01*
X182348879Y-88749992D01*
X182177366Y-88803106D01*
X182027441Y-88901900D01*
X181910975Y-89038550D01*
X181837190Y-89202237D01*
X181811928Y-89380000D01*
X181811928Y-89589709D01*
X181785253Y-89578496D01*
X181600833Y-89540639D01*
X181412572Y-89539325D01*
X181227641Y-89574603D01*
X181053084Y-89645128D01*
X181000475Y-89679555D01*
X180958809Y-89651451D01*
X180785253Y-89578496D01*
X180600833Y-89540639D01*
X180412572Y-89539325D01*
X180227641Y-89574603D01*
X180053084Y-89645128D01*
X179895550Y-89748216D01*
X179761039Y-89879938D01*
X179654675Y-90035279D01*
X179580509Y-90208320D01*
X179541367Y-90392472D01*
X179538738Y-90580719D01*
X156957599Y-90580719D01*
X156960041Y-90405867D01*
X156923473Y-90221187D01*
X156851731Y-90047127D01*
X156747546Y-89890316D01*
X156614888Y-89756728D01*
X156458809Y-89651451D01*
X156285253Y-89578496D01*
X156100833Y-89540639D01*
X155912572Y-89539325D01*
X155727641Y-89574603D01*
X155553084Y-89645128D01*
X155500475Y-89679555D01*
X155458809Y-89651451D01*
X155285253Y-89578496D01*
X155100833Y-89540639D01*
X154912572Y-89539325D01*
X154727641Y-89574603D01*
X154623160Y-89616816D01*
X154553472Y-89485753D01*
X154345627Y-89230909D01*
X154177045Y-89091446D01*
X168021914Y-89091446D01*
X168064626Y-89324166D01*
X168151727Y-89544157D01*
X168279899Y-89743041D01*
X168444260Y-89913242D01*
X168638549Y-90048277D01*
X168855367Y-90143002D01*
X169086454Y-90193810D01*
X169323009Y-90198765D01*
X169556022Y-90157679D01*
X169776616Y-90072116D01*
X169976390Y-89945335D01*
X170147734Y-89782167D01*
X170284122Y-89588824D01*
X170380358Y-89372673D01*
X170432778Y-89141946D01*
X170436552Y-88871697D01*
X170390595Y-88639596D01*
X170300431Y-88420842D01*
X170169495Y-88223767D01*
X170002773Y-88055878D01*
X169806617Y-87923569D01*
X169588498Y-87831880D01*
X169356724Y-87784303D01*
X169120123Y-87782651D01*
X168887707Y-87826987D01*
X168668329Y-87915622D01*
X168470344Y-88045179D01*
X168301295Y-88210724D01*
X168167620Y-88405952D01*
X168074411Y-88623425D01*
X168025217Y-88854862D01*
X168021914Y-89091446D01*
X154177045Y-89091446D01*
X154092240Y-89021290D01*
X153802964Y-88864879D01*
X153488816Y-88767634D01*
X153161763Y-88733259D01*
X152834262Y-88763064D01*
X152518788Y-88855913D01*
X152227356Y-89008270D01*
X151971067Y-89214332D01*
X151759684Y-89466249D01*
X151601257Y-89754426D01*
X151501821Y-90067887D01*
X151465164Y-90394692D01*
X151465000Y-90418218D01*
X149758072Y-90418218D01*
X149758072Y-89380000D01*
X149750008Y-89278879D01*
X149696894Y-89107366D01*
X149598100Y-88957441D01*
X149461450Y-88840975D01*
X149297763Y-88767190D01*
X149120000Y-88741928D01*
X147020000Y-88741928D01*
X146918879Y-88749992D01*
X146747366Y-88803106D01*
X146597441Y-88901900D01*
X146480975Y-89038550D01*
X146407190Y-89202237D01*
X146381928Y-89380000D01*
X138352000Y-89380000D01*
X138352000Y-78888586D01*
X138875677Y-78888586D01*
X138904597Y-79206368D01*
X138994691Y-79512482D01*
X139142527Y-79795266D01*
X139342474Y-80043950D01*
X139492969Y-80170231D01*
X139358560Y-80279852D01*
X139155161Y-80525720D01*
X139003391Y-80806412D01*
X138909031Y-81111238D01*
X138875677Y-81428586D01*
X138904597Y-81746368D01*
X138994691Y-82052482D01*
X139142527Y-82335266D01*
X139342474Y-82583950D01*
X139492969Y-82710231D01*
X139358560Y-82819852D01*
X139155161Y-83065720D01*
X139003391Y-83346412D01*
X138909031Y-83651238D01*
X138875677Y-83968586D01*
X138904597Y-84286368D01*
X138994691Y-84592482D01*
X139142527Y-84875266D01*
X139214490Y-84964770D01*
X139097441Y-85041900D01*
X138980975Y-85178550D01*
X138907190Y-85342237D01*
X138881928Y-85520000D01*
X138881928Y-87520000D01*
X138889992Y-87621121D01*
X138943106Y-87792634D01*
X139041900Y-87942559D01*
X139178550Y-88059025D01*
X139342237Y-88132810D01*
X139520000Y-88158072D01*
X142120000Y-88158072D01*
X142221121Y-88150008D01*
X142392634Y-88096894D01*
X142495105Y-88029370D01*
X151260235Y-88029370D01*
X151304071Y-88250054D01*
X151520569Y-88348088D01*
X151752033Y-88402002D01*
X151989567Y-88409723D01*
X152224043Y-88370956D01*
X152446451Y-88287189D01*
X152515929Y-88250054D01*
X152559765Y-88029370D01*
X151910000Y-87379605D01*
X151260235Y-88029370D01*
X142495105Y-88029370D01*
X142542559Y-87998100D01*
X142659025Y-87861450D01*
X142732810Y-87697763D01*
X142758072Y-87520000D01*
X142758072Y-87279567D01*
X150700277Y-87279567D01*
X150739044Y-87514043D01*
X150822811Y-87736451D01*
X150859946Y-87805929D01*
X151080630Y-87849765D01*
X151730395Y-87200000D01*
X152089605Y-87200000D01*
X152739370Y-87849765D01*
X152960054Y-87805929D01*
X153058088Y-87589431D01*
X153112002Y-87357967D01*
X153113839Y-87301446D01*
X154641914Y-87301446D01*
X154684626Y-87534166D01*
X154771727Y-87754157D01*
X154899899Y-87953041D01*
X155064260Y-88123242D01*
X155258549Y-88258277D01*
X155475367Y-88353002D01*
X155706454Y-88403810D01*
X155943009Y-88408765D01*
X156176022Y-88367679D01*
X156396616Y-88282116D01*
X156596390Y-88155335D01*
X156767734Y-87992167D01*
X156904122Y-87798824D01*
X157000358Y-87582673D01*
X157052778Y-87351946D01*
X157056552Y-87081697D01*
X157010595Y-86849596D01*
X156920431Y-86630842D01*
X156789495Y-86433767D01*
X156622773Y-86265878D01*
X156426617Y-86133569D01*
X156208498Y-86041880D01*
X155976724Y-85994303D01*
X155740123Y-85992651D01*
X155507707Y-86036987D01*
X155288329Y-86125622D01*
X155090344Y-86255179D01*
X154921295Y-86420724D01*
X154787620Y-86615952D01*
X154694411Y-86833425D01*
X154645217Y-87064862D01*
X154641914Y-87301446D01*
X153113839Y-87301446D01*
X153119723Y-87120433D01*
X153080956Y-86885957D01*
X152997189Y-86663549D01*
X152960054Y-86594071D01*
X152739370Y-86550235D01*
X152089605Y-87200000D01*
X151730395Y-87200000D01*
X151080630Y-86550235D01*
X150859946Y-86594071D01*
X150761912Y-86810569D01*
X150707998Y-87042033D01*
X150700277Y-87279567D01*
X142758072Y-87279567D01*
X142758072Y-86370630D01*
X151260235Y-86370630D01*
X151910000Y-87020395D01*
X152559765Y-86370630D01*
X152515929Y-86149946D01*
X152299431Y-86051912D01*
X152067967Y-85997998D01*
X151830433Y-85990277D01*
X151595957Y-86029044D01*
X151373549Y-86112811D01*
X151304071Y-86149946D01*
X151260235Y-86370630D01*
X142758072Y-86370630D01*
X142758072Y-85520000D01*
X142754484Y-85475000D01*
X164373000Y-85475000D01*
X164373000Y-87650000D01*
X164381685Y-87696159D01*
X164408965Y-87738553D01*
X164450590Y-87766994D01*
X164500000Y-87777000D01*
X167900000Y-87777000D01*
X167946159Y-87768315D01*
X167988553Y-87741035D01*
X168016994Y-87699410D01*
X168027000Y-87650000D01*
X168027000Y-86980719D01*
X174888738Y-86980719D01*
X174922724Y-87165892D01*
X174992029Y-87340937D01*
X175094014Y-87499187D01*
X175224794Y-87634614D01*
X175379389Y-87742060D01*
X175551908Y-87817432D01*
X175735782Y-87857859D01*
X175924007Y-87861802D01*
X176109412Y-87829110D01*
X176284937Y-87761028D01*
X176443895Y-87660151D01*
X176580231Y-87530319D01*
X176688754Y-87376479D01*
X176765329Y-87204489D01*
X176807038Y-87020902D01*
X176810041Y-86805867D01*
X176773473Y-86621187D01*
X176701731Y-86447127D01*
X176597546Y-86290316D01*
X176464888Y-86156728D01*
X176308809Y-86051451D01*
X176135253Y-85978496D01*
X175950833Y-85940639D01*
X175762572Y-85939325D01*
X175577641Y-85974603D01*
X175403084Y-86045128D01*
X175245550Y-86148216D01*
X175111039Y-86279938D01*
X175004675Y-86435279D01*
X174930509Y-86608320D01*
X174891367Y-86792472D01*
X174888738Y-86980719D01*
X168027000Y-86980719D01*
X168027000Y-85475000D01*
X168018315Y-85428841D01*
X167991035Y-85386447D01*
X167949410Y-85358006D01*
X167900000Y-85348000D01*
X164500000Y-85348000D01*
X164453841Y-85356685D01*
X164411447Y-85383965D01*
X164383006Y-85425590D01*
X164373000Y-85475000D01*
X142754484Y-85475000D01*
X142750008Y-85418879D01*
X142696894Y-85247366D01*
X142598100Y-85097441D01*
X142461450Y-84980975D01*
X142426247Y-84965106D01*
X142484839Y-84894280D01*
X142636609Y-84613588D01*
X142730969Y-84308762D01*
X142752758Y-84101446D01*
X147391914Y-84101446D01*
X147434626Y-84334166D01*
X147521727Y-84554157D01*
X147649899Y-84753041D01*
X147814260Y-84923242D01*
X148008549Y-85058277D01*
X148225367Y-85153002D01*
X148456454Y-85203810D01*
X148693009Y-85208765D01*
X148926022Y-85167679D01*
X149146616Y-85082116D01*
X149346390Y-84955335D01*
X149517734Y-84792167D01*
X149654122Y-84598824D01*
X149740097Y-84405719D01*
X172463738Y-84405719D01*
X172497724Y-84590892D01*
X172567029Y-84765937D01*
X172669014Y-84924187D01*
X172799794Y-85059614D01*
X172954389Y-85167060D01*
X173126908Y-85242432D01*
X173310782Y-85282859D01*
X173499007Y-85286802D01*
X173684412Y-85254110D01*
X173859937Y-85186028D01*
X174018895Y-85085151D01*
X174155231Y-84955319D01*
X174263754Y-84801479D01*
X174340329Y-84629489D01*
X174382038Y-84445902D01*
X174385041Y-84230867D01*
X174348473Y-84046187D01*
X174276731Y-83872127D01*
X174172546Y-83715316D01*
X174039888Y-83581728D01*
X173883809Y-83476451D01*
X173710253Y-83403496D01*
X173525833Y-83365639D01*
X173337572Y-83364325D01*
X173152641Y-83399603D01*
X172978084Y-83470128D01*
X172820550Y-83573216D01*
X172686039Y-83704938D01*
X172579675Y-83860279D01*
X172505509Y-84033320D01*
X172466367Y-84217472D01*
X172463738Y-84405719D01*
X149740097Y-84405719D01*
X149750358Y-84382673D01*
X149802778Y-84151946D01*
X149806552Y-83881697D01*
X149760595Y-83649596D01*
X149670431Y-83430842D01*
X149539495Y-83233767D01*
X149372773Y-83065878D01*
X149176617Y-82933569D01*
X148958498Y-82841880D01*
X148733623Y-82795719D01*
X152423738Y-82795719D01*
X152457724Y-82980892D01*
X152527029Y-83155937D01*
X152629014Y-83314187D01*
X152759794Y-83449614D01*
X152914389Y-83557060D01*
X153086908Y-83632432D01*
X153270782Y-83672859D01*
X153459007Y-83676802D01*
X153644412Y-83644110D01*
X153819937Y-83576028D01*
X153978895Y-83475151D01*
X154115231Y-83345319D01*
X154223754Y-83191479D01*
X154228544Y-83180719D01*
X154888738Y-83180719D01*
X154922724Y-83365892D01*
X154992029Y-83540937D01*
X155094014Y-83699187D01*
X155224794Y-83834614D01*
X155379389Y-83942060D01*
X155551908Y-84017432D01*
X155735782Y-84057859D01*
X155924007Y-84061802D01*
X156109412Y-84029110D01*
X156284937Y-83961028D01*
X156443895Y-83860151D01*
X156580231Y-83730319D01*
X156688754Y-83576479D01*
X156765329Y-83404489D01*
X156807038Y-83220902D01*
X156810041Y-83005867D01*
X156773473Y-82821187D01*
X156701731Y-82647127D01*
X156597546Y-82490316D01*
X156464888Y-82356728D01*
X156308809Y-82251451D01*
X156135253Y-82178496D01*
X155950833Y-82140639D01*
X155762572Y-82139325D01*
X155577641Y-82174603D01*
X155403084Y-82245128D01*
X155245550Y-82348216D01*
X155111039Y-82479938D01*
X155004675Y-82635279D01*
X154930509Y-82808320D01*
X154891367Y-82992472D01*
X154888738Y-83180719D01*
X154228544Y-83180719D01*
X154300329Y-83019489D01*
X154342038Y-82835902D01*
X154345041Y-82620867D01*
X154308473Y-82436187D01*
X154236731Y-82262127D01*
X154132546Y-82105316D01*
X153999888Y-81971728D01*
X153843809Y-81866451D01*
X153687437Y-81800719D01*
X160888738Y-81800719D01*
X160922724Y-81985892D01*
X160992029Y-82160937D01*
X161094014Y-82319187D01*
X161224794Y-82454614D01*
X161379389Y-82562060D01*
X161551908Y-82637432D01*
X161735782Y-82677859D01*
X161924007Y-82681802D01*
X162109412Y-82649110D01*
X162271581Y-82586209D01*
X162302724Y-82755892D01*
X162372029Y-82930937D01*
X162474014Y-83089187D01*
X162604794Y-83224614D01*
X162759389Y-83332060D01*
X162931908Y-83407432D01*
X163115782Y-83447859D01*
X163304007Y-83451802D01*
X163489412Y-83419110D01*
X163664937Y-83351028D01*
X163823895Y-83250151D01*
X163960231Y-83120319D01*
X164068754Y-82966479D01*
X164122762Y-82845173D01*
X176397459Y-82845173D01*
X176431445Y-83030346D01*
X176500750Y-83205391D01*
X176602735Y-83363641D01*
X176733515Y-83499068D01*
X176888110Y-83606514D01*
X177060629Y-83681886D01*
X177244503Y-83722313D01*
X177432728Y-83726256D01*
X177618133Y-83693564D01*
X177793658Y-83625482D01*
X177952616Y-83524605D01*
X178088952Y-83394773D01*
X178134137Y-83330719D01*
X181738738Y-83330719D01*
X181772724Y-83515892D01*
X181842029Y-83690937D01*
X181944014Y-83849187D01*
X182074794Y-83984614D01*
X182229389Y-84092060D01*
X182401908Y-84167432D01*
X182585782Y-84207859D01*
X182774007Y-84211802D01*
X182959412Y-84179110D01*
X183134937Y-84111028D01*
X183293895Y-84010151D01*
X183430231Y-83880319D01*
X183538754Y-83726479D01*
X183615329Y-83554489D01*
X183657038Y-83370902D01*
X183660041Y-83155867D01*
X183623473Y-82971187D01*
X183551731Y-82797127D01*
X183447546Y-82640316D01*
X183314888Y-82506728D01*
X183158809Y-82401451D01*
X182985253Y-82328496D01*
X182800833Y-82290639D01*
X182612572Y-82289325D01*
X182427641Y-82324603D01*
X182253084Y-82395128D01*
X182095550Y-82498216D01*
X181961039Y-82629938D01*
X181854675Y-82785279D01*
X181780509Y-82958320D01*
X181741367Y-83142472D01*
X181738738Y-83330719D01*
X178134137Y-83330719D01*
X178197475Y-83240933D01*
X178274050Y-83068943D01*
X178315759Y-82885356D01*
X178318762Y-82670321D01*
X178282194Y-82485641D01*
X178210452Y-82311581D01*
X178106267Y-82154770D01*
X177973609Y-82021182D01*
X177817530Y-81915905D01*
X177643974Y-81842950D01*
X177459554Y-81805093D01*
X177271293Y-81803779D01*
X177086362Y-81839057D01*
X176911805Y-81909582D01*
X176754271Y-82012670D01*
X176619760Y-82144392D01*
X176513396Y-82299733D01*
X176439230Y-82472774D01*
X176400088Y-82656926D01*
X176397459Y-82845173D01*
X164122762Y-82845173D01*
X164145329Y-82794489D01*
X164187038Y-82610902D01*
X164190041Y-82395867D01*
X164153473Y-82211187D01*
X164081731Y-82037127D01*
X163977546Y-81880316D01*
X163844888Y-81746728D01*
X163688809Y-81641451D01*
X163515253Y-81568496D01*
X163330833Y-81530639D01*
X163142572Y-81529325D01*
X162957641Y-81564603D01*
X162809742Y-81624358D01*
X162773473Y-81441187D01*
X162701731Y-81267127D01*
X162597546Y-81110316D01*
X162464888Y-80976728D01*
X162308809Y-80871451D01*
X162135253Y-80798496D01*
X161950833Y-80760639D01*
X161762572Y-80759325D01*
X161577641Y-80794603D01*
X161403084Y-80865128D01*
X161245550Y-80968216D01*
X161111039Y-81099938D01*
X161004675Y-81255279D01*
X160930509Y-81428320D01*
X160891367Y-81612472D01*
X160888738Y-81800719D01*
X153687437Y-81800719D01*
X153670253Y-81793496D01*
X153485833Y-81755639D01*
X153297572Y-81754325D01*
X153112641Y-81789603D01*
X152938084Y-81860128D01*
X152780550Y-81963216D01*
X152646039Y-82094938D01*
X152539675Y-82250279D01*
X152465509Y-82423320D01*
X152426367Y-82607472D01*
X152423738Y-82795719D01*
X148733623Y-82795719D01*
X148726724Y-82794303D01*
X148490123Y-82792651D01*
X148257707Y-82836987D01*
X148038329Y-82925622D01*
X147840344Y-83055179D01*
X147671295Y-83220724D01*
X147537620Y-83415952D01*
X147444411Y-83633425D01*
X147395217Y-83864862D01*
X147391914Y-84101446D01*
X142752758Y-84101446D01*
X142764323Y-83991414D01*
X142735403Y-83673632D01*
X142645309Y-83367518D01*
X142497473Y-83084734D01*
X142297526Y-82836050D01*
X142147031Y-82709769D01*
X142281440Y-82600148D01*
X142484839Y-82354280D01*
X142636609Y-82073588D01*
X142730969Y-81768762D01*
X142764323Y-81451414D01*
X142735403Y-81133632D01*
X142645309Y-80827518D01*
X142579401Y-80701446D01*
X147391914Y-80701446D01*
X147434626Y-80934166D01*
X147521727Y-81154157D01*
X147649899Y-81353041D01*
X147814260Y-81523242D01*
X148008549Y-81658277D01*
X148225367Y-81753002D01*
X148456454Y-81803810D01*
X148693009Y-81808765D01*
X148926022Y-81767679D01*
X149146616Y-81682116D01*
X149346390Y-81555335D01*
X149517734Y-81392167D01*
X149654122Y-81198824D01*
X149750358Y-80982673D01*
X149802778Y-80751946D01*
X149806552Y-80481697D01*
X149760595Y-80249596D01*
X149670431Y-80030842D01*
X149539495Y-79833767D01*
X149372773Y-79665878D01*
X149176617Y-79533569D01*
X148958498Y-79441880D01*
X148726724Y-79394303D01*
X148490123Y-79392651D01*
X148257707Y-79436987D01*
X148038329Y-79525622D01*
X147840344Y-79655179D01*
X147671295Y-79820724D01*
X147537620Y-80015952D01*
X147444411Y-80233425D01*
X147395217Y-80464862D01*
X147391914Y-80701446D01*
X142579401Y-80701446D01*
X142497473Y-80544734D01*
X142297526Y-80296050D01*
X142147031Y-80169769D01*
X142281440Y-80060148D01*
X142484839Y-79814280D01*
X142636609Y-79533588D01*
X142730969Y-79228762D01*
X142764323Y-78911414D01*
X142735403Y-78593632D01*
X142645309Y-78287518D01*
X142537198Y-78080719D01*
X164038738Y-78080719D01*
X164072724Y-78265892D01*
X164142029Y-78440937D01*
X164244014Y-78599187D01*
X164374794Y-78734614D01*
X164529389Y-78842060D01*
X164701908Y-78917432D01*
X164885782Y-78957859D01*
X165074007Y-78961802D01*
X165259412Y-78929110D01*
X165434937Y-78861028D01*
X165593895Y-78760151D01*
X165730231Y-78630319D01*
X165838754Y-78476479D01*
X165915329Y-78304489D01*
X165957038Y-78120902D01*
X165960041Y-77905867D01*
X165923473Y-77721187D01*
X165851731Y-77547127D01*
X165833290Y-77519370D01*
X177530235Y-77519370D01*
X177574071Y-77740054D01*
X177790569Y-77838088D01*
X178022033Y-77892002D01*
X178259567Y-77899723D01*
X178494043Y-77860956D01*
X178716451Y-77777189D01*
X178785929Y-77740054D01*
X178829765Y-77519370D01*
X178180000Y-76869605D01*
X177530235Y-77519370D01*
X165833290Y-77519370D01*
X165747546Y-77390316D01*
X165614888Y-77256728D01*
X165458809Y-77151451D01*
X165285253Y-77078496D01*
X165100833Y-77040639D01*
X164912572Y-77039325D01*
X164727641Y-77074603D01*
X164553084Y-77145128D01*
X164395550Y-77248216D01*
X164261039Y-77379938D01*
X164154675Y-77535279D01*
X164080509Y-77708320D01*
X164041367Y-77892472D01*
X164038738Y-78080719D01*
X142537198Y-78080719D01*
X142497473Y-78004734D01*
X142297526Y-77756050D01*
X142053084Y-77550939D01*
X141773458Y-77397214D01*
X141469299Y-77300729D01*
X141152191Y-77265159D01*
X141129363Y-77265000D01*
X140510637Y-77265000D01*
X140193064Y-77296138D01*
X139887587Y-77388367D01*
X139605842Y-77538174D01*
X139358560Y-77739852D01*
X139155161Y-77985720D01*
X139003391Y-78266412D01*
X138909031Y-78571238D01*
X138875677Y-78888586D01*
X138352000Y-78888586D01*
X138352000Y-76921446D01*
X145451914Y-76921446D01*
X145494626Y-77154166D01*
X145581727Y-77374157D01*
X145709899Y-77573041D01*
X145874260Y-77743242D01*
X146068549Y-77878277D01*
X146285367Y-77973002D01*
X146516454Y-78023810D01*
X146753009Y-78028765D01*
X146986022Y-77987679D01*
X147206616Y-77902116D01*
X147406390Y-77775335D01*
X147577734Y-77612167D01*
X147714122Y-77418824D01*
X147810358Y-77202673D01*
X147862778Y-76971946D01*
X147865604Y-76769567D01*
X176970277Y-76769567D01*
X177009044Y-77004043D01*
X177092811Y-77226451D01*
X177129946Y-77295929D01*
X177350630Y-77339765D01*
X178000395Y-76690000D01*
X178359605Y-76690000D01*
X179009370Y-77339765D01*
X179230054Y-77295929D01*
X179328088Y-77079431D01*
X179382002Y-76847967D01*
X179389723Y-76610433D01*
X179350956Y-76375957D01*
X179267189Y-76153549D01*
X179230054Y-76084071D01*
X179009370Y-76040235D01*
X178359605Y-76690000D01*
X178000395Y-76690000D01*
X177350630Y-76040235D01*
X177129946Y-76084071D01*
X177031912Y-76300569D01*
X176977998Y-76532033D01*
X176970277Y-76769567D01*
X147865604Y-76769567D01*
X147866552Y-76701697D01*
X147820595Y-76469596D01*
X147780614Y-76372595D01*
X147951908Y-76447432D01*
X148135782Y-76487859D01*
X148324007Y-76491802D01*
X148509412Y-76459110D01*
X148684937Y-76391028D01*
X148843895Y-76290151D01*
X148980231Y-76160319D01*
X149079103Y-76020160D01*
X149139389Y-76062060D01*
X149311908Y-76137432D01*
X149495782Y-76177859D01*
X149684007Y-76181802D01*
X149869412Y-76149110D01*
X150044937Y-76081028D01*
X150203895Y-75980151D01*
X150340231Y-75850319D01*
X150448754Y-75696479D01*
X150525329Y-75524489D01*
X150567038Y-75340902D01*
X150570041Y-75125867D01*
X150533473Y-74941187D01*
X150461731Y-74767127D01*
X150357546Y-74610316D01*
X150224888Y-74476728D01*
X150068809Y-74371451D01*
X149895253Y-74298496D01*
X149710833Y-74260639D01*
X149522572Y-74259325D01*
X149337641Y-74294603D01*
X149163084Y-74365128D01*
X149005550Y-74468216D01*
X148871039Y-74599938D01*
X148781605Y-74730553D01*
X148708809Y-74681451D01*
X148535253Y-74608496D01*
X148350833Y-74570639D01*
X148162572Y-74569325D01*
X147977641Y-74604603D01*
X147803084Y-74675128D01*
X147645550Y-74778216D01*
X147511039Y-74909938D01*
X147404675Y-75065279D01*
X147330509Y-75238320D01*
X147291367Y-75422472D01*
X147288738Y-75610719D01*
X147322724Y-75795892D01*
X147331236Y-75817390D01*
X147236617Y-75753569D01*
X147018498Y-75661880D01*
X146786724Y-75614303D01*
X146550123Y-75612651D01*
X146317707Y-75656987D01*
X146098329Y-75745622D01*
X145900344Y-75875179D01*
X145731295Y-76040724D01*
X145597620Y-76235952D01*
X145504411Y-76453425D01*
X145455217Y-76684862D01*
X145451914Y-76921446D01*
X138352000Y-76921446D01*
X138352000Y-74935750D01*
X138895000Y-74935750D01*
X138895000Y-75712542D01*
X138919403Y-75835223D01*
X138967270Y-75950785D01*
X139036763Y-76054789D01*
X139125211Y-76143237D01*
X139229215Y-76212730D01*
X139344777Y-76260597D01*
X139467458Y-76285000D01*
X140544250Y-76285000D01*
X140703000Y-76126250D01*
X140703000Y-74777000D01*
X140957000Y-74777000D01*
X140957000Y-76126250D01*
X141115750Y-76285000D01*
X142192542Y-76285000D01*
X142315223Y-76260597D01*
X142430785Y-76212730D01*
X142534789Y-76143237D01*
X142623237Y-76054789D01*
X142692730Y-75950785D01*
X142740597Y-75835223D01*
X142765000Y-75712542D01*
X142765000Y-74935750D01*
X142606250Y-74777000D01*
X140957000Y-74777000D01*
X140703000Y-74777000D01*
X139053750Y-74777000D01*
X138895000Y-74935750D01*
X138352000Y-74935750D01*
X138352000Y-61938586D01*
X138885677Y-61938586D01*
X138914597Y-62256368D01*
X139004691Y-62562482D01*
X139152527Y-62845266D01*
X139352474Y-63093950D01*
X139502969Y-63220231D01*
X139368560Y-63329852D01*
X139165161Y-63575720D01*
X139013391Y-63856412D01*
X138919031Y-64161238D01*
X138885677Y-64478586D01*
X138914597Y-64796368D01*
X139004691Y-65102482D01*
X139152527Y-65385266D01*
X139352474Y-65633950D01*
X139502969Y-65760231D01*
X139368560Y-65869852D01*
X139165161Y-66115720D01*
X139013391Y-66396412D01*
X138919031Y-66701238D01*
X138885677Y-67018586D01*
X138914597Y-67336368D01*
X139004691Y-67642482D01*
X139152527Y-67925266D01*
X139352474Y-68173950D01*
X139502969Y-68300231D01*
X139368560Y-68409852D01*
X139165161Y-68655720D01*
X139013391Y-68936412D01*
X138919031Y-69241238D01*
X138885677Y-69558586D01*
X138914597Y-69876368D01*
X139004691Y-70182482D01*
X139152527Y-70465266D01*
X139352474Y-70713950D01*
X139502969Y-70840231D01*
X139368560Y-70949852D01*
X139165161Y-71195720D01*
X139013391Y-71476412D01*
X138919031Y-71781238D01*
X138885677Y-72098586D01*
X138914597Y-72416368D01*
X139004691Y-72722482D01*
X139152527Y-73005266D01*
X139222219Y-73091945D01*
X139125211Y-73156763D01*
X139036763Y-73245211D01*
X138967270Y-73349215D01*
X138919403Y-73464777D01*
X138895000Y-73587458D01*
X138895000Y-74364250D01*
X139053750Y-74523000D01*
X140703000Y-74523000D01*
X140703000Y-74503000D01*
X140957000Y-74503000D01*
X140957000Y-74523000D01*
X142606250Y-74523000D01*
X142765000Y-74364250D01*
X142765000Y-73587458D01*
X142740597Y-73464777D01*
X142692730Y-73349215D01*
X142623237Y-73245211D01*
X142608745Y-73230719D01*
X150913738Y-73230719D01*
X150947724Y-73415892D01*
X151017029Y-73590937D01*
X151119014Y-73749187D01*
X151249794Y-73884614D01*
X151404389Y-73992060D01*
X151576908Y-74067432D01*
X151760782Y-74107859D01*
X151949007Y-74111802D01*
X152134412Y-74079110D01*
X152305488Y-74012754D01*
X152323651Y-74020689D01*
X152507525Y-74061116D01*
X152695750Y-74065059D01*
X152881155Y-74032367D01*
X153056680Y-73964285D01*
X153215638Y-73863408D01*
X153351974Y-73733576D01*
X153460497Y-73579736D01*
X153477023Y-73542619D01*
X153476506Y-73579620D01*
X153510492Y-73764793D01*
X153579797Y-73939838D01*
X153681782Y-74098088D01*
X153808624Y-74229437D01*
X153792572Y-74229325D01*
X153607641Y-74264603D01*
X153433084Y-74335128D01*
X153275550Y-74438216D01*
X153141039Y-74569938D01*
X153034675Y-74725279D01*
X152960509Y-74898320D01*
X152921367Y-75082472D01*
X152918738Y-75270719D01*
X152952724Y-75455892D01*
X153022029Y-75630937D01*
X153124014Y-75789187D01*
X153254794Y-75924614D01*
X153409389Y-76032060D01*
X153581908Y-76107432D01*
X153765782Y-76147859D01*
X153954007Y-76151802D01*
X154139412Y-76119110D01*
X154314937Y-76051028D01*
X154473895Y-75950151D01*
X154610231Y-75820319D01*
X154718754Y-75666479D01*
X154736251Y-75627181D01*
X154875782Y-75657859D01*
X155064007Y-75661802D01*
X155249412Y-75629110D01*
X155424937Y-75561028D01*
X155583895Y-75460151D01*
X155720231Y-75330319D01*
X155828754Y-75176479D01*
X155905329Y-75004489D01*
X155928791Y-74901217D01*
X155992029Y-75060937D01*
X156094014Y-75219187D01*
X156195361Y-75324135D01*
X156188980Y-75354156D01*
X156186351Y-75542403D01*
X156220337Y-75727576D01*
X156289642Y-75902621D01*
X156391627Y-76060871D01*
X156522407Y-76196298D01*
X156677002Y-76303744D01*
X156849521Y-76379116D01*
X157033395Y-76419543D01*
X157221620Y-76423486D01*
X157407025Y-76390794D01*
X157582550Y-76322712D01*
X157741508Y-76221835D01*
X157877844Y-76092003D01*
X157986367Y-75938163D01*
X158062942Y-75766173D01*
X158078175Y-75699119D01*
X160817538Y-75699119D01*
X160851524Y-75884292D01*
X160920829Y-76059337D01*
X161022814Y-76217587D01*
X161153594Y-76353014D01*
X161308189Y-76460460D01*
X161480708Y-76535832D01*
X161664582Y-76576259D01*
X161852807Y-76580202D01*
X162038212Y-76547510D01*
X162213737Y-76479428D01*
X162372695Y-76378551D01*
X162509031Y-76248719D01*
X162617554Y-76094879D01*
X162694129Y-75922889D01*
X162735838Y-75739302D01*
X162738841Y-75524267D01*
X162702273Y-75339587D01*
X162630531Y-75165527D01*
X162590795Y-75105719D01*
X168963738Y-75105719D01*
X168997724Y-75290892D01*
X169067029Y-75465937D01*
X169169014Y-75624187D01*
X169299794Y-75759614D01*
X169454389Y-75867060D01*
X169626908Y-75942432D01*
X169810782Y-75982859D01*
X169999007Y-75986802D01*
X170184412Y-75954110D01*
X170359937Y-75886028D01*
X170518895Y-75785151D01*
X170655231Y-75655319D01*
X170690220Y-75605719D01*
X173138738Y-75605719D01*
X173172724Y-75790892D01*
X173242029Y-75965937D01*
X173344014Y-76124187D01*
X173474794Y-76259614D01*
X173629389Y-76367060D01*
X173801908Y-76442432D01*
X173985782Y-76482859D01*
X174174007Y-76486802D01*
X174359412Y-76454110D01*
X174534937Y-76386028D01*
X174693895Y-76285151D01*
X174830231Y-76155319D01*
X174938754Y-76001479D01*
X175001464Y-75860630D01*
X177530235Y-75860630D01*
X178180000Y-76510395D01*
X178829765Y-75860630D01*
X178785929Y-75639946D01*
X178569431Y-75541912D01*
X178337967Y-75487998D01*
X178100433Y-75480277D01*
X177865957Y-75519044D01*
X177643549Y-75602811D01*
X177574071Y-75639946D01*
X177530235Y-75860630D01*
X175001464Y-75860630D01*
X175015329Y-75829489D01*
X175057038Y-75645902D01*
X175060041Y-75430867D01*
X175023473Y-75246187D01*
X174951731Y-75072127D01*
X174847546Y-74915316D01*
X174714888Y-74781728D01*
X174558809Y-74676451D01*
X174385253Y-74603496D01*
X174200833Y-74565639D01*
X174012572Y-74564325D01*
X173827641Y-74599603D01*
X173653084Y-74670128D01*
X173495550Y-74773216D01*
X173361039Y-74904938D01*
X173254675Y-75060279D01*
X173180509Y-75233320D01*
X173141367Y-75417472D01*
X173138738Y-75605719D01*
X170690220Y-75605719D01*
X170763754Y-75501479D01*
X170840329Y-75329489D01*
X170882038Y-75145902D01*
X170885041Y-74930867D01*
X170848473Y-74746187D01*
X170776731Y-74572127D01*
X170672546Y-74415316D01*
X170539888Y-74281728D01*
X170383809Y-74176451D01*
X170210253Y-74103496D01*
X170025833Y-74065639D01*
X169837572Y-74064325D01*
X169652641Y-74099603D01*
X169478084Y-74170128D01*
X169320550Y-74273216D01*
X169186039Y-74404938D01*
X169079675Y-74560279D01*
X169005509Y-74733320D01*
X168966367Y-74917472D01*
X168963738Y-75105719D01*
X162590795Y-75105719D01*
X162526346Y-75008716D01*
X162393688Y-74875128D01*
X162237609Y-74769851D01*
X162064053Y-74696896D01*
X161879633Y-74659039D01*
X161691372Y-74657725D01*
X161506441Y-74693003D01*
X161331884Y-74763528D01*
X161174350Y-74866616D01*
X161039839Y-74998338D01*
X160933475Y-75153679D01*
X160859309Y-75326720D01*
X160820167Y-75510872D01*
X160817538Y-75699119D01*
X158078175Y-75699119D01*
X158104651Y-75582586D01*
X158107654Y-75367551D01*
X158071086Y-75182871D01*
X157999344Y-75008811D01*
X157895159Y-74852000D01*
X157802904Y-74759098D01*
X157807038Y-74740902D01*
X157810041Y-74525867D01*
X157773473Y-74341187D01*
X157701731Y-74167127D01*
X157597546Y-74010316D01*
X157464888Y-73876728D01*
X157308809Y-73771451D01*
X157135253Y-73698496D01*
X156950833Y-73660639D01*
X156762572Y-73659325D01*
X156577641Y-73694603D01*
X156403084Y-73765128D01*
X156245550Y-73868216D01*
X156111039Y-73999938D01*
X156004675Y-74155279D01*
X155930509Y-74328320D01*
X155911690Y-74416860D01*
X155841731Y-74247127D01*
X155737546Y-74090316D01*
X155658513Y-74010729D01*
X155769726Y-73940151D01*
X155906062Y-73810319D01*
X156014585Y-73656479D01*
X156091160Y-73484489D01*
X156132869Y-73300902D01*
X156133430Y-73260719D01*
X161568738Y-73260719D01*
X161602724Y-73445892D01*
X161672029Y-73620937D01*
X161774014Y-73779187D01*
X161904794Y-73914614D01*
X162059389Y-74022060D01*
X162231908Y-74097432D01*
X162415782Y-74137859D01*
X162604007Y-74141802D01*
X162789412Y-74109110D01*
X162964937Y-74041028D01*
X163123895Y-73940151D01*
X163260231Y-73810319D01*
X163368754Y-73656479D01*
X163445329Y-73484489D01*
X163487038Y-73300902D01*
X163490041Y-73085867D01*
X163453473Y-72901187D01*
X163381731Y-72727127D01*
X163277546Y-72570316D01*
X163144888Y-72436728D01*
X162988809Y-72331451D01*
X162868121Y-72280719D01*
X166988738Y-72280719D01*
X167022724Y-72465892D01*
X167092029Y-72640937D01*
X167194014Y-72799187D01*
X167324794Y-72934614D01*
X167479389Y-73042060D01*
X167651908Y-73117432D01*
X167835782Y-73157859D01*
X168024007Y-73161802D01*
X168209412Y-73129110D01*
X168384937Y-73061028D01*
X168543895Y-72960151D01*
X168680231Y-72830319D01*
X168782795Y-72684926D01*
X168879389Y-72752060D01*
X169051908Y-72827432D01*
X169235782Y-72867859D01*
X169424007Y-72871802D01*
X169609412Y-72839110D01*
X169784937Y-72771028D01*
X169943895Y-72670151D01*
X170080231Y-72540319D01*
X170182786Y-72394939D01*
X183606618Y-72394939D01*
X183640604Y-72580112D01*
X183709909Y-72755157D01*
X183811894Y-72913407D01*
X183942674Y-73048834D01*
X184097269Y-73156280D01*
X184269788Y-73231652D01*
X184453662Y-73272079D01*
X184641887Y-73276022D01*
X184827292Y-73243330D01*
X185002817Y-73175248D01*
X185161775Y-73074371D01*
X185298111Y-72944539D01*
X185406634Y-72790699D01*
X185483209Y-72618709D01*
X185524918Y-72435122D01*
X185527921Y-72220087D01*
X185491353Y-72035407D01*
X185419611Y-71861347D01*
X185315426Y-71704536D01*
X185182768Y-71570948D01*
X185026689Y-71465671D01*
X184853133Y-71392716D01*
X184668713Y-71354859D01*
X184480452Y-71353545D01*
X184295521Y-71388823D01*
X184120964Y-71459348D01*
X183963430Y-71562436D01*
X183828919Y-71694158D01*
X183722555Y-71849499D01*
X183648389Y-72022540D01*
X183609247Y-72206692D01*
X183606618Y-72394939D01*
X170182786Y-72394939D01*
X170188754Y-72386479D01*
X170265329Y-72214489D01*
X170307038Y-72030902D01*
X170310041Y-71815867D01*
X170273473Y-71631187D01*
X170201731Y-71457127D01*
X170097546Y-71300316D01*
X169964888Y-71166728D01*
X169808809Y-71061451D01*
X169635253Y-70988496D01*
X169450833Y-70950639D01*
X169262572Y-70949325D01*
X169077641Y-70984603D01*
X168903084Y-71055128D01*
X168745550Y-71158216D01*
X168611039Y-71289938D01*
X168518336Y-71425328D01*
X168408809Y-71351451D01*
X168235253Y-71278496D01*
X168050833Y-71240639D01*
X167862572Y-71239325D01*
X167677641Y-71274603D01*
X167503084Y-71345128D01*
X167345550Y-71448216D01*
X167211039Y-71579938D01*
X167104675Y-71735279D01*
X167030509Y-71908320D01*
X166991367Y-72092472D01*
X166988738Y-72280719D01*
X162868121Y-72280719D01*
X162815253Y-72258496D01*
X162630833Y-72220639D01*
X162442572Y-72219325D01*
X162257641Y-72254603D01*
X162083084Y-72325128D01*
X161925550Y-72428216D01*
X161791039Y-72559938D01*
X161684675Y-72715279D01*
X161610509Y-72888320D01*
X161571367Y-73072472D01*
X161568738Y-73260719D01*
X156133430Y-73260719D01*
X156135872Y-73085867D01*
X156099304Y-72901187D01*
X156027562Y-72727127D01*
X155923377Y-72570316D01*
X155863994Y-72510516D01*
X155958053Y-72377180D01*
X156034628Y-72205190D01*
X156076337Y-72021603D01*
X156079340Y-71806568D01*
X156042772Y-71621888D01*
X155971030Y-71447828D01*
X155866845Y-71291017D01*
X155734187Y-71157429D01*
X155657525Y-71105719D01*
X157663738Y-71105719D01*
X157697724Y-71290892D01*
X157767029Y-71465937D01*
X157869014Y-71624187D01*
X157999794Y-71759614D01*
X158154389Y-71867060D01*
X158326908Y-71942432D01*
X158510782Y-71982859D01*
X158699007Y-71986802D01*
X158884412Y-71954110D01*
X159059937Y-71886028D01*
X159218895Y-71785151D01*
X159355231Y-71655319D01*
X159463754Y-71501479D01*
X159540329Y-71329489D01*
X159582038Y-71145902D01*
X159582948Y-71080719D01*
X161998738Y-71080719D01*
X162032724Y-71265892D01*
X162102029Y-71440937D01*
X162204014Y-71599187D01*
X162334794Y-71734614D01*
X162489389Y-71842060D01*
X162661908Y-71917432D01*
X162845782Y-71957859D01*
X163034007Y-71961802D01*
X163219412Y-71929110D01*
X163394937Y-71861028D01*
X163553895Y-71760151D01*
X163690231Y-71630319D01*
X163798754Y-71476479D01*
X163875329Y-71304489D01*
X163917038Y-71120902D01*
X163920041Y-70905867D01*
X163914078Y-70875750D01*
X191665000Y-70875750D01*
X191665000Y-71652542D01*
X191689403Y-71775223D01*
X191737270Y-71890785D01*
X191806763Y-71994789D01*
X191895211Y-72083237D01*
X191999215Y-72152730D01*
X192114777Y-72200597D01*
X192237458Y-72225000D01*
X193314250Y-72225000D01*
X193473000Y-72066250D01*
X193473000Y-70717000D01*
X193727000Y-70717000D01*
X193727000Y-72066250D01*
X193885750Y-72225000D01*
X194962542Y-72225000D01*
X195085223Y-72200597D01*
X195200785Y-72152730D01*
X195304789Y-72083237D01*
X195393237Y-71994789D01*
X195462730Y-71890785D01*
X195510597Y-71775223D01*
X195535000Y-71652542D01*
X195535000Y-70875750D01*
X195376250Y-70717000D01*
X193727000Y-70717000D01*
X193473000Y-70717000D01*
X191823750Y-70717000D01*
X191665000Y-70875750D01*
X163914078Y-70875750D01*
X163883473Y-70721187D01*
X163811731Y-70547127D01*
X163707546Y-70390316D01*
X163574888Y-70256728D01*
X163418809Y-70151451D01*
X163245253Y-70078496D01*
X163060833Y-70040639D01*
X162872572Y-70039325D01*
X162687641Y-70074603D01*
X162513084Y-70145128D01*
X162355550Y-70248216D01*
X162221039Y-70379938D01*
X162114675Y-70535279D01*
X162040509Y-70708320D01*
X162001367Y-70892472D01*
X161998738Y-71080719D01*
X159582948Y-71080719D01*
X159585041Y-70930867D01*
X159548473Y-70746187D01*
X159482263Y-70585550D01*
X159609937Y-70536028D01*
X159768895Y-70435151D01*
X159905231Y-70305319D01*
X160013754Y-70151479D01*
X160090329Y-69979489D01*
X160132038Y-69795902D01*
X160135041Y-69580867D01*
X160098473Y-69396187D01*
X160036299Y-69245339D01*
X181041218Y-69245339D01*
X181075204Y-69430512D01*
X181144509Y-69605557D01*
X181246494Y-69763807D01*
X181377274Y-69899234D01*
X181531869Y-70006680D01*
X181704388Y-70082052D01*
X181888262Y-70122479D01*
X182076487Y-70126422D01*
X182261892Y-70093730D01*
X182437417Y-70025648D01*
X182596375Y-69924771D01*
X182732711Y-69794939D01*
X182841234Y-69641099D01*
X182917809Y-69469109D01*
X182959518Y-69285522D01*
X182962521Y-69070487D01*
X182925953Y-68885807D01*
X182854211Y-68711747D01*
X182750026Y-68554936D01*
X182617368Y-68421348D01*
X182461289Y-68316071D01*
X182287733Y-68243116D01*
X182103313Y-68205259D01*
X181915052Y-68203945D01*
X181730121Y-68239223D01*
X181555564Y-68309748D01*
X181398030Y-68412836D01*
X181263519Y-68544558D01*
X181157155Y-68699899D01*
X181082989Y-68872940D01*
X181043847Y-69057092D01*
X181041218Y-69245339D01*
X160036299Y-69245339D01*
X160026731Y-69222127D01*
X159922546Y-69065316D01*
X159789888Y-68931728D01*
X159633809Y-68826451D01*
X159460253Y-68753496D01*
X159275833Y-68715639D01*
X159087572Y-68714325D01*
X158902641Y-68749603D01*
X158728084Y-68820128D01*
X158570550Y-68923216D01*
X158436039Y-69054938D01*
X158329675Y-69210279D01*
X158255509Y-69383320D01*
X158216367Y-69567472D01*
X158213738Y-69755719D01*
X158247724Y-69940892D01*
X158316365Y-70114259D01*
X158178084Y-70170128D01*
X158020550Y-70273216D01*
X157886039Y-70404938D01*
X157779675Y-70560279D01*
X157705509Y-70733320D01*
X157666367Y-70917472D01*
X157663738Y-71105719D01*
X155657525Y-71105719D01*
X155578108Y-71052152D01*
X155404552Y-70979197D01*
X155220132Y-70941340D01*
X155031871Y-70940026D01*
X154846940Y-70975304D01*
X154672383Y-71045829D01*
X154514849Y-71148917D01*
X154380338Y-71280639D01*
X154273974Y-71435980D01*
X154199808Y-71609021D01*
X154160666Y-71793173D01*
X154158037Y-71981420D01*
X154192023Y-72166593D01*
X154261328Y-72341638D01*
X154363313Y-72499888D01*
X154400675Y-72538577D01*
X154350340Y-72538226D01*
X154165409Y-72573504D01*
X153990852Y-72644029D01*
X153833318Y-72747117D01*
X153698807Y-72878839D01*
X153592443Y-73034180D01*
X153581063Y-73060731D01*
X153581784Y-73009124D01*
X153545216Y-72824444D01*
X153473474Y-72650384D01*
X153369289Y-72493573D01*
X153236631Y-72359985D01*
X153080552Y-72254708D01*
X152906996Y-72181753D01*
X152722576Y-72143896D01*
X152534315Y-72142582D01*
X152349384Y-72177860D01*
X152191522Y-72241640D01*
X152160253Y-72228496D01*
X151975833Y-72190639D01*
X151787572Y-72189325D01*
X151602641Y-72224603D01*
X151428084Y-72295128D01*
X151270550Y-72398216D01*
X151136039Y-72529938D01*
X151029675Y-72685279D01*
X150955509Y-72858320D01*
X150916367Y-73042472D01*
X150913738Y-73230719D01*
X142608745Y-73230719D01*
X142534789Y-73156763D01*
X142438477Y-73092410D01*
X142494839Y-73024280D01*
X142646609Y-72743588D01*
X142740969Y-72438762D01*
X142774323Y-72121414D01*
X142745403Y-71803632D01*
X142655309Y-71497518D01*
X142507473Y-71214734D01*
X142307526Y-70966050D01*
X142157031Y-70839769D01*
X142291440Y-70730148D01*
X142353012Y-70655719D01*
X144288738Y-70655719D01*
X144322724Y-70840892D01*
X144392029Y-71015937D01*
X144494014Y-71174187D01*
X144542368Y-71224259D01*
X144511039Y-71254938D01*
X144404675Y-71410279D01*
X144330509Y-71583320D01*
X144291367Y-71767472D01*
X144288738Y-71955719D01*
X144322724Y-72140892D01*
X144392029Y-72315937D01*
X144494014Y-72474187D01*
X144624794Y-72609614D01*
X144779389Y-72717060D01*
X144951908Y-72792432D01*
X145135782Y-72832859D01*
X145324007Y-72836802D01*
X145509412Y-72804110D01*
X145684937Y-72736028D01*
X145843895Y-72635151D01*
X145980231Y-72505319D01*
X146088754Y-72351479D01*
X146165329Y-72179489D01*
X146207038Y-71995902D01*
X146210041Y-71780867D01*
X146173473Y-71596187D01*
X146101731Y-71422127D01*
X145997546Y-71265316D01*
X145958509Y-71226005D01*
X145980231Y-71205319D01*
X146088754Y-71051479D01*
X146165329Y-70879489D01*
X146207038Y-70695902D01*
X146210041Y-70480867D01*
X146173473Y-70296187D01*
X146136260Y-70205899D01*
X151223438Y-70205899D01*
X151257424Y-70391072D01*
X151326729Y-70566117D01*
X151332867Y-70575642D01*
X151265209Y-70733500D01*
X151226067Y-70917652D01*
X151223438Y-71105899D01*
X151257424Y-71291072D01*
X151326729Y-71466117D01*
X151428714Y-71624367D01*
X151559494Y-71759794D01*
X151714089Y-71867240D01*
X151886608Y-71942612D01*
X152070482Y-71983039D01*
X152258707Y-71986982D01*
X152444112Y-71954290D01*
X152619637Y-71886208D01*
X152635077Y-71876410D01*
X152786608Y-71942612D01*
X152970482Y-71983039D01*
X153158707Y-71986982D01*
X153344112Y-71954290D01*
X153519637Y-71886208D01*
X153678595Y-71785331D01*
X153814931Y-71655499D01*
X153923454Y-71501659D01*
X154000029Y-71329669D01*
X154041738Y-71146082D01*
X154044741Y-70931047D01*
X154008173Y-70746367D01*
X153936475Y-70572414D01*
X154000029Y-70429669D01*
X154041738Y-70246082D01*
X154044741Y-70031047D01*
X154008173Y-69846367D01*
X153936431Y-69672307D01*
X153832246Y-69515496D01*
X153699588Y-69381908D01*
X153543509Y-69276631D01*
X153369953Y-69203676D01*
X153185533Y-69165819D01*
X152997272Y-69164505D01*
X152812341Y-69199783D01*
X152637784Y-69270308D01*
X152634140Y-69272693D01*
X152469953Y-69203676D01*
X152285533Y-69165819D01*
X152097272Y-69164505D01*
X151912341Y-69199783D01*
X151737784Y-69270308D01*
X151580250Y-69373396D01*
X151445739Y-69505118D01*
X151339375Y-69660459D01*
X151265209Y-69833500D01*
X151226067Y-70017652D01*
X151223438Y-70205899D01*
X146136260Y-70205899D01*
X146101731Y-70122127D01*
X145997546Y-69965316D01*
X145864888Y-69831728D01*
X145708809Y-69726451D01*
X145535253Y-69653496D01*
X145350833Y-69615639D01*
X145162572Y-69614325D01*
X144977641Y-69649603D01*
X144803084Y-69720128D01*
X144645550Y-69823216D01*
X144511039Y-69954938D01*
X144404675Y-70110279D01*
X144330509Y-70283320D01*
X144291367Y-70467472D01*
X144288738Y-70655719D01*
X142353012Y-70655719D01*
X142494839Y-70484280D01*
X142646609Y-70203588D01*
X142740969Y-69898762D01*
X142774323Y-69581414D01*
X142745403Y-69263632D01*
X142655309Y-68957518D01*
X142507473Y-68674734D01*
X142307526Y-68426050D01*
X142157031Y-68299769D01*
X142291440Y-68190148D01*
X142494839Y-67944280D01*
X142646609Y-67663588D01*
X142740969Y-67358762D01*
X142774323Y-67041414D01*
X142745403Y-66723632D01*
X142655309Y-66417518D01*
X142583793Y-66280719D01*
X147538738Y-66280719D01*
X147572724Y-66465892D01*
X147610920Y-66562365D01*
X147580509Y-66633320D01*
X147541367Y-66817472D01*
X147538738Y-67005719D01*
X147572724Y-67190892D01*
X147610920Y-67287365D01*
X147580509Y-67358320D01*
X147541367Y-67542472D01*
X147538738Y-67730719D01*
X147572724Y-67915892D01*
X147642029Y-68090937D01*
X147744014Y-68249187D01*
X147874794Y-68384614D01*
X148029389Y-68492060D01*
X148201908Y-68567432D01*
X148385782Y-68607859D01*
X148574007Y-68611802D01*
X148759412Y-68579110D01*
X148934937Y-68511028D01*
X149093895Y-68410151D01*
X149230231Y-68280319D01*
X149266673Y-68228659D01*
X153623046Y-68228659D01*
X153657032Y-68413832D01*
X153726337Y-68588877D01*
X153828322Y-68747127D01*
X153959102Y-68882554D01*
X154113697Y-68990000D01*
X154286216Y-69065372D01*
X154470090Y-69105799D01*
X154658315Y-69109742D01*
X154843720Y-69077050D01*
X155019245Y-69008968D01*
X155178203Y-68908091D01*
X155314539Y-68778259D01*
X155423062Y-68624419D01*
X155499637Y-68452429D01*
X155541346Y-68268842D01*
X155544349Y-68053807D01*
X155534828Y-68005719D01*
X162363738Y-68005719D01*
X162397724Y-68190892D01*
X162467029Y-68365937D01*
X162569014Y-68524187D01*
X162699794Y-68659614D01*
X162854389Y-68767060D01*
X163026908Y-68842432D01*
X163210782Y-68882859D01*
X163399007Y-68886802D01*
X163584412Y-68854110D01*
X163759937Y-68786028D01*
X163918895Y-68685151D01*
X164055231Y-68555319D01*
X164163754Y-68401479D01*
X164240329Y-68229489D01*
X164282038Y-68045902D01*
X164285041Y-67830867D01*
X164248473Y-67646187D01*
X164176731Y-67472127D01*
X164072546Y-67315316D01*
X163939888Y-67181728D01*
X163783809Y-67076451D01*
X163610253Y-67003496D01*
X163425833Y-66965639D01*
X163237572Y-66964325D01*
X163052641Y-66999603D01*
X162878084Y-67070128D01*
X162720550Y-67173216D01*
X162586039Y-67304938D01*
X162479675Y-67460279D01*
X162405509Y-67633320D01*
X162366367Y-67817472D01*
X162363738Y-68005719D01*
X155534828Y-68005719D01*
X155507781Y-67869127D01*
X155436039Y-67695067D01*
X155331854Y-67538256D01*
X155199196Y-67404668D01*
X155043117Y-67299391D01*
X154869561Y-67226436D01*
X154685141Y-67188579D01*
X154496880Y-67187265D01*
X154311949Y-67222543D01*
X154137392Y-67293068D01*
X153979858Y-67396156D01*
X153845347Y-67527878D01*
X153738983Y-67683219D01*
X153664817Y-67856260D01*
X153625675Y-68040412D01*
X153623046Y-68228659D01*
X149266673Y-68228659D01*
X149338754Y-68126479D01*
X149415329Y-67954489D01*
X149457038Y-67770902D01*
X149460041Y-67555867D01*
X149423473Y-67371187D01*
X149389230Y-67288108D01*
X149415329Y-67229489D01*
X149457038Y-67045902D01*
X149460041Y-66830867D01*
X149423473Y-66646187D01*
X149389230Y-66563108D01*
X149415329Y-66504489D01*
X149457038Y-66320902D01*
X149460041Y-66105867D01*
X149450597Y-66058169D01*
X149624007Y-66061802D01*
X149809412Y-66029110D01*
X149984937Y-65961028D01*
X150143895Y-65860151D01*
X150280231Y-65730319D01*
X150388754Y-65576479D01*
X150465329Y-65404489D01*
X150482088Y-65330719D01*
X151313738Y-65330719D01*
X151347724Y-65515892D01*
X151417029Y-65690937D01*
X151519014Y-65849187D01*
X151649794Y-65984614D01*
X151804389Y-66092060D01*
X151976908Y-66167432D01*
X152160782Y-66207859D01*
X152349007Y-66211802D01*
X152534412Y-66179110D01*
X152709937Y-66111028D01*
X152868895Y-66010151D01*
X152876080Y-66003309D01*
X152989389Y-66082060D01*
X153161908Y-66157432D01*
X153345782Y-66197859D01*
X153534007Y-66201802D01*
X153719412Y-66169110D01*
X153894937Y-66101028D01*
X154053895Y-66000151D01*
X154190231Y-65870319D01*
X154298754Y-65716479D01*
X154375329Y-65544489D01*
X154417038Y-65360902D01*
X154420041Y-65145867D01*
X154383473Y-64961187D01*
X154311731Y-64787127D01*
X154207546Y-64630316D01*
X154074888Y-64496728D01*
X153918809Y-64391451D01*
X153745253Y-64318496D01*
X153560833Y-64280639D01*
X153372572Y-64279325D01*
X153187641Y-64314603D01*
X153013084Y-64385128D01*
X152859049Y-64485927D01*
X152733809Y-64401451D01*
X152560253Y-64328496D01*
X152375833Y-64290639D01*
X152187572Y-64289325D01*
X152002641Y-64324603D01*
X151828084Y-64395128D01*
X151670550Y-64498216D01*
X151536039Y-64629938D01*
X151429675Y-64785279D01*
X151355509Y-64958320D01*
X151316367Y-65142472D01*
X151313738Y-65330719D01*
X150482088Y-65330719D01*
X150507038Y-65220902D01*
X150510041Y-65005867D01*
X150473473Y-64821187D01*
X150401731Y-64647127D01*
X150297546Y-64490316D01*
X150164888Y-64356728D01*
X150008809Y-64251451D01*
X149835253Y-64178496D01*
X149650833Y-64140639D01*
X149462572Y-64139325D01*
X149277641Y-64174603D01*
X149103084Y-64245128D01*
X148945550Y-64348216D01*
X148811039Y-64479938D01*
X148704675Y-64635279D01*
X148630509Y-64808320D01*
X148591367Y-64992472D01*
X148588738Y-65180719D01*
X148599734Y-65240631D01*
X148412572Y-65239325D01*
X148227641Y-65274603D01*
X148053084Y-65345128D01*
X147895550Y-65448216D01*
X147761039Y-65579938D01*
X147654675Y-65735279D01*
X147580509Y-65908320D01*
X147541367Y-66092472D01*
X147538738Y-66280719D01*
X142583793Y-66280719D01*
X142507473Y-66134734D01*
X142307526Y-65886050D01*
X142157031Y-65759769D01*
X142291440Y-65650148D01*
X142494839Y-65404280D01*
X142646609Y-65123588D01*
X142740969Y-64818762D01*
X142774323Y-64501414D01*
X142745403Y-64183632D01*
X142655309Y-63877518D01*
X142507473Y-63594734D01*
X142307526Y-63346050D01*
X142157031Y-63219769D01*
X142291440Y-63110148D01*
X142494839Y-62864280D01*
X142646609Y-62583588D01*
X142709407Y-62380719D01*
X149038738Y-62380719D01*
X149072724Y-62565892D01*
X149142029Y-62740937D01*
X149244014Y-62899187D01*
X149374794Y-63034614D01*
X149529389Y-63142060D01*
X149701908Y-63217432D01*
X149885782Y-63257859D01*
X150074007Y-63261802D01*
X150259412Y-63229110D01*
X150434937Y-63161028D01*
X150561484Y-63080719D01*
X157813738Y-63080719D01*
X157847724Y-63265892D01*
X157917029Y-63440937D01*
X158019014Y-63599187D01*
X158149794Y-63734614D01*
X158304389Y-63842060D01*
X158476908Y-63917432D01*
X158660782Y-63957859D01*
X158849007Y-63961802D01*
X159034412Y-63929110D01*
X159209937Y-63861028D01*
X159368895Y-63760151D01*
X159467758Y-63666004D01*
X159466914Y-63726446D01*
X159509626Y-63959166D01*
X159596727Y-64179157D01*
X159724899Y-64378041D01*
X159889260Y-64548242D01*
X160083549Y-64683277D01*
X160300367Y-64778002D01*
X160531454Y-64828810D01*
X160768009Y-64833765D01*
X161001022Y-64792679D01*
X161046848Y-64774904D01*
X161072724Y-64915892D01*
X161142029Y-65090937D01*
X161244014Y-65249187D01*
X161374794Y-65384614D01*
X161529389Y-65492060D01*
X161701908Y-65567432D01*
X161885782Y-65607859D01*
X162074007Y-65611802D01*
X162259412Y-65579110D01*
X162434937Y-65511028D01*
X162593895Y-65410151D01*
X162730231Y-65280319D01*
X162838754Y-65126479D01*
X162915329Y-64954489D01*
X162957038Y-64770902D01*
X162960041Y-64555867D01*
X162923473Y-64371187D01*
X162851731Y-64197127D01*
X162747546Y-64040316D01*
X162614888Y-63906728D01*
X162458809Y-63801451D01*
X162285253Y-63728496D01*
X162100833Y-63690639D01*
X161912572Y-63689325D01*
X161878912Y-63695746D01*
X161881552Y-63506697D01*
X161835595Y-63274596D01*
X161745431Y-63055842D01*
X161728753Y-63030739D01*
X162747938Y-63030739D01*
X162781924Y-63215912D01*
X162851229Y-63390957D01*
X162953214Y-63549207D01*
X163083994Y-63684634D01*
X163238589Y-63792080D01*
X163411108Y-63867452D01*
X163594982Y-63907879D01*
X163622821Y-63908462D01*
X163596309Y-63970320D01*
X163557167Y-64154472D01*
X163554538Y-64342719D01*
X163588524Y-64527892D01*
X163657829Y-64702937D01*
X163759814Y-64861187D01*
X163890594Y-64996614D01*
X164045189Y-65104060D01*
X164217708Y-65179432D01*
X164401582Y-65219859D01*
X164589807Y-65223802D01*
X164775212Y-65191110D01*
X164950737Y-65123028D01*
X165109695Y-65022151D01*
X165246031Y-64892319D01*
X165354554Y-64738479D01*
X165427820Y-64573919D01*
X167396138Y-64573919D01*
X167430124Y-64759092D01*
X167499429Y-64934137D01*
X167601414Y-65092387D01*
X167732194Y-65227814D01*
X167886789Y-65335260D01*
X168059308Y-65410632D01*
X168243182Y-65451059D01*
X168431407Y-65455002D01*
X168616812Y-65422310D01*
X168792337Y-65354228D01*
X168951295Y-65253351D01*
X169087631Y-65123519D01*
X169196154Y-64969679D01*
X169272729Y-64797689D01*
X169310662Y-64630719D01*
X169963738Y-64630719D01*
X169997724Y-64815892D01*
X170067029Y-64990937D01*
X170169014Y-65149187D01*
X170299794Y-65284614D01*
X170454389Y-65392060D01*
X170626908Y-65467432D01*
X170810782Y-65507859D01*
X170999007Y-65511802D01*
X171184412Y-65479110D01*
X171359937Y-65411028D01*
X171518895Y-65310151D01*
X171655231Y-65180319D01*
X171763754Y-65026479D01*
X171840329Y-64854489D01*
X171882038Y-64670902D01*
X171885041Y-64455867D01*
X171848473Y-64271187D01*
X171776731Y-64097127D01*
X171672546Y-63940316D01*
X171539888Y-63806728D01*
X171390137Y-63705719D01*
X173213738Y-63705719D01*
X173247724Y-63890892D01*
X173317029Y-64065937D01*
X173419014Y-64224187D01*
X173549794Y-64359614D01*
X173704389Y-64467060D01*
X173876908Y-64542432D01*
X174060782Y-64582859D01*
X174249007Y-64586802D01*
X174434412Y-64554110D01*
X174609937Y-64486028D01*
X174768895Y-64385151D01*
X174905231Y-64255319D01*
X175013754Y-64101479D01*
X175090329Y-63929489D01*
X175132038Y-63745902D01*
X175132885Y-63685237D01*
X175309412Y-63654110D01*
X175484937Y-63586028D01*
X175643895Y-63485151D01*
X175780231Y-63355319D01*
X175888754Y-63201479D01*
X175965329Y-63029489D01*
X176007038Y-62845902D01*
X176010041Y-62630867D01*
X175973473Y-62446187D01*
X175901731Y-62272127D01*
X175797546Y-62115316D01*
X175664888Y-61981728D01*
X175508809Y-61876451D01*
X175335253Y-61803496D01*
X175150833Y-61765639D01*
X174962572Y-61764325D01*
X174777641Y-61799603D01*
X174603084Y-61870128D01*
X174445550Y-61973216D01*
X174311039Y-62104938D01*
X174204675Y-62260279D01*
X174130509Y-62433320D01*
X174091367Y-62617472D01*
X174090712Y-62664347D01*
X174087572Y-62664325D01*
X173902641Y-62699603D01*
X173728084Y-62770128D01*
X173570550Y-62873216D01*
X173436039Y-63004938D01*
X173329675Y-63160279D01*
X173255509Y-63333320D01*
X173216367Y-63517472D01*
X173213738Y-63705719D01*
X171390137Y-63705719D01*
X171383809Y-63701451D01*
X171210253Y-63628496D01*
X171025833Y-63590639D01*
X170837572Y-63589325D01*
X170652641Y-63624603D01*
X170478084Y-63695128D01*
X170320550Y-63798216D01*
X170186039Y-63929938D01*
X170079675Y-64085279D01*
X170005509Y-64258320D01*
X169966367Y-64442472D01*
X169963738Y-64630719D01*
X169310662Y-64630719D01*
X169314438Y-64614102D01*
X169317441Y-64399067D01*
X169280873Y-64214387D01*
X169209131Y-64040327D01*
X169104946Y-63883516D01*
X168972288Y-63749928D01*
X168816209Y-63644651D01*
X168642653Y-63571696D01*
X168458233Y-63533839D01*
X168269972Y-63532525D01*
X168085041Y-63567803D01*
X167910484Y-63638328D01*
X167752950Y-63741416D01*
X167618439Y-63873138D01*
X167512075Y-64028479D01*
X167437909Y-64201520D01*
X167398767Y-64385672D01*
X167396138Y-64573919D01*
X165427820Y-64573919D01*
X165431129Y-64566489D01*
X165472838Y-64382902D01*
X165475841Y-64167867D01*
X165439273Y-63983187D01*
X165367531Y-63809127D01*
X165263346Y-63652316D01*
X165130688Y-63518728D01*
X164974609Y-63413451D01*
X164801053Y-63340496D01*
X164616633Y-63302639D01*
X164603142Y-63302545D01*
X164624529Y-63254509D01*
X164666238Y-63070922D01*
X164669241Y-62855887D01*
X164632673Y-62671207D01*
X164560931Y-62497147D01*
X164466967Y-62355719D01*
X164588738Y-62355719D01*
X164622724Y-62540892D01*
X164692029Y-62715937D01*
X164794014Y-62874187D01*
X164924794Y-63009614D01*
X165079389Y-63117060D01*
X165251908Y-63192432D01*
X165435782Y-63232859D01*
X165624007Y-63236802D01*
X165809412Y-63204110D01*
X165984937Y-63136028D01*
X166143895Y-63035151D01*
X166280231Y-62905319D01*
X166388754Y-62751479D01*
X166465329Y-62579489D01*
X166507038Y-62395902D01*
X166510041Y-62180867D01*
X166473473Y-61996187D01*
X166401731Y-61822127D01*
X166297546Y-61665316D01*
X166164888Y-61531728D01*
X166008809Y-61426451D01*
X165835253Y-61353496D01*
X165650833Y-61315639D01*
X165462572Y-61314325D01*
X165277641Y-61349603D01*
X165103084Y-61420128D01*
X164945550Y-61523216D01*
X164811039Y-61654938D01*
X164704675Y-61810279D01*
X164630509Y-61983320D01*
X164591367Y-62167472D01*
X164588738Y-62355719D01*
X164466967Y-62355719D01*
X164456746Y-62340336D01*
X164324088Y-62206748D01*
X164168009Y-62101471D01*
X163994453Y-62028516D01*
X163810033Y-61990659D01*
X163621772Y-61989345D01*
X163436841Y-62024623D01*
X163262284Y-62095148D01*
X163104750Y-62198236D01*
X162970239Y-62329958D01*
X162863875Y-62485299D01*
X162789709Y-62658340D01*
X162750567Y-62842492D01*
X162747938Y-63030739D01*
X161728753Y-63030739D01*
X161614495Y-62858767D01*
X161447773Y-62690878D01*
X161251617Y-62558569D01*
X161033498Y-62466880D01*
X160801724Y-62419303D01*
X160565123Y-62417651D01*
X160332707Y-62461987D01*
X160113329Y-62550622D01*
X159915344Y-62680179D01*
X159746295Y-62845724D01*
X159728328Y-62871964D01*
X159698473Y-62721187D01*
X159626731Y-62547127D01*
X159522546Y-62390316D01*
X159389888Y-62256728D01*
X159233809Y-62151451D01*
X159060253Y-62078496D01*
X158875833Y-62040639D01*
X158687572Y-62039325D01*
X158502641Y-62074603D01*
X158328084Y-62145128D01*
X158170550Y-62248216D01*
X158036039Y-62379938D01*
X157929675Y-62535279D01*
X157855509Y-62708320D01*
X157816367Y-62892472D01*
X157813738Y-63080719D01*
X150561484Y-63080719D01*
X150593895Y-63060151D01*
X150730231Y-62930319D01*
X150838754Y-62776479D01*
X150915329Y-62604489D01*
X150957038Y-62420902D01*
X150960041Y-62205867D01*
X150923473Y-62021187D01*
X150851731Y-61847127D01*
X150747546Y-61690316D01*
X150614888Y-61556728D01*
X150458809Y-61451451D01*
X150285253Y-61378496D01*
X150100833Y-61340639D01*
X149912572Y-61339325D01*
X149727641Y-61374603D01*
X149553084Y-61445128D01*
X149395550Y-61548216D01*
X149261039Y-61679938D01*
X149154675Y-61835279D01*
X149080509Y-62008320D01*
X149041367Y-62192472D01*
X149038738Y-62380719D01*
X142709407Y-62380719D01*
X142740969Y-62278762D01*
X142774323Y-61961414D01*
X142745403Y-61643632D01*
X142655309Y-61337518D01*
X142651755Y-61330719D01*
X145913738Y-61330719D01*
X145947724Y-61515892D01*
X146017029Y-61690937D01*
X146119014Y-61849187D01*
X146249794Y-61984614D01*
X146404389Y-62092060D01*
X146576908Y-62167432D01*
X146760782Y-62207859D01*
X146949007Y-62211802D01*
X147134412Y-62179110D01*
X147309937Y-62111028D01*
X147468895Y-62010151D01*
X147605231Y-61880319D01*
X147713754Y-61726479D01*
X147790329Y-61554489D01*
X147832038Y-61370902D01*
X147835041Y-61155867D01*
X147798473Y-60971187D01*
X147726731Y-60797127D01*
X147622546Y-60640316D01*
X147513712Y-60530719D01*
X152813738Y-60530719D01*
X152847724Y-60715892D01*
X152917029Y-60890937D01*
X153019014Y-61049187D01*
X153149794Y-61184614D01*
X153304389Y-61292060D01*
X153476908Y-61367432D01*
X153660782Y-61407859D01*
X153849007Y-61411802D01*
X154034412Y-61379110D01*
X154209937Y-61311028D01*
X154368895Y-61210151D01*
X154505231Y-61080319D01*
X154613754Y-60926479D01*
X154690329Y-60754489D01*
X154732038Y-60570902D01*
X154735041Y-60355867D01*
X154698473Y-60171187D01*
X154626731Y-59997127D01*
X154522546Y-59840316D01*
X154389888Y-59706728D01*
X154233809Y-59601451D01*
X154060253Y-59528496D01*
X153875833Y-59490639D01*
X153687572Y-59489325D01*
X153502641Y-59524603D01*
X153328084Y-59595128D01*
X153170550Y-59698216D01*
X153036039Y-59829938D01*
X152929675Y-59985279D01*
X152855509Y-60158320D01*
X152816367Y-60342472D01*
X152813738Y-60530719D01*
X147513712Y-60530719D01*
X147489888Y-60506728D01*
X147333809Y-60401451D01*
X147160253Y-60328496D01*
X146975833Y-60290639D01*
X146787572Y-60289325D01*
X146602641Y-60324603D01*
X146428084Y-60395128D01*
X146270550Y-60498216D01*
X146136039Y-60629938D01*
X146029675Y-60785279D01*
X145955509Y-60958320D01*
X145916367Y-61142472D01*
X145913738Y-61330719D01*
X142651755Y-61330719D01*
X142507473Y-61054734D01*
X142307526Y-60806050D01*
X142063084Y-60600939D01*
X141783458Y-60447214D01*
X141479299Y-60350729D01*
X141162191Y-60315159D01*
X141139363Y-60315000D01*
X140520637Y-60315000D01*
X140203064Y-60346138D01*
X139897587Y-60438367D01*
X139615842Y-60588174D01*
X139368560Y-60789852D01*
X139165161Y-61035720D01*
X139013391Y-61316412D01*
X138919031Y-61621238D01*
X138885677Y-61938586D01*
X138352000Y-61938586D01*
X138352000Y-59012227D01*
X138767072Y-59300710D01*
X139402339Y-59578252D01*
X140079417Y-59727117D01*
X140772514Y-59741635D01*
X141455231Y-59621254D01*
X142101564Y-59370558D01*
X142686894Y-58999096D01*
X142863629Y-58830793D01*
X142904626Y-59054166D01*
X142991727Y-59274157D01*
X143119899Y-59473041D01*
X143284260Y-59643242D01*
X143478549Y-59778277D01*
X143695367Y-59873002D01*
X143926454Y-59923810D01*
X144163009Y-59928765D01*
X144396022Y-59887679D01*
X144616616Y-59802116D01*
X144816390Y-59675335D01*
X144987734Y-59512167D01*
X145124122Y-59318824D01*
X145220358Y-59102673D01*
X145272778Y-58871946D01*
X145276552Y-58601697D01*
X145230595Y-58369596D01*
X145140431Y-58150842D01*
X145009495Y-57953767D01*
X144842773Y-57785878D01*
X144646617Y-57653569D01*
X144428498Y-57561880D01*
X144196724Y-57514303D01*
X143960123Y-57512651D01*
X143769046Y-57549101D01*
X143870506Y-57321218D01*
X143985462Y-56815237D01*
X145530000Y-56815237D01*
X145530000Y-57433963D01*
X145561138Y-57751536D01*
X145653367Y-58057013D01*
X145803174Y-58338758D01*
X146004852Y-58586040D01*
X146250720Y-58789439D01*
X146531412Y-58941209D01*
X146836238Y-59035569D01*
X147153586Y-59068923D01*
X147471368Y-59040003D01*
X147777482Y-58949909D01*
X148060266Y-58802073D01*
X148308950Y-58602126D01*
X148435231Y-58451631D01*
X148544852Y-58586040D01*
X148790720Y-58789439D01*
X149071412Y-58941209D01*
X149376238Y-59035569D01*
X149693586Y-59068923D01*
X150011368Y-59040003D01*
X150317482Y-58949909D01*
X150600266Y-58802073D01*
X150848950Y-58602126D01*
X150975231Y-58451631D01*
X151084852Y-58586040D01*
X151330720Y-58789439D01*
X151611412Y-58941209D01*
X151916238Y-59035569D01*
X152233586Y-59068923D01*
X152551368Y-59040003D01*
X152857482Y-58949909D01*
X153140266Y-58802073D01*
X153388950Y-58602126D01*
X153515231Y-58451631D01*
X153624852Y-58586040D01*
X153870720Y-58789439D01*
X154151412Y-58941209D01*
X154456238Y-59035569D01*
X154773586Y-59068923D01*
X155091368Y-59040003D01*
X155397482Y-58949909D01*
X155680266Y-58802073D01*
X155766945Y-58732381D01*
X155831763Y-58829389D01*
X155920211Y-58917837D01*
X156024215Y-58987330D01*
X156139777Y-59035197D01*
X156262458Y-59059600D01*
X157039250Y-59059600D01*
X157198000Y-58900850D01*
X157198000Y-57251600D01*
X157452000Y-57251600D01*
X157452000Y-58900850D01*
X157610750Y-59059600D01*
X158387542Y-59059600D01*
X158510223Y-59035197D01*
X158625785Y-58987330D01*
X158729789Y-58917837D01*
X158818237Y-58829389D01*
X158849420Y-58782719D01*
X159649138Y-58782719D01*
X159683124Y-58967892D01*
X159752429Y-59142937D01*
X159854414Y-59301187D01*
X159985194Y-59436614D01*
X160034334Y-59470767D01*
X159922239Y-59580538D01*
X159815875Y-59735879D01*
X159741709Y-59908920D01*
X159702567Y-60093072D01*
X159699938Y-60281319D01*
X159733924Y-60466492D01*
X159803229Y-60641537D01*
X159905214Y-60799787D01*
X160035994Y-60935214D01*
X160190589Y-61042660D01*
X160363108Y-61118032D01*
X160546982Y-61158459D01*
X160735207Y-61162402D01*
X160920612Y-61129710D01*
X161096137Y-61061628D01*
X161255095Y-60960751D01*
X161391431Y-60830919D01*
X161499954Y-60677079D01*
X161576529Y-60505089D01*
X161618238Y-60321502D01*
X161618807Y-60280719D01*
X176688738Y-60280719D01*
X176722724Y-60465892D01*
X176792029Y-60640937D01*
X176894014Y-60799187D01*
X177024794Y-60934614D01*
X177075554Y-60969893D01*
X177005509Y-61133320D01*
X176966367Y-61317472D01*
X176963738Y-61505719D01*
X176997724Y-61690892D01*
X177067029Y-61865937D01*
X177169014Y-62024187D01*
X177299794Y-62159614D01*
X177454389Y-62267060D01*
X177626908Y-62342432D01*
X177810782Y-62382859D01*
X177960782Y-62386001D01*
X177901711Y-62523825D01*
X177852517Y-62755262D01*
X177849214Y-62991846D01*
X177891926Y-63224566D01*
X177979027Y-63444557D01*
X178107199Y-63643441D01*
X178271560Y-63813642D01*
X178465849Y-63948677D01*
X178682667Y-64043402D01*
X178913754Y-64094210D01*
X179150309Y-64099165D01*
X179383322Y-64058079D01*
X179603916Y-63972516D01*
X179803690Y-63845735D01*
X179975034Y-63682567D01*
X180111422Y-63489224D01*
X180207658Y-63273073D01*
X180260078Y-63042346D01*
X180263852Y-62772097D01*
X180217895Y-62539996D01*
X180127731Y-62321242D01*
X179996795Y-62124167D01*
X179830073Y-61956278D01*
X179633917Y-61823969D01*
X179432306Y-61739219D01*
X186998738Y-61739219D01*
X187032724Y-61924392D01*
X187078535Y-62040099D01*
X187040509Y-62128820D01*
X187001367Y-62312972D01*
X186998738Y-62501219D01*
X187032724Y-62686392D01*
X187078535Y-62802099D01*
X187040509Y-62890820D01*
X187001367Y-63074972D01*
X186998738Y-63263219D01*
X187032724Y-63448392D01*
X187102029Y-63623437D01*
X187204014Y-63781687D01*
X187334794Y-63917114D01*
X187489389Y-64024560D01*
X187661908Y-64099932D01*
X187845782Y-64140359D01*
X188034007Y-64144302D01*
X188219412Y-64111610D01*
X188394937Y-64043528D01*
X188553895Y-63942651D01*
X188690231Y-63812819D01*
X188798754Y-63658979D01*
X188875329Y-63486989D01*
X188917038Y-63303402D01*
X188920041Y-63088367D01*
X188894344Y-62958586D01*
X191655677Y-62958586D01*
X191684597Y-63276368D01*
X191774691Y-63582482D01*
X191922527Y-63865266D01*
X192122474Y-64113950D01*
X192272969Y-64240231D01*
X192138560Y-64349852D01*
X191935161Y-64595720D01*
X191783391Y-64876412D01*
X191689031Y-65181238D01*
X191655677Y-65498586D01*
X191684597Y-65816368D01*
X191774691Y-66122482D01*
X191922527Y-66405266D01*
X192122474Y-66653950D01*
X192272969Y-66780231D01*
X192138560Y-66889852D01*
X191935161Y-67135720D01*
X191783391Y-67416412D01*
X191689031Y-67721238D01*
X191655677Y-68038586D01*
X191684597Y-68356368D01*
X191774691Y-68662482D01*
X191922527Y-68945266D01*
X191992219Y-69031945D01*
X191895211Y-69096763D01*
X191806763Y-69185211D01*
X191737270Y-69289215D01*
X191689403Y-69404777D01*
X191665000Y-69527458D01*
X191665000Y-70304250D01*
X191823750Y-70463000D01*
X193473000Y-70463000D01*
X193473000Y-70443000D01*
X193727000Y-70443000D01*
X193727000Y-70463000D01*
X195376250Y-70463000D01*
X195535000Y-70304250D01*
X195535000Y-69527458D01*
X195510597Y-69404777D01*
X195462730Y-69289215D01*
X195393237Y-69185211D01*
X195304789Y-69096763D01*
X195208477Y-69032410D01*
X195264839Y-68964280D01*
X195416609Y-68683588D01*
X195510969Y-68378762D01*
X195544323Y-68061414D01*
X195515403Y-67743632D01*
X195425309Y-67437518D01*
X195277473Y-67154734D01*
X195077526Y-66906050D01*
X194927031Y-66779769D01*
X195061440Y-66670148D01*
X195264839Y-66424280D01*
X195416609Y-66143588D01*
X195510969Y-65838762D01*
X195544323Y-65521414D01*
X195515403Y-65203632D01*
X195425309Y-64897518D01*
X195277473Y-64614734D01*
X195077526Y-64366050D01*
X194927031Y-64239769D01*
X195061440Y-64130148D01*
X195264839Y-63884280D01*
X195416609Y-63603588D01*
X195510969Y-63298762D01*
X195544323Y-62981414D01*
X195515403Y-62663632D01*
X195425309Y-62357518D01*
X195277473Y-62074734D01*
X195077526Y-61826050D01*
X194833084Y-61620939D01*
X194553458Y-61467214D01*
X194249299Y-61370729D01*
X193932191Y-61335159D01*
X193909363Y-61335000D01*
X193290637Y-61335000D01*
X192973064Y-61366138D01*
X192667587Y-61458367D01*
X192385842Y-61608174D01*
X192138560Y-61809852D01*
X191935161Y-62055720D01*
X191783391Y-62336412D01*
X191689031Y-62641238D01*
X191655677Y-62958586D01*
X188894344Y-62958586D01*
X188883473Y-62903687D01*
X188841311Y-62801394D01*
X188875329Y-62724989D01*
X188917038Y-62541402D01*
X188920041Y-62326367D01*
X188883473Y-62141687D01*
X188841311Y-62039394D01*
X188875329Y-61962989D01*
X188917038Y-61779402D01*
X188920041Y-61564367D01*
X188883473Y-61379687D01*
X188811731Y-61205627D01*
X188707546Y-61048816D01*
X188574888Y-60915228D01*
X188418809Y-60809951D01*
X188245253Y-60736996D01*
X188060833Y-60699139D01*
X187872572Y-60697825D01*
X187687641Y-60733103D01*
X187513084Y-60803628D01*
X187355550Y-60906716D01*
X187221039Y-61038438D01*
X187114675Y-61193779D01*
X187040509Y-61366820D01*
X187001367Y-61550972D01*
X186998738Y-61739219D01*
X179432306Y-61739219D01*
X179415798Y-61732280D01*
X179184024Y-61684703D01*
X178947423Y-61683051D01*
X178846506Y-61702302D01*
X178882038Y-61545902D01*
X178885041Y-61330867D01*
X178848473Y-61146187D01*
X178776731Y-60972127D01*
X178672546Y-60815316D01*
X178539888Y-60681728D01*
X178498766Y-60653991D01*
X178565329Y-60504489D01*
X178607038Y-60320902D01*
X178610041Y-60105867D01*
X178573473Y-59921187D01*
X178501731Y-59747127D01*
X178397546Y-59590316D01*
X178291002Y-59483025D01*
X178323895Y-59462151D01*
X178460231Y-59332319D01*
X178568754Y-59178479D01*
X178645329Y-59006489D01*
X178687038Y-58822902D01*
X178690041Y-58607867D01*
X178653473Y-58423187D01*
X178581731Y-58249127D01*
X178477546Y-58092316D01*
X178344888Y-57958728D01*
X178188809Y-57853451D01*
X178015253Y-57780496D01*
X177830833Y-57742639D01*
X177642572Y-57741325D01*
X177457641Y-57776603D01*
X177283084Y-57847128D01*
X177125550Y-57950216D01*
X176991039Y-58081938D01*
X176884675Y-58237279D01*
X176810509Y-58410320D01*
X176771367Y-58594472D01*
X176768738Y-58782719D01*
X176802724Y-58967892D01*
X176872029Y-59142937D01*
X176974014Y-59301187D01*
X177088718Y-59419967D01*
X177045550Y-59448216D01*
X176911039Y-59579938D01*
X176804675Y-59735279D01*
X176730509Y-59908320D01*
X176691367Y-60092472D01*
X176688738Y-60280719D01*
X161618807Y-60280719D01*
X161621241Y-60106467D01*
X161584673Y-59921787D01*
X161512931Y-59747727D01*
X161408746Y-59590916D01*
X161276088Y-59457328D01*
X161237027Y-59430981D01*
X161340631Y-59332319D01*
X161449154Y-59178479D01*
X161525729Y-59006489D01*
X161567438Y-58822902D01*
X161570441Y-58607867D01*
X161533873Y-58423187D01*
X161462131Y-58249127D01*
X161357946Y-58092316D01*
X161225288Y-57958728D01*
X161069209Y-57853451D01*
X160895653Y-57780496D01*
X160711233Y-57742639D01*
X160522972Y-57741325D01*
X160338041Y-57776603D01*
X160163484Y-57847128D01*
X160005950Y-57950216D01*
X159871439Y-58081938D01*
X159765075Y-58237279D01*
X159690909Y-58410320D01*
X159651767Y-58594472D01*
X159649138Y-58782719D01*
X158849420Y-58782719D01*
X158887730Y-58725385D01*
X158935597Y-58609823D01*
X158960000Y-58487142D01*
X158960000Y-57410350D01*
X158801250Y-57251600D01*
X157452000Y-57251600D01*
X157198000Y-57251600D01*
X157178000Y-57251600D01*
X157178000Y-56997600D01*
X157198000Y-56997600D01*
X157198000Y-55348350D01*
X157452000Y-55348350D01*
X157452000Y-56997600D01*
X158801250Y-56997600D01*
X158960000Y-56838850D01*
X158960000Y-55762058D01*
X158935597Y-55639377D01*
X158887730Y-55523815D01*
X158818237Y-55419811D01*
X158729789Y-55331363D01*
X158625785Y-55261870D01*
X158523364Y-55219446D01*
X160767714Y-55219446D01*
X160810426Y-55452166D01*
X160897527Y-55672157D01*
X161025699Y-55871041D01*
X161190060Y-56041242D01*
X161384349Y-56176277D01*
X161601167Y-56271002D01*
X161832254Y-56321810D01*
X162068809Y-56326765D01*
X162301822Y-56285679D01*
X162522416Y-56200116D01*
X162671884Y-56105260D01*
X162671738Y-56115719D01*
X162705724Y-56300892D01*
X162775029Y-56475937D01*
X162877014Y-56634187D01*
X163007794Y-56769614D01*
X163162389Y-56877060D01*
X163334908Y-56952432D01*
X163518782Y-56992859D01*
X163707007Y-56996802D01*
X163892412Y-56964110D01*
X164067937Y-56896028D01*
X164210242Y-56805719D01*
X164588738Y-56805719D01*
X164622724Y-56990892D01*
X164692029Y-57165937D01*
X164794014Y-57324187D01*
X164924794Y-57459614D01*
X165079389Y-57567060D01*
X165251908Y-57642432D01*
X165435782Y-57682859D01*
X165624007Y-57686802D01*
X165809412Y-57654110D01*
X165984937Y-57586028D01*
X166143895Y-57485151D01*
X166280231Y-57355319D01*
X166388754Y-57201479D01*
X166465329Y-57029489D01*
X166507038Y-56845902D01*
X166510041Y-56630867D01*
X166473473Y-56446187D01*
X166401731Y-56272127D01*
X166297546Y-56115316D01*
X166164888Y-55981728D01*
X166008809Y-55876451D01*
X165835253Y-55803496D01*
X165650833Y-55765639D01*
X165462572Y-55764325D01*
X165277641Y-55799603D01*
X165103084Y-55870128D01*
X164945550Y-55973216D01*
X164811039Y-56104938D01*
X164704675Y-56260279D01*
X164630509Y-56433320D01*
X164591367Y-56617472D01*
X164588738Y-56805719D01*
X164210242Y-56805719D01*
X164226895Y-56795151D01*
X164363231Y-56665319D01*
X164471754Y-56511479D01*
X164548329Y-56339489D01*
X164590038Y-56155902D01*
X164593041Y-55940867D01*
X164556473Y-55756187D01*
X164484731Y-55582127D01*
X164480957Y-55576446D01*
X167791914Y-55576446D01*
X167834626Y-55809166D01*
X167921727Y-56029157D01*
X168049899Y-56228041D01*
X168214260Y-56398242D01*
X168408549Y-56533277D01*
X168625367Y-56628002D01*
X168856454Y-56678810D01*
X169093009Y-56683765D01*
X169326022Y-56642679D01*
X169546616Y-56557116D01*
X169746390Y-56430335D01*
X169917734Y-56267167D01*
X170042486Y-56090319D01*
X173339738Y-56090319D01*
X173373724Y-56275492D01*
X173443029Y-56450537D01*
X173545014Y-56608787D01*
X173675794Y-56744214D01*
X173830389Y-56851660D01*
X174002908Y-56927032D01*
X174186782Y-56967459D01*
X174375007Y-56971402D01*
X174560412Y-56938710D01*
X174735937Y-56870628D01*
X174894895Y-56769751D01*
X175031231Y-56639919D01*
X175139754Y-56486079D01*
X175216329Y-56314089D01*
X175258038Y-56130502D01*
X175261041Y-55915467D01*
X175224473Y-55730787D01*
X175152731Y-55556727D01*
X175048546Y-55399916D01*
X175020672Y-55371846D01*
X175448914Y-55371846D01*
X175491626Y-55604566D01*
X175578727Y-55824557D01*
X175706899Y-56023441D01*
X175871260Y-56193642D01*
X176065549Y-56328677D01*
X176282367Y-56423402D01*
X176513454Y-56474210D01*
X176750009Y-56479165D01*
X176983022Y-56438079D01*
X177203616Y-56352516D01*
X177403390Y-56225735D01*
X177574734Y-56062567D01*
X177711122Y-55869224D01*
X177807358Y-55653073D01*
X177859778Y-55422346D01*
X177863552Y-55152097D01*
X177817595Y-54919996D01*
X177727431Y-54701242D01*
X177596495Y-54504167D01*
X177429773Y-54336278D01*
X177233617Y-54203969D01*
X177015498Y-54112280D01*
X176783724Y-54064703D01*
X176547123Y-54063051D01*
X176314707Y-54107387D01*
X176095329Y-54196022D01*
X175897344Y-54325579D01*
X175728295Y-54491124D01*
X175594620Y-54686352D01*
X175501411Y-54903825D01*
X175452217Y-55135262D01*
X175448914Y-55371846D01*
X175020672Y-55371846D01*
X174915888Y-55266328D01*
X174759809Y-55161051D01*
X174586253Y-55088096D01*
X174401833Y-55050239D01*
X174213572Y-55048925D01*
X174028641Y-55084203D01*
X173854084Y-55154728D01*
X173696550Y-55257816D01*
X173562039Y-55389538D01*
X173455675Y-55544879D01*
X173381509Y-55717920D01*
X173342367Y-55902072D01*
X173339738Y-56090319D01*
X170042486Y-56090319D01*
X170054122Y-56073824D01*
X170150358Y-55857673D01*
X170202778Y-55626946D01*
X170206552Y-55356697D01*
X170160595Y-55124596D01*
X170070431Y-54905842D01*
X169939495Y-54708767D01*
X169772773Y-54540878D01*
X169576617Y-54408569D01*
X169358498Y-54316880D01*
X169126724Y-54269303D01*
X168890123Y-54267651D01*
X168657707Y-54311987D01*
X168438329Y-54400622D01*
X168240344Y-54530179D01*
X168071295Y-54695724D01*
X167937620Y-54890952D01*
X167844411Y-55108425D01*
X167795217Y-55339862D01*
X167791914Y-55576446D01*
X164480957Y-55576446D01*
X164380546Y-55425316D01*
X164247888Y-55291728D01*
X164091809Y-55186451D01*
X163918253Y-55113496D01*
X163733833Y-55075639D01*
X163545572Y-55074325D01*
X163360641Y-55109603D01*
X163186084Y-55180128D01*
X163179775Y-55184257D01*
X163182352Y-54999697D01*
X163136395Y-54767596D01*
X163046231Y-54548842D01*
X162915295Y-54351767D01*
X162748573Y-54183878D01*
X162552417Y-54051569D01*
X162334298Y-53959880D01*
X162102524Y-53912303D01*
X161865923Y-53910651D01*
X161633507Y-53954987D01*
X161414129Y-54043622D01*
X161216144Y-54173179D01*
X161047095Y-54338724D01*
X160913420Y-54533952D01*
X160820211Y-54751425D01*
X160771017Y-54982862D01*
X160767714Y-55219446D01*
X158523364Y-55219446D01*
X158510223Y-55214003D01*
X158387542Y-55189600D01*
X157610750Y-55189600D01*
X157452000Y-55348350D01*
X157198000Y-55348350D01*
X157039250Y-55189600D01*
X156262458Y-55189600D01*
X156139777Y-55214003D01*
X156024215Y-55261870D01*
X155920211Y-55331363D01*
X155831763Y-55419811D01*
X155767410Y-55516123D01*
X155699280Y-55459761D01*
X155418588Y-55307991D01*
X155113762Y-55213631D01*
X154796414Y-55180277D01*
X154478632Y-55209197D01*
X154172518Y-55299291D01*
X153889734Y-55447127D01*
X153641050Y-55647074D01*
X153514769Y-55797569D01*
X153405148Y-55663160D01*
X153159280Y-55459761D01*
X152878588Y-55307991D01*
X152573762Y-55213631D01*
X152256414Y-55180277D01*
X151938632Y-55209197D01*
X151632518Y-55299291D01*
X151349734Y-55447127D01*
X151101050Y-55647074D01*
X150974769Y-55797569D01*
X150865148Y-55663160D01*
X150619280Y-55459761D01*
X150338588Y-55307991D01*
X150033762Y-55213631D01*
X149716414Y-55180277D01*
X149398632Y-55209197D01*
X149092518Y-55299291D01*
X148809734Y-55447127D01*
X148561050Y-55647074D01*
X148434769Y-55797569D01*
X148325148Y-55663160D01*
X148079280Y-55459761D01*
X147798588Y-55307991D01*
X147493762Y-55213631D01*
X147176414Y-55180277D01*
X146858632Y-55209197D01*
X146552518Y-55299291D01*
X146269734Y-55447127D01*
X146021050Y-55647074D01*
X145815939Y-55891516D01*
X145662214Y-56171142D01*
X145565729Y-56475301D01*
X145530159Y-56792409D01*
X145530000Y-56815237D01*
X143985462Y-56815237D01*
X144024095Y-56645197D01*
X144035151Y-55853375D01*
X143900498Y-55173329D01*
X143636322Y-54532388D01*
X143252683Y-53954966D01*
X142934943Y-53635000D01*
X193396645Y-53635000D01*
X193108930Y-53916752D01*
X193108930Y-53916752D01*
G37*
X193108930Y-53916752D02*
X192717268Y-54488761D01*
X192444168Y-55125951D01*
X192310359Y-55755470D01*
X192307808Y-55723479D01*
X192254694Y-55551966D01*
X192155900Y-55402041D01*
X192019250Y-55285575D01*
X191855563Y-55211790D01*
X191677800Y-55186528D01*
X189677800Y-55186528D01*
X189576679Y-55194592D01*
X189405166Y-55247706D01*
X189255241Y-55346500D01*
X189138775Y-55483150D01*
X189122906Y-55518353D01*
X189052080Y-55459761D01*
X188771388Y-55307991D01*
X188466562Y-55213631D01*
X188149214Y-55180277D01*
X187831432Y-55209197D01*
X187525318Y-55299291D01*
X187242534Y-55447127D01*
X186993850Y-55647074D01*
X186867569Y-55797569D01*
X186757948Y-55663160D01*
X186579146Y-55515242D01*
X186693137Y-55471028D01*
X186852095Y-55370151D01*
X186988431Y-55240319D01*
X187096954Y-55086479D01*
X187173529Y-54914489D01*
X187215238Y-54730902D01*
X187218241Y-54515867D01*
X187181673Y-54331187D01*
X187109931Y-54157127D01*
X187005746Y-54000316D01*
X186873088Y-53866728D01*
X186717009Y-53761451D01*
X186543453Y-53688496D01*
X186359033Y-53650639D01*
X186170772Y-53649325D01*
X185985841Y-53684603D01*
X185811284Y-53755128D01*
X185653750Y-53858216D01*
X185519239Y-53989938D01*
X185412875Y-54145279D01*
X185338709Y-54318320D01*
X185299567Y-54502472D01*
X185296938Y-54690719D01*
X185330924Y-54875892D01*
X185400229Y-55050937D01*
X185490543Y-55191077D01*
X185291432Y-55209197D01*
X184985318Y-55299291D01*
X184702534Y-55447127D01*
X184453850Y-55647074D01*
X184327569Y-55797569D01*
X184217948Y-55663160D01*
X183972080Y-55459761D01*
X183691388Y-55307991D01*
X183386562Y-55213631D01*
X183069214Y-55180277D01*
X182751432Y-55209197D01*
X182445318Y-55299291D01*
X182162534Y-55447127D01*
X181913850Y-55647074D01*
X181787569Y-55797569D01*
X181677948Y-55663160D01*
X181432080Y-55459761D01*
X181151388Y-55307991D01*
X180846562Y-55213631D01*
X180529214Y-55180277D01*
X180211432Y-55209197D01*
X179905318Y-55299291D01*
X179622534Y-55447127D01*
X179373850Y-55647074D01*
X179168739Y-55891516D01*
X179015014Y-56171142D01*
X178918529Y-56475301D01*
X178882959Y-56792409D01*
X178882800Y-56815237D01*
X178882800Y-57433963D01*
X178913938Y-57751536D01*
X179006167Y-58057013D01*
X179155974Y-58338758D01*
X179357652Y-58586040D01*
X179603520Y-58789439D01*
X179884212Y-58941209D01*
X180189038Y-59035569D01*
X180506386Y-59068923D01*
X180824168Y-59040003D01*
X181130282Y-58949909D01*
X181413066Y-58802073D01*
X181661750Y-58602126D01*
X181788031Y-58451631D01*
X181897652Y-58586040D01*
X182143520Y-58789439D01*
X182424212Y-58941209D01*
X182729038Y-59035569D01*
X183046386Y-59068923D01*
X183364168Y-59040003D01*
X183670282Y-58949909D01*
X183953066Y-58802073D01*
X184201750Y-58602126D01*
X184328031Y-58451631D01*
X184437652Y-58586040D01*
X184683520Y-58789439D01*
X184964212Y-58941209D01*
X185269038Y-59035569D01*
X185586386Y-59068923D01*
X185904168Y-59040003D01*
X186210282Y-58949909D01*
X186493066Y-58802073D01*
X186741750Y-58602126D01*
X186868031Y-58451631D01*
X186977652Y-58586040D01*
X187223520Y-58789439D01*
X187504212Y-58941209D01*
X187809038Y-59035569D01*
X188126386Y-59068923D01*
X188444168Y-59040003D01*
X188750282Y-58949909D01*
X189033066Y-58802073D01*
X189122570Y-58730110D01*
X189199700Y-58847159D01*
X189336350Y-58963625D01*
X189500037Y-59037410D01*
X189677800Y-59062672D01*
X191677800Y-59062672D01*
X191778921Y-59054608D01*
X191950434Y-59001494D01*
X192100359Y-58902700D01*
X192216825Y-58766050D01*
X192290610Y-58602363D01*
X192315872Y-58424600D01*
X192315872Y-56636270D01*
X192415498Y-57179093D01*
X192670701Y-57823659D01*
X193046239Y-58406382D01*
X193527811Y-58905063D01*
X194097072Y-59300710D01*
X194732339Y-59578252D01*
X195409417Y-59727117D01*
X196102514Y-59741635D01*
X196785231Y-59621254D01*
X197431564Y-59370558D01*
X197848000Y-59106279D01*
X197848000Y-95646996D01*
X197519467Y-95425397D01*
X196880386Y-95156752D01*
X196201296Y-95017355D01*
X195508064Y-95012515D01*
X194827094Y-95142417D01*
X194184324Y-95402113D01*
X193604238Y-95781710D01*
X193108930Y-96266752D01*
X192717268Y-96838761D01*
X192444168Y-97475951D01*
X192300033Y-98154051D01*
X192290354Y-98847232D01*
X192415498Y-99529093D01*
X192670701Y-100173659D01*
X193046239Y-100756382D01*
X193368411Y-101090000D01*
X142958971Y-101090000D01*
X143188925Y-100871018D01*
X143588536Y-100304533D01*
X143870506Y-99671218D01*
X144024095Y-98995197D01*
X144035151Y-98203375D01*
X143900498Y-97523329D01*
X143636322Y-96882388D01*
X143435894Y-96580719D01*
X151538738Y-96580719D01*
X151572724Y-96765892D01*
X151642029Y-96940937D01*
X151679481Y-96999051D01*
X151654675Y-97035279D01*
X151580509Y-97208320D01*
X151541367Y-97392472D01*
X151538738Y-97580719D01*
X151572724Y-97765892D01*
X151642029Y-97940937D01*
X151744014Y-98099187D01*
X151874794Y-98234614D01*
X152029389Y-98342060D01*
X152201908Y-98417432D01*
X152385782Y-98457859D01*
X152574007Y-98461802D01*
X152759412Y-98429110D01*
X152934937Y-98361028D01*
X152998574Y-98320643D01*
X153029389Y-98342060D01*
X153201908Y-98417432D01*
X153385782Y-98457859D01*
X153574007Y-98461802D01*
X153759412Y-98429110D01*
X153934937Y-98361028D01*
X153998574Y-98320643D01*
X154029389Y-98342060D01*
X154201908Y-98417432D01*
X154385782Y-98457859D01*
X154574007Y-98461802D01*
X154759412Y-98429110D01*
X154934937Y-98361028D01*
X154998574Y-98320643D01*
X155029389Y-98342060D01*
X155201908Y-98417432D01*
X155385782Y-98457859D01*
X155574007Y-98461802D01*
X155759412Y-98429110D01*
X155934937Y-98361028D01*
X155943302Y-98355719D01*
X161388738Y-98355719D01*
X161422724Y-98540892D01*
X161492029Y-98715937D01*
X161594014Y-98874187D01*
X161724794Y-99009614D01*
X161879389Y-99117060D01*
X162051908Y-99192432D01*
X162235782Y-99232859D01*
X162405070Y-99236405D01*
X162381039Y-99259938D01*
X162274675Y-99415279D01*
X162200509Y-99588320D01*
X162161367Y-99772472D01*
X162158738Y-99960719D01*
X162192724Y-100145892D01*
X162262029Y-100320937D01*
X162364014Y-100479187D01*
X162494794Y-100614614D01*
X162649389Y-100722060D01*
X162821908Y-100797432D01*
X163005782Y-100837859D01*
X163194007Y-100841802D01*
X163379412Y-100809110D01*
X163554937Y-100741028D01*
X163713895Y-100640151D01*
X163850231Y-100510319D01*
X163958754Y-100356479D01*
X164035329Y-100184489D01*
X164077038Y-100000902D01*
X164080041Y-99785867D01*
X164043473Y-99601187D01*
X163971731Y-99427127D01*
X163867546Y-99270316D01*
X163734888Y-99136728D01*
X163578809Y-99031451D01*
X163405253Y-98958496D01*
X163220833Y-98920639D01*
X163065284Y-98919553D01*
X163080231Y-98905319D01*
X163188754Y-98751479D01*
X163265329Y-98579489D01*
X163307038Y-98395902D01*
X163310041Y-98180867D01*
X163273473Y-97996187D01*
X163201731Y-97822127D01*
X163097546Y-97665316D01*
X162964888Y-97531728D01*
X162889265Y-97480719D01*
X167998738Y-97480719D01*
X168032724Y-97665892D01*
X168102029Y-97840937D01*
X168204014Y-97999187D01*
X168334794Y-98134614D01*
X168489389Y-98242060D01*
X168661908Y-98317432D01*
X168845782Y-98357859D01*
X169034007Y-98361802D01*
X169219412Y-98329110D01*
X169394937Y-98261028D01*
X169553895Y-98160151D01*
X169690231Y-98030319D01*
X169798754Y-97876479D01*
X169875329Y-97704489D01*
X169917038Y-97520902D01*
X169920041Y-97305867D01*
X169883473Y-97121187D01*
X169811731Y-96947127D01*
X169707546Y-96790316D01*
X169574888Y-96656728D01*
X169418809Y-96551451D01*
X169245253Y-96478496D01*
X169060833Y-96440639D01*
X168872572Y-96439325D01*
X168687641Y-96474603D01*
X168513084Y-96545128D01*
X168355550Y-96648216D01*
X168221039Y-96779938D01*
X168114675Y-96935279D01*
X168040509Y-97108320D01*
X168001367Y-97292472D01*
X167998738Y-97480719D01*
X162889265Y-97480719D01*
X162808809Y-97426451D01*
X162635253Y-97353496D01*
X162450833Y-97315639D01*
X162262572Y-97314325D01*
X162077641Y-97349603D01*
X161903084Y-97420128D01*
X161745550Y-97523216D01*
X161611039Y-97654938D01*
X161504675Y-97810279D01*
X161430509Y-97983320D01*
X161391367Y-98167472D01*
X161388738Y-98355719D01*
X155943302Y-98355719D01*
X156093895Y-98260151D01*
X156230231Y-98130319D01*
X156338754Y-97976479D01*
X156415329Y-97804489D01*
X156457038Y-97620902D01*
X156460041Y-97405867D01*
X156423473Y-97221187D01*
X156351731Y-97047127D01*
X156321265Y-97001272D01*
X156338754Y-96976479D01*
X156415329Y-96804489D01*
X156457038Y-96620902D01*
X156460041Y-96405867D01*
X156423473Y-96221187D01*
X156351731Y-96047127D01*
X156340830Y-96030719D01*
X161388738Y-96030719D01*
X161422724Y-96215892D01*
X161492029Y-96390937D01*
X161594014Y-96549187D01*
X161724794Y-96684614D01*
X161879389Y-96792060D01*
X162051908Y-96867432D01*
X162235782Y-96907859D01*
X162424007Y-96911802D01*
X162609412Y-96879110D01*
X162784937Y-96811028D01*
X162943895Y-96710151D01*
X163080231Y-96580319D01*
X163188754Y-96426479D01*
X163265329Y-96254489D01*
X163307038Y-96070902D01*
X163310041Y-95855867D01*
X163308531Y-95848236D01*
X170148012Y-95848236D01*
X170156685Y-95896159D01*
X170183965Y-95938553D01*
X170225590Y-95966994D01*
X170275000Y-95977000D01*
X173500000Y-95977000D01*
X173544512Y-95968944D01*
X173587281Y-95942256D01*
X173616297Y-95901030D01*
X173626988Y-95851764D01*
X173639780Y-94930719D01*
X174138738Y-94930719D01*
X174172724Y-95115892D01*
X174242029Y-95290937D01*
X174344014Y-95449187D01*
X174474794Y-95584614D01*
X174629389Y-95692060D01*
X174801908Y-95767432D01*
X174985782Y-95807859D01*
X175174007Y-95811802D01*
X175359412Y-95779110D01*
X175534937Y-95711028D01*
X175560970Y-95694507D01*
X175629389Y-95742060D01*
X175801908Y-95817432D01*
X175985782Y-95857859D01*
X176174007Y-95861802D01*
X176359412Y-95829110D01*
X176534937Y-95761028D01*
X176693895Y-95660151D01*
X176830231Y-95530319D01*
X176938754Y-95376479D01*
X177015329Y-95204489D01*
X177057038Y-95020902D01*
X177060041Y-94805867D01*
X177023473Y-94621187D01*
X176951731Y-94447127D01*
X176847546Y-94290316D01*
X176714888Y-94156728D01*
X176558809Y-94051451D01*
X176385253Y-93978496D01*
X176200833Y-93940639D01*
X176012572Y-93939325D01*
X175827641Y-93974603D01*
X175653084Y-94045128D01*
X175638100Y-94054933D01*
X175558809Y-94001451D01*
X175385253Y-93928496D01*
X175200833Y-93890639D01*
X175012572Y-93889325D01*
X174827641Y-93924603D01*
X174653084Y-93995128D01*
X174495550Y-94098216D01*
X174361039Y-94229938D01*
X174254675Y-94385279D01*
X174180509Y-94558320D01*
X174141367Y-94742472D01*
X174138738Y-94930719D01*
X173639780Y-94930719D01*
X173651988Y-94051764D01*
X173643315Y-94003841D01*
X173616035Y-93961447D01*
X173574410Y-93933006D01*
X173525000Y-93923000D01*
X170300000Y-93923000D01*
X170255488Y-93931056D01*
X170212719Y-93957744D01*
X170183703Y-93998970D01*
X170173012Y-94048236D01*
X170148012Y-95848236D01*
X163308531Y-95848236D01*
X163273473Y-95671187D01*
X163256599Y-95630248D01*
X163290329Y-95554489D01*
X163332038Y-95370902D01*
X163335041Y-95155867D01*
X163298473Y-94971187D01*
X163226731Y-94797127D01*
X163122546Y-94640316D01*
X162989888Y-94506728D01*
X162833809Y-94401451D01*
X162660253Y-94328496D01*
X162475833Y-94290639D01*
X162287572Y-94289325D01*
X162102641Y-94324603D01*
X161928084Y-94395128D01*
X161770550Y-94498216D01*
X161636039Y-94629938D01*
X161529675Y-94785279D01*
X161455509Y-94958320D01*
X161416367Y-95142472D01*
X161413738Y-95330719D01*
X161447724Y-95515892D01*
X161468771Y-95569050D01*
X161430509Y-95658320D01*
X161391367Y-95842472D01*
X161388738Y-96030719D01*
X156340830Y-96030719D01*
X156247546Y-95890316D01*
X156114888Y-95756728D01*
X155958809Y-95651451D01*
X155785253Y-95578496D01*
X155600833Y-95540639D01*
X155412572Y-95539325D01*
X155227641Y-95574603D01*
X155053084Y-95645128D01*
X155000475Y-95679555D01*
X154958809Y-95651451D01*
X154785253Y-95578496D01*
X154600833Y-95540639D01*
X154412572Y-95539325D01*
X154227641Y-95574603D01*
X154053084Y-95645128D01*
X154000475Y-95679555D01*
X153958809Y-95651451D01*
X153785253Y-95578496D01*
X153600833Y-95540639D01*
X153412572Y-95539325D01*
X153227641Y-95574603D01*
X153053084Y-95645128D01*
X153000475Y-95679555D01*
X152958809Y-95651451D01*
X152785253Y-95578496D01*
X152600833Y-95540639D01*
X152412572Y-95539325D01*
X152227641Y-95574603D01*
X152053084Y-95645128D01*
X151895550Y-95748216D01*
X151761039Y-95879938D01*
X151654675Y-96035279D01*
X151580509Y-96208320D01*
X151541367Y-96392472D01*
X151538738Y-96580719D01*
X143435894Y-96580719D01*
X143252683Y-96304966D01*
X142764196Y-95813057D01*
X142189467Y-95425397D01*
X141550386Y-95156752D01*
X140871296Y-95017355D01*
X140178064Y-95012515D01*
X139497094Y-95142417D01*
X138854324Y-95402113D01*
X138352000Y-95730824D01*
X138352000Y-93251446D01*
X140316914Y-93251446D01*
X140359626Y-93484166D01*
X140446727Y-93704157D01*
X140574899Y-93903041D01*
X140739260Y-94073242D01*
X140933549Y-94208277D01*
X141150367Y-94303002D01*
X141381454Y-94353810D01*
X141618009Y-94358765D01*
X141851022Y-94317679D01*
X142071616Y-94232116D01*
X142271390Y-94105335D01*
X142442734Y-93942167D01*
X142579122Y-93748824D01*
X142675358Y-93532673D01*
X142727778Y-93301946D01*
X142731552Y-93031697D01*
X142685595Y-92799596D01*
X142595431Y-92580842D01*
X142464495Y-92383767D01*
X142297773Y-92215878D01*
X142101617Y-92083569D01*
X141883498Y-91991880D01*
X141651724Y-91944303D01*
X141415123Y-91942651D01*
X141182707Y-91986987D01*
X140963329Y-92075622D01*
X140765344Y-92205179D01*
X140596295Y-92370724D01*
X140462620Y-92565952D01*
X140369411Y-92783425D01*
X140320217Y-93014862D01*
X140316914Y-93251446D01*
X138352000Y-93251446D01*
X138352000Y-89380000D01*
X146381928Y-89380000D01*
X146381928Y-92980000D01*
X146389992Y-93081121D01*
X146443106Y-93252634D01*
X146541900Y-93402559D01*
X146678550Y-93519025D01*
X146842237Y-93592810D01*
X147020000Y-93618072D01*
X149120000Y-93618072D01*
X149221121Y-93610008D01*
X149392634Y-93556894D01*
X149542559Y-93458100D01*
X149659025Y-93321450D01*
X149732810Y-93157763D01*
X149758072Y-92980000D01*
X149758072Y-90418218D01*
X151465000Y-90418218D01*
X151465000Y-91941782D01*
X151497091Y-92269067D01*
X151592140Y-92583886D01*
X151746528Y-92874247D01*
X151954373Y-93129091D01*
X152207760Y-93338710D01*
X152497036Y-93495121D01*
X152811184Y-93592366D01*
X153138237Y-93626741D01*
X153465738Y-93596936D01*
X153781212Y-93504087D01*
X154047199Y-93365032D01*
X154041367Y-93392472D01*
X154038738Y-93580719D01*
X154072724Y-93765892D01*
X154142029Y-93940937D01*
X154244014Y-94099187D01*
X154374794Y-94234614D01*
X154529389Y-94342060D01*
X154701908Y-94417432D01*
X154885782Y-94457859D01*
X155074007Y-94461802D01*
X155259412Y-94429110D01*
X155434937Y-94361028D01*
X155498574Y-94320643D01*
X155529389Y-94342060D01*
X155701908Y-94417432D01*
X155885782Y-94457859D01*
X156074007Y-94461802D01*
X156259412Y-94429110D01*
X156434937Y-94361028D01*
X156593895Y-94260151D01*
X156730231Y-94130319D01*
X156838754Y-93976479D01*
X156915329Y-93804489D01*
X156957038Y-93620902D01*
X156960041Y-93405867D01*
X156923473Y-93221187D01*
X156851731Y-93047127D01*
X156821265Y-93001272D01*
X156838754Y-92976479D01*
X156915329Y-92804489D01*
X156957038Y-92620902D01*
X156960041Y-92405867D01*
X156951941Y-92364959D01*
X163825738Y-92364959D01*
X163859724Y-92550132D01*
X163929029Y-92725177D01*
X163935167Y-92734702D01*
X163867509Y-92892560D01*
X163828367Y-93076712D01*
X163825738Y-93264959D01*
X163859724Y-93450132D01*
X163929029Y-93625177D01*
X164031014Y-93783427D01*
X164161794Y-93918854D01*
X164316389Y-94026300D01*
X164488908Y-94101672D01*
X164672782Y-94142099D01*
X164861007Y-94146042D01*
X165046412Y-94113350D01*
X165221937Y-94045268D01*
X165237377Y-94035470D01*
X165388908Y-94101672D01*
X165572782Y-94142099D01*
X165761007Y-94146042D01*
X165946412Y-94113350D01*
X166121937Y-94045268D01*
X166280895Y-93944391D01*
X166417231Y-93814559D01*
X166525754Y-93660719D01*
X166602329Y-93488729D01*
X166644038Y-93305142D01*
X166647041Y-93090107D01*
X166610473Y-92905427D01*
X166538775Y-92731474D01*
X166602329Y-92588729D01*
X166632547Y-92455719D01*
X166938738Y-92455719D01*
X166972724Y-92640892D01*
X167042029Y-92815937D01*
X167144014Y-92974187D01*
X167274794Y-93109614D01*
X167429389Y-93217060D01*
X167601908Y-93292432D01*
X167785782Y-93332859D01*
X167974007Y-93336802D01*
X168159412Y-93304110D01*
X168334937Y-93236028D01*
X168493895Y-93135151D01*
X168630231Y-93005319D01*
X168738754Y-92851479D01*
X168815329Y-92679489D01*
X168857038Y-92495902D01*
X168860041Y-92280867D01*
X168823473Y-92096187D01*
X168751731Y-91922127D01*
X168647546Y-91765316D01*
X168514888Y-91631728D01*
X168358809Y-91526451D01*
X168185253Y-91453496D01*
X168000833Y-91415639D01*
X167812572Y-91414325D01*
X167627641Y-91449603D01*
X167453084Y-91520128D01*
X167295550Y-91623216D01*
X167161039Y-91754938D01*
X167054675Y-91910279D01*
X166980509Y-92083320D01*
X166941367Y-92267472D01*
X166938738Y-92455719D01*
X166632547Y-92455719D01*
X166644038Y-92405142D01*
X166647041Y-92190107D01*
X166610473Y-92005427D01*
X166538731Y-91831367D01*
X166434546Y-91674556D01*
X166301888Y-91540968D01*
X166145809Y-91435691D01*
X165972253Y-91362736D01*
X165787833Y-91324879D01*
X165599572Y-91323565D01*
X165414641Y-91358843D01*
X165240084Y-91429368D01*
X165236440Y-91431753D01*
X165072253Y-91362736D01*
X164887833Y-91324879D01*
X164699572Y-91323565D01*
X164514641Y-91358843D01*
X164340084Y-91429368D01*
X164182550Y-91532456D01*
X164048039Y-91664178D01*
X163941675Y-91819519D01*
X163867509Y-91992560D01*
X163828367Y-92176712D01*
X163825738Y-92364959D01*
X156951941Y-92364959D01*
X156923473Y-92221187D01*
X156851731Y-92047127D01*
X156821265Y-92001272D01*
X156838754Y-91976479D01*
X156915329Y-91804489D01*
X156957038Y-91620902D01*
X156960041Y-91405867D01*
X156923473Y-91221187D01*
X156851731Y-91047127D01*
X156821265Y-91001272D01*
X156838754Y-90976479D01*
X156915329Y-90804489D01*
X156957038Y-90620902D01*
X156957599Y-90580719D01*
X179538738Y-90580719D01*
X179572724Y-90765892D01*
X179642029Y-90940937D01*
X179679481Y-90999051D01*
X179654675Y-91035279D01*
X179580509Y-91208320D01*
X179541367Y-91392472D01*
X179538738Y-91580719D01*
X179572724Y-91765892D01*
X179642029Y-91940937D01*
X179679481Y-91999051D01*
X179654675Y-92035279D01*
X179580509Y-92208320D01*
X179541367Y-92392472D01*
X179538738Y-92580719D01*
X179572724Y-92765892D01*
X179642029Y-92940937D01*
X179679481Y-92999051D01*
X179654675Y-93035279D01*
X179580509Y-93208320D01*
X179541367Y-93392472D01*
X179538738Y-93580719D01*
X179572724Y-93765892D01*
X179642029Y-93940937D01*
X179744014Y-94099187D01*
X179874794Y-94234614D01*
X180029389Y-94342060D01*
X180201908Y-94417432D01*
X180385782Y-94457859D01*
X180574007Y-94461802D01*
X180759412Y-94429110D01*
X180934937Y-94361028D01*
X180998574Y-94320643D01*
X181029389Y-94342060D01*
X181201908Y-94417432D01*
X181385782Y-94457859D01*
X181574007Y-94461802D01*
X181759412Y-94429110D01*
X181934937Y-94361028D01*
X182093895Y-94260151D01*
X182230231Y-94130319D01*
X182338754Y-93976479D01*
X182415329Y-93804489D01*
X182457038Y-93620902D01*
X182457078Y-93618072D01*
X184550000Y-93618072D01*
X184651121Y-93610008D01*
X184822634Y-93556894D01*
X184972559Y-93458100D01*
X185089025Y-93321450D01*
X185162810Y-93157763D01*
X185188072Y-92980000D01*
X185188072Y-90418218D01*
X186895000Y-90418218D01*
X186895000Y-91941782D01*
X186927091Y-92269067D01*
X187022140Y-92583886D01*
X187176528Y-92874247D01*
X187384373Y-93129091D01*
X187637760Y-93338710D01*
X187927036Y-93495121D01*
X188241184Y-93592366D01*
X188568237Y-93626741D01*
X188895738Y-93596936D01*
X189211212Y-93504087D01*
X189502644Y-93351730D01*
X189758933Y-93145668D01*
X189970316Y-92893751D01*
X190128743Y-92605574D01*
X190209357Y-92351446D01*
X194091914Y-92351446D01*
X194134626Y-92584166D01*
X194221727Y-92804157D01*
X194349899Y-93003041D01*
X194514260Y-93173242D01*
X194708549Y-93308277D01*
X194925367Y-93403002D01*
X195156454Y-93453810D01*
X195393009Y-93458765D01*
X195626022Y-93417679D01*
X195846616Y-93332116D01*
X196046390Y-93205335D01*
X196217734Y-93042167D01*
X196354122Y-92848824D01*
X196450358Y-92632673D01*
X196502778Y-92401946D01*
X196506552Y-92131697D01*
X196460595Y-91899596D01*
X196370431Y-91680842D01*
X196239495Y-91483767D01*
X196072773Y-91315878D01*
X195876617Y-91183569D01*
X195658498Y-91091880D01*
X195426724Y-91044303D01*
X195190123Y-91042651D01*
X194957707Y-91086987D01*
X194738329Y-91175622D01*
X194540344Y-91305179D01*
X194371295Y-91470724D01*
X194237620Y-91665952D01*
X194144411Y-91883425D01*
X194095217Y-92114862D01*
X194091914Y-92351446D01*
X190209357Y-92351446D01*
X190228179Y-92292113D01*
X190264836Y-91965308D01*
X190265000Y-91941782D01*
X190265000Y-90418218D01*
X190232909Y-90090933D01*
X190137860Y-89776114D01*
X189983472Y-89485753D01*
X189775627Y-89230909D01*
X189522240Y-89021290D01*
X189232964Y-88864879D01*
X188918816Y-88767634D01*
X188591763Y-88733259D01*
X188264262Y-88763064D01*
X187948788Y-88855913D01*
X187657356Y-89008270D01*
X187401067Y-89214332D01*
X187189684Y-89466249D01*
X187031257Y-89754426D01*
X186931821Y-90067887D01*
X186895164Y-90394692D01*
X186895000Y-90418218D01*
X185188072Y-90418218D01*
X185188072Y-89380000D01*
X185180008Y-89278879D01*
X185126894Y-89107366D01*
X185028100Y-88957441D01*
X184891450Y-88840975D01*
X184727763Y-88767190D01*
X184550000Y-88741928D01*
X182450000Y-88741928D01*
X182348879Y-88749992D01*
X182177366Y-88803106D01*
X182027441Y-88901900D01*
X181910975Y-89038550D01*
X181837190Y-89202237D01*
X181811928Y-89380000D01*
X181811928Y-89589709D01*
X181785253Y-89578496D01*
X181600833Y-89540639D01*
X181412572Y-89539325D01*
X181227641Y-89574603D01*
X181053084Y-89645128D01*
X181000475Y-89679555D01*
X180958809Y-89651451D01*
X180785253Y-89578496D01*
X180600833Y-89540639D01*
X180412572Y-89539325D01*
X180227641Y-89574603D01*
X180053084Y-89645128D01*
X179895550Y-89748216D01*
X179761039Y-89879938D01*
X179654675Y-90035279D01*
X179580509Y-90208320D01*
X179541367Y-90392472D01*
X179538738Y-90580719D01*
X156957599Y-90580719D01*
X156960041Y-90405867D01*
X156923473Y-90221187D01*
X156851731Y-90047127D01*
X156747546Y-89890316D01*
X156614888Y-89756728D01*
X156458809Y-89651451D01*
X156285253Y-89578496D01*
X156100833Y-89540639D01*
X155912572Y-89539325D01*
X155727641Y-89574603D01*
X155553084Y-89645128D01*
X155500475Y-89679555D01*
X155458809Y-89651451D01*
X155285253Y-89578496D01*
X155100833Y-89540639D01*
X154912572Y-89539325D01*
X154727641Y-89574603D01*
X154623160Y-89616816D01*
X154553472Y-89485753D01*
X154345627Y-89230909D01*
X154177045Y-89091446D01*
X168021914Y-89091446D01*
X168064626Y-89324166D01*
X168151727Y-89544157D01*
X168279899Y-89743041D01*
X168444260Y-89913242D01*
X168638549Y-90048277D01*
X168855367Y-90143002D01*
X169086454Y-90193810D01*
X169323009Y-90198765D01*
X169556022Y-90157679D01*
X169776616Y-90072116D01*
X169976390Y-89945335D01*
X170147734Y-89782167D01*
X170284122Y-89588824D01*
X170380358Y-89372673D01*
X170432778Y-89141946D01*
X170436552Y-88871697D01*
X170390595Y-88639596D01*
X170300431Y-88420842D01*
X170169495Y-88223767D01*
X170002773Y-88055878D01*
X169806617Y-87923569D01*
X169588498Y-87831880D01*
X169356724Y-87784303D01*
X169120123Y-87782651D01*
X168887707Y-87826987D01*
X168668329Y-87915622D01*
X168470344Y-88045179D01*
X168301295Y-88210724D01*
X168167620Y-88405952D01*
X168074411Y-88623425D01*
X168025217Y-88854862D01*
X168021914Y-89091446D01*
X154177045Y-89091446D01*
X154092240Y-89021290D01*
X153802964Y-88864879D01*
X153488816Y-88767634D01*
X153161763Y-88733259D01*
X152834262Y-88763064D01*
X152518788Y-88855913D01*
X152227356Y-89008270D01*
X151971067Y-89214332D01*
X151759684Y-89466249D01*
X151601257Y-89754426D01*
X151501821Y-90067887D01*
X151465164Y-90394692D01*
X151465000Y-90418218D01*
X149758072Y-90418218D01*
X149758072Y-89380000D01*
X149750008Y-89278879D01*
X149696894Y-89107366D01*
X149598100Y-88957441D01*
X149461450Y-88840975D01*
X149297763Y-88767190D01*
X149120000Y-88741928D01*
X147020000Y-88741928D01*
X146918879Y-88749992D01*
X146747366Y-88803106D01*
X146597441Y-88901900D01*
X146480975Y-89038550D01*
X146407190Y-89202237D01*
X146381928Y-89380000D01*
X138352000Y-89380000D01*
X138352000Y-78888586D01*
X138875677Y-78888586D01*
X138904597Y-79206368D01*
X138994691Y-79512482D01*
X139142527Y-79795266D01*
X139342474Y-80043950D01*
X139492969Y-80170231D01*
X139358560Y-80279852D01*
X139155161Y-80525720D01*
X139003391Y-80806412D01*
X138909031Y-81111238D01*
X138875677Y-81428586D01*
X138904597Y-81746368D01*
X138994691Y-82052482D01*
X139142527Y-82335266D01*
X139342474Y-82583950D01*
X139492969Y-82710231D01*
X139358560Y-82819852D01*
X139155161Y-83065720D01*
X139003391Y-83346412D01*
X138909031Y-83651238D01*
X138875677Y-83968586D01*
X138904597Y-84286368D01*
X138994691Y-84592482D01*
X139142527Y-84875266D01*
X139214490Y-84964770D01*
X139097441Y-85041900D01*
X138980975Y-85178550D01*
X138907190Y-85342237D01*
X138881928Y-85520000D01*
X138881928Y-87520000D01*
X138889992Y-87621121D01*
X138943106Y-87792634D01*
X139041900Y-87942559D01*
X139178550Y-88059025D01*
X139342237Y-88132810D01*
X139520000Y-88158072D01*
X142120000Y-88158072D01*
X142221121Y-88150008D01*
X142392634Y-88096894D01*
X142495105Y-88029370D01*
X151260235Y-88029370D01*
X151304071Y-88250054D01*
X151520569Y-88348088D01*
X151752033Y-88402002D01*
X151989567Y-88409723D01*
X152224043Y-88370956D01*
X152446451Y-88287189D01*
X152515929Y-88250054D01*
X152559765Y-88029370D01*
X151910000Y-87379605D01*
X151260235Y-88029370D01*
X142495105Y-88029370D01*
X142542559Y-87998100D01*
X142659025Y-87861450D01*
X142732810Y-87697763D01*
X142758072Y-87520000D01*
X142758072Y-87279567D01*
X150700277Y-87279567D01*
X150739044Y-87514043D01*
X150822811Y-87736451D01*
X150859946Y-87805929D01*
X151080630Y-87849765D01*
X151730395Y-87200000D01*
X152089605Y-87200000D01*
X152739370Y-87849765D01*
X152960054Y-87805929D01*
X153058088Y-87589431D01*
X153112002Y-87357967D01*
X153113839Y-87301446D01*
X154641914Y-87301446D01*
X154684626Y-87534166D01*
X154771727Y-87754157D01*
X154899899Y-87953041D01*
X155064260Y-88123242D01*
X155258549Y-88258277D01*
X155475367Y-88353002D01*
X155706454Y-88403810D01*
X155943009Y-88408765D01*
X156176022Y-88367679D01*
X156396616Y-88282116D01*
X156596390Y-88155335D01*
X156767734Y-87992167D01*
X156904122Y-87798824D01*
X157000358Y-87582673D01*
X157052778Y-87351946D01*
X157056552Y-87081697D01*
X157010595Y-86849596D01*
X156920431Y-86630842D01*
X156789495Y-86433767D01*
X156622773Y-86265878D01*
X156426617Y-86133569D01*
X156208498Y-86041880D01*
X155976724Y-85994303D01*
X155740123Y-85992651D01*
X155507707Y-86036987D01*
X155288329Y-86125622D01*
X155090344Y-86255179D01*
X154921295Y-86420724D01*
X154787620Y-86615952D01*
X154694411Y-86833425D01*
X154645217Y-87064862D01*
X154641914Y-87301446D01*
X153113839Y-87301446D01*
X153119723Y-87120433D01*
X153080956Y-86885957D01*
X152997189Y-86663549D01*
X152960054Y-86594071D01*
X152739370Y-86550235D01*
X152089605Y-87200000D01*
X151730395Y-87200000D01*
X151080630Y-86550235D01*
X150859946Y-86594071D01*
X150761912Y-86810569D01*
X150707998Y-87042033D01*
X150700277Y-87279567D01*
X142758072Y-87279567D01*
X142758072Y-86370630D01*
X151260235Y-86370630D01*
X151910000Y-87020395D01*
X152559765Y-86370630D01*
X152515929Y-86149946D01*
X152299431Y-86051912D01*
X152067967Y-85997998D01*
X151830433Y-85990277D01*
X151595957Y-86029044D01*
X151373549Y-86112811D01*
X151304071Y-86149946D01*
X151260235Y-86370630D01*
X142758072Y-86370630D01*
X142758072Y-85520000D01*
X142754484Y-85475000D01*
X164373000Y-85475000D01*
X164373000Y-87650000D01*
X164381685Y-87696159D01*
X164408965Y-87738553D01*
X164450590Y-87766994D01*
X164500000Y-87777000D01*
X167900000Y-87777000D01*
X167946159Y-87768315D01*
X167988553Y-87741035D01*
X168016994Y-87699410D01*
X168027000Y-87650000D01*
X168027000Y-86980719D01*
X174888738Y-86980719D01*
X174922724Y-87165892D01*
X174992029Y-87340937D01*
X175094014Y-87499187D01*
X175224794Y-87634614D01*
X175379389Y-87742060D01*
X175551908Y-87817432D01*
X175735782Y-87857859D01*
X175924007Y-87861802D01*
X176109412Y-87829110D01*
X176284937Y-87761028D01*
X176443895Y-87660151D01*
X176580231Y-87530319D01*
X176688754Y-87376479D01*
X176765329Y-87204489D01*
X176807038Y-87020902D01*
X176810041Y-86805867D01*
X176773473Y-86621187D01*
X176701731Y-86447127D01*
X176597546Y-86290316D01*
X176464888Y-86156728D01*
X176308809Y-86051451D01*
X176135253Y-85978496D01*
X175950833Y-85940639D01*
X175762572Y-85939325D01*
X175577641Y-85974603D01*
X175403084Y-86045128D01*
X175245550Y-86148216D01*
X175111039Y-86279938D01*
X175004675Y-86435279D01*
X174930509Y-86608320D01*
X174891367Y-86792472D01*
X174888738Y-86980719D01*
X168027000Y-86980719D01*
X168027000Y-85475000D01*
X168018315Y-85428841D01*
X167991035Y-85386447D01*
X167949410Y-85358006D01*
X167900000Y-85348000D01*
X164500000Y-85348000D01*
X164453841Y-85356685D01*
X164411447Y-85383965D01*
X164383006Y-85425590D01*
X164373000Y-85475000D01*
X142754484Y-85475000D01*
X142750008Y-85418879D01*
X142696894Y-85247366D01*
X142598100Y-85097441D01*
X142461450Y-84980975D01*
X142426247Y-84965106D01*
X142484839Y-84894280D01*
X142636609Y-84613588D01*
X142730969Y-84308762D01*
X142752758Y-84101446D01*
X147391914Y-84101446D01*
X147434626Y-84334166D01*
X147521727Y-84554157D01*
X147649899Y-84753041D01*
X147814260Y-84923242D01*
X148008549Y-85058277D01*
X148225367Y-85153002D01*
X148456454Y-85203810D01*
X148693009Y-85208765D01*
X148926022Y-85167679D01*
X149146616Y-85082116D01*
X149346390Y-84955335D01*
X149517734Y-84792167D01*
X149654122Y-84598824D01*
X149740097Y-84405719D01*
X172463738Y-84405719D01*
X172497724Y-84590892D01*
X172567029Y-84765937D01*
X172669014Y-84924187D01*
X172799794Y-85059614D01*
X172954389Y-85167060D01*
X173126908Y-85242432D01*
X173310782Y-85282859D01*
X173499007Y-85286802D01*
X173684412Y-85254110D01*
X173859937Y-85186028D01*
X174018895Y-85085151D01*
X174155231Y-84955319D01*
X174263754Y-84801479D01*
X174340329Y-84629489D01*
X174382038Y-84445902D01*
X174385041Y-84230867D01*
X174348473Y-84046187D01*
X174276731Y-83872127D01*
X174172546Y-83715316D01*
X174039888Y-83581728D01*
X173883809Y-83476451D01*
X173710253Y-83403496D01*
X173525833Y-83365639D01*
X173337572Y-83364325D01*
X173152641Y-83399603D01*
X172978084Y-83470128D01*
X172820550Y-83573216D01*
X172686039Y-83704938D01*
X172579675Y-83860279D01*
X172505509Y-84033320D01*
X172466367Y-84217472D01*
X172463738Y-84405719D01*
X149740097Y-84405719D01*
X149750358Y-84382673D01*
X149802778Y-84151946D01*
X149806552Y-83881697D01*
X149760595Y-83649596D01*
X149670431Y-83430842D01*
X149539495Y-83233767D01*
X149372773Y-83065878D01*
X149176617Y-82933569D01*
X148958498Y-82841880D01*
X148733623Y-82795719D01*
X152423738Y-82795719D01*
X152457724Y-82980892D01*
X152527029Y-83155937D01*
X152629014Y-83314187D01*
X152759794Y-83449614D01*
X152914389Y-83557060D01*
X153086908Y-83632432D01*
X153270782Y-83672859D01*
X153459007Y-83676802D01*
X153644412Y-83644110D01*
X153819937Y-83576028D01*
X153978895Y-83475151D01*
X154115231Y-83345319D01*
X154223754Y-83191479D01*
X154228544Y-83180719D01*
X154888738Y-83180719D01*
X154922724Y-83365892D01*
X154992029Y-83540937D01*
X155094014Y-83699187D01*
X155224794Y-83834614D01*
X155379389Y-83942060D01*
X155551908Y-84017432D01*
X155735782Y-84057859D01*
X155924007Y-84061802D01*
X156109412Y-84029110D01*
X156284937Y-83961028D01*
X156443895Y-83860151D01*
X156580231Y-83730319D01*
X156688754Y-83576479D01*
X156765329Y-83404489D01*
X156807038Y-83220902D01*
X156810041Y-83005867D01*
X156773473Y-82821187D01*
X156701731Y-82647127D01*
X156597546Y-82490316D01*
X156464888Y-82356728D01*
X156308809Y-82251451D01*
X156135253Y-82178496D01*
X155950833Y-82140639D01*
X155762572Y-82139325D01*
X155577641Y-82174603D01*
X155403084Y-82245128D01*
X155245550Y-82348216D01*
X155111039Y-82479938D01*
X155004675Y-82635279D01*
X154930509Y-82808320D01*
X154891367Y-82992472D01*
X154888738Y-83180719D01*
X154228544Y-83180719D01*
X154300329Y-83019489D01*
X154342038Y-82835902D01*
X154345041Y-82620867D01*
X154308473Y-82436187D01*
X154236731Y-82262127D01*
X154132546Y-82105316D01*
X153999888Y-81971728D01*
X153843809Y-81866451D01*
X153687437Y-81800719D01*
X160888738Y-81800719D01*
X160922724Y-81985892D01*
X160992029Y-82160937D01*
X161094014Y-82319187D01*
X161224794Y-82454614D01*
X161379389Y-82562060D01*
X161551908Y-82637432D01*
X161735782Y-82677859D01*
X161924007Y-82681802D01*
X162109412Y-82649110D01*
X162271581Y-82586209D01*
X162302724Y-82755892D01*
X162372029Y-82930937D01*
X162474014Y-83089187D01*
X162604794Y-83224614D01*
X162759389Y-83332060D01*
X162931908Y-83407432D01*
X163115782Y-83447859D01*
X163304007Y-83451802D01*
X163489412Y-83419110D01*
X163664937Y-83351028D01*
X163823895Y-83250151D01*
X163960231Y-83120319D01*
X164068754Y-82966479D01*
X164122762Y-82845173D01*
X176397459Y-82845173D01*
X176431445Y-83030346D01*
X176500750Y-83205391D01*
X176602735Y-83363641D01*
X176733515Y-83499068D01*
X176888110Y-83606514D01*
X177060629Y-83681886D01*
X177244503Y-83722313D01*
X177432728Y-83726256D01*
X177618133Y-83693564D01*
X177793658Y-83625482D01*
X177952616Y-83524605D01*
X178088952Y-83394773D01*
X178134137Y-83330719D01*
X181738738Y-83330719D01*
X181772724Y-83515892D01*
X181842029Y-83690937D01*
X181944014Y-83849187D01*
X182074794Y-83984614D01*
X182229389Y-84092060D01*
X182401908Y-84167432D01*
X182585782Y-84207859D01*
X182774007Y-84211802D01*
X182959412Y-84179110D01*
X183134937Y-84111028D01*
X183293895Y-84010151D01*
X183430231Y-83880319D01*
X183538754Y-83726479D01*
X183615329Y-83554489D01*
X183657038Y-83370902D01*
X183660041Y-83155867D01*
X183623473Y-82971187D01*
X183551731Y-82797127D01*
X183447546Y-82640316D01*
X183314888Y-82506728D01*
X183158809Y-82401451D01*
X182985253Y-82328496D01*
X182800833Y-82290639D01*
X182612572Y-82289325D01*
X182427641Y-82324603D01*
X182253084Y-82395128D01*
X182095550Y-82498216D01*
X181961039Y-82629938D01*
X181854675Y-82785279D01*
X181780509Y-82958320D01*
X181741367Y-83142472D01*
X181738738Y-83330719D01*
X178134137Y-83330719D01*
X178197475Y-83240933D01*
X178274050Y-83068943D01*
X178315759Y-82885356D01*
X178318762Y-82670321D01*
X178282194Y-82485641D01*
X178210452Y-82311581D01*
X178106267Y-82154770D01*
X177973609Y-82021182D01*
X177817530Y-81915905D01*
X177643974Y-81842950D01*
X177459554Y-81805093D01*
X177271293Y-81803779D01*
X177086362Y-81839057D01*
X176911805Y-81909582D01*
X176754271Y-82012670D01*
X176619760Y-82144392D01*
X176513396Y-82299733D01*
X176439230Y-82472774D01*
X176400088Y-82656926D01*
X176397459Y-82845173D01*
X164122762Y-82845173D01*
X164145329Y-82794489D01*
X164187038Y-82610902D01*
X164190041Y-82395867D01*
X164153473Y-82211187D01*
X164081731Y-82037127D01*
X163977546Y-81880316D01*
X163844888Y-81746728D01*
X163688809Y-81641451D01*
X163515253Y-81568496D01*
X163330833Y-81530639D01*
X163142572Y-81529325D01*
X162957641Y-81564603D01*
X162809742Y-81624358D01*
X162773473Y-81441187D01*
X162701731Y-81267127D01*
X162597546Y-81110316D01*
X162464888Y-80976728D01*
X162308809Y-80871451D01*
X162135253Y-80798496D01*
X161950833Y-80760639D01*
X161762572Y-80759325D01*
X161577641Y-80794603D01*
X161403084Y-80865128D01*
X161245550Y-80968216D01*
X161111039Y-81099938D01*
X161004675Y-81255279D01*
X160930509Y-81428320D01*
X160891367Y-81612472D01*
X160888738Y-81800719D01*
X153687437Y-81800719D01*
X153670253Y-81793496D01*
X153485833Y-81755639D01*
X153297572Y-81754325D01*
X153112641Y-81789603D01*
X152938084Y-81860128D01*
X152780550Y-81963216D01*
X152646039Y-82094938D01*
X152539675Y-82250279D01*
X152465509Y-82423320D01*
X152426367Y-82607472D01*
X152423738Y-82795719D01*
X148733623Y-82795719D01*
X148726724Y-82794303D01*
X148490123Y-82792651D01*
X148257707Y-82836987D01*
X148038329Y-82925622D01*
X147840344Y-83055179D01*
X147671295Y-83220724D01*
X147537620Y-83415952D01*
X147444411Y-83633425D01*
X147395217Y-83864862D01*
X147391914Y-84101446D01*
X142752758Y-84101446D01*
X142764323Y-83991414D01*
X142735403Y-83673632D01*
X142645309Y-83367518D01*
X142497473Y-83084734D01*
X142297526Y-82836050D01*
X142147031Y-82709769D01*
X142281440Y-82600148D01*
X142484839Y-82354280D01*
X142636609Y-82073588D01*
X142730969Y-81768762D01*
X142764323Y-81451414D01*
X142735403Y-81133632D01*
X142645309Y-80827518D01*
X142579401Y-80701446D01*
X147391914Y-80701446D01*
X147434626Y-80934166D01*
X147521727Y-81154157D01*
X147649899Y-81353041D01*
X147814260Y-81523242D01*
X148008549Y-81658277D01*
X148225367Y-81753002D01*
X148456454Y-81803810D01*
X148693009Y-81808765D01*
X148926022Y-81767679D01*
X149146616Y-81682116D01*
X149346390Y-81555335D01*
X149517734Y-81392167D01*
X149654122Y-81198824D01*
X149750358Y-80982673D01*
X149802778Y-80751946D01*
X149806552Y-80481697D01*
X149760595Y-80249596D01*
X149670431Y-80030842D01*
X149539495Y-79833767D01*
X149372773Y-79665878D01*
X149176617Y-79533569D01*
X148958498Y-79441880D01*
X148726724Y-79394303D01*
X148490123Y-79392651D01*
X148257707Y-79436987D01*
X148038329Y-79525622D01*
X147840344Y-79655179D01*
X147671295Y-79820724D01*
X147537620Y-80015952D01*
X147444411Y-80233425D01*
X147395217Y-80464862D01*
X147391914Y-80701446D01*
X142579401Y-80701446D01*
X142497473Y-80544734D01*
X142297526Y-80296050D01*
X142147031Y-80169769D01*
X142281440Y-80060148D01*
X142484839Y-79814280D01*
X142636609Y-79533588D01*
X142730969Y-79228762D01*
X142764323Y-78911414D01*
X142735403Y-78593632D01*
X142645309Y-78287518D01*
X142537198Y-78080719D01*
X164038738Y-78080719D01*
X164072724Y-78265892D01*
X164142029Y-78440937D01*
X164244014Y-78599187D01*
X164374794Y-78734614D01*
X164529389Y-78842060D01*
X164701908Y-78917432D01*
X164885782Y-78957859D01*
X165074007Y-78961802D01*
X165259412Y-78929110D01*
X165434937Y-78861028D01*
X165593895Y-78760151D01*
X165730231Y-78630319D01*
X165838754Y-78476479D01*
X165915329Y-78304489D01*
X165957038Y-78120902D01*
X165960041Y-77905867D01*
X165923473Y-77721187D01*
X165851731Y-77547127D01*
X165833290Y-77519370D01*
X177530235Y-77519370D01*
X177574071Y-77740054D01*
X177790569Y-77838088D01*
X178022033Y-77892002D01*
X178259567Y-77899723D01*
X178494043Y-77860956D01*
X178716451Y-77777189D01*
X178785929Y-77740054D01*
X178829765Y-77519370D01*
X178180000Y-76869605D01*
X177530235Y-77519370D01*
X165833290Y-77519370D01*
X165747546Y-77390316D01*
X165614888Y-77256728D01*
X165458809Y-77151451D01*
X165285253Y-77078496D01*
X165100833Y-77040639D01*
X164912572Y-77039325D01*
X164727641Y-77074603D01*
X164553084Y-77145128D01*
X164395550Y-77248216D01*
X164261039Y-77379938D01*
X164154675Y-77535279D01*
X164080509Y-77708320D01*
X164041367Y-77892472D01*
X164038738Y-78080719D01*
X142537198Y-78080719D01*
X142497473Y-78004734D01*
X142297526Y-77756050D01*
X142053084Y-77550939D01*
X141773458Y-77397214D01*
X141469299Y-77300729D01*
X141152191Y-77265159D01*
X141129363Y-77265000D01*
X140510637Y-77265000D01*
X140193064Y-77296138D01*
X139887587Y-77388367D01*
X139605842Y-77538174D01*
X139358560Y-77739852D01*
X139155161Y-77985720D01*
X139003391Y-78266412D01*
X138909031Y-78571238D01*
X138875677Y-78888586D01*
X138352000Y-78888586D01*
X138352000Y-76921446D01*
X145451914Y-76921446D01*
X145494626Y-77154166D01*
X145581727Y-77374157D01*
X145709899Y-77573041D01*
X145874260Y-77743242D01*
X146068549Y-77878277D01*
X146285367Y-77973002D01*
X146516454Y-78023810D01*
X146753009Y-78028765D01*
X146986022Y-77987679D01*
X147206616Y-77902116D01*
X147406390Y-77775335D01*
X147577734Y-77612167D01*
X147714122Y-77418824D01*
X147810358Y-77202673D01*
X147862778Y-76971946D01*
X147865604Y-76769567D01*
X176970277Y-76769567D01*
X177009044Y-77004043D01*
X177092811Y-77226451D01*
X177129946Y-77295929D01*
X177350630Y-77339765D01*
X178000395Y-76690000D01*
X178359605Y-76690000D01*
X179009370Y-77339765D01*
X179230054Y-77295929D01*
X179328088Y-77079431D01*
X179382002Y-76847967D01*
X179389723Y-76610433D01*
X179350956Y-76375957D01*
X179267189Y-76153549D01*
X179230054Y-76084071D01*
X179009370Y-76040235D01*
X178359605Y-76690000D01*
X178000395Y-76690000D01*
X177350630Y-76040235D01*
X177129946Y-76084071D01*
X177031912Y-76300569D01*
X176977998Y-76532033D01*
X176970277Y-76769567D01*
X147865604Y-76769567D01*
X147866552Y-76701697D01*
X147820595Y-76469596D01*
X147780614Y-76372595D01*
X147951908Y-76447432D01*
X148135782Y-76487859D01*
X148324007Y-76491802D01*
X148509412Y-76459110D01*
X148684937Y-76391028D01*
X148843895Y-76290151D01*
X148980231Y-76160319D01*
X149079103Y-76020160D01*
X149139389Y-76062060D01*
X149311908Y-76137432D01*
X149495782Y-76177859D01*
X149684007Y-76181802D01*
X149869412Y-76149110D01*
X150044937Y-76081028D01*
X150203895Y-75980151D01*
X150340231Y-75850319D01*
X150448754Y-75696479D01*
X150525329Y-75524489D01*
X150567038Y-75340902D01*
X150570041Y-75125867D01*
X150533473Y-74941187D01*
X150461731Y-74767127D01*
X150357546Y-74610316D01*
X150224888Y-74476728D01*
X150068809Y-74371451D01*
X149895253Y-74298496D01*
X149710833Y-74260639D01*
X149522572Y-74259325D01*
X149337641Y-74294603D01*
X149163084Y-74365128D01*
X149005550Y-74468216D01*
X148871039Y-74599938D01*
X148781605Y-74730553D01*
X148708809Y-74681451D01*
X148535253Y-74608496D01*
X148350833Y-74570639D01*
X148162572Y-74569325D01*
X147977641Y-74604603D01*
X147803084Y-74675128D01*
X147645550Y-74778216D01*
X147511039Y-74909938D01*
X147404675Y-75065279D01*
X147330509Y-75238320D01*
X147291367Y-75422472D01*
X147288738Y-75610719D01*
X147322724Y-75795892D01*
X147331236Y-75817390D01*
X147236617Y-75753569D01*
X147018498Y-75661880D01*
X146786724Y-75614303D01*
X146550123Y-75612651D01*
X146317707Y-75656987D01*
X146098329Y-75745622D01*
X145900344Y-75875179D01*
X145731295Y-76040724D01*
X145597620Y-76235952D01*
X145504411Y-76453425D01*
X145455217Y-76684862D01*
X145451914Y-76921446D01*
X138352000Y-76921446D01*
X138352000Y-74935750D01*
X138895000Y-74935750D01*
X138895000Y-75712542D01*
X138919403Y-75835223D01*
X138967270Y-75950785D01*
X139036763Y-76054789D01*
X139125211Y-76143237D01*
X139229215Y-76212730D01*
X139344777Y-76260597D01*
X139467458Y-76285000D01*
X140544250Y-76285000D01*
X140703000Y-76126250D01*
X140703000Y-74777000D01*
X140957000Y-74777000D01*
X140957000Y-76126250D01*
X141115750Y-76285000D01*
X142192542Y-76285000D01*
X142315223Y-76260597D01*
X142430785Y-76212730D01*
X142534789Y-76143237D01*
X142623237Y-76054789D01*
X142692730Y-75950785D01*
X142740597Y-75835223D01*
X142765000Y-75712542D01*
X142765000Y-74935750D01*
X142606250Y-74777000D01*
X140957000Y-74777000D01*
X140703000Y-74777000D01*
X139053750Y-74777000D01*
X138895000Y-74935750D01*
X138352000Y-74935750D01*
X138352000Y-61938586D01*
X138885677Y-61938586D01*
X138914597Y-62256368D01*
X139004691Y-62562482D01*
X139152527Y-62845266D01*
X139352474Y-63093950D01*
X139502969Y-63220231D01*
X139368560Y-63329852D01*
X139165161Y-63575720D01*
X139013391Y-63856412D01*
X138919031Y-64161238D01*
X138885677Y-64478586D01*
X138914597Y-64796368D01*
X139004691Y-65102482D01*
X139152527Y-65385266D01*
X139352474Y-65633950D01*
X139502969Y-65760231D01*
X139368560Y-65869852D01*
X139165161Y-66115720D01*
X139013391Y-66396412D01*
X138919031Y-66701238D01*
X138885677Y-67018586D01*
X138914597Y-67336368D01*
X139004691Y-67642482D01*
X139152527Y-67925266D01*
X139352474Y-68173950D01*
X139502969Y-68300231D01*
X139368560Y-68409852D01*
X139165161Y-68655720D01*
X139013391Y-68936412D01*
X138919031Y-69241238D01*
X138885677Y-69558586D01*
X138914597Y-69876368D01*
X139004691Y-70182482D01*
X139152527Y-70465266D01*
X139352474Y-70713950D01*
X139502969Y-70840231D01*
X139368560Y-70949852D01*
X139165161Y-71195720D01*
X139013391Y-71476412D01*
X138919031Y-71781238D01*
X138885677Y-72098586D01*
X138914597Y-72416368D01*
X139004691Y-72722482D01*
X139152527Y-73005266D01*
X139222219Y-73091945D01*
X139125211Y-73156763D01*
X139036763Y-73245211D01*
X138967270Y-73349215D01*
X138919403Y-73464777D01*
X138895000Y-73587458D01*
X138895000Y-74364250D01*
X139053750Y-74523000D01*
X140703000Y-74523000D01*
X140703000Y-74503000D01*
X140957000Y-74503000D01*
X140957000Y-74523000D01*
X142606250Y-74523000D01*
X142765000Y-74364250D01*
X142765000Y-73587458D01*
X142740597Y-73464777D01*
X142692730Y-73349215D01*
X142623237Y-73245211D01*
X142608745Y-73230719D01*
X150913738Y-73230719D01*
X150947724Y-73415892D01*
X151017029Y-73590937D01*
X151119014Y-73749187D01*
X151249794Y-73884614D01*
X151404389Y-73992060D01*
X151576908Y-74067432D01*
X151760782Y-74107859D01*
X151949007Y-74111802D01*
X152134412Y-74079110D01*
X152305488Y-74012754D01*
X152323651Y-74020689D01*
X152507525Y-74061116D01*
X152695750Y-74065059D01*
X152881155Y-74032367D01*
X153056680Y-73964285D01*
X153215638Y-73863408D01*
X153351974Y-73733576D01*
X153460497Y-73579736D01*
X153477023Y-73542619D01*
X153476506Y-73579620D01*
X153510492Y-73764793D01*
X153579797Y-73939838D01*
X153681782Y-74098088D01*
X153808624Y-74229437D01*
X153792572Y-74229325D01*
X153607641Y-74264603D01*
X153433084Y-74335128D01*
X153275550Y-74438216D01*
X153141039Y-74569938D01*
X153034675Y-74725279D01*
X152960509Y-74898320D01*
X152921367Y-75082472D01*
X152918738Y-75270719D01*
X152952724Y-75455892D01*
X153022029Y-75630937D01*
X153124014Y-75789187D01*
X153254794Y-75924614D01*
X153409389Y-76032060D01*
X153581908Y-76107432D01*
X153765782Y-76147859D01*
X153954007Y-76151802D01*
X154139412Y-76119110D01*
X154314937Y-76051028D01*
X154473895Y-75950151D01*
X154610231Y-75820319D01*
X154718754Y-75666479D01*
X154736251Y-75627181D01*
X154875782Y-75657859D01*
X155064007Y-75661802D01*
X155249412Y-75629110D01*
X155424937Y-75561028D01*
X155583895Y-75460151D01*
X155720231Y-75330319D01*
X155828754Y-75176479D01*
X155905329Y-75004489D01*
X155928791Y-74901217D01*
X155992029Y-75060937D01*
X156094014Y-75219187D01*
X156195361Y-75324135D01*
X156188980Y-75354156D01*
X156186351Y-75542403D01*
X156220337Y-75727576D01*
X156289642Y-75902621D01*
X156391627Y-76060871D01*
X156522407Y-76196298D01*
X156677002Y-76303744D01*
X156849521Y-76379116D01*
X157033395Y-76419543D01*
X157221620Y-76423486D01*
X157407025Y-76390794D01*
X157582550Y-76322712D01*
X157741508Y-76221835D01*
X157877844Y-76092003D01*
X157986367Y-75938163D01*
X158062942Y-75766173D01*
X158078175Y-75699119D01*
X160817538Y-75699119D01*
X160851524Y-75884292D01*
X160920829Y-76059337D01*
X161022814Y-76217587D01*
X161153594Y-76353014D01*
X161308189Y-76460460D01*
X161480708Y-76535832D01*
X161664582Y-76576259D01*
X161852807Y-76580202D01*
X162038212Y-76547510D01*
X162213737Y-76479428D01*
X162372695Y-76378551D01*
X162509031Y-76248719D01*
X162617554Y-76094879D01*
X162694129Y-75922889D01*
X162735838Y-75739302D01*
X162738841Y-75524267D01*
X162702273Y-75339587D01*
X162630531Y-75165527D01*
X162590795Y-75105719D01*
X168963738Y-75105719D01*
X168997724Y-75290892D01*
X169067029Y-75465937D01*
X169169014Y-75624187D01*
X169299794Y-75759614D01*
X169454389Y-75867060D01*
X169626908Y-75942432D01*
X169810782Y-75982859D01*
X169999007Y-75986802D01*
X170184412Y-75954110D01*
X170359937Y-75886028D01*
X170518895Y-75785151D01*
X170655231Y-75655319D01*
X170690220Y-75605719D01*
X173138738Y-75605719D01*
X173172724Y-75790892D01*
X173242029Y-75965937D01*
X173344014Y-76124187D01*
X173474794Y-76259614D01*
X173629389Y-76367060D01*
X173801908Y-76442432D01*
X173985782Y-76482859D01*
X174174007Y-76486802D01*
X174359412Y-76454110D01*
X174534937Y-76386028D01*
X174693895Y-76285151D01*
X174830231Y-76155319D01*
X174938754Y-76001479D01*
X175001464Y-75860630D01*
X177530235Y-75860630D01*
X178180000Y-76510395D01*
X178829765Y-75860630D01*
X178785929Y-75639946D01*
X178569431Y-75541912D01*
X178337967Y-75487998D01*
X178100433Y-75480277D01*
X177865957Y-75519044D01*
X177643549Y-75602811D01*
X177574071Y-75639946D01*
X177530235Y-75860630D01*
X175001464Y-75860630D01*
X175015329Y-75829489D01*
X175057038Y-75645902D01*
X175060041Y-75430867D01*
X175023473Y-75246187D01*
X174951731Y-75072127D01*
X174847546Y-74915316D01*
X174714888Y-74781728D01*
X174558809Y-74676451D01*
X174385253Y-74603496D01*
X174200833Y-74565639D01*
X174012572Y-74564325D01*
X173827641Y-74599603D01*
X173653084Y-74670128D01*
X173495550Y-74773216D01*
X173361039Y-74904938D01*
X173254675Y-75060279D01*
X173180509Y-75233320D01*
X173141367Y-75417472D01*
X173138738Y-75605719D01*
X170690220Y-75605719D01*
X170763754Y-75501479D01*
X170840329Y-75329489D01*
X170882038Y-75145902D01*
X170885041Y-74930867D01*
X170848473Y-74746187D01*
X170776731Y-74572127D01*
X170672546Y-74415316D01*
X170539888Y-74281728D01*
X170383809Y-74176451D01*
X170210253Y-74103496D01*
X170025833Y-74065639D01*
X169837572Y-74064325D01*
X169652641Y-74099603D01*
X169478084Y-74170128D01*
X169320550Y-74273216D01*
X169186039Y-74404938D01*
X169079675Y-74560279D01*
X169005509Y-74733320D01*
X168966367Y-74917472D01*
X168963738Y-75105719D01*
X162590795Y-75105719D01*
X162526346Y-75008716D01*
X162393688Y-74875128D01*
X162237609Y-74769851D01*
X162064053Y-74696896D01*
X161879633Y-74659039D01*
X161691372Y-74657725D01*
X161506441Y-74693003D01*
X161331884Y-74763528D01*
X161174350Y-74866616D01*
X161039839Y-74998338D01*
X160933475Y-75153679D01*
X160859309Y-75326720D01*
X160820167Y-75510872D01*
X160817538Y-75699119D01*
X158078175Y-75699119D01*
X158104651Y-75582586D01*
X158107654Y-75367551D01*
X158071086Y-75182871D01*
X157999344Y-75008811D01*
X157895159Y-74852000D01*
X157802904Y-74759098D01*
X157807038Y-74740902D01*
X157810041Y-74525867D01*
X157773473Y-74341187D01*
X157701731Y-74167127D01*
X157597546Y-74010316D01*
X157464888Y-73876728D01*
X157308809Y-73771451D01*
X157135253Y-73698496D01*
X156950833Y-73660639D01*
X156762572Y-73659325D01*
X156577641Y-73694603D01*
X156403084Y-73765128D01*
X156245550Y-73868216D01*
X156111039Y-73999938D01*
X156004675Y-74155279D01*
X155930509Y-74328320D01*
X155911690Y-74416860D01*
X155841731Y-74247127D01*
X155737546Y-74090316D01*
X155658513Y-74010729D01*
X155769726Y-73940151D01*
X155906062Y-73810319D01*
X156014585Y-73656479D01*
X156091160Y-73484489D01*
X156132869Y-73300902D01*
X156133430Y-73260719D01*
X161568738Y-73260719D01*
X161602724Y-73445892D01*
X161672029Y-73620937D01*
X161774014Y-73779187D01*
X161904794Y-73914614D01*
X162059389Y-74022060D01*
X162231908Y-74097432D01*
X162415782Y-74137859D01*
X162604007Y-74141802D01*
X162789412Y-74109110D01*
X162964937Y-74041028D01*
X163123895Y-73940151D01*
X163260231Y-73810319D01*
X163368754Y-73656479D01*
X163445329Y-73484489D01*
X163487038Y-73300902D01*
X163490041Y-73085867D01*
X163453473Y-72901187D01*
X163381731Y-72727127D01*
X163277546Y-72570316D01*
X163144888Y-72436728D01*
X162988809Y-72331451D01*
X162868121Y-72280719D01*
X166988738Y-72280719D01*
X167022724Y-72465892D01*
X167092029Y-72640937D01*
X167194014Y-72799187D01*
X167324794Y-72934614D01*
X167479389Y-73042060D01*
X167651908Y-73117432D01*
X167835782Y-73157859D01*
X168024007Y-73161802D01*
X168209412Y-73129110D01*
X168384937Y-73061028D01*
X168543895Y-72960151D01*
X168680231Y-72830319D01*
X168782795Y-72684926D01*
X168879389Y-72752060D01*
X169051908Y-72827432D01*
X169235782Y-72867859D01*
X169424007Y-72871802D01*
X169609412Y-72839110D01*
X169784937Y-72771028D01*
X169943895Y-72670151D01*
X170080231Y-72540319D01*
X170182786Y-72394939D01*
X183606618Y-72394939D01*
X183640604Y-72580112D01*
X183709909Y-72755157D01*
X183811894Y-72913407D01*
X183942674Y-73048834D01*
X184097269Y-73156280D01*
X184269788Y-73231652D01*
X184453662Y-73272079D01*
X184641887Y-73276022D01*
X184827292Y-73243330D01*
X185002817Y-73175248D01*
X185161775Y-73074371D01*
X185298111Y-72944539D01*
X185406634Y-72790699D01*
X185483209Y-72618709D01*
X185524918Y-72435122D01*
X185527921Y-72220087D01*
X185491353Y-72035407D01*
X185419611Y-71861347D01*
X185315426Y-71704536D01*
X185182768Y-71570948D01*
X185026689Y-71465671D01*
X184853133Y-71392716D01*
X184668713Y-71354859D01*
X184480452Y-71353545D01*
X184295521Y-71388823D01*
X184120964Y-71459348D01*
X183963430Y-71562436D01*
X183828919Y-71694158D01*
X183722555Y-71849499D01*
X183648389Y-72022540D01*
X183609247Y-72206692D01*
X183606618Y-72394939D01*
X170182786Y-72394939D01*
X170188754Y-72386479D01*
X170265329Y-72214489D01*
X170307038Y-72030902D01*
X170310041Y-71815867D01*
X170273473Y-71631187D01*
X170201731Y-71457127D01*
X170097546Y-71300316D01*
X169964888Y-71166728D01*
X169808809Y-71061451D01*
X169635253Y-70988496D01*
X169450833Y-70950639D01*
X169262572Y-70949325D01*
X169077641Y-70984603D01*
X168903084Y-71055128D01*
X168745550Y-71158216D01*
X168611039Y-71289938D01*
X168518336Y-71425328D01*
X168408809Y-71351451D01*
X168235253Y-71278496D01*
X168050833Y-71240639D01*
X167862572Y-71239325D01*
X167677641Y-71274603D01*
X167503084Y-71345128D01*
X167345550Y-71448216D01*
X167211039Y-71579938D01*
X167104675Y-71735279D01*
X167030509Y-71908320D01*
X166991367Y-72092472D01*
X166988738Y-72280719D01*
X162868121Y-72280719D01*
X162815253Y-72258496D01*
X162630833Y-72220639D01*
X162442572Y-72219325D01*
X162257641Y-72254603D01*
X162083084Y-72325128D01*
X161925550Y-72428216D01*
X161791039Y-72559938D01*
X161684675Y-72715279D01*
X161610509Y-72888320D01*
X161571367Y-73072472D01*
X161568738Y-73260719D01*
X156133430Y-73260719D01*
X156135872Y-73085867D01*
X156099304Y-72901187D01*
X156027562Y-72727127D01*
X155923377Y-72570316D01*
X155863994Y-72510516D01*
X155958053Y-72377180D01*
X156034628Y-72205190D01*
X156076337Y-72021603D01*
X156079340Y-71806568D01*
X156042772Y-71621888D01*
X155971030Y-71447828D01*
X155866845Y-71291017D01*
X155734187Y-71157429D01*
X155657525Y-71105719D01*
X157663738Y-71105719D01*
X157697724Y-71290892D01*
X157767029Y-71465937D01*
X157869014Y-71624187D01*
X157999794Y-71759614D01*
X158154389Y-71867060D01*
X158326908Y-71942432D01*
X158510782Y-71982859D01*
X158699007Y-71986802D01*
X158884412Y-71954110D01*
X159059937Y-71886028D01*
X159218895Y-71785151D01*
X159355231Y-71655319D01*
X159463754Y-71501479D01*
X159540329Y-71329489D01*
X159582038Y-71145902D01*
X159582948Y-71080719D01*
X161998738Y-71080719D01*
X162032724Y-71265892D01*
X162102029Y-71440937D01*
X162204014Y-71599187D01*
X162334794Y-71734614D01*
X162489389Y-71842060D01*
X162661908Y-71917432D01*
X162845782Y-71957859D01*
X163034007Y-71961802D01*
X163219412Y-71929110D01*
X163394937Y-71861028D01*
X163553895Y-71760151D01*
X163690231Y-71630319D01*
X163798754Y-71476479D01*
X163875329Y-71304489D01*
X163917038Y-71120902D01*
X163920041Y-70905867D01*
X163914078Y-70875750D01*
X191665000Y-70875750D01*
X191665000Y-71652542D01*
X191689403Y-71775223D01*
X191737270Y-71890785D01*
X191806763Y-71994789D01*
X191895211Y-72083237D01*
X191999215Y-72152730D01*
X192114777Y-72200597D01*
X192237458Y-72225000D01*
X193314250Y-72225000D01*
X193473000Y-72066250D01*
X193473000Y-70717000D01*
X193727000Y-70717000D01*
X193727000Y-72066250D01*
X193885750Y-72225000D01*
X194962542Y-72225000D01*
X195085223Y-72200597D01*
X195200785Y-72152730D01*
X195304789Y-72083237D01*
X195393237Y-71994789D01*
X195462730Y-71890785D01*
X195510597Y-71775223D01*
X195535000Y-71652542D01*
X195535000Y-70875750D01*
X195376250Y-70717000D01*
X193727000Y-70717000D01*
X193473000Y-70717000D01*
X191823750Y-70717000D01*
X191665000Y-70875750D01*
X163914078Y-70875750D01*
X163883473Y-70721187D01*
X163811731Y-70547127D01*
X163707546Y-70390316D01*
X163574888Y-70256728D01*
X163418809Y-70151451D01*
X163245253Y-70078496D01*
X163060833Y-70040639D01*
X162872572Y-70039325D01*
X162687641Y-70074603D01*
X162513084Y-70145128D01*
X162355550Y-70248216D01*
X162221039Y-70379938D01*
X162114675Y-70535279D01*
X162040509Y-70708320D01*
X162001367Y-70892472D01*
X161998738Y-71080719D01*
X159582948Y-71080719D01*
X159585041Y-70930867D01*
X159548473Y-70746187D01*
X159482263Y-70585550D01*
X159609937Y-70536028D01*
X159768895Y-70435151D01*
X159905231Y-70305319D01*
X160013754Y-70151479D01*
X160090329Y-69979489D01*
X160132038Y-69795902D01*
X160135041Y-69580867D01*
X160098473Y-69396187D01*
X160036299Y-69245339D01*
X181041218Y-69245339D01*
X181075204Y-69430512D01*
X181144509Y-69605557D01*
X181246494Y-69763807D01*
X181377274Y-69899234D01*
X181531869Y-70006680D01*
X181704388Y-70082052D01*
X181888262Y-70122479D01*
X182076487Y-70126422D01*
X182261892Y-70093730D01*
X182437417Y-70025648D01*
X182596375Y-69924771D01*
X182732711Y-69794939D01*
X182841234Y-69641099D01*
X182917809Y-69469109D01*
X182959518Y-69285522D01*
X182962521Y-69070487D01*
X182925953Y-68885807D01*
X182854211Y-68711747D01*
X182750026Y-68554936D01*
X182617368Y-68421348D01*
X182461289Y-68316071D01*
X182287733Y-68243116D01*
X182103313Y-68205259D01*
X181915052Y-68203945D01*
X181730121Y-68239223D01*
X181555564Y-68309748D01*
X181398030Y-68412836D01*
X181263519Y-68544558D01*
X181157155Y-68699899D01*
X181082989Y-68872940D01*
X181043847Y-69057092D01*
X181041218Y-69245339D01*
X160036299Y-69245339D01*
X160026731Y-69222127D01*
X159922546Y-69065316D01*
X159789888Y-68931728D01*
X159633809Y-68826451D01*
X159460253Y-68753496D01*
X159275833Y-68715639D01*
X159087572Y-68714325D01*
X158902641Y-68749603D01*
X158728084Y-68820128D01*
X158570550Y-68923216D01*
X158436039Y-69054938D01*
X158329675Y-69210279D01*
X158255509Y-69383320D01*
X158216367Y-69567472D01*
X158213738Y-69755719D01*
X158247724Y-69940892D01*
X158316365Y-70114259D01*
X158178084Y-70170128D01*
X158020550Y-70273216D01*
X157886039Y-70404938D01*
X157779675Y-70560279D01*
X157705509Y-70733320D01*
X157666367Y-70917472D01*
X157663738Y-71105719D01*
X155657525Y-71105719D01*
X155578108Y-71052152D01*
X155404552Y-70979197D01*
X155220132Y-70941340D01*
X155031871Y-70940026D01*
X154846940Y-70975304D01*
X154672383Y-71045829D01*
X154514849Y-71148917D01*
X154380338Y-71280639D01*
X154273974Y-71435980D01*
X154199808Y-71609021D01*
X154160666Y-71793173D01*
X154158037Y-71981420D01*
X154192023Y-72166593D01*
X154261328Y-72341638D01*
X154363313Y-72499888D01*
X154400675Y-72538577D01*
X154350340Y-72538226D01*
X154165409Y-72573504D01*
X153990852Y-72644029D01*
X153833318Y-72747117D01*
X153698807Y-72878839D01*
X153592443Y-73034180D01*
X153581063Y-73060731D01*
X153581784Y-73009124D01*
X153545216Y-72824444D01*
X153473474Y-72650384D01*
X153369289Y-72493573D01*
X153236631Y-72359985D01*
X153080552Y-72254708D01*
X152906996Y-72181753D01*
X152722576Y-72143896D01*
X152534315Y-72142582D01*
X152349384Y-72177860D01*
X152191522Y-72241640D01*
X152160253Y-72228496D01*
X151975833Y-72190639D01*
X151787572Y-72189325D01*
X151602641Y-72224603D01*
X151428084Y-72295128D01*
X151270550Y-72398216D01*
X151136039Y-72529938D01*
X151029675Y-72685279D01*
X150955509Y-72858320D01*
X150916367Y-73042472D01*
X150913738Y-73230719D01*
X142608745Y-73230719D01*
X142534789Y-73156763D01*
X142438477Y-73092410D01*
X142494839Y-73024280D01*
X142646609Y-72743588D01*
X142740969Y-72438762D01*
X142774323Y-72121414D01*
X142745403Y-71803632D01*
X142655309Y-71497518D01*
X142507473Y-71214734D01*
X142307526Y-70966050D01*
X142157031Y-70839769D01*
X142291440Y-70730148D01*
X142353012Y-70655719D01*
X144288738Y-70655719D01*
X144322724Y-70840892D01*
X144392029Y-71015937D01*
X144494014Y-71174187D01*
X144542368Y-71224259D01*
X144511039Y-71254938D01*
X144404675Y-71410279D01*
X144330509Y-71583320D01*
X144291367Y-71767472D01*
X144288738Y-71955719D01*
X144322724Y-72140892D01*
X144392029Y-72315937D01*
X144494014Y-72474187D01*
X144624794Y-72609614D01*
X144779389Y-72717060D01*
X144951908Y-72792432D01*
X145135782Y-72832859D01*
X145324007Y-72836802D01*
X145509412Y-72804110D01*
X145684937Y-72736028D01*
X145843895Y-72635151D01*
X145980231Y-72505319D01*
X146088754Y-72351479D01*
X146165329Y-72179489D01*
X146207038Y-71995902D01*
X146210041Y-71780867D01*
X146173473Y-71596187D01*
X146101731Y-71422127D01*
X145997546Y-71265316D01*
X145958509Y-71226005D01*
X145980231Y-71205319D01*
X146088754Y-71051479D01*
X146165329Y-70879489D01*
X146207038Y-70695902D01*
X146210041Y-70480867D01*
X146173473Y-70296187D01*
X146136260Y-70205899D01*
X151223438Y-70205899D01*
X151257424Y-70391072D01*
X151326729Y-70566117D01*
X151332867Y-70575642D01*
X151265209Y-70733500D01*
X151226067Y-70917652D01*
X151223438Y-71105899D01*
X151257424Y-71291072D01*
X151326729Y-71466117D01*
X151428714Y-71624367D01*
X151559494Y-71759794D01*
X151714089Y-71867240D01*
X151886608Y-71942612D01*
X152070482Y-71983039D01*
X152258707Y-71986982D01*
X152444112Y-71954290D01*
X152619637Y-71886208D01*
X152635077Y-71876410D01*
X152786608Y-71942612D01*
X152970482Y-71983039D01*
X153158707Y-71986982D01*
X153344112Y-71954290D01*
X153519637Y-71886208D01*
X153678595Y-71785331D01*
X153814931Y-71655499D01*
X153923454Y-71501659D01*
X154000029Y-71329669D01*
X154041738Y-71146082D01*
X154044741Y-70931047D01*
X154008173Y-70746367D01*
X153936475Y-70572414D01*
X154000029Y-70429669D01*
X154041738Y-70246082D01*
X154044741Y-70031047D01*
X154008173Y-69846367D01*
X153936431Y-69672307D01*
X153832246Y-69515496D01*
X153699588Y-69381908D01*
X153543509Y-69276631D01*
X153369953Y-69203676D01*
X153185533Y-69165819D01*
X152997272Y-69164505D01*
X152812341Y-69199783D01*
X152637784Y-69270308D01*
X152634140Y-69272693D01*
X152469953Y-69203676D01*
X152285533Y-69165819D01*
X152097272Y-69164505D01*
X151912341Y-69199783D01*
X151737784Y-69270308D01*
X151580250Y-69373396D01*
X151445739Y-69505118D01*
X151339375Y-69660459D01*
X151265209Y-69833500D01*
X151226067Y-70017652D01*
X151223438Y-70205899D01*
X146136260Y-70205899D01*
X146101731Y-70122127D01*
X145997546Y-69965316D01*
X145864888Y-69831728D01*
X145708809Y-69726451D01*
X145535253Y-69653496D01*
X145350833Y-69615639D01*
X145162572Y-69614325D01*
X144977641Y-69649603D01*
X144803084Y-69720128D01*
X144645550Y-69823216D01*
X144511039Y-69954938D01*
X144404675Y-70110279D01*
X144330509Y-70283320D01*
X144291367Y-70467472D01*
X144288738Y-70655719D01*
X142353012Y-70655719D01*
X142494839Y-70484280D01*
X142646609Y-70203588D01*
X142740969Y-69898762D01*
X142774323Y-69581414D01*
X142745403Y-69263632D01*
X142655309Y-68957518D01*
X142507473Y-68674734D01*
X142307526Y-68426050D01*
X142157031Y-68299769D01*
X142291440Y-68190148D01*
X142494839Y-67944280D01*
X142646609Y-67663588D01*
X142740969Y-67358762D01*
X142774323Y-67041414D01*
X142745403Y-66723632D01*
X142655309Y-66417518D01*
X142583793Y-66280719D01*
X147538738Y-66280719D01*
X147572724Y-66465892D01*
X147610920Y-66562365D01*
X147580509Y-66633320D01*
X147541367Y-66817472D01*
X147538738Y-67005719D01*
X147572724Y-67190892D01*
X147610920Y-67287365D01*
X147580509Y-67358320D01*
X147541367Y-67542472D01*
X147538738Y-67730719D01*
X147572724Y-67915892D01*
X147642029Y-68090937D01*
X147744014Y-68249187D01*
X147874794Y-68384614D01*
X148029389Y-68492060D01*
X148201908Y-68567432D01*
X148385782Y-68607859D01*
X148574007Y-68611802D01*
X148759412Y-68579110D01*
X148934937Y-68511028D01*
X149093895Y-68410151D01*
X149230231Y-68280319D01*
X149266673Y-68228659D01*
X153623046Y-68228659D01*
X153657032Y-68413832D01*
X153726337Y-68588877D01*
X153828322Y-68747127D01*
X153959102Y-68882554D01*
X154113697Y-68990000D01*
X154286216Y-69065372D01*
X154470090Y-69105799D01*
X154658315Y-69109742D01*
X154843720Y-69077050D01*
X155019245Y-69008968D01*
X155178203Y-68908091D01*
X155314539Y-68778259D01*
X155423062Y-68624419D01*
X155499637Y-68452429D01*
X155541346Y-68268842D01*
X155544349Y-68053807D01*
X155534828Y-68005719D01*
X162363738Y-68005719D01*
X162397724Y-68190892D01*
X162467029Y-68365937D01*
X162569014Y-68524187D01*
X162699794Y-68659614D01*
X162854389Y-68767060D01*
X163026908Y-68842432D01*
X163210782Y-68882859D01*
X163399007Y-68886802D01*
X163584412Y-68854110D01*
X163759937Y-68786028D01*
X163918895Y-68685151D01*
X164055231Y-68555319D01*
X164163754Y-68401479D01*
X164240329Y-68229489D01*
X164282038Y-68045902D01*
X164285041Y-67830867D01*
X164248473Y-67646187D01*
X164176731Y-67472127D01*
X164072546Y-67315316D01*
X163939888Y-67181728D01*
X163783809Y-67076451D01*
X163610253Y-67003496D01*
X163425833Y-66965639D01*
X163237572Y-66964325D01*
X163052641Y-66999603D01*
X162878084Y-67070128D01*
X162720550Y-67173216D01*
X162586039Y-67304938D01*
X162479675Y-67460279D01*
X162405509Y-67633320D01*
X162366367Y-67817472D01*
X162363738Y-68005719D01*
X155534828Y-68005719D01*
X155507781Y-67869127D01*
X155436039Y-67695067D01*
X155331854Y-67538256D01*
X155199196Y-67404668D01*
X155043117Y-67299391D01*
X154869561Y-67226436D01*
X154685141Y-67188579D01*
X154496880Y-67187265D01*
X154311949Y-67222543D01*
X154137392Y-67293068D01*
X153979858Y-67396156D01*
X153845347Y-67527878D01*
X153738983Y-67683219D01*
X153664817Y-67856260D01*
X153625675Y-68040412D01*
X153623046Y-68228659D01*
X149266673Y-68228659D01*
X149338754Y-68126479D01*
X149415329Y-67954489D01*
X149457038Y-67770902D01*
X149460041Y-67555867D01*
X149423473Y-67371187D01*
X149389230Y-67288108D01*
X149415329Y-67229489D01*
X149457038Y-67045902D01*
X149460041Y-66830867D01*
X149423473Y-66646187D01*
X149389230Y-66563108D01*
X149415329Y-66504489D01*
X149457038Y-66320902D01*
X149460041Y-66105867D01*
X149450597Y-66058169D01*
X149624007Y-66061802D01*
X149809412Y-66029110D01*
X149984937Y-65961028D01*
X150143895Y-65860151D01*
X150280231Y-65730319D01*
X150388754Y-65576479D01*
X150465329Y-65404489D01*
X150482088Y-65330719D01*
X151313738Y-65330719D01*
X151347724Y-65515892D01*
X151417029Y-65690937D01*
X151519014Y-65849187D01*
X151649794Y-65984614D01*
X151804389Y-66092060D01*
X151976908Y-66167432D01*
X152160782Y-66207859D01*
X152349007Y-66211802D01*
X152534412Y-66179110D01*
X152709937Y-66111028D01*
X152868895Y-66010151D01*
X152876080Y-66003309D01*
X152989389Y-66082060D01*
X153161908Y-66157432D01*
X153345782Y-66197859D01*
X153534007Y-66201802D01*
X153719412Y-66169110D01*
X153894937Y-66101028D01*
X154053895Y-66000151D01*
X154190231Y-65870319D01*
X154298754Y-65716479D01*
X154375329Y-65544489D01*
X154417038Y-65360902D01*
X154420041Y-65145867D01*
X154383473Y-64961187D01*
X154311731Y-64787127D01*
X154207546Y-64630316D01*
X154074888Y-64496728D01*
X153918809Y-64391451D01*
X153745253Y-64318496D01*
X153560833Y-64280639D01*
X153372572Y-64279325D01*
X153187641Y-64314603D01*
X153013084Y-64385128D01*
X152859049Y-64485927D01*
X152733809Y-64401451D01*
X152560253Y-64328496D01*
X152375833Y-64290639D01*
X152187572Y-64289325D01*
X152002641Y-64324603D01*
X151828084Y-64395128D01*
X151670550Y-64498216D01*
X151536039Y-64629938D01*
X151429675Y-64785279D01*
X151355509Y-64958320D01*
X151316367Y-65142472D01*
X151313738Y-65330719D01*
X150482088Y-65330719D01*
X150507038Y-65220902D01*
X150510041Y-65005867D01*
X150473473Y-64821187D01*
X150401731Y-64647127D01*
X150297546Y-64490316D01*
X150164888Y-64356728D01*
X150008809Y-64251451D01*
X149835253Y-64178496D01*
X149650833Y-64140639D01*
X149462572Y-64139325D01*
X149277641Y-64174603D01*
X149103084Y-64245128D01*
X148945550Y-64348216D01*
X148811039Y-64479938D01*
X148704675Y-64635279D01*
X148630509Y-64808320D01*
X148591367Y-64992472D01*
X148588738Y-65180719D01*
X148599734Y-65240631D01*
X148412572Y-65239325D01*
X148227641Y-65274603D01*
X148053084Y-65345128D01*
X147895550Y-65448216D01*
X147761039Y-65579938D01*
X147654675Y-65735279D01*
X147580509Y-65908320D01*
X147541367Y-66092472D01*
X147538738Y-66280719D01*
X142583793Y-66280719D01*
X142507473Y-66134734D01*
X142307526Y-65886050D01*
X142157031Y-65759769D01*
X142291440Y-65650148D01*
X142494839Y-65404280D01*
X142646609Y-65123588D01*
X142740969Y-64818762D01*
X142774323Y-64501414D01*
X142745403Y-64183632D01*
X142655309Y-63877518D01*
X142507473Y-63594734D01*
X142307526Y-63346050D01*
X142157031Y-63219769D01*
X142291440Y-63110148D01*
X142494839Y-62864280D01*
X142646609Y-62583588D01*
X142709407Y-62380719D01*
X149038738Y-62380719D01*
X149072724Y-62565892D01*
X149142029Y-62740937D01*
X149244014Y-62899187D01*
X149374794Y-63034614D01*
X149529389Y-63142060D01*
X149701908Y-63217432D01*
X149885782Y-63257859D01*
X150074007Y-63261802D01*
X150259412Y-63229110D01*
X150434937Y-63161028D01*
X150561484Y-63080719D01*
X157813738Y-63080719D01*
X157847724Y-63265892D01*
X157917029Y-63440937D01*
X158019014Y-63599187D01*
X158149794Y-63734614D01*
X158304389Y-63842060D01*
X158476908Y-63917432D01*
X158660782Y-63957859D01*
X158849007Y-63961802D01*
X159034412Y-63929110D01*
X159209937Y-63861028D01*
X159368895Y-63760151D01*
X159467758Y-63666004D01*
X159466914Y-63726446D01*
X159509626Y-63959166D01*
X159596727Y-64179157D01*
X159724899Y-64378041D01*
X159889260Y-64548242D01*
X160083549Y-64683277D01*
X160300367Y-64778002D01*
X160531454Y-64828810D01*
X160768009Y-64833765D01*
X161001022Y-64792679D01*
X161046848Y-64774904D01*
X161072724Y-64915892D01*
X161142029Y-65090937D01*
X161244014Y-65249187D01*
X161374794Y-65384614D01*
X161529389Y-65492060D01*
X161701908Y-65567432D01*
X161885782Y-65607859D01*
X162074007Y-65611802D01*
X162259412Y-65579110D01*
X162434937Y-65511028D01*
X162593895Y-65410151D01*
X162730231Y-65280319D01*
X162838754Y-65126479D01*
X162915329Y-64954489D01*
X162957038Y-64770902D01*
X162960041Y-64555867D01*
X162923473Y-64371187D01*
X162851731Y-64197127D01*
X162747546Y-64040316D01*
X162614888Y-63906728D01*
X162458809Y-63801451D01*
X162285253Y-63728496D01*
X162100833Y-63690639D01*
X161912572Y-63689325D01*
X161878912Y-63695746D01*
X161881552Y-63506697D01*
X161835595Y-63274596D01*
X161745431Y-63055842D01*
X161728753Y-63030739D01*
X162747938Y-63030739D01*
X162781924Y-63215912D01*
X162851229Y-63390957D01*
X162953214Y-63549207D01*
X163083994Y-63684634D01*
X163238589Y-63792080D01*
X163411108Y-63867452D01*
X163594982Y-63907879D01*
X163622821Y-63908462D01*
X163596309Y-63970320D01*
X163557167Y-64154472D01*
X163554538Y-64342719D01*
X163588524Y-64527892D01*
X163657829Y-64702937D01*
X163759814Y-64861187D01*
X163890594Y-64996614D01*
X164045189Y-65104060D01*
X164217708Y-65179432D01*
X164401582Y-65219859D01*
X164589807Y-65223802D01*
X164775212Y-65191110D01*
X164950737Y-65123028D01*
X165109695Y-65022151D01*
X165246031Y-64892319D01*
X165354554Y-64738479D01*
X165427820Y-64573919D01*
X167396138Y-64573919D01*
X167430124Y-64759092D01*
X167499429Y-64934137D01*
X167601414Y-65092387D01*
X167732194Y-65227814D01*
X167886789Y-65335260D01*
X168059308Y-65410632D01*
X168243182Y-65451059D01*
X168431407Y-65455002D01*
X168616812Y-65422310D01*
X168792337Y-65354228D01*
X168951295Y-65253351D01*
X169087631Y-65123519D01*
X169196154Y-64969679D01*
X169272729Y-64797689D01*
X169310662Y-64630719D01*
X169963738Y-64630719D01*
X169997724Y-64815892D01*
X170067029Y-64990937D01*
X170169014Y-65149187D01*
X170299794Y-65284614D01*
X170454389Y-65392060D01*
X170626908Y-65467432D01*
X170810782Y-65507859D01*
X170999007Y-65511802D01*
X171184412Y-65479110D01*
X171359937Y-65411028D01*
X171518895Y-65310151D01*
X171655231Y-65180319D01*
X171763754Y-65026479D01*
X171840329Y-64854489D01*
X171882038Y-64670902D01*
X171885041Y-64455867D01*
X171848473Y-64271187D01*
X171776731Y-64097127D01*
X171672546Y-63940316D01*
X171539888Y-63806728D01*
X171390137Y-63705719D01*
X173213738Y-63705719D01*
X173247724Y-63890892D01*
X173317029Y-64065937D01*
X173419014Y-64224187D01*
X173549794Y-64359614D01*
X173704389Y-64467060D01*
X173876908Y-64542432D01*
X174060782Y-64582859D01*
X174249007Y-64586802D01*
X174434412Y-64554110D01*
X174609937Y-64486028D01*
X174768895Y-64385151D01*
X174905231Y-64255319D01*
X175013754Y-64101479D01*
X175090329Y-63929489D01*
X175132038Y-63745902D01*
X175132885Y-63685237D01*
X175309412Y-63654110D01*
X175484937Y-63586028D01*
X175643895Y-63485151D01*
X175780231Y-63355319D01*
X175888754Y-63201479D01*
X175965329Y-63029489D01*
X176007038Y-62845902D01*
X176010041Y-62630867D01*
X175973473Y-62446187D01*
X175901731Y-62272127D01*
X175797546Y-62115316D01*
X175664888Y-61981728D01*
X175508809Y-61876451D01*
X175335253Y-61803496D01*
X175150833Y-61765639D01*
X174962572Y-61764325D01*
X174777641Y-61799603D01*
X174603084Y-61870128D01*
X174445550Y-61973216D01*
X174311039Y-62104938D01*
X174204675Y-62260279D01*
X174130509Y-62433320D01*
X174091367Y-62617472D01*
X174090712Y-62664347D01*
X174087572Y-62664325D01*
X173902641Y-62699603D01*
X173728084Y-62770128D01*
X173570550Y-62873216D01*
X173436039Y-63004938D01*
X173329675Y-63160279D01*
X173255509Y-63333320D01*
X173216367Y-63517472D01*
X173213738Y-63705719D01*
X171390137Y-63705719D01*
X171383809Y-63701451D01*
X171210253Y-63628496D01*
X171025833Y-63590639D01*
X170837572Y-63589325D01*
X170652641Y-63624603D01*
X170478084Y-63695128D01*
X170320550Y-63798216D01*
X170186039Y-63929938D01*
X170079675Y-64085279D01*
X170005509Y-64258320D01*
X169966367Y-64442472D01*
X169963738Y-64630719D01*
X169310662Y-64630719D01*
X169314438Y-64614102D01*
X169317441Y-64399067D01*
X169280873Y-64214387D01*
X169209131Y-64040327D01*
X169104946Y-63883516D01*
X168972288Y-63749928D01*
X168816209Y-63644651D01*
X168642653Y-63571696D01*
X168458233Y-63533839D01*
X168269972Y-63532525D01*
X168085041Y-63567803D01*
X167910484Y-63638328D01*
X167752950Y-63741416D01*
X167618439Y-63873138D01*
X167512075Y-64028479D01*
X167437909Y-64201520D01*
X167398767Y-64385672D01*
X167396138Y-64573919D01*
X165427820Y-64573919D01*
X165431129Y-64566489D01*
X165472838Y-64382902D01*
X165475841Y-64167867D01*
X165439273Y-63983187D01*
X165367531Y-63809127D01*
X165263346Y-63652316D01*
X165130688Y-63518728D01*
X164974609Y-63413451D01*
X164801053Y-63340496D01*
X164616633Y-63302639D01*
X164603142Y-63302545D01*
X164624529Y-63254509D01*
X164666238Y-63070922D01*
X164669241Y-62855887D01*
X164632673Y-62671207D01*
X164560931Y-62497147D01*
X164466967Y-62355719D01*
X164588738Y-62355719D01*
X164622724Y-62540892D01*
X164692029Y-62715937D01*
X164794014Y-62874187D01*
X164924794Y-63009614D01*
X165079389Y-63117060D01*
X165251908Y-63192432D01*
X165435782Y-63232859D01*
X165624007Y-63236802D01*
X165809412Y-63204110D01*
X165984937Y-63136028D01*
X166143895Y-63035151D01*
X166280231Y-62905319D01*
X166388754Y-62751479D01*
X166465329Y-62579489D01*
X166507038Y-62395902D01*
X166510041Y-62180867D01*
X166473473Y-61996187D01*
X166401731Y-61822127D01*
X166297546Y-61665316D01*
X166164888Y-61531728D01*
X166008809Y-61426451D01*
X165835253Y-61353496D01*
X165650833Y-61315639D01*
X165462572Y-61314325D01*
X165277641Y-61349603D01*
X165103084Y-61420128D01*
X164945550Y-61523216D01*
X164811039Y-61654938D01*
X164704675Y-61810279D01*
X164630509Y-61983320D01*
X164591367Y-62167472D01*
X164588738Y-62355719D01*
X164466967Y-62355719D01*
X164456746Y-62340336D01*
X164324088Y-62206748D01*
X164168009Y-62101471D01*
X163994453Y-62028516D01*
X163810033Y-61990659D01*
X163621772Y-61989345D01*
X163436841Y-62024623D01*
X163262284Y-62095148D01*
X163104750Y-62198236D01*
X162970239Y-62329958D01*
X162863875Y-62485299D01*
X162789709Y-62658340D01*
X162750567Y-62842492D01*
X162747938Y-63030739D01*
X161728753Y-63030739D01*
X161614495Y-62858767D01*
X161447773Y-62690878D01*
X161251617Y-62558569D01*
X161033498Y-62466880D01*
X160801724Y-62419303D01*
X160565123Y-62417651D01*
X160332707Y-62461987D01*
X160113329Y-62550622D01*
X159915344Y-62680179D01*
X159746295Y-62845724D01*
X159728328Y-62871964D01*
X159698473Y-62721187D01*
X159626731Y-62547127D01*
X159522546Y-62390316D01*
X159389888Y-62256728D01*
X159233809Y-62151451D01*
X159060253Y-62078496D01*
X158875833Y-62040639D01*
X158687572Y-62039325D01*
X158502641Y-62074603D01*
X158328084Y-62145128D01*
X158170550Y-62248216D01*
X158036039Y-62379938D01*
X157929675Y-62535279D01*
X157855509Y-62708320D01*
X157816367Y-62892472D01*
X157813738Y-63080719D01*
X150561484Y-63080719D01*
X150593895Y-63060151D01*
X150730231Y-62930319D01*
X150838754Y-62776479D01*
X150915329Y-62604489D01*
X150957038Y-62420902D01*
X150960041Y-62205867D01*
X150923473Y-62021187D01*
X150851731Y-61847127D01*
X150747546Y-61690316D01*
X150614888Y-61556728D01*
X150458809Y-61451451D01*
X150285253Y-61378496D01*
X150100833Y-61340639D01*
X149912572Y-61339325D01*
X149727641Y-61374603D01*
X149553084Y-61445128D01*
X149395550Y-61548216D01*
X149261039Y-61679938D01*
X149154675Y-61835279D01*
X149080509Y-62008320D01*
X149041367Y-62192472D01*
X149038738Y-62380719D01*
X142709407Y-62380719D01*
X142740969Y-62278762D01*
X142774323Y-61961414D01*
X142745403Y-61643632D01*
X142655309Y-61337518D01*
X142651755Y-61330719D01*
X145913738Y-61330719D01*
X145947724Y-61515892D01*
X146017029Y-61690937D01*
X146119014Y-61849187D01*
X146249794Y-61984614D01*
X146404389Y-62092060D01*
X146576908Y-62167432D01*
X146760782Y-62207859D01*
X146949007Y-62211802D01*
X147134412Y-62179110D01*
X147309937Y-62111028D01*
X147468895Y-62010151D01*
X147605231Y-61880319D01*
X147713754Y-61726479D01*
X147790329Y-61554489D01*
X147832038Y-61370902D01*
X147835041Y-61155867D01*
X147798473Y-60971187D01*
X147726731Y-60797127D01*
X147622546Y-60640316D01*
X147513712Y-60530719D01*
X152813738Y-60530719D01*
X152847724Y-60715892D01*
X152917029Y-60890937D01*
X153019014Y-61049187D01*
X153149794Y-61184614D01*
X153304389Y-61292060D01*
X153476908Y-61367432D01*
X153660782Y-61407859D01*
X153849007Y-61411802D01*
X154034412Y-61379110D01*
X154209937Y-61311028D01*
X154368895Y-61210151D01*
X154505231Y-61080319D01*
X154613754Y-60926479D01*
X154690329Y-60754489D01*
X154732038Y-60570902D01*
X154735041Y-60355867D01*
X154698473Y-60171187D01*
X154626731Y-59997127D01*
X154522546Y-59840316D01*
X154389888Y-59706728D01*
X154233809Y-59601451D01*
X154060253Y-59528496D01*
X153875833Y-59490639D01*
X153687572Y-59489325D01*
X153502641Y-59524603D01*
X153328084Y-59595128D01*
X153170550Y-59698216D01*
X153036039Y-59829938D01*
X152929675Y-59985279D01*
X152855509Y-60158320D01*
X152816367Y-60342472D01*
X152813738Y-60530719D01*
X147513712Y-60530719D01*
X147489888Y-60506728D01*
X147333809Y-60401451D01*
X147160253Y-60328496D01*
X146975833Y-60290639D01*
X146787572Y-60289325D01*
X146602641Y-60324603D01*
X146428084Y-60395128D01*
X146270550Y-60498216D01*
X146136039Y-60629938D01*
X146029675Y-60785279D01*
X145955509Y-60958320D01*
X145916367Y-61142472D01*
X145913738Y-61330719D01*
X142651755Y-61330719D01*
X142507473Y-61054734D01*
X142307526Y-60806050D01*
X142063084Y-60600939D01*
X141783458Y-60447214D01*
X141479299Y-60350729D01*
X141162191Y-60315159D01*
X141139363Y-60315000D01*
X140520637Y-60315000D01*
X140203064Y-60346138D01*
X139897587Y-60438367D01*
X139615842Y-60588174D01*
X139368560Y-60789852D01*
X139165161Y-61035720D01*
X139013391Y-61316412D01*
X138919031Y-61621238D01*
X138885677Y-61938586D01*
X138352000Y-61938586D01*
X138352000Y-59012227D01*
X138767072Y-59300710D01*
X139402339Y-59578252D01*
X140079417Y-59727117D01*
X140772514Y-59741635D01*
X141455231Y-59621254D01*
X142101564Y-59370558D01*
X142686894Y-58999096D01*
X142863629Y-58830793D01*
X142904626Y-59054166D01*
X142991727Y-59274157D01*
X143119899Y-59473041D01*
X143284260Y-59643242D01*
X143478549Y-59778277D01*
X143695367Y-59873002D01*
X143926454Y-59923810D01*
X144163009Y-59928765D01*
X144396022Y-59887679D01*
X144616616Y-59802116D01*
X144816390Y-59675335D01*
X144987734Y-59512167D01*
X145124122Y-59318824D01*
X145220358Y-59102673D01*
X145272778Y-58871946D01*
X145276552Y-58601697D01*
X145230595Y-58369596D01*
X145140431Y-58150842D01*
X145009495Y-57953767D01*
X144842773Y-57785878D01*
X144646617Y-57653569D01*
X144428498Y-57561880D01*
X144196724Y-57514303D01*
X143960123Y-57512651D01*
X143769046Y-57549101D01*
X143870506Y-57321218D01*
X143985462Y-56815237D01*
X145530000Y-56815237D01*
X145530000Y-57433963D01*
X145561138Y-57751536D01*
X145653367Y-58057013D01*
X145803174Y-58338758D01*
X146004852Y-58586040D01*
X146250720Y-58789439D01*
X146531412Y-58941209D01*
X146836238Y-59035569D01*
X147153586Y-59068923D01*
X147471368Y-59040003D01*
X147777482Y-58949909D01*
X148060266Y-58802073D01*
X148308950Y-58602126D01*
X148435231Y-58451631D01*
X148544852Y-58586040D01*
X148790720Y-58789439D01*
X149071412Y-58941209D01*
X149376238Y-59035569D01*
X149693586Y-59068923D01*
X150011368Y-59040003D01*
X150317482Y-58949909D01*
X150600266Y-58802073D01*
X150848950Y-58602126D01*
X150975231Y-58451631D01*
X151084852Y-58586040D01*
X151330720Y-58789439D01*
X151611412Y-58941209D01*
X151916238Y-59035569D01*
X152233586Y-59068923D01*
X152551368Y-59040003D01*
X152857482Y-58949909D01*
X153140266Y-58802073D01*
X153388950Y-58602126D01*
X153515231Y-58451631D01*
X153624852Y-58586040D01*
X153870720Y-58789439D01*
X154151412Y-58941209D01*
X154456238Y-59035569D01*
X154773586Y-59068923D01*
X155091368Y-59040003D01*
X155397482Y-58949909D01*
X155680266Y-58802073D01*
X155766945Y-58732381D01*
X155831763Y-58829389D01*
X155920211Y-58917837D01*
X156024215Y-58987330D01*
X156139777Y-59035197D01*
X156262458Y-59059600D01*
X157039250Y-59059600D01*
X157198000Y-58900850D01*
X157198000Y-57251600D01*
X157452000Y-57251600D01*
X157452000Y-58900850D01*
X157610750Y-59059600D01*
X158387542Y-59059600D01*
X158510223Y-59035197D01*
X158625785Y-58987330D01*
X158729789Y-58917837D01*
X158818237Y-58829389D01*
X158849420Y-58782719D01*
X159649138Y-58782719D01*
X159683124Y-58967892D01*
X159752429Y-59142937D01*
X159854414Y-59301187D01*
X159985194Y-59436614D01*
X160034334Y-59470767D01*
X159922239Y-59580538D01*
X159815875Y-59735879D01*
X159741709Y-59908920D01*
X159702567Y-60093072D01*
X159699938Y-60281319D01*
X159733924Y-60466492D01*
X159803229Y-60641537D01*
X159905214Y-60799787D01*
X160035994Y-60935214D01*
X160190589Y-61042660D01*
X160363108Y-61118032D01*
X160546982Y-61158459D01*
X160735207Y-61162402D01*
X160920612Y-61129710D01*
X161096137Y-61061628D01*
X161255095Y-60960751D01*
X161391431Y-60830919D01*
X161499954Y-60677079D01*
X161576529Y-60505089D01*
X161618238Y-60321502D01*
X161618807Y-60280719D01*
X176688738Y-60280719D01*
X176722724Y-60465892D01*
X176792029Y-60640937D01*
X176894014Y-60799187D01*
X177024794Y-60934614D01*
X177075554Y-60969893D01*
X177005509Y-61133320D01*
X176966367Y-61317472D01*
X176963738Y-61505719D01*
X176997724Y-61690892D01*
X177067029Y-61865937D01*
X177169014Y-62024187D01*
X177299794Y-62159614D01*
X177454389Y-62267060D01*
X177626908Y-62342432D01*
X177810782Y-62382859D01*
X177960782Y-62386001D01*
X177901711Y-62523825D01*
X177852517Y-62755262D01*
X177849214Y-62991846D01*
X177891926Y-63224566D01*
X177979027Y-63444557D01*
X178107199Y-63643441D01*
X178271560Y-63813642D01*
X178465849Y-63948677D01*
X178682667Y-64043402D01*
X178913754Y-64094210D01*
X179150309Y-64099165D01*
X179383322Y-64058079D01*
X179603916Y-63972516D01*
X179803690Y-63845735D01*
X179975034Y-63682567D01*
X180111422Y-63489224D01*
X180207658Y-63273073D01*
X180260078Y-63042346D01*
X180263852Y-62772097D01*
X180217895Y-62539996D01*
X180127731Y-62321242D01*
X179996795Y-62124167D01*
X179830073Y-61956278D01*
X179633917Y-61823969D01*
X179432306Y-61739219D01*
X186998738Y-61739219D01*
X187032724Y-61924392D01*
X187078535Y-62040099D01*
X187040509Y-62128820D01*
X187001367Y-62312972D01*
X186998738Y-62501219D01*
X187032724Y-62686392D01*
X187078535Y-62802099D01*
X187040509Y-62890820D01*
X187001367Y-63074972D01*
X186998738Y-63263219D01*
X187032724Y-63448392D01*
X187102029Y-63623437D01*
X187204014Y-63781687D01*
X187334794Y-63917114D01*
X187489389Y-64024560D01*
X187661908Y-64099932D01*
X187845782Y-64140359D01*
X188034007Y-64144302D01*
X188219412Y-64111610D01*
X188394937Y-64043528D01*
X188553895Y-63942651D01*
X188690231Y-63812819D01*
X188798754Y-63658979D01*
X188875329Y-63486989D01*
X188917038Y-63303402D01*
X188920041Y-63088367D01*
X188894344Y-62958586D01*
X191655677Y-62958586D01*
X191684597Y-63276368D01*
X191774691Y-63582482D01*
X191922527Y-63865266D01*
X192122474Y-64113950D01*
X192272969Y-64240231D01*
X192138560Y-64349852D01*
X191935161Y-64595720D01*
X191783391Y-64876412D01*
X191689031Y-65181238D01*
X191655677Y-65498586D01*
X191684597Y-65816368D01*
X191774691Y-66122482D01*
X191922527Y-66405266D01*
X192122474Y-66653950D01*
X192272969Y-66780231D01*
X192138560Y-66889852D01*
X191935161Y-67135720D01*
X191783391Y-67416412D01*
X191689031Y-67721238D01*
X191655677Y-68038586D01*
X191684597Y-68356368D01*
X191774691Y-68662482D01*
X191922527Y-68945266D01*
X191992219Y-69031945D01*
X191895211Y-69096763D01*
X191806763Y-69185211D01*
X191737270Y-69289215D01*
X191689403Y-69404777D01*
X191665000Y-69527458D01*
X191665000Y-70304250D01*
X191823750Y-70463000D01*
X193473000Y-70463000D01*
X193473000Y-70443000D01*
X193727000Y-70443000D01*
X193727000Y-70463000D01*
X195376250Y-70463000D01*
X195535000Y-70304250D01*
X195535000Y-69527458D01*
X195510597Y-69404777D01*
X195462730Y-69289215D01*
X195393237Y-69185211D01*
X195304789Y-69096763D01*
X195208477Y-69032410D01*
X195264839Y-68964280D01*
X195416609Y-68683588D01*
X195510969Y-68378762D01*
X195544323Y-68061414D01*
X195515403Y-67743632D01*
X195425309Y-67437518D01*
X195277473Y-67154734D01*
X195077526Y-66906050D01*
X194927031Y-66779769D01*
X195061440Y-66670148D01*
X195264839Y-66424280D01*
X195416609Y-66143588D01*
X195510969Y-65838762D01*
X195544323Y-65521414D01*
X195515403Y-65203632D01*
X195425309Y-64897518D01*
X195277473Y-64614734D01*
X195077526Y-64366050D01*
X194927031Y-64239769D01*
X195061440Y-64130148D01*
X195264839Y-63884280D01*
X195416609Y-63603588D01*
X195510969Y-63298762D01*
X195544323Y-62981414D01*
X195515403Y-62663632D01*
X195425309Y-62357518D01*
X195277473Y-62074734D01*
X195077526Y-61826050D01*
X194833084Y-61620939D01*
X194553458Y-61467214D01*
X194249299Y-61370729D01*
X193932191Y-61335159D01*
X193909363Y-61335000D01*
X193290637Y-61335000D01*
X192973064Y-61366138D01*
X192667587Y-61458367D01*
X192385842Y-61608174D01*
X192138560Y-61809852D01*
X191935161Y-62055720D01*
X191783391Y-62336412D01*
X191689031Y-62641238D01*
X191655677Y-62958586D01*
X188894344Y-62958586D01*
X188883473Y-62903687D01*
X188841311Y-62801394D01*
X188875329Y-62724989D01*
X188917038Y-62541402D01*
X188920041Y-62326367D01*
X188883473Y-62141687D01*
X188841311Y-62039394D01*
X188875329Y-61962989D01*
X188917038Y-61779402D01*
X188920041Y-61564367D01*
X188883473Y-61379687D01*
X188811731Y-61205627D01*
X188707546Y-61048816D01*
X188574888Y-60915228D01*
X188418809Y-60809951D01*
X188245253Y-60736996D01*
X188060833Y-60699139D01*
X187872572Y-60697825D01*
X187687641Y-60733103D01*
X187513084Y-60803628D01*
X187355550Y-60906716D01*
X187221039Y-61038438D01*
X187114675Y-61193779D01*
X187040509Y-61366820D01*
X187001367Y-61550972D01*
X186998738Y-61739219D01*
X179432306Y-61739219D01*
X179415798Y-61732280D01*
X179184024Y-61684703D01*
X178947423Y-61683051D01*
X178846506Y-61702302D01*
X178882038Y-61545902D01*
X178885041Y-61330867D01*
X178848473Y-61146187D01*
X178776731Y-60972127D01*
X178672546Y-60815316D01*
X178539888Y-60681728D01*
X178498766Y-60653991D01*
X178565329Y-60504489D01*
X178607038Y-60320902D01*
X178610041Y-60105867D01*
X178573473Y-59921187D01*
X178501731Y-59747127D01*
X178397546Y-59590316D01*
X178291002Y-59483025D01*
X178323895Y-59462151D01*
X178460231Y-59332319D01*
X178568754Y-59178479D01*
X178645329Y-59006489D01*
X178687038Y-58822902D01*
X178690041Y-58607867D01*
X178653473Y-58423187D01*
X178581731Y-58249127D01*
X178477546Y-58092316D01*
X178344888Y-57958728D01*
X178188809Y-57853451D01*
X178015253Y-57780496D01*
X177830833Y-57742639D01*
X177642572Y-57741325D01*
X177457641Y-57776603D01*
X177283084Y-57847128D01*
X177125550Y-57950216D01*
X176991039Y-58081938D01*
X176884675Y-58237279D01*
X176810509Y-58410320D01*
X176771367Y-58594472D01*
X176768738Y-58782719D01*
X176802724Y-58967892D01*
X176872029Y-59142937D01*
X176974014Y-59301187D01*
X177088718Y-59419967D01*
X177045550Y-59448216D01*
X176911039Y-59579938D01*
X176804675Y-59735279D01*
X176730509Y-59908320D01*
X176691367Y-60092472D01*
X176688738Y-60280719D01*
X161618807Y-60280719D01*
X161621241Y-60106467D01*
X161584673Y-59921787D01*
X161512931Y-59747727D01*
X161408746Y-59590916D01*
X161276088Y-59457328D01*
X161237027Y-59430981D01*
X161340631Y-59332319D01*
X161449154Y-59178479D01*
X161525729Y-59006489D01*
X161567438Y-58822902D01*
X161570441Y-58607867D01*
X161533873Y-58423187D01*
X161462131Y-58249127D01*
X161357946Y-58092316D01*
X161225288Y-57958728D01*
X161069209Y-57853451D01*
X160895653Y-57780496D01*
X160711233Y-57742639D01*
X160522972Y-57741325D01*
X160338041Y-57776603D01*
X160163484Y-57847128D01*
X160005950Y-57950216D01*
X159871439Y-58081938D01*
X159765075Y-58237279D01*
X159690909Y-58410320D01*
X159651767Y-58594472D01*
X159649138Y-58782719D01*
X158849420Y-58782719D01*
X158887730Y-58725385D01*
X158935597Y-58609823D01*
X158960000Y-58487142D01*
X158960000Y-57410350D01*
X158801250Y-57251600D01*
X157452000Y-57251600D01*
X157198000Y-57251600D01*
X157178000Y-57251600D01*
X157178000Y-56997600D01*
X157198000Y-56997600D01*
X157198000Y-55348350D01*
X157452000Y-55348350D01*
X157452000Y-56997600D01*
X158801250Y-56997600D01*
X158960000Y-56838850D01*
X158960000Y-55762058D01*
X158935597Y-55639377D01*
X158887730Y-55523815D01*
X158818237Y-55419811D01*
X158729789Y-55331363D01*
X158625785Y-55261870D01*
X158523364Y-55219446D01*
X160767714Y-55219446D01*
X160810426Y-55452166D01*
X160897527Y-55672157D01*
X161025699Y-55871041D01*
X161190060Y-56041242D01*
X161384349Y-56176277D01*
X161601167Y-56271002D01*
X161832254Y-56321810D01*
X162068809Y-56326765D01*
X162301822Y-56285679D01*
X162522416Y-56200116D01*
X162671884Y-56105260D01*
X162671738Y-56115719D01*
X162705724Y-56300892D01*
X162775029Y-56475937D01*
X162877014Y-56634187D01*
X163007794Y-56769614D01*
X163162389Y-56877060D01*
X163334908Y-56952432D01*
X163518782Y-56992859D01*
X163707007Y-56996802D01*
X163892412Y-56964110D01*
X164067937Y-56896028D01*
X164210242Y-56805719D01*
X164588738Y-56805719D01*
X164622724Y-56990892D01*
X164692029Y-57165937D01*
X164794014Y-57324187D01*
X164924794Y-57459614D01*
X165079389Y-57567060D01*
X165251908Y-57642432D01*
X165435782Y-57682859D01*
X165624007Y-57686802D01*
X165809412Y-57654110D01*
X165984937Y-57586028D01*
X166143895Y-57485151D01*
X166280231Y-57355319D01*
X166388754Y-57201479D01*
X166465329Y-57029489D01*
X166507038Y-56845902D01*
X166510041Y-56630867D01*
X166473473Y-56446187D01*
X166401731Y-56272127D01*
X166297546Y-56115316D01*
X166164888Y-55981728D01*
X166008809Y-55876451D01*
X165835253Y-55803496D01*
X165650833Y-55765639D01*
X165462572Y-55764325D01*
X165277641Y-55799603D01*
X165103084Y-55870128D01*
X164945550Y-55973216D01*
X164811039Y-56104938D01*
X164704675Y-56260279D01*
X164630509Y-56433320D01*
X164591367Y-56617472D01*
X164588738Y-56805719D01*
X164210242Y-56805719D01*
X164226895Y-56795151D01*
X164363231Y-56665319D01*
X164471754Y-56511479D01*
X164548329Y-56339489D01*
X164590038Y-56155902D01*
X164593041Y-55940867D01*
X164556473Y-55756187D01*
X164484731Y-55582127D01*
X164480957Y-55576446D01*
X167791914Y-55576446D01*
X167834626Y-55809166D01*
X167921727Y-56029157D01*
X168049899Y-56228041D01*
X168214260Y-56398242D01*
X168408549Y-56533277D01*
X168625367Y-56628002D01*
X168856454Y-56678810D01*
X169093009Y-56683765D01*
X169326022Y-56642679D01*
X169546616Y-56557116D01*
X169746390Y-56430335D01*
X169917734Y-56267167D01*
X170042486Y-56090319D01*
X173339738Y-56090319D01*
X173373724Y-56275492D01*
X173443029Y-56450537D01*
X173545014Y-56608787D01*
X173675794Y-56744214D01*
X173830389Y-56851660D01*
X174002908Y-56927032D01*
X174186782Y-56967459D01*
X174375007Y-56971402D01*
X174560412Y-56938710D01*
X174735937Y-56870628D01*
X174894895Y-56769751D01*
X175031231Y-56639919D01*
X175139754Y-56486079D01*
X175216329Y-56314089D01*
X175258038Y-56130502D01*
X175261041Y-55915467D01*
X175224473Y-55730787D01*
X175152731Y-55556727D01*
X175048546Y-55399916D01*
X175020672Y-55371846D01*
X175448914Y-55371846D01*
X175491626Y-55604566D01*
X175578727Y-55824557D01*
X175706899Y-56023441D01*
X175871260Y-56193642D01*
X176065549Y-56328677D01*
X176282367Y-56423402D01*
X176513454Y-56474210D01*
X176750009Y-56479165D01*
X176983022Y-56438079D01*
X177203616Y-56352516D01*
X177403390Y-56225735D01*
X177574734Y-56062567D01*
X177711122Y-55869224D01*
X177807358Y-55653073D01*
X177859778Y-55422346D01*
X177863552Y-55152097D01*
X177817595Y-54919996D01*
X177727431Y-54701242D01*
X177596495Y-54504167D01*
X177429773Y-54336278D01*
X177233617Y-54203969D01*
X177015498Y-54112280D01*
X176783724Y-54064703D01*
X176547123Y-54063051D01*
X176314707Y-54107387D01*
X176095329Y-54196022D01*
X175897344Y-54325579D01*
X175728295Y-54491124D01*
X175594620Y-54686352D01*
X175501411Y-54903825D01*
X175452217Y-55135262D01*
X175448914Y-55371846D01*
X175020672Y-55371846D01*
X174915888Y-55266328D01*
X174759809Y-55161051D01*
X174586253Y-55088096D01*
X174401833Y-55050239D01*
X174213572Y-55048925D01*
X174028641Y-55084203D01*
X173854084Y-55154728D01*
X173696550Y-55257816D01*
X173562039Y-55389538D01*
X173455675Y-55544879D01*
X173381509Y-55717920D01*
X173342367Y-55902072D01*
X173339738Y-56090319D01*
X170042486Y-56090319D01*
X170054122Y-56073824D01*
X170150358Y-55857673D01*
X170202778Y-55626946D01*
X170206552Y-55356697D01*
X170160595Y-55124596D01*
X170070431Y-54905842D01*
X169939495Y-54708767D01*
X169772773Y-54540878D01*
X169576617Y-54408569D01*
X169358498Y-54316880D01*
X169126724Y-54269303D01*
X168890123Y-54267651D01*
X168657707Y-54311987D01*
X168438329Y-54400622D01*
X168240344Y-54530179D01*
X168071295Y-54695724D01*
X167937620Y-54890952D01*
X167844411Y-55108425D01*
X167795217Y-55339862D01*
X167791914Y-55576446D01*
X164480957Y-55576446D01*
X164380546Y-55425316D01*
X164247888Y-55291728D01*
X164091809Y-55186451D01*
X163918253Y-55113496D01*
X163733833Y-55075639D01*
X163545572Y-55074325D01*
X163360641Y-55109603D01*
X163186084Y-55180128D01*
X163179775Y-55184257D01*
X163182352Y-54999697D01*
X163136395Y-54767596D01*
X163046231Y-54548842D01*
X162915295Y-54351767D01*
X162748573Y-54183878D01*
X162552417Y-54051569D01*
X162334298Y-53959880D01*
X162102524Y-53912303D01*
X161865923Y-53910651D01*
X161633507Y-53954987D01*
X161414129Y-54043622D01*
X161216144Y-54173179D01*
X161047095Y-54338724D01*
X160913420Y-54533952D01*
X160820211Y-54751425D01*
X160771017Y-54982862D01*
X160767714Y-55219446D01*
X158523364Y-55219446D01*
X158510223Y-55214003D01*
X158387542Y-55189600D01*
X157610750Y-55189600D01*
X157452000Y-55348350D01*
X157198000Y-55348350D01*
X157039250Y-55189600D01*
X156262458Y-55189600D01*
X156139777Y-55214003D01*
X156024215Y-55261870D01*
X155920211Y-55331363D01*
X155831763Y-55419811D01*
X155767410Y-55516123D01*
X155699280Y-55459761D01*
X155418588Y-55307991D01*
X155113762Y-55213631D01*
X154796414Y-55180277D01*
X154478632Y-55209197D01*
X154172518Y-55299291D01*
X153889734Y-55447127D01*
X153641050Y-55647074D01*
X153514769Y-55797569D01*
X153405148Y-55663160D01*
X153159280Y-55459761D01*
X152878588Y-55307991D01*
X152573762Y-55213631D01*
X152256414Y-55180277D01*
X151938632Y-55209197D01*
X151632518Y-55299291D01*
X151349734Y-55447127D01*
X151101050Y-55647074D01*
X150974769Y-55797569D01*
X150865148Y-55663160D01*
X150619280Y-55459761D01*
X150338588Y-55307991D01*
X150033762Y-55213631D01*
X149716414Y-55180277D01*
X149398632Y-55209197D01*
X149092518Y-55299291D01*
X148809734Y-55447127D01*
X148561050Y-55647074D01*
X148434769Y-55797569D01*
X148325148Y-55663160D01*
X148079280Y-55459761D01*
X147798588Y-55307991D01*
X147493762Y-55213631D01*
X147176414Y-55180277D01*
X146858632Y-55209197D01*
X146552518Y-55299291D01*
X146269734Y-55447127D01*
X146021050Y-55647074D01*
X145815939Y-55891516D01*
X145662214Y-56171142D01*
X145565729Y-56475301D01*
X145530159Y-56792409D01*
X145530000Y-56815237D01*
X143985462Y-56815237D01*
X144024095Y-56645197D01*
X144035151Y-55853375D01*
X143900498Y-55173329D01*
X143636322Y-54532388D01*
X143252683Y-53954966D01*
X142934943Y-53635000D01*
X193396645Y-53635000D01*
X193108930Y-53916752D01*
M02*
